%TF.GenerationSoftware,KiCad,Pcbnew,5.1.6-c6e7f7d~86~ubuntu16.04.1*%
%TF.CreationDate,2020-07-04T05:21:27+01:00*%
%TF.ProjectId,g850-pic-prog,67383530-2d70-4696-932d-70726f672e6b,rev?*%
%TF.SameCoordinates,Original*%
%TF.FileFunction,Legend,Top*%
%TF.FilePolarity,Positive*%
%FSLAX46Y46*%
G04 Gerber Fmt 4.6, Leading zero omitted, Abs format (unit mm)*
G04 Created by KiCad (PCBNEW 5.1.6-c6e7f7d~86~ubuntu16.04.1) date 2020-07-04 05:21:27*
%MOMM*%
%LPD*%
G01*
G04 APERTURE LIST*
%ADD10C,0.304800*%
%ADD11C,0.120000*%
%ADD12C,0.203200*%
%ADD13C,0.150000*%
G04 APERTURE END LIST*
D10*
%TO.C,Q2*%
X179832000Y-85090000D02*
X179832000Y-83058000D01*
X179832000Y-85090000D02*
X182118000Y-87376000D01*
X179832000Y-83058000D02*
X182118000Y-80772000D01*
X184404000Y-87376000D02*
X182118000Y-87376000D01*
X184912000Y-86868000D02*
X184404000Y-87376000D01*
X184912000Y-81280000D02*
X184912000Y-86868000D01*
X184404000Y-80772000D02*
X184912000Y-81280000D01*
X182118000Y-80772000D02*
X184404000Y-80772000D01*
D11*
%TO.C,U2*%
X116824000Y-74870000D02*
G75*
G02*
X114824000Y-74870000I-1000000J0D01*
G01*
X114824000Y-74870000D02*
X113174000Y-74870000D01*
X113174000Y-74870000D02*
X113174000Y-97850000D01*
X113174000Y-97850000D02*
X118474000Y-97850000D01*
X118474000Y-97850000D02*
X118474000Y-74870000D01*
X118474000Y-74870000D02*
X116824000Y-74870000D01*
%TO.C,U1*%
X148574000Y-79696000D02*
G75*
G02*
X146574000Y-79696000I-1000000J0D01*
G01*
X146574000Y-79696000D02*
X144924000Y-79696000D01*
X144924000Y-79696000D02*
X144924000Y-97596000D01*
X144924000Y-97596000D02*
X150224000Y-97596000D01*
X150224000Y-97596000D02*
X150224000Y-79696000D01*
X150224000Y-79696000D02*
X148574000Y-79696000D01*
%TO.C,TP2*%
X99290000Y-89408000D02*
G75*
G03*
X99290000Y-89408000I-1500000J0D01*
G01*
%TO.C,TP1*%
X165076000Y-94996000D02*
G75*
G03*
X165076000Y-94996000I-1500000J0D01*
G01*
%TO.C,R13*%
X187484000Y-79478000D02*
X187484000Y-79148000D01*
X187484000Y-79148000D02*
X194024000Y-79148000D01*
X194024000Y-79148000D02*
X194024000Y-79478000D01*
X187484000Y-81558000D02*
X187484000Y-81888000D01*
X187484000Y-81888000D02*
X194024000Y-81888000D01*
X194024000Y-81888000D02*
X194024000Y-81558000D01*
%TO.C,R12*%
X187484000Y-89638000D02*
X187484000Y-89308000D01*
X187484000Y-89308000D02*
X194024000Y-89308000D01*
X194024000Y-89308000D02*
X194024000Y-89638000D01*
X187484000Y-91718000D02*
X187484000Y-92048000D01*
X187484000Y-92048000D02*
X194024000Y-92048000D01*
X194024000Y-92048000D02*
X194024000Y-91718000D01*
%TO.C,R11*%
X160882000Y-78574000D02*
X160882000Y-78244000D01*
X160882000Y-78244000D02*
X167422000Y-78244000D01*
X167422000Y-78244000D02*
X167422000Y-78574000D01*
X160882000Y-80654000D02*
X160882000Y-80984000D01*
X160882000Y-80984000D02*
X167422000Y-80984000D01*
X167422000Y-80984000D02*
X167422000Y-80654000D01*
%TO.C,R10*%
X156440000Y-96996000D02*
X156110000Y-96996000D01*
X156110000Y-96996000D02*
X156110000Y-90456000D01*
X156110000Y-90456000D02*
X156440000Y-90456000D01*
X158520000Y-96996000D02*
X158850000Y-96996000D01*
X158850000Y-96996000D02*
X158850000Y-90456000D01*
X158850000Y-90456000D02*
X158520000Y-90456000D01*
%TO.C,R9*%
X187484000Y-87098000D02*
X187484000Y-86768000D01*
X187484000Y-86768000D02*
X194024000Y-86768000D01*
X194024000Y-86768000D02*
X194024000Y-87098000D01*
X187484000Y-89178000D02*
X187484000Y-89508000D01*
X187484000Y-89508000D02*
X194024000Y-89508000D01*
X194024000Y-89508000D02*
X194024000Y-89178000D01*
%TO.C,R8*%
X187484000Y-84558000D02*
X187484000Y-84228000D01*
X187484000Y-84228000D02*
X194024000Y-84228000D01*
X194024000Y-84228000D02*
X194024000Y-84558000D01*
X187484000Y-86638000D02*
X187484000Y-86968000D01*
X187484000Y-86968000D02*
X194024000Y-86968000D01*
X194024000Y-86968000D02*
X194024000Y-86638000D01*
%TO.C,R7*%
X160882000Y-74524000D02*
X160882000Y-74194000D01*
X160882000Y-74194000D02*
X167422000Y-74194000D01*
X167422000Y-74194000D02*
X167422000Y-74524000D01*
X160882000Y-76604000D02*
X160882000Y-76934000D01*
X160882000Y-76934000D02*
X167422000Y-76934000D01*
X167422000Y-76934000D02*
X167422000Y-76604000D01*
%TO.C,R6*%
X187484000Y-82018000D02*
X187484000Y-81688000D01*
X187484000Y-81688000D02*
X194024000Y-81688000D01*
X194024000Y-81688000D02*
X194024000Y-82018000D01*
X187484000Y-84098000D02*
X187484000Y-84428000D01*
X187484000Y-84428000D02*
X194024000Y-84428000D01*
X194024000Y-84428000D02*
X194024000Y-84098000D01*
%TO.C,R5*%
X144304000Y-69318000D02*
X144304000Y-68988000D01*
X144304000Y-68988000D02*
X150844000Y-68988000D01*
X150844000Y-68988000D02*
X150844000Y-69318000D01*
X144304000Y-71398000D02*
X144304000Y-71728000D01*
X144304000Y-71728000D02*
X150844000Y-71728000D01*
X150844000Y-71728000D02*
X150844000Y-71398000D01*
%TO.C,R4*%
X137382000Y-96798000D02*
X137382000Y-97128000D01*
X137382000Y-97128000D02*
X130842000Y-97128000D01*
X130842000Y-97128000D02*
X130842000Y-96798000D01*
X137382000Y-94718000D02*
X137382000Y-94388000D01*
X137382000Y-94388000D02*
X130842000Y-94388000D01*
X130842000Y-94388000D02*
X130842000Y-94718000D01*
%TO.C,R3*%
X182848000Y-91718000D02*
X182848000Y-92048000D01*
X182848000Y-92048000D02*
X176308000Y-92048000D01*
X176308000Y-92048000D02*
X176308000Y-91718000D01*
X182848000Y-89638000D02*
X182848000Y-89308000D01*
X182848000Y-89308000D02*
X176308000Y-89308000D01*
X176308000Y-89308000D02*
X176308000Y-89638000D01*
%TO.C,R2*%
X104418000Y-75978000D02*
X104748000Y-75978000D01*
X104748000Y-75978000D02*
X104748000Y-82518000D01*
X104748000Y-82518000D02*
X104418000Y-82518000D01*
X102338000Y-75978000D02*
X102008000Y-75978000D01*
X102008000Y-75978000D02*
X102008000Y-82518000D01*
X102008000Y-82518000D02*
X102338000Y-82518000D01*
%TO.C,R1*%
X140232000Y-81820000D02*
X140562000Y-81820000D01*
X140562000Y-81820000D02*
X140562000Y-88360000D01*
X140562000Y-88360000D02*
X140232000Y-88360000D01*
X138152000Y-81820000D02*
X137822000Y-81820000D01*
X137822000Y-81820000D02*
X137822000Y-88360000D01*
X137822000Y-88360000D02*
X138152000Y-88360000D01*
D10*
%TO.C,Q3*%
X170434000Y-98044000D02*
X170434000Y-96012000D01*
X170434000Y-98044000D02*
X172720000Y-100330000D01*
X170434000Y-96012000D02*
X172720000Y-93726000D01*
X175006000Y-100330000D02*
X172720000Y-100330000D01*
X175514000Y-99822000D02*
X175006000Y-100330000D01*
X175514000Y-94234000D02*
X175514000Y-99822000D01*
X175006000Y-93726000D02*
X175514000Y-94234000D01*
X172720000Y-93726000D02*
X175006000Y-93726000D01*
%TO.C,Q1*%
X134874000Y-74168000D02*
X134874000Y-72136000D01*
X134874000Y-74168000D02*
X137160000Y-76454000D01*
X134874000Y-72136000D02*
X137160000Y-69850000D01*
X139446000Y-76454000D02*
X137160000Y-76454000D01*
X139954000Y-75946000D02*
X139446000Y-76454000D01*
X139954000Y-70358000D02*
X139954000Y-75946000D01*
X139446000Y-69850000D02*
X139954000Y-70358000D01*
X137160000Y-69850000D02*
X139446000Y-69850000D01*
D11*
%TO.C,J1*%
X202928000Y-71518000D02*
X196908000Y-71518000D01*
X196908000Y-71518000D02*
X196908000Y-99678000D01*
X196908000Y-99678000D02*
X202928000Y-99678000D01*
X202928000Y-99678000D02*
X202928000Y-71518000D01*
X201898000Y-71228000D02*
X197898000Y-71228000D01*
X196908000Y-72898000D02*
X197908000Y-72898000D01*
X197908000Y-72898000D02*
X197908000Y-77978000D01*
X197908000Y-77978000D02*
X196908000Y-77978000D01*
X197908000Y-72898000D02*
X198438000Y-73148000D01*
X198438000Y-73148000D02*
X198438000Y-77978000D01*
X198438000Y-77978000D02*
X197908000Y-77978000D01*
X196908000Y-73148000D02*
X197908000Y-73148000D01*
X196908000Y-98298000D02*
X197908000Y-98298000D01*
X197908000Y-98298000D02*
X197908000Y-93218000D01*
X197908000Y-93218000D02*
X196908000Y-93218000D01*
X197908000Y-98298000D02*
X198438000Y-98048000D01*
X198438000Y-98048000D02*
X198438000Y-93218000D01*
X198438000Y-93218000D02*
X197908000Y-93218000D01*
X196908000Y-98048000D02*
X197908000Y-98048000D01*
X202928000Y-72098000D02*
X202328000Y-72098000D01*
X202328000Y-72098000D02*
X202328000Y-73698000D01*
X202328000Y-73698000D02*
X202928000Y-73698000D01*
X202928000Y-74638000D02*
X202328000Y-74638000D01*
X202328000Y-74638000D02*
X202328000Y-76238000D01*
X202328000Y-76238000D02*
X202928000Y-76238000D01*
X202928000Y-77178000D02*
X202328000Y-77178000D01*
X202328000Y-77178000D02*
X202328000Y-78778000D01*
X202328000Y-78778000D02*
X202928000Y-78778000D01*
X202928000Y-79718000D02*
X202328000Y-79718000D01*
X202328000Y-79718000D02*
X202328000Y-81318000D01*
X202328000Y-81318000D02*
X202928000Y-81318000D01*
X202928000Y-82258000D02*
X202328000Y-82258000D01*
X202328000Y-82258000D02*
X202328000Y-83858000D01*
X202328000Y-83858000D02*
X202928000Y-83858000D01*
X202928000Y-84798000D02*
X202328000Y-84798000D01*
X202328000Y-84798000D02*
X202328000Y-86398000D01*
X202328000Y-86398000D02*
X202928000Y-86398000D01*
X202928000Y-87338000D02*
X202328000Y-87338000D01*
X202328000Y-87338000D02*
X202328000Y-88938000D01*
X202328000Y-88938000D02*
X202928000Y-88938000D01*
X202928000Y-89878000D02*
X202328000Y-89878000D01*
X202328000Y-89878000D02*
X202328000Y-91478000D01*
X202328000Y-91478000D02*
X202928000Y-91478000D01*
X202928000Y-92418000D02*
X202328000Y-92418000D01*
X202328000Y-92418000D02*
X202328000Y-94018000D01*
X202328000Y-94018000D02*
X202928000Y-94018000D01*
X202928000Y-94958000D02*
X202328000Y-94958000D01*
X202328000Y-94958000D02*
X202328000Y-96558000D01*
X202328000Y-96558000D02*
X202928000Y-96558000D01*
X202928000Y-97498000D02*
X202328000Y-97498000D01*
X202328000Y-97498000D02*
X202328000Y-99098000D01*
X202328000Y-99098000D02*
X202928000Y-99098000D01*
%TO.C,D5*%
X177488000Y-85597538D02*
G75*
G02*
X171938000Y-87142830I-2990000J-462D01*
G01*
X177488000Y-85598462D02*
G75*
G03*
X171938000Y-84053170I-2990000J462D01*
G01*
X176998000Y-85598000D02*
G75*
G03*
X176998000Y-85598000I-2500000J0D01*
G01*
X171938000Y-84053000D02*
X171938000Y-87143000D01*
%TO.C,D4*%
X104244000Y-91098000D02*
X102004000Y-91098000D01*
X102004000Y-91098000D02*
X102004000Y-95338000D01*
X102004000Y-95338000D02*
X104244000Y-95338000D01*
X104244000Y-95338000D02*
X104244000Y-91098000D01*
X103124000Y-90448000D02*
X103124000Y-91098000D01*
X103124000Y-95988000D02*
X103124000Y-95338000D01*
X104244000Y-91818000D02*
X102004000Y-91818000D01*
X104244000Y-91938000D02*
X102004000Y-91938000D01*
X104244000Y-91698000D02*
X102004000Y-91698000D01*
%TO.C,D3*%
X127166000Y-72286000D02*
X127166000Y-74526000D01*
X127166000Y-74526000D02*
X131406000Y-74526000D01*
X131406000Y-74526000D02*
X131406000Y-72286000D01*
X131406000Y-72286000D02*
X127166000Y-72286000D01*
X126516000Y-73406000D02*
X127166000Y-73406000D01*
X132056000Y-73406000D02*
X131406000Y-73406000D01*
X127886000Y-72286000D02*
X127886000Y-74526000D01*
X128006000Y-72286000D02*
X128006000Y-74526000D01*
X127766000Y-72286000D02*
X127766000Y-74526000D01*
%TO.C,D2*%
X128944000Y-76096000D02*
X128944000Y-78336000D01*
X128944000Y-78336000D02*
X133184000Y-78336000D01*
X133184000Y-78336000D02*
X133184000Y-76096000D01*
X133184000Y-76096000D02*
X128944000Y-76096000D01*
X128294000Y-77216000D02*
X128944000Y-77216000D01*
X133834000Y-77216000D02*
X133184000Y-77216000D01*
X129664000Y-76096000D02*
X129664000Y-78336000D01*
X129784000Y-76096000D02*
X129784000Y-78336000D01*
X129544000Y-76096000D02*
X129544000Y-78336000D01*
%TO.C,D1*%
X132184000Y-82970000D02*
X129944000Y-82970000D01*
X129944000Y-82970000D02*
X129944000Y-87210000D01*
X129944000Y-87210000D02*
X132184000Y-87210000D01*
X132184000Y-87210000D02*
X132184000Y-82970000D01*
X131064000Y-82320000D02*
X131064000Y-82970000D01*
X131064000Y-87860000D02*
X131064000Y-87210000D01*
X132184000Y-83690000D02*
X129944000Y-83690000D01*
X132184000Y-83810000D02*
X129944000Y-83810000D01*
X132184000Y-83570000D02*
X129944000Y-83570000D01*
%TO.C,C4*%
X100222000Y-76518000D02*
X96882000Y-76518000D01*
X96882000Y-76518000D02*
X96882000Y-81858000D01*
X96882000Y-81858000D02*
X100222000Y-81858000D01*
X100222000Y-81858000D02*
X100222000Y-76518000D01*
X98552000Y-76478000D02*
X98552000Y-76518000D01*
X98552000Y-81898000D02*
X98552000Y-81858000D01*
%TO.C,C3*%
X163742000Y-86944000D02*
X163742000Y-90284000D01*
X163742000Y-90284000D02*
X169082000Y-90284000D01*
X169082000Y-90284000D02*
X169082000Y-86944000D01*
X169082000Y-86944000D02*
X163742000Y-86944000D01*
X163702000Y-88614000D02*
X163742000Y-88614000D01*
X169122000Y-88614000D02*
X169082000Y-88614000D01*
%TO.C,C2*%
X144844000Y-73768000D02*
X144844000Y-77108000D01*
X144844000Y-77108000D02*
X150184000Y-77108000D01*
X150184000Y-77108000D02*
X150184000Y-73768000D01*
X150184000Y-73768000D02*
X144844000Y-73768000D01*
X144804000Y-75438000D02*
X144844000Y-75438000D01*
X150224000Y-75438000D02*
X150184000Y-75438000D01*
%TO.C,C1*%
X136798000Y-82360000D02*
X133458000Y-82360000D01*
X133458000Y-82360000D02*
X133458000Y-87700000D01*
X133458000Y-87700000D02*
X136798000Y-87700000D01*
X136798000Y-87700000D02*
X136798000Y-82360000D01*
X135128000Y-82320000D02*
X135128000Y-82360000D01*
X135128000Y-87740000D02*
X135128000Y-87700000D01*
%TO.C,Q2*%
D12*
X179735238Y-81836380D02*
X179638476Y-81788000D01*
X179541714Y-81691238D01*
X179396571Y-81546095D01*
X179299809Y-81497714D01*
X179203047Y-81497714D01*
X179251428Y-81739619D02*
X179154666Y-81691238D01*
X179057904Y-81594476D01*
X179009523Y-81400952D01*
X179009523Y-81062285D01*
X179057904Y-80868761D01*
X179154666Y-80772000D01*
X179251428Y-80723619D01*
X179444952Y-80723619D01*
X179541714Y-80772000D01*
X179638476Y-80868761D01*
X179686857Y-81062285D01*
X179686857Y-81400952D01*
X179638476Y-81594476D01*
X179541714Y-81691238D01*
X179444952Y-81739619D01*
X179251428Y-81739619D01*
X180073904Y-80820380D02*
X180122285Y-80772000D01*
X180219047Y-80723619D01*
X180460952Y-80723619D01*
X180557714Y-80772000D01*
X180606095Y-80820380D01*
X180654476Y-80917142D01*
X180654476Y-81013904D01*
X180606095Y-81159047D01*
X180025523Y-81739619D01*
X180654476Y-81739619D01*
%TO.C,U2*%
D13*
X115062095Y-73322380D02*
X115062095Y-74131904D01*
X115109714Y-74227142D01*
X115157333Y-74274761D01*
X115252571Y-74322380D01*
X115443047Y-74322380D01*
X115538285Y-74274761D01*
X115585904Y-74227142D01*
X115633523Y-74131904D01*
X115633523Y-73322380D01*
X116062095Y-73417619D02*
X116109714Y-73370000D01*
X116204952Y-73322380D01*
X116443047Y-73322380D01*
X116538285Y-73370000D01*
X116585904Y-73417619D01*
X116633523Y-73512857D01*
X116633523Y-73608095D01*
X116585904Y-73750952D01*
X116014476Y-74322380D01*
X116633523Y-74322380D01*
%TO.C,U1*%
X146812095Y-78148380D02*
X146812095Y-78957904D01*
X146859714Y-79053142D01*
X146907333Y-79100761D01*
X147002571Y-79148380D01*
X147193047Y-79148380D01*
X147288285Y-79100761D01*
X147335904Y-79053142D01*
X147383523Y-78957904D01*
X147383523Y-78148380D01*
X148383523Y-79148380D02*
X147812095Y-79148380D01*
X148097809Y-79148380D02*
X148097809Y-78148380D01*
X148002571Y-78291238D01*
X147907333Y-78386476D01*
X147812095Y-78434095D01*
%TO.C,TP2*%
X97228095Y-91360380D02*
X97799523Y-91360380D01*
X97513809Y-92360380D02*
X97513809Y-91360380D01*
X98132857Y-92360380D02*
X98132857Y-91360380D01*
X98513809Y-91360380D01*
X98609047Y-91408000D01*
X98656666Y-91455619D01*
X98704285Y-91550857D01*
X98704285Y-91693714D01*
X98656666Y-91788952D01*
X98609047Y-91836571D01*
X98513809Y-91884190D01*
X98132857Y-91884190D01*
X99085238Y-91455619D02*
X99132857Y-91408000D01*
X99228095Y-91360380D01*
X99466190Y-91360380D01*
X99561428Y-91408000D01*
X99609047Y-91455619D01*
X99656666Y-91550857D01*
X99656666Y-91646095D01*
X99609047Y-91788952D01*
X99037619Y-92360380D01*
X99656666Y-92360380D01*
%TO.C,TP1*%
X163014095Y-96948380D02*
X163585523Y-96948380D01*
X163299809Y-97948380D02*
X163299809Y-96948380D01*
X163918857Y-97948380D02*
X163918857Y-96948380D01*
X164299809Y-96948380D01*
X164395047Y-96996000D01*
X164442666Y-97043619D01*
X164490285Y-97138857D01*
X164490285Y-97281714D01*
X164442666Y-97376952D01*
X164395047Y-97424571D01*
X164299809Y-97472190D01*
X163918857Y-97472190D01*
X165442666Y-97948380D02*
X164871238Y-97948380D01*
X165156952Y-97948380D02*
X165156952Y-96948380D01*
X165061714Y-97091238D01*
X164966476Y-97186476D01*
X164871238Y-97234095D01*
%TO.C,R13*%
X190111142Y-78600380D02*
X189777809Y-78124190D01*
X189539714Y-78600380D02*
X189539714Y-77600380D01*
X189920666Y-77600380D01*
X190015904Y-77648000D01*
X190063523Y-77695619D01*
X190111142Y-77790857D01*
X190111142Y-77933714D01*
X190063523Y-78028952D01*
X190015904Y-78076571D01*
X189920666Y-78124190D01*
X189539714Y-78124190D01*
X191063523Y-78600380D02*
X190492095Y-78600380D01*
X190777809Y-78600380D02*
X190777809Y-77600380D01*
X190682571Y-77743238D01*
X190587333Y-77838476D01*
X190492095Y-77886095D01*
X191396857Y-77600380D02*
X192015904Y-77600380D01*
X191682571Y-77981333D01*
X191825428Y-77981333D01*
X191920666Y-78028952D01*
X191968285Y-78076571D01*
X192015904Y-78171809D01*
X192015904Y-78409904D01*
X191968285Y-78505142D01*
X191920666Y-78552761D01*
X191825428Y-78600380D01*
X191539714Y-78600380D01*
X191444476Y-78552761D01*
X191396857Y-78505142D01*
%TO.C,R12*%
X190111142Y-88760380D02*
X189777809Y-88284190D01*
X189539714Y-88760380D02*
X189539714Y-87760380D01*
X189920666Y-87760380D01*
X190015904Y-87808000D01*
X190063523Y-87855619D01*
X190111142Y-87950857D01*
X190111142Y-88093714D01*
X190063523Y-88188952D01*
X190015904Y-88236571D01*
X189920666Y-88284190D01*
X189539714Y-88284190D01*
X191063523Y-88760380D02*
X190492095Y-88760380D01*
X190777809Y-88760380D02*
X190777809Y-87760380D01*
X190682571Y-87903238D01*
X190587333Y-87998476D01*
X190492095Y-88046095D01*
X191444476Y-87855619D02*
X191492095Y-87808000D01*
X191587333Y-87760380D01*
X191825428Y-87760380D01*
X191920666Y-87808000D01*
X191968285Y-87855619D01*
X192015904Y-87950857D01*
X192015904Y-88046095D01*
X191968285Y-88188952D01*
X191396857Y-88760380D01*
X192015904Y-88760380D01*
%TO.C,R11*%
X163509142Y-77696380D02*
X163175809Y-77220190D01*
X162937714Y-77696380D02*
X162937714Y-76696380D01*
X163318666Y-76696380D01*
X163413904Y-76744000D01*
X163461523Y-76791619D01*
X163509142Y-76886857D01*
X163509142Y-77029714D01*
X163461523Y-77124952D01*
X163413904Y-77172571D01*
X163318666Y-77220190D01*
X162937714Y-77220190D01*
X164461523Y-77696380D02*
X163890095Y-77696380D01*
X164175809Y-77696380D02*
X164175809Y-76696380D01*
X164080571Y-76839238D01*
X163985333Y-76934476D01*
X163890095Y-76982095D01*
X165413904Y-77696380D02*
X164842476Y-77696380D01*
X165128190Y-77696380D02*
X165128190Y-76696380D01*
X165032952Y-76839238D01*
X164937714Y-76934476D01*
X164842476Y-76982095D01*
%TO.C,R10*%
X155562380Y-94368857D02*
X155086190Y-94702190D01*
X155562380Y-94940285D02*
X154562380Y-94940285D01*
X154562380Y-94559333D01*
X154610000Y-94464095D01*
X154657619Y-94416476D01*
X154752857Y-94368857D01*
X154895714Y-94368857D01*
X154990952Y-94416476D01*
X155038571Y-94464095D01*
X155086190Y-94559333D01*
X155086190Y-94940285D01*
X155562380Y-93416476D02*
X155562380Y-93987904D01*
X155562380Y-93702190D02*
X154562380Y-93702190D01*
X154705238Y-93797428D01*
X154800476Y-93892666D01*
X154848095Y-93987904D01*
X154562380Y-92797428D02*
X154562380Y-92702190D01*
X154610000Y-92606952D01*
X154657619Y-92559333D01*
X154752857Y-92511714D01*
X154943333Y-92464095D01*
X155181428Y-92464095D01*
X155371904Y-92511714D01*
X155467142Y-92559333D01*
X155514761Y-92606952D01*
X155562380Y-92702190D01*
X155562380Y-92797428D01*
X155514761Y-92892666D01*
X155467142Y-92940285D01*
X155371904Y-92987904D01*
X155181428Y-93035523D01*
X154943333Y-93035523D01*
X154752857Y-92987904D01*
X154657619Y-92940285D01*
X154610000Y-92892666D01*
X154562380Y-92797428D01*
%TO.C,R9*%
X190587333Y-86220380D02*
X190254000Y-85744190D01*
X190015904Y-86220380D02*
X190015904Y-85220380D01*
X190396857Y-85220380D01*
X190492095Y-85268000D01*
X190539714Y-85315619D01*
X190587333Y-85410857D01*
X190587333Y-85553714D01*
X190539714Y-85648952D01*
X190492095Y-85696571D01*
X190396857Y-85744190D01*
X190015904Y-85744190D01*
X191063523Y-86220380D02*
X191254000Y-86220380D01*
X191349238Y-86172761D01*
X191396857Y-86125142D01*
X191492095Y-85982285D01*
X191539714Y-85791809D01*
X191539714Y-85410857D01*
X191492095Y-85315619D01*
X191444476Y-85268000D01*
X191349238Y-85220380D01*
X191158761Y-85220380D01*
X191063523Y-85268000D01*
X191015904Y-85315619D01*
X190968285Y-85410857D01*
X190968285Y-85648952D01*
X191015904Y-85744190D01*
X191063523Y-85791809D01*
X191158761Y-85839428D01*
X191349238Y-85839428D01*
X191444476Y-85791809D01*
X191492095Y-85744190D01*
X191539714Y-85648952D01*
%TO.C,R8*%
X190587333Y-83680380D02*
X190254000Y-83204190D01*
X190015904Y-83680380D02*
X190015904Y-82680380D01*
X190396857Y-82680380D01*
X190492095Y-82728000D01*
X190539714Y-82775619D01*
X190587333Y-82870857D01*
X190587333Y-83013714D01*
X190539714Y-83108952D01*
X190492095Y-83156571D01*
X190396857Y-83204190D01*
X190015904Y-83204190D01*
X191158761Y-83108952D02*
X191063523Y-83061333D01*
X191015904Y-83013714D01*
X190968285Y-82918476D01*
X190968285Y-82870857D01*
X191015904Y-82775619D01*
X191063523Y-82728000D01*
X191158761Y-82680380D01*
X191349238Y-82680380D01*
X191444476Y-82728000D01*
X191492095Y-82775619D01*
X191539714Y-82870857D01*
X191539714Y-82918476D01*
X191492095Y-83013714D01*
X191444476Y-83061333D01*
X191349238Y-83108952D01*
X191158761Y-83108952D01*
X191063523Y-83156571D01*
X191015904Y-83204190D01*
X190968285Y-83299428D01*
X190968285Y-83489904D01*
X191015904Y-83585142D01*
X191063523Y-83632761D01*
X191158761Y-83680380D01*
X191349238Y-83680380D01*
X191444476Y-83632761D01*
X191492095Y-83585142D01*
X191539714Y-83489904D01*
X191539714Y-83299428D01*
X191492095Y-83204190D01*
X191444476Y-83156571D01*
X191349238Y-83108952D01*
%TO.C,R7*%
X163985333Y-73646380D02*
X163652000Y-73170190D01*
X163413904Y-73646380D02*
X163413904Y-72646380D01*
X163794857Y-72646380D01*
X163890095Y-72694000D01*
X163937714Y-72741619D01*
X163985333Y-72836857D01*
X163985333Y-72979714D01*
X163937714Y-73074952D01*
X163890095Y-73122571D01*
X163794857Y-73170190D01*
X163413904Y-73170190D01*
X164318666Y-72646380D02*
X164985333Y-72646380D01*
X164556761Y-73646380D01*
%TO.C,R6*%
X190587333Y-81140380D02*
X190254000Y-80664190D01*
X190015904Y-81140380D02*
X190015904Y-80140380D01*
X190396857Y-80140380D01*
X190492095Y-80188000D01*
X190539714Y-80235619D01*
X190587333Y-80330857D01*
X190587333Y-80473714D01*
X190539714Y-80568952D01*
X190492095Y-80616571D01*
X190396857Y-80664190D01*
X190015904Y-80664190D01*
X191444476Y-80140380D02*
X191254000Y-80140380D01*
X191158761Y-80188000D01*
X191111142Y-80235619D01*
X191015904Y-80378476D01*
X190968285Y-80568952D01*
X190968285Y-80949904D01*
X191015904Y-81045142D01*
X191063523Y-81092761D01*
X191158761Y-81140380D01*
X191349238Y-81140380D01*
X191444476Y-81092761D01*
X191492095Y-81045142D01*
X191539714Y-80949904D01*
X191539714Y-80711809D01*
X191492095Y-80616571D01*
X191444476Y-80568952D01*
X191349238Y-80521333D01*
X191158761Y-80521333D01*
X191063523Y-80568952D01*
X191015904Y-80616571D01*
X190968285Y-80711809D01*
%TO.C,R5*%
X147407333Y-68440380D02*
X147074000Y-67964190D01*
X146835904Y-68440380D02*
X146835904Y-67440380D01*
X147216857Y-67440380D01*
X147312095Y-67488000D01*
X147359714Y-67535619D01*
X147407333Y-67630857D01*
X147407333Y-67773714D01*
X147359714Y-67868952D01*
X147312095Y-67916571D01*
X147216857Y-67964190D01*
X146835904Y-67964190D01*
X148312095Y-67440380D02*
X147835904Y-67440380D01*
X147788285Y-67916571D01*
X147835904Y-67868952D01*
X147931142Y-67821333D01*
X148169238Y-67821333D01*
X148264476Y-67868952D01*
X148312095Y-67916571D01*
X148359714Y-68011809D01*
X148359714Y-68249904D01*
X148312095Y-68345142D01*
X148264476Y-68392761D01*
X148169238Y-68440380D01*
X147931142Y-68440380D01*
X147835904Y-68392761D01*
X147788285Y-68345142D01*
%TO.C,R4*%
X133945333Y-98580380D02*
X133612000Y-98104190D01*
X133373904Y-98580380D02*
X133373904Y-97580380D01*
X133754857Y-97580380D01*
X133850095Y-97628000D01*
X133897714Y-97675619D01*
X133945333Y-97770857D01*
X133945333Y-97913714D01*
X133897714Y-98008952D01*
X133850095Y-98056571D01*
X133754857Y-98104190D01*
X133373904Y-98104190D01*
X134802476Y-97913714D02*
X134802476Y-98580380D01*
X134564380Y-97532761D02*
X134326285Y-98247047D01*
X134945333Y-98247047D01*
%TO.C,R3*%
X179411333Y-93500380D02*
X179078000Y-93024190D01*
X178839904Y-93500380D02*
X178839904Y-92500380D01*
X179220857Y-92500380D01*
X179316095Y-92548000D01*
X179363714Y-92595619D01*
X179411333Y-92690857D01*
X179411333Y-92833714D01*
X179363714Y-92928952D01*
X179316095Y-92976571D01*
X179220857Y-93024190D01*
X178839904Y-93024190D01*
X179744666Y-92500380D02*
X180363714Y-92500380D01*
X180030380Y-92881333D01*
X180173238Y-92881333D01*
X180268476Y-92928952D01*
X180316095Y-92976571D01*
X180363714Y-93071809D01*
X180363714Y-93309904D01*
X180316095Y-93405142D01*
X180268476Y-93452761D01*
X180173238Y-93500380D01*
X179887523Y-93500380D01*
X179792285Y-93452761D01*
X179744666Y-93405142D01*
%TO.C,R2*%
X106200380Y-79414666D02*
X105724190Y-79748000D01*
X106200380Y-79986095D02*
X105200380Y-79986095D01*
X105200380Y-79605142D01*
X105248000Y-79509904D01*
X105295619Y-79462285D01*
X105390857Y-79414666D01*
X105533714Y-79414666D01*
X105628952Y-79462285D01*
X105676571Y-79509904D01*
X105724190Y-79605142D01*
X105724190Y-79986095D01*
X105295619Y-79033714D02*
X105248000Y-78986095D01*
X105200380Y-78890857D01*
X105200380Y-78652761D01*
X105248000Y-78557523D01*
X105295619Y-78509904D01*
X105390857Y-78462285D01*
X105486095Y-78462285D01*
X105628952Y-78509904D01*
X106200380Y-79081333D01*
X106200380Y-78462285D01*
%TO.C,R1*%
X142014380Y-85256666D02*
X141538190Y-85590000D01*
X142014380Y-85828095D02*
X141014380Y-85828095D01*
X141014380Y-85447142D01*
X141062000Y-85351904D01*
X141109619Y-85304285D01*
X141204857Y-85256666D01*
X141347714Y-85256666D01*
X141442952Y-85304285D01*
X141490571Y-85351904D01*
X141538190Y-85447142D01*
X141538190Y-85828095D01*
X142014380Y-84304285D02*
X142014380Y-84875714D01*
X142014380Y-84590000D02*
X141014380Y-84590000D01*
X141157238Y-84685238D01*
X141252476Y-84780476D01*
X141300095Y-84875714D01*
%TO.C,Q3*%
D12*
X170337238Y-94790380D02*
X170240476Y-94742000D01*
X170143714Y-94645238D01*
X169998571Y-94500095D01*
X169901809Y-94451714D01*
X169805047Y-94451714D01*
X169853428Y-94693619D02*
X169756666Y-94645238D01*
X169659904Y-94548476D01*
X169611523Y-94354952D01*
X169611523Y-94016285D01*
X169659904Y-93822761D01*
X169756666Y-93726000D01*
X169853428Y-93677619D01*
X170046952Y-93677619D01*
X170143714Y-93726000D01*
X170240476Y-93822761D01*
X170288857Y-94016285D01*
X170288857Y-94354952D01*
X170240476Y-94548476D01*
X170143714Y-94645238D01*
X170046952Y-94693619D01*
X169853428Y-94693619D01*
X170627523Y-93677619D02*
X171256476Y-93677619D01*
X170917809Y-94064666D01*
X171062952Y-94064666D01*
X171159714Y-94113047D01*
X171208095Y-94161428D01*
X171256476Y-94258190D01*
X171256476Y-94500095D01*
X171208095Y-94596857D01*
X171159714Y-94645238D01*
X171062952Y-94693619D01*
X170772666Y-94693619D01*
X170675904Y-94645238D01*
X170627523Y-94596857D01*
%TO.C,Q1*%
X134777238Y-70914380D02*
X134680476Y-70866000D01*
X134583714Y-70769238D01*
X134438571Y-70624095D01*
X134341809Y-70575714D01*
X134245047Y-70575714D01*
X134293428Y-70817619D02*
X134196666Y-70769238D01*
X134099904Y-70672476D01*
X134051523Y-70478952D01*
X134051523Y-70140285D01*
X134099904Y-69946761D01*
X134196666Y-69850000D01*
X134293428Y-69801619D01*
X134486952Y-69801619D01*
X134583714Y-69850000D01*
X134680476Y-69946761D01*
X134728857Y-70140285D01*
X134728857Y-70478952D01*
X134680476Y-70672476D01*
X134583714Y-70769238D01*
X134486952Y-70817619D01*
X134293428Y-70817619D01*
X135696476Y-70817619D02*
X135115904Y-70817619D01*
X135406190Y-70817619D02*
X135406190Y-69801619D01*
X135309428Y-69946761D01*
X135212666Y-70043523D01*
X135115904Y-70091904D01*
%TO.C,J1*%
D13*
X203470380Y-85931333D02*
X204184666Y-85931333D01*
X204327523Y-85978952D01*
X204422761Y-86074190D01*
X204470380Y-86217047D01*
X204470380Y-86312285D01*
X204470380Y-84931333D02*
X204470380Y-85502761D01*
X204470380Y-85217047D02*
X203470380Y-85217047D01*
X203613238Y-85312285D01*
X203708476Y-85407523D01*
X203756095Y-85502761D01*
%TO.C,D5*%
X173759904Y-82090380D02*
X173759904Y-81090380D01*
X173998000Y-81090380D01*
X174140857Y-81138000D01*
X174236095Y-81233238D01*
X174283714Y-81328476D01*
X174331333Y-81518952D01*
X174331333Y-81661809D01*
X174283714Y-81852285D01*
X174236095Y-81947523D01*
X174140857Y-82042761D01*
X173998000Y-82090380D01*
X173759904Y-82090380D01*
X175236095Y-81090380D02*
X174759904Y-81090380D01*
X174712285Y-81566571D01*
X174759904Y-81518952D01*
X174855142Y-81471333D01*
X175093238Y-81471333D01*
X175188476Y-81518952D01*
X175236095Y-81566571D01*
X175283714Y-81661809D01*
X175283714Y-81899904D01*
X175236095Y-81995142D01*
X175188476Y-82042761D01*
X175093238Y-82090380D01*
X174855142Y-82090380D01*
X174759904Y-82042761D01*
X174712285Y-81995142D01*
%TO.C,D4*%
X105696380Y-93956095D02*
X104696380Y-93956095D01*
X104696380Y-93718000D01*
X104744000Y-93575142D01*
X104839238Y-93479904D01*
X104934476Y-93432285D01*
X105124952Y-93384666D01*
X105267809Y-93384666D01*
X105458285Y-93432285D01*
X105553523Y-93479904D01*
X105648761Y-93575142D01*
X105696380Y-93718000D01*
X105696380Y-93956095D01*
X105029714Y-92527523D02*
X105696380Y-92527523D01*
X104648761Y-92765619D02*
X105363047Y-93003714D01*
X105363047Y-92384666D01*
X105376380Y-89669904D02*
X104376380Y-89669904D01*
X105376380Y-89098476D02*
X104804952Y-89527047D01*
X104376380Y-89098476D02*
X104947809Y-89669904D01*
%TO.C,D3*%
X128547904Y-71738380D02*
X128547904Y-70738380D01*
X128786000Y-70738380D01*
X128928857Y-70786000D01*
X129024095Y-70881238D01*
X129071714Y-70976476D01*
X129119333Y-71166952D01*
X129119333Y-71309809D01*
X129071714Y-71500285D01*
X129024095Y-71595523D01*
X128928857Y-71690761D01*
X128786000Y-71738380D01*
X128547904Y-71738380D01*
X129452666Y-70738380D02*
X130071714Y-70738380D01*
X129738380Y-71119333D01*
X129881238Y-71119333D01*
X129976476Y-71166952D01*
X130024095Y-71214571D01*
X130071714Y-71309809D01*
X130071714Y-71547904D01*
X130024095Y-71643142D01*
X129976476Y-71690761D01*
X129881238Y-71738380D01*
X129595523Y-71738380D01*
X129500285Y-71690761D01*
X129452666Y-71643142D01*
X125214095Y-72058380D02*
X125214095Y-71058380D01*
X125785523Y-72058380D02*
X125356952Y-71486952D01*
X125785523Y-71058380D02*
X125214095Y-71629809D01*
%TO.C,D2*%
X130325904Y-75548380D02*
X130325904Y-74548380D01*
X130564000Y-74548380D01*
X130706857Y-74596000D01*
X130802095Y-74691238D01*
X130849714Y-74786476D01*
X130897333Y-74976952D01*
X130897333Y-75119809D01*
X130849714Y-75310285D01*
X130802095Y-75405523D01*
X130706857Y-75500761D01*
X130564000Y-75548380D01*
X130325904Y-75548380D01*
X131278285Y-74643619D02*
X131325904Y-74596000D01*
X131421142Y-74548380D01*
X131659238Y-74548380D01*
X131754476Y-74596000D01*
X131802095Y-74643619D01*
X131849714Y-74738857D01*
X131849714Y-74834095D01*
X131802095Y-74976952D01*
X131230666Y-75548380D01*
X131849714Y-75548380D01*
X126992095Y-75868380D02*
X126992095Y-74868380D01*
X127563523Y-75868380D02*
X127134952Y-75296952D01*
X127563523Y-74868380D02*
X126992095Y-75439809D01*
%TO.C,D1*%
X133636380Y-85828095D02*
X132636380Y-85828095D01*
X132636380Y-85590000D01*
X132684000Y-85447142D01*
X132779238Y-85351904D01*
X132874476Y-85304285D01*
X133064952Y-85256666D01*
X133207809Y-85256666D01*
X133398285Y-85304285D01*
X133493523Y-85351904D01*
X133588761Y-85447142D01*
X133636380Y-85590000D01*
X133636380Y-85828095D01*
X133636380Y-84304285D02*
X133636380Y-84875714D01*
X133636380Y-84590000D02*
X132636380Y-84590000D01*
X132779238Y-84685238D01*
X132874476Y-84780476D01*
X132922095Y-84875714D01*
X133316380Y-81541904D02*
X132316380Y-81541904D01*
X133316380Y-80970476D02*
X132744952Y-81399047D01*
X132316380Y-80970476D02*
X132887809Y-81541904D01*
%TO.C,C4*%
X101579142Y-79354666D02*
X101626761Y-79402285D01*
X101674380Y-79545142D01*
X101674380Y-79640380D01*
X101626761Y-79783238D01*
X101531523Y-79878476D01*
X101436285Y-79926095D01*
X101245809Y-79973714D01*
X101102952Y-79973714D01*
X100912476Y-79926095D01*
X100817238Y-79878476D01*
X100722000Y-79783238D01*
X100674380Y-79640380D01*
X100674380Y-79545142D01*
X100722000Y-79402285D01*
X100769619Y-79354666D01*
X101007714Y-78497523D02*
X101674380Y-78497523D01*
X100626761Y-78735619D02*
X101341047Y-78973714D01*
X101341047Y-78354666D01*
%TO.C,C3*%
X166245333Y-86301142D02*
X166197714Y-86348761D01*
X166054857Y-86396380D01*
X165959619Y-86396380D01*
X165816761Y-86348761D01*
X165721523Y-86253523D01*
X165673904Y-86158285D01*
X165626285Y-85967809D01*
X165626285Y-85824952D01*
X165673904Y-85634476D01*
X165721523Y-85539238D01*
X165816761Y-85444000D01*
X165959619Y-85396380D01*
X166054857Y-85396380D01*
X166197714Y-85444000D01*
X166245333Y-85491619D01*
X166578666Y-85396380D02*
X167197714Y-85396380D01*
X166864380Y-85777333D01*
X167007238Y-85777333D01*
X167102476Y-85824952D01*
X167150095Y-85872571D01*
X167197714Y-85967809D01*
X167197714Y-86205904D01*
X167150095Y-86301142D01*
X167102476Y-86348761D01*
X167007238Y-86396380D01*
X166721523Y-86396380D01*
X166626285Y-86348761D01*
X166578666Y-86301142D01*
%TO.C,C2*%
X147347333Y-73125142D02*
X147299714Y-73172761D01*
X147156857Y-73220380D01*
X147061619Y-73220380D01*
X146918761Y-73172761D01*
X146823523Y-73077523D01*
X146775904Y-72982285D01*
X146728285Y-72791809D01*
X146728285Y-72648952D01*
X146775904Y-72458476D01*
X146823523Y-72363238D01*
X146918761Y-72268000D01*
X147061619Y-72220380D01*
X147156857Y-72220380D01*
X147299714Y-72268000D01*
X147347333Y-72315619D01*
X147728285Y-72315619D02*
X147775904Y-72268000D01*
X147871142Y-72220380D01*
X148109238Y-72220380D01*
X148204476Y-72268000D01*
X148252095Y-72315619D01*
X148299714Y-72410857D01*
X148299714Y-72506095D01*
X148252095Y-72648952D01*
X147680666Y-73220380D01*
X148299714Y-73220380D01*
%TO.C,C1*%
X138155142Y-85196666D02*
X138202761Y-85244285D01*
X138250380Y-85387142D01*
X138250380Y-85482380D01*
X138202761Y-85625238D01*
X138107523Y-85720476D01*
X138012285Y-85768095D01*
X137821809Y-85815714D01*
X137678952Y-85815714D01*
X137488476Y-85768095D01*
X137393238Y-85720476D01*
X137298000Y-85625238D01*
X137250380Y-85482380D01*
X137250380Y-85387142D01*
X137298000Y-85244285D01*
X137345619Y-85196666D01*
X138250380Y-84244285D02*
X138250380Y-84815714D01*
X138250380Y-84530000D02*
X137250380Y-84530000D01*
X137393238Y-84625238D01*
X137488476Y-84720476D01*
X137536095Y-84815714D01*
%TD*%
M02*
