M48
; DRILL file {KiCad 5.1.6-c6e7f7d~86~ubuntu16.04.1} date Sat Jul  4 05:21:25 2020
; FORMAT={-:-/ absolute / inch / decimal}
; #@! TF.CreationDate,2020-07-04T05:21:25+01:00
; #@! TF.GenerationSoftware,Kicad,Pcbnew,5.1.6-c6e7f7d~86~ubuntu16.04.1
; #@! TF.FileFunction,Plated,1,2,PTH
FMAT,2
INCH
T1C0.0315
T2C0.0320
T3C0.0354
T4C0.0394
T5C0.0469
%
G90
G05
T1
X5.0Y-3.5
X5.0Y-3.98
X5.79Y-3.07
X6.06Y-3.49
X6.06Y-3.79
X6.19Y-3.07
X6.63Y-3.31
X7.34Y-3.68
X7.34Y-3.98
X5.66Y-2.97
X5.9553Y-2.97
X7.36Y-3.27
X7.66Y-3.27
X5.66Y-3.19
X5.66Y-3.29
X5.66Y-3.39
X5.66Y-3.49
X5.66Y-3.59
X5.66Y-3.69
X5.66Y-3.79
X5.96Y-3.19
X5.96Y-3.29
X5.96Y-3.39
X5.96Y-3.49
X5.96Y-3.59
X5.96Y-3.69
X5.96Y-3.79
X7.36Y-3.17
X7.66Y-3.17
X5.66Y-2.77
X5.96Y-2.77
X4.07Y-2.97
X4.07Y-3.27
X7.36Y-3.47
X7.66Y-3.47
X4.41Y-3.0
X4.41Y-3.1
X4.41Y-3.2
X4.41Y-3.3
X4.41Y-3.4
X4.41Y-3.5
X4.41Y-3.6
X4.41Y-3.7
X4.41Y-3.8
X4.71Y-3.0
X4.71Y-3.1
X4.71Y-3.2
X4.71Y-3.3
X4.71Y-3.4
X4.71Y-3.5
X4.71Y-3.6
X4.71Y-3.7
X4.71Y-3.8
X5.48Y-3.2
X5.48Y-3.5
X5.16Y-3.2
X5.16Y-3.5
X6.2Y-3.54
X6.2Y-3.84
X4.06Y-3.52
X4.06Y-3.82
X6.404Y-3.4887
X6.6993Y-3.4887
X3.88Y-2.97
X3.88Y-3.2653
X6.3127Y-2.975
X6.6127Y-2.975
X7.36Y-3.37
X7.66Y-3.37
X6.3127Y-3.1344
X6.6127Y-3.1344
X6.92Y-3.57
X7.22Y-3.57
X7.36Y-3.57
X7.66Y-3.57
X5.01Y-3.04
X5.31Y-3.04
X4.94Y-2.89
X5.24Y-2.89
X5.32Y-3.2
X5.32Y-3.4953
X5.13Y-3.77
X5.43Y-3.77
T2
X7.14Y-3.31
X7.22Y-3.23
X7.22Y-3.39
X6.77Y-3.82
X6.85Y-3.74
X6.85Y-3.9
X5.37Y-2.88
X5.45Y-2.8
X5.45Y-2.96
T3
X6.82Y-3.37
X6.92Y-3.37
T4
X6.44Y-3.74
X3.85Y-3.52
T5
X7.87Y-2.87
X7.87Y-2.97
X7.87Y-3.07
X7.87Y-3.17
X7.87Y-3.27
X7.87Y-3.37
X7.87Y-3.47
X7.87Y-3.57
X7.87Y-3.67
X7.87Y-3.77
X7.87Y-3.87
T0
M30
