%TF.GenerationSoftware,KiCad,Pcbnew,5.1.6-c6e7f7d~86~ubuntu16.04.1*%
%TF.CreationDate,2020-07-04T05:21:27+01:00*%
%TF.ProjectId,g850-pic-prog,67383530-2d70-4696-932d-70726f672e6b,rev?*%
%TF.SameCoordinates,Original*%
%TF.FileFunction,Soldermask,Bot*%
%TF.FilePolarity,Negative*%
%FSLAX46Y46*%
G04 Gerber Fmt 4.6, Leading zero omitted, Abs format (unit mm)*
G04 Created by KiCad (PCBNEW 5.1.6-c6e7f7d~86~ubuntu16.04.1) date 2020-07-04 05:21:27*
%MOMM*%
%LPD*%
G01*
G04 APERTURE LIST*
%ADD10C,1.497000*%
%ADD11R,1.497000X1.497000*%
%ADD12O,1.700000X1.700000*%
%ADD13R,1.700000X1.700000*%
%ADD14C,2.100000*%
%ADD15C,1.700000*%
%ADD16O,2.290000X1.840000*%
%ADD17C,1.900000*%
%ADD18R,1.900000X1.900000*%
G04 APERTURE END LIST*
D10*
%TO.C,Q2*%
X183388000Y-86106000D03*
X181356000Y-84074000D03*
D11*
X183388000Y-82042000D03*
%TD*%
D12*
%TO.C,U2*%
X119634000Y-76200000D03*
X112014000Y-96520000D03*
X119634000Y-78740000D03*
X112014000Y-93980000D03*
X119634000Y-81280000D03*
X112014000Y-91440000D03*
X119634000Y-83820000D03*
X112014000Y-88900000D03*
X119634000Y-86360000D03*
X112014000Y-86360000D03*
X119634000Y-88900000D03*
X112014000Y-83820000D03*
X119634000Y-91440000D03*
X112014000Y-81280000D03*
X119634000Y-93980000D03*
X112014000Y-78740000D03*
X119634000Y-96520000D03*
D13*
X112014000Y-76200000D03*
%TD*%
D12*
%TO.C,U1*%
X151384000Y-81026000D03*
X143764000Y-96266000D03*
X151384000Y-83566000D03*
X143764000Y-93726000D03*
X151384000Y-86106000D03*
X143764000Y-91186000D03*
X151384000Y-88646000D03*
X143764000Y-88646000D03*
X151384000Y-91186000D03*
X143764000Y-86106000D03*
X151384000Y-93726000D03*
X143764000Y-83566000D03*
X151384000Y-96266000D03*
D13*
X143764000Y-81026000D03*
%TD*%
D14*
%TO.C,TP2*%
X97790000Y-89408000D03*
%TD*%
%TO.C,TP1*%
X163576000Y-94996000D03*
%TD*%
D12*
%TO.C,R13*%
X194564000Y-80518000D03*
D15*
X186944000Y-80518000D03*
%TD*%
D12*
%TO.C,R12*%
X194564000Y-90678000D03*
D15*
X186944000Y-90678000D03*
%TD*%
D12*
%TO.C,R11*%
X167962000Y-79614000D03*
D15*
X160342000Y-79614000D03*
%TD*%
D12*
%TO.C,R10*%
X157480000Y-89916000D03*
D15*
X157480000Y-97536000D03*
%TD*%
D12*
%TO.C,R9*%
X194564000Y-88138000D03*
D15*
X186944000Y-88138000D03*
%TD*%
D12*
%TO.C,R8*%
X194564000Y-85598000D03*
D15*
X186944000Y-85598000D03*
%TD*%
D12*
%TO.C,R7*%
X167962000Y-75564000D03*
D15*
X160342000Y-75564000D03*
%TD*%
D12*
%TO.C,R6*%
X194564000Y-83058000D03*
D15*
X186944000Y-83058000D03*
%TD*%
D12*
%TO.C,R5*%
X151384000Y-70358000D03*
D15*
X143764000Y-70358000D03*
%TD*%
D12*
%TO.C,R4*%
X130302000Y-95758000D03*
D15*
X137922000Y-95758000D03*
%TD*%
D12*
%TO.C,R3*%
X175768000Y-90678000D03*
D15*
X183388000Y-90678000D03*
%TD*%
D12*
%TO.C,R2*%
X103378000Y-83058000D03*
D15*
X103378000Y-75438000D03*
%TD*%
D12*
%TO.C,R1*%
X139192000Y-88900000D03*
D15*
X139192000Y-81280000D03*
%TD*%
D10*
%TO.C,Q3*%
X173990000Y-99060000D03*
X171958000Y-97028000D03*
D11*
X173990000Y-94996000D03*
%TD*%
D10*
%TO.C,Q1*%
X138430000Y-75184000D03*
X136398000Y-73152000D03*
D11*
X138430000Y-71120000D03*
%TD*%
D16*
%TO.C,J1*%
X199898000Y-98298000D03*
X199898000Y-95758000D03*
X199898000Y-93218000D03*
X199898000Y-90678000D03*
X199898000Y-88138000D03*
X199898000Y-85598000D03*
X199898000Y-83058000D03*
X199898000Y-80518000D03*
X199898000Y-77978000D03*
X199898000Y-75438000D03*
G36*
G01*
X199017367Y-71978000D02*
X200778633Y-71978000D01*
G75*
G02*
X201043000Y-72242367I0J-264367D01*
G01*
X201043000Y-73553633D01*
G75*
G02*
X200778633Y-73818000I-264367J0D01*
G01*
X199017367Y-73818000D01*
G75*
G02*
X198753000Y-73553633I0J264367D01*
G01*
X198753000Y-72242367D01*
G75*
G02*
X199017367Y-71978000I264367J0D01*
G01*
G37*
%TD*%
D17*
%TO.C,D5*%
X175768000Y-85598000D03*
D18*
X173228000Y-85598000D03*
%TD*%
D12*
%TO.C,D4*%
X103124000Y-97028000D03*
D13*
X103124000Y-89408000D03*
%TD*%
D12*
%TO.C,D3*%
X133096000Y-73406000D03*
D13*
X125476000Y-73406000D03*
%TD*%
D12*
%TO.C,D2*%
X134874000Y-77216000D03*
D13*
X127254000Y-77216000D03*
%TD*%
D12*
%TO.C,D1*%
X131064000Y-88900000D03*
D13*
X131064000Y-81280000D03*
%TD*%
D12*
%TO.C,C4*%
X98552000Y-82938000D03*
D15*
X98552000Y-75438000D03*
%TD*%
D12*
%TO.C,C3*%
X170162000Y-88614000D03*
D15*
X162662000Y-88614000D03*
%TD*%
D12*
%TO.C,C2*%
X151264000Y-75438000D03*
D15*
X143764000Y-75438000D03*
%TD*%
D12*
%TO.C,C1*%
X135128000Y-88780000D03*
D15*
X135128000Y-81280000D03*
%TD*%
M02*
