%TF.GenerationSoftware,KiCad,Pcbnew,5.1.5+dfsg1-2build2*%
%TF.CreationDate,2022-12-31T14:33:42+00:00*%
%TF.ProjectId,g850-pic-prog,67383530-2d70-4696-932d-70726f672e6b,rev?*%
%TF.SameCoordinates,Original*%
%TF.FileFunction,Legend,Top*%
%TF.FilePolarity,Positive*%
%FSLAX46Y46*%
G04 Gerber Fmt 4.6, Leading zero omitted, Abs format (unit mm)*
G04 Created by KiCad (PCBNEW 5.1.5+dfsg1-2build2) date 2022-12-31 14:33:42*
%MOMM*%
%LPD*%
G04 APERTURE LIST*
%ADD10C,0.150000*%
%ADD11C,0.120000*%
%ADD12C,0.304800*%
%ADD13C,0.203200*%
G04 APERTURE END LIST*
D10*
X101619276Y-69956940D02*
X101619276Y-68956940D01*
X102000228Y-68956940D01*
X102095466Y-69004560D01*
X102143085Y-69052179D01*
X102190704Y-69147417D01*
X102190704Y-69290274D01*
X102143085Y-69385512D01*
X102095466Y-69433131D01*
X102000228Y-69480750D01*
X101619276Y-69480750D01*
X102619276Y-69956940D02*
X102619276Y-69290274D01*
X102619276Y-68956940D02*
X102571657Y-69004560D01*
X102619276Y-69052179D01*
X102666895Y-69004560D01*
X102619276Y-68956940D01*
X102619276Y-69052179D01*
X103095466Y-69290274D02*
X103095466Y-69956940D01*
X103095466Y-69385512D02*
X103143085Y-69337893D01*
X103238323Y-69290274D01*
X103381180Y-69290274D01*
X103476419Y-69337893D01*
X103524038Y-69433131D01*
X103524038Y-69956940D01*
X105285942Y-69956940D02*
X104714514Y-69956940D01*
X105000228Y-69956940D02*
X105000228Y-68956940D01*
X104904990Y-69099798D01*
X104809752Y-69195036D01*
X104714514Y-69242655D01*
X173901697Y-69465180D02*
X173901697Y-68465180D01*
X174282649Y-68465180D01*
X174377887Y-68512800D01*
X174425506Y-68560419D01*
X174473125Y-68655657D01*
X174473125Y-68798514D01*
X174425506Y-68893752D01*
X174377887Y-68941371D01*
X174282649Y-68988990D01*
X173901697Y-68988990D01*
X175473125Y-69369942D02*
X175425506Y-69417561D01*
X175282649Y-69465180D01*
X175187411Y-69465180D01*
X175044554Y-69417561D01*
X174949316Y-69322323D01*
X174901697Y-69227085D01*
X174854078Y-69036609D01*
X174854078Y-68893752D01*
X174901697Y-68703276D01*
X174949316Y-68608038D01*
X175044554Y-68512800D01*
X175187411Y-68465180D01*
X175282649Y-68465180D01*
X175425506Y-68512800D01*
X175473125Y-68560419D01*
X175901697Y-69084228D02*
X176663601Y-69084228D01*
X177663601Y-68512800D02*
X177568363Y-68465180D01*
X177425506Y-68465180D01*
X177282649Y-68512800D01*
X177187411Y-68608038D01*
X177139792Y-68703276D01*
X177092173Y-68893752D01*
X177092173Y-69036609D01*
X177139792Y-69227085D01*
X177187411Y-69322323D01*
X177282649Y-69417561D01*
X177425506Y-69465180D01*
X177520744Y-69465180D01*
X177663601Y-69417561D01*
X177711220Y-69369942D01*
X177711220Y-69036609D01*
X177520744Y-69036609D01*
X178282649Y-68893752D02*
X178187411Y-68846133D01*
X178139792Y-68798514D01*
X178092173Y-68703276D01*
X178092173Y-68655657D01*
X178139792Y-68560419D01*
X178187411Y-68512800D01*
X178282649Y-68465180D01*
X178473125Y-68465180D01*
X178568363Y-68512800D01*
X178615982Y-68560419D01*
X178663601Y-68655657D01*
X178663601Y-68703276D01*
X178615982Y-68798514D01*
X178568363Y-68846133D01*
X178473125Y-68893752D01*
X178282649Y-68893752D01*
X178187411Y-68941371D01*
X178139792Y-68988990D01*
X178092173Y-69084228D01*
X178092173Y-69274704D01*
X178139792Y-69369942D01*
X178187411Y-69417561D01*
X178282649Y-69465180D01*
X178473125Y-69465180D01*
X178568363Y-69417561D01*
X178615982Y-69369942D01*
X178663601Y-69274704D01*
X178663601Y-69084228D01*
X178615982Y-68988990D01*
X178568363Y-68941371D01*
X178473125Y-68893752D01*
X179568363Y-68465180D02*
X179092173Y-68465180D01*
X179044554Y-68941371D01*
X179092173Y-68893752D01*
X179187411Y-68846133D01*
X179425506Y-68846133D01*
X179520744Y-68893752D01*
X179568363Y-68941371D01*
X179615982Y-69036609D01*
X179615982Y-69274704D01*
X179568363Y-69369942D01*
X179520744Y-69417561D01*
X179425506Y-69465180D01*
X179187411Y-69465180D01*
X179092173Y-69417561D01*
X179044554Y-69369942D01*
X180235030Y-68465180D02*
X180330268Y-68465180D01*
X180425506Y-68512800D01*
X180473125Y-68560419D01*
X180520744Y-68655657D01*
X180568363Y-68846133D01*
X180568363Y-69084228D01*
X180520744Y-69274704D01*
X180473125Y-69369942D01*
X180425506Y-69417561D01*
X180330268Y-69465180D01*
X180235030Y-69465180D01*
X180139792Y-69417561D01*
X180092173Y-69369942D01*
X180044554Y-69274704D01*
X179996935Y-69084228D01*
X179996935Y-68846133D01*
X180044554Y-68655657D01*
X180092173Y-68560419D01*
X180139792Y-68512800D01*
X180235030Y-68465180D01*
X181758840Y-69465180D02*
X181758840Y-68465180D01*
X182139792Y-68465180D01*
X182235030Y-68512800D01*
X182282649Y-68560419D01*
X182330268Y-68655657D01*
X182330268Y-68798514D01*
X182282649Y-68893752D01*
X182235030Y-68941371D01*
X182139792Y-68988990D01*
X181758840Y-68988990D01*
X182758840Y-69465180D02*
X182758840Y-68465180D01*
X183806459Y-69369942D02*
X183758840Y-69417561D01*
X183615982Y-69465180D01*
X183520744Y-69465180D01*
X183377887Y-69417561D01*
X183282649Y-69322323D01*
X183235030Y-69227085D01*
X183187411Y-69036609D01*
X183187411Y-68893752D01*
X183235030Y-68703276D01*
X183282649Y-68608038D01*
X183377887Y-68512800D01*
X183520744Y-68465180D01*
X183615982Y-68465180D01*
X183758840Y-68512800D01*
X183806459Y-68560419D01*
X184996935Y-69465180D02*
X184996935Y-68465180D01*
X185377887Y-68465180D01*
X185473125Y-68512800D01*
X185520744Y-68560419D01*
X185568363Y-68655657D01*
X185568363Y-68798514D01*
X185520744Y-68893752D01*
X185473125Y-68941371D01*
X185377887Y-68988990D01*
X184996935Y-68988990D01*
X185996935Y-69465180D02*
X185996935Y-68798514D01*
X185996935Y-68988990D02*
X186044554Y-68893752D01*
X186092173Y-68846133D01*
X186187411Y-68798514D01*
X186282649Y-68798514D01*
X186758840Y-69465180D02*
X186663601Y-69417561D01*
X186615982Y-69369942D01*
X186568363Y-69274704D01*
X186568363Y-68988990D01*
X186615982Y-68893752D01*
X186663601Y-68846133D01*
X186758840Y-68798514D01*
X186901697Y-68798514D01*
X186996935Y-68846133D01*
X187044554Y-68893752D01*
X187092173Y-68988990D01*
X187092173Y-69274704D01*
X187044554Y-69369942D01*
X186996935Y-69417561D01*
X186901697Y-69465180D01*
X186758840Y-69465180D01*
X187949316Y-68798514D02*
X187949316Y-69608038D01*
X187901697Y-69703276D01*
X187854078Y-69750895D01*
X187758840Y-69798514D01*
X187615982Y-69798514D01*
X187520744Y-69750895D01*
X187949316Y-69417561D02*
X187854078Y-69465180D01*
X187663601Y-69465180D01*
X187568363Y-69417561D01*
X187520744Y-69369942D01*
X187473125Y-69274704D01*
X187473125Y-68988990D01*
X187520744Y-68893752D01*
X187568363Y-68846133D01*
X187663601Y-68798514D01*
X187854078Y-68798514D01*
X187949316Y-68846133D01*
X188425506Y-69465180D02*
X188425506Y-68798514D01*
X188425506Y-68988990D02*
X188473125Y-68893752D01*
X188520744Y-68846133D01*
X188615982Y-68798514D01*
X188711220Y-68798514D01*
X189473125Y-69465180D02*
X189473125Y-68941371D01*
X189425506Y-68846133D01*
X189330268Y-68798514D01*
X189139792Y-68798514D01*
X189044554Y-68846133D01*
X189473125Y-69417561D02*
X189377887Y-69465180D01*
X189139792Y-69465180D01*
X189044554Y-69417561D01*
X188996935Y-69322323D01*
X188996935Y-69227085D01*
X189044554Y-69131847D01*
X189139792Y-69084228D01*
X189377887Y-69084228D01*
X189473125Y-69036609D01*
X189949316Y-69465180D02*
X189949316Y-68798514D01*
X189949316Y-68893752D02*
X189996935Y-68846133D01*
X190092173Y-68798514D01*
X190235030Y-68798514D01*
X190330268Y-68846133D01*
X190377887Y-68941371D01*
X190377887Y-69465180D01*
X190377887Y-68941371D02*
X190425506Y-68846133D01*
X190520744Y-68798514D01*
X190663601Y-68798514D01*
X190758840Y-68846133D01*
X190806459Y-68941371D01*
X190806459Y-69465180D01*
X191282649Y-69465180D02*
X191282649Y-68798514D01*
X191282649Y-68893752D02*
X191330268Y-68846133D01*
X191425506Y-68798514D01*
X191568363Y-68798514D01*
X191663601Y-68846133D01*
X191711220Y-68941371D01*
X191711220Y-69465180D01*
X191711220Y-68941371D02*
X191758840Y-68846133D01*
X191854078Y-68798514D01*
X191996935Y-68798514D01*
X192092173Y-68846133D01*
X192139792Y-68941371D01*
X192139792Y-69465180D01*
X192996935Y-69417561D02*
X192901697Y-69465180D01*
X192711220Y-69465180D01*
X192615982Y-69417561D01*
X192568363Y-69322323D01*
X192568363Y-68941371D01*
X192615982Y-68846133D01*
X192711220Y-68798514D01*
X192901697Y-68798514D01*
X192996935Y-68846133D01*
X193044554Y-68941371D01*
X193044554Y-69036609D01*
X192568363Y-69131847D01*
X193473125Y-69465180D02*
X193473125Y-68798514D01*
X193473125Y-68988990D02*
X193520744Y-68893752D01*
X193568363Y-68846133D01*
X193663601Y-68798514D01*
X193758840Y-68798514D01*
X178211220Y-70115180D02*
X178544554Y-71115180D01*
X178877887Y-70115180D01*
X179163601Y-70210419D02*
X179211220Y-70162800D01*
X179306459Y-70115180D01*
X179544554Y-70115180D01*
X179639792Y-70162800D01*
X179687411Y-70210419D01*
X179735030Y-70305657D01*
X179735030Y-70400895D01*
X179687411Y-70543752D01*
X179115982Y-71115180D01*
X179735030Y-71115180D01*
X180163601Y-71019942D02*
X180211220Y-71067561D01*
X180163601Y-71115180D01*
X180115982Y-71067561D01*
X180163601Y-71019942D01*
X180163601Y-71115180D01*
X180830268Y-70115180D02*
X180925506Y-70115180D01*
X181020744Y-70162800D01*
X181068363Y-70210419D01*
X181115982Y-70305657D01*
X181163601Y-70496133D01*
X181163601Y-70734228D01*
X181115982Y-70924704D01*
X181068363Y-71019942D01*
X181020744Y-71067561D01*
X180925506Y-71115180D01*
X180830268Y-71115180D01*
X180735030Y-71067561D01*
X180687411Y-71019942D01*
X180639792Y-70924704D01*
X180592173Y-70734228D01*
X180592173Y-70496133D01*
X180639792Y-70305657D01*
X180687411Y-70210419D01*
X180735030Y-70162800D01*
X180830268Y-70115180D01*
X182354078Y-71115180D02*
X182354078Y-70115180D01*
X182592173Y-70115180D01*
X182735030Y-70162800D01*
X182830268Y-70258038D01*
X182877887Y-70353276D01*
X182925506Y-70543752D01*
X182925506Y-70686609D01*
X182877887Y-70877085D01*
X182830268Y-70972323D01*
X182735030Y-71067561D01*
X182592173Y-71115180D01*
X182354078Y-71115180D01*
X183735030Y-71067561D02*
X183639792Y-71115180D01*
X183449316Y-71115180D01*
X183354078Y-71067561D01*
X183306459Y-70972323D01*
X183306459Y-70591371D01*
X183354078Y-70496133D01*
X183449316Y-70448514D01*
X183639792Y-70448514D01*
X183735030Y-70496133D01*
X183782649Y-70591371D01*
X183782649Y-70686609D01*
X183306459Y-70781847D01*
X184639792Y-71067561D02*
X184544554Y-71115180D01*
X184354078Y-71115180D01*
X184258840Y-71067561D01*
X184211220Y-71019942D01*
X184163601Y-70924704D01*
X184163601Y-70638990D01*
X184211220Y-70543752D01*
X184258840Y-70496133D01*
X184354078Y-70448514D01*
X184544554Y-70448514D01*
X184639792Y-70496133D01*
X185782649Y-70210419D02*
X185830268Y-70162800D01*
X185925506Y-70115180D01*
X186163601Y-70115180D01*
X186258840Y-70162800D01*
X186306459Y-70210419D01*
X186354078Y-70305657D01*
X186354078Y-70400895D01*
X186306459Y-70543752D01*
X185735030Y-71115180D01*
X186354078Y-71115180D01*
X186973125Y-70115180D02*
X187068363Y-70115180D01*
X187163601Y-70162800D01*
X187211220Y-70210419D01*
X187258840Y-70305657D01*
X187306459Y-70496133D01*
X187306459Y-70734228D01*
X187258840Y-70924704D01*
X187211220Y-71019942D01*
X187163601Y-71067561D01*
X187068363Y-71115180D01*
X186973125Y-71115180D01*
X186877887Y-71067561D01*
X186830268Y-71019942D01*
X186782649Y-70924704D01*
X186735030Y-70734228D01*
X186735030Y-70496133D01*
X186782649Y-70305657D01*
X186830268Y-70210419D01*
X186877887Y-70162800D01*
X186973125Y-70115180D01*
X187687411Y-70210419D02*
X187735030Y-70162800D01*
X187830268Y-70115180D01*
X188068363Y-70115180D01*
X188163601Y-70162800D01*
X188211220Y-70210419D01*
X188258840Y-70305657D01*
X188258840Y-70400895D01*
X188211220Y-70543752D01*
X187639792Y-71115180D01*
X188258840Y-71115180D01*
X188639792Y-70210419D02*
X188687411Y-70162800D01*
X188782649Y-70115180D01*
X189020744Y-70115180D01*
X189115982Y-70162800D01*
X189163601Y-70210419D01*
X189211220Y-70305657D01*
X189211220Y-70400895D01*
X189163601Y-70543752D01*
X188592173Y-71115180D01*
X189211220Y-71115180D01*
X176163601Y-72765180D02*
X176163601Y-72098514D01*
X176163601Y-72193752D02*
X176211220Y-72146133D01*
X176306459Y-72098514D01*
X176449316Y-72098514D01*
X176544554Y-72146133D01*
X176592173Y-72241371D01*
X176592173Y-72765180D01*
X176592173Y-72241371D02*
X176639792Y-72146133D01*
X176735030Y-72098514D01*
X176877887Y-72098514D01*
X176973125Y-72146133D01*
X177020744Y-72241371D01*
X177020744Y-72765180D01*
X177877887Y-72717561D02*
X177782649Y-72765180D01*
X177592173Y-72765180D01*
X177496935Y-72717561D01*
X177449316Y-72622323D01*
X177449316Y-72241371D01*
X177496935Y-72146133D01*
X177592173Y-72098514D01*
X177782649Y-72098514D01*
X177877887Y-72146133D01*
X177925506Y-72241371D01*
X177925506Y-72336609D01*
X177449316Y-72431847D01*
X178354078Y-72098514D02*
X178354078Y-72765180D01*
X178354078Y-72193752D02*
X178401697Y-72146133D01*
X178496935Y-72098514D01*
X178639792Y-72098514D01*
X178735030Y-72146133D01*
X178782649Y-72241371D01*
X178782649Y-72765180D01*
X179687411Y-72765180D02*
X179687411Y-72241371D01*
X179639792Y-72146133D01*
X179544554Y-72098514D01*
X179354078Y-72098514D01*
X179258840Y-72146133D01*
X179687411Y-72717561D02*
X179592173Y-72765180D01*
X179354078Y-72765180D01*
X179258840Y-72717561D01*
X179211220Y-72622323D01*
X179211220Y-72527085D01*
X179258840Y-72431847D01*
X179354078Y-72384228D01*
X179592173Y-72384228D01*
X179687411Y-72336609D01*
X180592173Y-72765180D02*
X180592173Y-71765180D01*
X180592173Y-72717561D02*
X180496935Y-72765180D01*
X180306459Y-72765180D01*
X180211220Y-72717561D01*
X180163601Y-72669942D01*
X180115982Y-72574704D01*
X180115982Y-72288990D01*
X180163601Y-72193752D01*
X180211220Y-72146133D01*
X180306459Y-72098514D01*
X180496935Y-72098514D01*
X180592173Y-72146133D01*
X181496935Y-72098514D02*
X181496935Y-72765180D01*
X181068363Y-72098514D02*
X181068363Y-72622323D01*
X181115982Y-72717561D01*
X181211220Y-72765180D01*
X181354078Y-72765180D01*
X181449316Y-72717561D01*
X181496935Y-72669942D01*
X182354078Y-72717561D02*
X182258840Y-72765180D01*
X182068363Y-72765180D01*
X181973125Y-72717561D01*
X181925506Y-72622323D01*
X181925506Y-72241371D01*
X181973125Y-72146133D01*
X182068363Y-72098514D01*
X182258840Y-72098514D01*
X182354078Y-72146133D01*
X182401697Y-72241371D01*
X182401697Y-72336609D01*
X181925506Y-72431847D01*
X183449316Y-72288990D02*
X183401697Y-72241371D01*
X183306459Y-72193752D01*
X183211220Y-72193752D01*
X183115982Y-72241371D01*
X183068363Y-72288990D01*
X183020744Y-72384228D01*
X183020744Y-72479466D01*
X183068363Y-72574704D01*
X183115982Y-72622323D01*
X183211220Y-72669942D01*
X183306459Y-72669942D01*
X183401697Y-72622323D01*
X183449316Y-72574704D01*
X183449316Y-72193752D02*
X183449316Y-72574704D01*
X183496935Y-72622323D01*
X183544554Y-72622323D01*
X183639792Y-72574704D01*
X183687411Y-72479466D01*
X183687411Y-72241371D01*
X183592173Y-72098514D01*
X183449316Y-72003276D01*
X183258840Y-71955657D01*
X183068363Y-72003276D01*
X182925506Y-72098514D01*
X182830268Y-72241371D01*
X182782649Y-72431847D01*
X182830268Y-72622323D01*
X182925506Y-72765180D01*
X183068363Y-72860419D01*
X183258840Y-72908038D01*
X183449316Y-72860419D01*
X183592173Y-72765180D01*
X184544554Y-72098514D02*
X184544554Y-72908038D01*
X184496935Y-73003276D01*
X184449316Y-73050895D01*
X184354078Y-73098514D01*
X184211220Y-73098514D01*
X184115982Y-73050895D01*
X184544554Y-72717561D02*
X184449316Y-72765180D01*
X184258840Y-72765180D01*
X184163601Y-72717561D01*
X184115982Y-72669942D01*
X184068363Y-72574704D01*
X184068363Y-72288990D01*
X184115982Y-72193752D01*
X184163601Y-72146133D01*
X184258840Y-72098514D01*
X184449316Y-72098514D01*
X184544554Y-72146133D01*
X185020744Y-72765180D02*
X185020744Y-72098514D01*
X185020744Y-72193752D02*
X185068363Y-72146133D01*
X185163601Y-72098514D01*
X185306459Y-72098514D01*
X185401697Y-72146133D01*
X185449316Y-72241371D01*
X185449316Y-72765180D01*
X185449316Y-72241371D02*
X185496935Y-72146133D01*
X185592173Y-72098514D01*
X185735030Y-72098514D01*
X185830268Y-72146133D01*
X185877887Y-72241371D01*
X185877887Y-72765180D01*
X186782649Y-72765180D02*
X186782649Y-72241371D01*
X186735030Y-72146133D01*
X186639792Y-72098514D01*
X186449316Y-72098514D01*
X186354078Y-72146133D01*
X186782649Y-72717561D02*
X186687411Y-72765180D01*
X186449316Y-72765180D01*
X186354078Y-72717561D01*
X186306459Y-72622323D01*
X186306459Y-72527085D01*
X186354078Y-72431847D01*
X186449316Y-72384228D01*
X186687411Y-72384228D01*
X186782649Y-72336609D01*
X187258840Y-72765180D02*
X187258840Y-72098514D01*
X187258840Y-71765180D02*
X187211220Y-71812800D01*
X187258840Y-71860419D01*
X187306459Y-71812800D01*
X187258840Y-71765180D01*
X187258840Y-71860419D01*
X187877887Y-72765180D02*
X187782649Y-72717561D01*
X187735030Y-72622323D01*
X187735030Y-71765180D01*
X188258840Y-72669942D02*
X188306459Y-72717561D01*
X188258840Y-72765180D01*
X188211220Y-72717561D01*
X188258840Y-72669942D01*
X188258840Y-72765180D01*
X189163601Y-72717561D02*
X189068363Y-72765180D01*
X188877887Y-72765180D01*
X188782649Y-72717561D01*
X188735030Y-72669942D01*
X188687411Y-72574704D01*
X188687411Y-72288990D01*
X188735030Y-72193752D01*
X188782649Y-72146133D01*
X188877887Y-72098514D01*
X189068363Y-72098514D01*
X189163601Y-72146133D01*
X189735030Y-72765180D02*
X189639792Y-72717561D01*
X189592173Y-72669942D01*
X189544554Y-72574704D01*
X189544554Y-72288990D01*
X189592173Y-72193752D01*
X189639792Y-72146133D01*
X189735030Y-72098514D01*
X189877887Y-72098514D01*
X189973125Y-72146133D01*
X190020744Y-72193752D01*
X190068363Y-72288990D01*
X190068363Y-72574704D01*
X190020744Y-72669942D01*
X189973125Y-72717561D01*
X189877887Y-72765180D01*
X189735030Y-72765180D01*
X190496935Y-72765180D02*
X190496935Y-72098514D01*
X190496935Y-72193752D02*
X190544554Y-72146133D01*
X190639792Y-72098514D01*
X190782649Y-72098514D01*
X190877887Y-72146133D01*
X190925506Y-72241371D01*
X190925506Y-72765180D01*
X190925506Y-72241371D02*
X190973125Y-72146133D01*
X191068363Y-72098514D01*
X191211220Y-72098514D01*
X191306459Y-72146133D01*
X191354078Y-72241371D01*
X191354078Y-72765180D01*
D11*
%TO.C,U2*%
X107064000Y-77470000D02*
X107064000Y-74930000D01*
X110364000Y-65540000D02*
X110364000Y-67800000D01*
X108124000Y-65540000D02*
X108124000Y-67400000D01*
X123524000Y-65540000D02*
X108124000Y-65540000D01*
X123524000Y-103540000D02*
X123524000Y-65540000D01*
X108124000Y-103540000D02*
X123524000Y-103540000D01*
X108124000Y-72300000D02*
X108124000Y-103540000D01*
X109714000Y-69850000D02*
G75*
G03X109714000Y-69850000I-900000J0D01*
G01*
X111364000Y-69850000D02*
G75*
G03X111364000Y-69850000I-2550000J0D01*
G01*
D12*
%TO.C,Q2*%
X179832000Y-85090000D02*
X179832000Y-83058000D01*
X179832000Y-85090000D02*
X182118000Y-87376000D01*
X179832000Y-83058000D02*
X182118000Y-80772000D01*
X184404000Y-87376000D02*
X182118000Y-87376000D01*
X184912000Y-86868000D02*
X184404000Y-87376000D01*
X184912000Y-81280000D02*
X184912000Y-86868000D01*
X184404000Y-80772000D02*
X184912000Y-81280000D01*
X182118000Y-80772000D02*
X184404000Y-80772000D01*
D11*
%TO.C,U1*%
X148574000Y-79696000D02*
G75*
G02X146574000Y-79696000I-1000000J0D01*
G01*
X146574000Y-79696000D02*
X144924000Y-79696000D01*
X144924000Y-79696000D02*
X144924000Y-97596000D01*
X144924000Y-97596000D02*
X150224000Y-97596000D01*
X150224000Y-97596000D02*
X150224000Y-79696000D01*
X150224000Y-79696000D02*
X148574000Y-79696000D01*
%TO.C,TP2*%
X99290000Y-89408000D02*
G75*
G03X99290000Y-89408000I-1500000J0D01*
G01*
%TO.C,TP1*%
X165076000Y-94996000D02*
G75*
G03X165076000Y-94996000I-1500000J0D01*
G01*
%TO.C,R13*%
X187484000Y-79478000D02*
X187484000Y-79148000D01*
X187484000Y-79148000D02*
X194024000Y-79148000D01*
X194024000Y-79148000D02*
X194024000Y-79478000D01*
X187484000Y-81558000D02*
X187484000Y-81888000D01*
X187484000Y-81888000D02*
X194024000Y-81888000D01*
X194024000Y-81888000D02*
X194024000Y-81558000D01*
%TO.C,R12*%
X187484000Y-89638000D02*
X187484000Y-89308000D01*
X187484000Y-89308000D02*
X194024000Y-89308000D01*
X194024000Y-89308000D02*
X194024000Y-89638000D01*
X187484000Y-91718000D02*
X187484000Y-92048000D01*
X187484000Y-92048000D02*
X194024000Y-92048000D01*
X194024000Y-92048000D02*
X194024000Y-91718000D01*
%TO.C,R11*%
X160882000Y-78574000D02*
X160882000Y-78244000D01*
X160882000Y-78244000D02*
X167422000Y-78244000D01*
X167422000Y-78244000D02*
X167422000Y-78574000D01*
X160882000Y-80654000D02*
X160882000Y-80984000D01*
X160882000Y-80984000D02*
X167422000Y-80984000D01*
X167422000Y-80984000D02*
X167422000Y-80654000D01*
%TO.C,R10*%
X156440000Y-96996000D02*
X156110000Y-96996000D01*
X156110000Y-96996000D02*
X156110000Y-90456000D01*
X156110000Y-90456000D02*
X156440000Y-90456000D01*
X158520000Y-96996000D02*
X158850000Y-96996000D01*
X158850000Y-96996000D02*
X158850000Y-90456000D01*
X158850000Y-90456000D02*
X158520000Y-90456000D01*
%TO.C,R9*%
X187484000Y-87098000D02*
X187484000Y-86768000D01*
X187484000Y-86768000D02*
X194024000Y-86768000D01*
X194024000Y-86768000D02*
X194024000Y-87098000D01*
X187484000Y-89178000D02*
X187484000Y-89508000D01*
X187484000Y-89508000D02*
X194024000Y-89508000D01*
X194024000Y-89508000D02*
X194024000Y-89178000D01*
%TO.C,R8*%
X187484000Y-84558000D02*
X187484000Y-84228000D01*
X187484000Y-84228000D02*
X194024000Y-84228000D01*
X194024000Y-84228000D02*
X194024000Y-84558000D01*
X187484000Y-86638000D02*
X187484000Y-86968000D01*
X187484000Y-86968000D02*
X194024000Y-86968000D01*
X194024000Y-86968000D02*
X194024000Y-86638000D01*
%TO.C,R7*%
X160882000Y-74524000D02*
X160882000Y-74194000D01*
X160882000Y-74194000D02*
X167422000Y-74194000D01*
X167422000Y-74194000D02*
X167422000Y-74524000D01*
X160882000Y-76604000D02*
X160882000Y-76934000D01*
X160882000Y-76934000D02*
X167422000Y-76934000D01*
X167422000Y-76934000D02*
X167422000Y-76604000D01*
%TO.C,R6*%
X187484000Y-82018000D02*
X187484000Y-81688000D01*
X187484000Y-81688000D02*
X194024000Y-81688000D01*
X194024000Y-81688000D02*
X194024000Y-82018000D01*
X187484000Y-84098000D02*
X187484000Y-84428000D01*
X187484000Y-84428000D02*
X194024000Y-84428000D01*
X194024000Y-84428000D02*
X194024000Y-84098000D01*
%TO.C,R5*%
X144304000Y-69318000D02*
X144304000Y-68988000D01*
X144304000Y-68988000D02*
X150844000Y-68988000D01*
X150844000Y-68988000D02*
X150844000Y-69318000D01*
X144304000Y-71398000D02*
X144304000Y-71728000D01*
X144304000Y-71728000D02*
X150844000Y-71728000D01*
X150844000Y-71728000D02*
X150844000Y-71398000D01*
%TO.C,R4*%
X137382000Y-96798000D02*
X137382000Y-97128000D01*
X137382000Y-97128000D02*
X130842000Y-97128000D01*
X130842000Y-97128000D02*
X130842000Y-96798000D01*
X137382000Y-94718000D02*
X137382000Y-94388000D01*
X137382000Y-94388000D02*
X130842000Y-94388000D01*
X130842000Y-94388000D02*
X130842000Y-94718000D01*
%TO.C,R3*%
X182848000Y-91718000D02*
X182848000Y-92048000D01*
X182848000Y-92048000D02*
X176308000Y-92048000D01*
X176308000Y-92048000D02*
X176308000Y-91718000D01*
X182848000Y-89638000D02*
X182848000Y-89308000D01*
X182848000Y-89308000D02*
X176308000Y-89308000D01*
X176308000Y-89308000D02*
X176308000Y-89638000D01*
%TO.C,R2*%
X104418000Y-75978000D02*
X104748000Y-75978000D01*
X104748000Y-75978000D02*
X104748000Y-82518000D01*
X104748000Y-82518000D02*
X104418000Y-82518000D01*
X102338000Y-75978000D02*
X102008000Y-75978000D01*
X102008000Y-75978000D02*
X102008000Y-82518000D01*
X102008000Y-82518000D02*
X102338000Y-82518000D01*
%TO.C,R1*%
X140232000Y-81820000D02*
X140562000Y-81820000D01*
X140562000Y-81820000D02*
X140562000Y-88360000D01*
X140562000Y-88360000D02*
X140232000Y-88360000D01*
X138152000Y-81820000D02*
X137822000Y-81820000D01*
X137822000Y-81820000D02*
X137822000Y-88360000D01*
X137822000Y-88360000D02*
X138152000Y-88360000D01*
D12*
%TO.C,Q3*%
X170434000Y-98044000D02*
X170434000Y-96012000D01*
X170434000Y-98044000D02*
X172720000Y-100330000D01*
X170434000Y-96012000D02*
X172720000Y-93726000D01*
X175006000Y-100330000D02*
X172720000Y-100330000D01*
X175514000Y-99822000D02*
X175006000Y-100330000D01*
X175514000Y-94234000D02*
X175514000Y-99822000D01*
X175006000Y-93726000D02*
X175514000Y-94234000D01*
X172720000Y-93726000D02*
X175006000Y-93726000D01*
%TO.C,Q1*%
X134874000Y-74168000D02*
X134874000Y-72136000D01*
X134874000Y-74168000D02*
X137160000Y-76454000D01*
X134874000Y-72136000D02*
X137160000Y-69850000D01*
X139446000Y-76454000D02*
X137160000Y-76454000D01*
X139954000Y-75946000D02*
X139446000Y-76454000D01*
X139954000Y-70358000D02*
X139954000Y-75946000D01*
X139446000Y-69850000D02*
X139954000Y-70358000D01*
X137160000Y-69850000D02*
X139446000Y-69850000D01*
D11*
%TO.C,J1*%
X202928000Y-71518000D02*
X196908000Y-71518000D01*
X196908000Y-71518000D02*
X196908000Y-99678000D01*
X196908000Y-99678000D02*
X202928000Y-99678000D01*
X202928000Y-99678000D02*
X202928000Y-71518000D01*
X201898000Y-71228000D02*
X197898000Y-71228000D01*
X196908000Y-72898000D02*
X197908000Y-72898000D01*
X197908000Y-72898000D02*
X197908000Y-77978000D01*
X197908000Y-77978000D02*
X196908000Y-77978000D01*
X197908000Y-72898000D02*
X198438000Y-73148000D01*
X198438000Y-73148000D02*
X198438000Y-77978000D01*
X198438000Y-77978000D02*
X197908000Y-77978000D01*
X196908000Y-73148000D02*
X197908000Y-73148000D01*
X196908000Y-98298000D02*
X197908000Y-98298000D01*
X197908000Y-98298000D02*
X197908000Y-93218000D01*
X197908000Y-93218000D02*
X196908000Y-93218000D01*
X197908000Y-98298000D02*
X198438000Y-98048000D01*
X198438000Y-98048000D02*
X198438000Y-93218000D01*
X198438000Y-93218000D02*
X197908000Y-93218000D01*
X196908000Y-98048000D02*
X197908000Y-98048000D01*
X202928000Y-72098000D02*
X202328000Y-72098000D01*
X202328000Y-72098000D02*
X202328000Y-73698000D01*
X202328000Y-73698000D02*
X202928000Y-73698000D01*
X202928000Y-74638000D02*
X202328000Y-74638000D01*
X202328000Y-74638000D02*
X202328000Y-76238000D01*
X202328000Y-76238000D02*
X202928000Y-76238000D01*
X202928000Y-77178000D02*
X202328000Y-77178000D01*
X202328000Y-77178000D02*
X202328000Y-78778000D01*
X202328000Y-78778000D02*
X202928000Y-78778000D01*
X202928000Y-79718000D02*
X202328000Y-79718000D01*
X202328000Y-79718000D02*
X202328000Y-81318000D01*
X202328000Y-81318000D02*
X202928000Y-81318000D01*
X202928000Y-82258000D02*
X202328000Y-82258000D01*
X202328000Y-82258000D02*
X202328000Y-83858000D01*
X202328000Y-83858000D02*
X202928000Y-83858000D01*
X202928000Y-84798000D02*
X202328000Y-84798000D01*
X202328000Y-84798000D02*
X202328000Y-86398000D01*
X202328000Y-86398000D02*
X202928000Y-86398000D01*
X202928000Y-87338000D02*
X202328000Y-87338000D01*
X202328000Y-87338000D02*
X202328000Y-88938000D01*
X202328000Y-88938000D02*
X202928000Y-88938000D01*
X202928000Y-89878000D02*
X202328000Y-89878000D01*
X202328000Y-89878000D02*
X202328000Y-91478000D01*
X202328000Y-91478000D02*
X202928000Y-91478000D01*
X202928000Y-92418000D02*
X202328000Y-92418000D01*
X202328000Y-92418000D02*
X202328000Y-94018000D01*
X202328000Y-94018000D02*
X202928000Y-94018000D01*
X202928000Y-94958000D02*
X202328000Y-94958000D01*
X202328000Y-94958000D02*
X202328000Y-96558000D01*
X202328000Y-96558000D02*
X202928000Y-96558000D01*
X202928000Y-97498000D02*
X202328000Y-97498000D01*
X202328000Y-97498000D02*
X202328000Y-99098000D01*
X202328000Y-99098000D02*
X202928000Y-99098000D01*
%TO.C,D5*%
X177488000Y-85597538D02*
G75*
G02X171938000Y-87142830I-2990000J-462D01*
G01*
X177488000Y-85598462D02*
G75*
G03X171938000Y-84053170I-2990000J462D01*
G01*
X176998000Y-85598000D02*
G75*
G03X176998000Y-85598000I-2500000J0D01*
G01*
X171938000Y-84053000D02*
X171938000Y-87143000D01*
%TO.C,D4*%
X104244000Y-91098000D02*
X102004000Y-91098000D01*
X102004000Y-91098000D02*
X102004000Y-95338000D01*
X102004000Y-95338000D02*
X104244000Y-95338000D01*
X104244000Y-95338000D02*
X104244000Y-91098000D01*
X103124000Y-90448000D02*
X103124000Y-91098000D01*
X103124000Y-95988000D02*
X103124000Y-95338000D01*
X104244000Y-91818000D02*
X102004000Y-91818000D01*
X104244000Y-91938000D02*
X102004000Y-91938000D01*
X104244000Y-91698000D02*
X102004000Y-91698000D01*
%TO.C,D3*%
X127166000Y-72286000D02*
X127166000Y-74526000D01*
X127166000Y-74526000D02*
X131406000Y-74526000D01*
X131406000Y-74526000D02*
X131406000Y-72286000D01*
X131406000Y-72286000D02*
X127166000Y-72286000D01*
X126516000Y-73406000D02*
X127166000Y-73406000D01*
X132056000Y-73406000D02*
X131406000Y-73406000D01*
X127886000Y-72286000D02*
X127886000Y-74526000D01*
X128006000Y-72286000D02*
X128006000Y-74526000D01*
X127766000Y-72286000D02*
X127766000Y-74526000D01*
%TO.C,D2*%
X128944000Y-76096000D02*
X128944000Y-78336000D01*
X128944000Y-78336000D02*
X133184000Y-78336000D01*
X133184000Y-78336000D02*
X133184000Y-76096000D01*
X133184000Y-76096000D02*
X128944000Y-76096000D01*
X128294000Y-77216000D02*
X128944000Y-77216000D01*
X133834000Y-77216000D02*
X133184000Y-77216000D01*
X129664000Y-76096000D02*
X129664000Y-78336000D01*
X129784000Y-76096000D02*
X129784000Y-78336000D01*
X129544000Y-76096000D02*
X129544000Y-78336000D01*
%TO.C,D1*%
X132184000Y-82970000D02*
X129944000Y-82970000D01*
X129944000Y-82970000D02*
X129944000Y-87210000D01*
X129944000Y-87210000D02*
X132184000Y-87210000D01*
X132184000Y-87210000D02*
X132184000Y-82970000D01*
X131064000Y-82320000D02*
X131064000Y-82970000D01*
X131064000Y-87860000D02*
X131064000Y-87210000D01*
X132184000Y-83690000D02*
X129944000Y-83690000D01*
X132184000Y-83810000D02*
X129944000Y-83810000D01*
X132184000Y-83570000D02*
X129944000Y-83570000D01*
%TO.C,C4*%
X100222000Y-76518000D02*
X96882000Y-76518000D01*
X96882000Y-76518000D02*
X96882000Y-81858000D01*
X96882000Y-81858000D02*
X100222000Y-81858000D01*
X100222000Y-81858000D02*
X100222000Y-76518000D01*
X98552000Y-76478000D02*
X98552000Y-76518000D01*
X98552000Y-81898000D02*
X98552000Y-81858000D01*
%TO.C,C3*%
X163742000Y-86944000D02*
X163742000Y-90284000D01*
X163742000Y-90284000D02*
X169082000Y-90284000D01*
X169082000Y-90284000D02*
X169082000Y-86944000D01*
X169082000Y-86944000D02*
X163742000Y-86944000D01*
X163702000Y-88614000D02*
X163742000Y-88614000D01*
X169122000Y-88614000D02*
X169082000Y-88614000D01*
%TO.C,C2*%
X144844000Y-73768000D02*
X144844000Y-77108000D01*
X144844000Y-77108000D02*
X150184000Y-77108000D01*
X150184000Y-77108000D02*
X150184000Y-73768000D01*
X150184000Y-73768000D02*
X144844000Y-73768000D01*
X144804000Y-75438000D02*
X144844000Y-75438000D01*
X150224000Y-75438000D02*
X150184000Y-75438000D01*
%TO.C,C1*%
X136798000Y-82360000D02*
X133458000Y-82360000D01*
X133458000Y-82360000D02*
X133458000Y-87700000D01*
X133458000Y-87700000D02*
X136798000Y-87700000D01*
X136798000Y-87700000D02*
X136798000Y-82360000D01*
X135128000Y-82320000D02*
X135128000Y-82360000D01*
X135128000Y-87740000D02*
X135128000Y-87700000D01*
%TO.C,U2*%
D10*
X115062095Y-64092380D02*
X115062095Y-64901904D01*
X115109714Y-64997142D01*
X115157333Y-65044761D01*
X115252571Y-65092380D01*
X115443047Y-65092380D01*
X115538285Y-65044761D01*
X115585904Y-64997142D01*
X115633523Y-64901904D01*
X115633523Y-64092380D01*
X116062095Y-64187619D02*
X116109714Y-64140000D01*
X116204952Y-64092380D01*
X116443047Y-64092380D01*
X116538285Y-64140000D01*
X116585904Y-64187619D01*
X116633523Y-64282857D01*
X116633523Y-64378095D01*
X116585904Y-64520952D01*
X116014476Y-65092380D01*
X116633523Y-65092380D01*
%TO.C,Q2*%
D13*
X179735238Y-81836380D02*
X179638476Y-81788000D01*
X179541714Y-81691238D01*
X179396571Y-81546095D01*
X179299809Y-81497714D01*
X179203047Y-81497714D01*
X179251428Y-81739619D02*
X179154666Y-81691238D01*
X179057904Y-81594476D01*
X179009523Y-81400952D01*
X179009523Y-81062285D01*
X179057904Y-80868761D01*
X179154666Y-80772000D01*
X179251428Y-80723619D01*
X179444952Y-80723619D01*
X179541714Y-80772000D01*
X179638476Y-80868761D01*
X179686857Y-81062285D01*
X179686857Y-81400952D01*
X179638476Y-81594476D01*
X179541714Y-81691238D01*
X179444952Y-81739619D01*
X179251428Y-81739619D01*
X180073904Y-80820380D02*
X180122285Y-80772000D01*
X180219047Y-80723619D01*
X180460952Y-80723619D01*
X180557714Y-80772000D01*
X180606095Y-80820380D01*
X180654476Y-80917142D01*
X180654476Y-81013904D01*
X180606095Y-81159047D01*
X180025523Y-81739619D01*
X180654476Y-81739619D01*
%TO.C,U1*%
D10*
X143195135Y-77953620D02*
X143195135Y-78763144D01*
X143242754Y-78858382D01*
X143290373Y-78906001D01*
X143385611Y-78953620D01*
X143576087Y-78953620D01*
X143671325Y-78906001D01*
X143718944Y-78858382D01*
X143766563Y-78763144D01*
X143766563Y-77953620D01*
X144766563Y-78953620D02*
X144195135Y-78953620D01*
X144480849Y-78953620D02*
X144480849Y-77953620D01*
X144385611Y-78096478D01*
X144290373Y-78191716D01*
X144195135Y-78239335D01*
%TO.C,TP2*%
X97228095Y-91360380D02*
X97799523Y-91360380D01*
X97513809Y-92360380D02*
X97513809Y-91360380D01*
X98132857Y-92360380D02*
X98132857Y-91360380D01*
X98513809Y-91360380D01*
X98609047Y-91408000D01*
X98656666Y-91455619D01*
X98704285Y-91550857D01*
X98704285Y-91693714D01*
X98656666Y-91788952D01*
X98609047Y-91836571D01*
X98513809Y-91884190D01*
X98132857Y-91884190D01*
X99085238Y-91455619D02*
X99132857Y-91408000D01*
X99228095Y-91360380D01*
X99466190Y-91360380D01*
X99561428Y-91408000D01*
X99609047Y-91455619D01*
X99656666Y-91550857D01*
X99656666Y-91646095D01*
X99609047Y-91788952D01*
X99037619Y-92360380D01*
X99656666Y-92360380D01*
%TO.C,TP1*%
X163014095Y-96948380D02*
X163585523Y-96948380D01*
X163299809Y-97948380D02*
X163299809Y-96948380D01*
X163918857Y-97948380D02*
X163918857Y-96948380D01*
X164299809Y-96948380D01*
X164395047Y-96996000D01*
X164442666Y-97043619D01*
X164490285Y-97138857D01*
X164490285Y-97281714D01*
X164442666Y-97376952D01*
X164395047Y-97424571D01*
X164299809Y-97472190D01*
X163918857Y-97472190D01*
X165442666Y-97948380D02*
X164871238Y-97948380D01*
X165156952Y-97948380D02*
X165156952Y-96948380D01*
X165061714Y-97091238D01*
X164966476Y-97186476D01*
X164871238Y-97234095D01*
%TO.C,R13*%
X183502062Y-76205340D02*
X183168729Y-75729150D01*
X182930634Y-76205340D02*
X182930634Y-75205340D01*
X183311586Y-75205340D01*
X183406824Y-75252960D01*
X183454443Y-75300579D01*
X183502062Y-75395817D01*
X183502062Y-75538674D01*
X183454443Y-75633912D01*
X183406824Y-75681531D01*
X183311586Y-75729150D01*
X182930634Y-75729150D01*
X184454443Y-76205340D02*
X183883015Y-76205340D01*
X184168729Y-76205340D02*
X184168729Y-75205340D01*
X184073491Y-75348198D01*
X183978253Y-75443436D01*
X183883015Y-75491055D01*
X184787777Y-75205340D02*
X185406824Y-75205340D01*
X185073491Y-75586293D01*
X185216348Y-75586293D01*
X185311586Y-75633912D01*
X185359205Y-75681531D01*
X185406824Y-75776769D01*
X185406824Y-76014864D01*
X185359205Y-76110102D01*
X185311586Y-76157721D01*
X185216348Y-76205340D01*
X184930634Y-76205340D01*
X184835396Y-76157721D01*
X184787777Y-76110102D01*
%TO.C,R12*%
X189841902Y-93726260D02*
X189508569Y-93250070D01*
X189270474Y-93726260D02*
X189270474Y-92726260D01*
X189651426Y-92726260D01*
X189746664Y-92773880D01*
X189794283Y-92821499D01*
X189841902Y-92916737D01*
X189841902Y-93059594D01*
X189794283Y-93154832D01*
X189746664Y-93202451D01*
X189651426Y-93250070D01*
X189270474Y-93250070D01*
X190794283Y-93726260D02*
X190222855Y-93726260D01*
X190508569Y-93726260D02*
X190508569Y-92726260D01*
X190413331Y-92869118D01*
X190318093Y-92964356D01*
X190222855Y-93011975D01*
X191175236Y-92821499D02*
X191222855Y-92773880D01*
X191318093Y-92726260D01*
X191556188Y-92726260D01*
X191651426Y-92773880D01*
X191699045Y-92821499D01*
X191746664Y-92916737D01*
X191746664Y-93011975D01*
X191699045Y-93154832D01*
X191127617Y-93726260D01*
X191746664Y-93726260D01*
%TO.C,R11*%
X157045422Y-81381860D02*
X156712089Y-80905670D01*
X156473994Y-81381860D02*
X156473994Y-80381860D01*
X156854946Y-80381860D01*
X156950184Y-80429480D01*
X156997803Y-80477099D01*
X157045422Y-80572337D01*
X157045422Y-80715194D01*
X156997803Y-80810432D01*
X156950184Y-80858051D01*
X156854946Y-80905670D01*
X156473994Y-80905670D01*
X157997803Y-81381860D02*
X157426375Y-81381860D01*
X157712089Y-81381860D02*
X157712089Y-80381860D01*
X157616851Y-80524718D01*
X157521613Y-80619956D01*
X157426375Y-80667575D01*
X158950184Y-81381860D02*
X158378756Y-81381860D01*
X158664470Y-81381860D02*
X158664470Y-80381860D01*
X158569232Y-80524718D01*
X158473994Y-80619956D01*
X158378756Y-80667575D01*
%TO.C,R10*%
X155562380Y-94368857D02*
X155086190Y-94702190D01*
X155562380Y-94940285D02*
X154562380Y-94940285D01*
X154562380Y-94559333D01*
X154610000Y-94464095D01*
X154657619Y-94416476D01*
X154752857Y-94368857D01*
X154895714Y-94368857D01*
X154990952Y-94416476D01*
X155038571Y-94464095D01*
X155086190Y-94559333D01*
X155086190Y-94940285D01*
X155562380Y-93416476D02*
X155562380Y-93987904D01*
X155562380Y-93702190D02*
X154562380Y-93702190D01*
X154705238Y-93797428D01*
X154800476Y-93892666D01*
X154848095Y-93987904D01*
X154562380Y-92797428D02*
X154562380Y-92702190D01*
X154610000Y-92606952D01*
X154657619Y-92559333D01*
X154752857Y-92511714D01*
X154943333Y-92464095D01*
X155181428Y-92464095D01*
X155371904Y-92511714D01*
X155467142Y-92559333D01*
X155514761Y-92606952D01*
X155562380Y-92702190D01*
X155562380Y-92797428D01*
X155514761Y-92892666D01*
X155467142Y-92940285D01*
X155371904Y-92987904D01*
X155181428Y-93035523D01*
X154943333Y-93035523D01*
X154752857Y-92987904D01*
X154657619Y-92940285D01*
X154610000Y-92892666D01*
X154562380Y-92797428D01*
%TO.C,R9*%
X184582773Y-88910420D02*
X184249440Y-88434230D01*
X184011344Y-88910420D02*
X184011344Y-87910420D01*
X184392297Y-87910420D01*
X184487535Y-87958040D01*
X184535154Y-88005659D01*
X184582773Y-88100897D01*
X184582773Y-88243754D01*
X184535154Y-88338992D01*
X184487535Y-88386611D01*
X184392297Y-88434230D01*
X184011344Y-88434230D01*
X185058963Y-88910420D02*
X185249440Y-88910420D01*
X185344678Y-88862801D01*
X185392297Y-88815182D01*
X185487535Y-88672325D01*
X185535154Y-88481849D01*
X185535154Y-88100897D01*
X185487535Y-88005659D01*
X185439916Y-87958040D01*
X185344678Y-87910420D01*
X185154201Y-87910420D01*
X185058963Y-87958040D01*
X185011344Y-88005659D01*
X184963725Y-88100897D01*
X184963725Y-88338992D01*
X185011344Y-88434230D01*
X185058963Y-88481849D01*
X185154201Y-88529468D01*
X185344678Y-88529468D01*
X185439916Y-88481849D01*
X185487535Y-88434230D01*
X185535154Y-88338992D01*
%TO.C,R8*%
X184435453Y-79619100D02*
X184102120Y-79142910D01*
X183864024Y-79619100D02*
X183864024Y-78619100D01*
X184244977Y-78619100D01*
X184340215Y-78666720D01*
X184387834Y-78714339D01*
X184435453Y-78809577D01*
X184435453Y-78952434D01*
X184387834Y-79047672D01*
X184340215Y-79095291D01*
X184244977Y-79142910D01*
X183864024Y-79142910D01*
X185006881Y-79047672D02*
X184911643Y-79000053D01*
X184864024Y-78952434D01*
X184816405Y-78857196D01*
X184816405Y-78809577D01*
X184864024Y-78714339D01*
X184911643Y-78666720D01*
X185006881Y-78619100D01*
X185197358Y-78619100D01*
X185292596Y-78666720D01*
X185340215Y-78714339D01*
X185387834Y-78809577D01*
X185387834Y-78857196D01*
X185340215Y-78952434D01*
X185292596Y-79000053D01*
X185197358Y-79047672D01*
X185006881Y-79047672D01*
X184911643Y-79095291D01*
X184864024Y-79142910D01*
X184816405Y-79238148D01*
X184816405Y-79428624D01*
X184864024Y-79523862D01*
X184911643Y-79571481D01*
X185006881Y-79619100D01*
X185197358Y-79619100D01*
X185292596Y-79571481D01*
X185340215Y-79523862D01*
X185387834Y-79428624D01*
X185387834Y-79238148D01*
X185340215Y-79142910D01*
X185292596Y-79095291D01*
X185197358Y-79047672D01*
%TO.C,R7*%
X159751733Y-73203060D02*
X159418400Y-72726870D01*
X159180304Y-73203060D02*
X159180304Y-72203060D01*
X159561257Y-72203060D01*
X159656495Y-72250680D01*
X159704114Y-72298299D01*
X159751733Y-72393537D01*
X159751733Y-72536394D01*
X159704114Y-72631632D01*
X159656495Y-72679251D01*
X159561257Y-72726870D01*
X159180304Y-72726870D01*
X160085066Y-72203060D02*
X160751733Y-72203060D01*
X160323161Y-73203060D01*
%TO.C,R6*%
X184465933Y-77983340D02*
X184132600Y-77507150D01*
X183894504Y-77983340D02*
X183894504Y-76983340D01*
X184275457Y-76983340D01*
X184370695Y-77030960D01*
X184418314Y-77078579D01*
X184465933Y-77173817D01*
X184465933Y-77316674D01*
X184418314Y-77411912D01*
X184370695Y-77459531D01*
X184275457Y-77507150D01*
X183894504Y-77507150D01*
X185323076Y-76983340D02*
X185132600Y-76983340D01*
X185037361Y-77030960D01*
X184989742Y-77078579D01*
X184894504Y-77221436D01*
X184846885Y-77411912D01*
X184846885Y-77792864D01*
X184894504Y-77888102D01*
X184942123Y-77935721D01*
X185037361Y-77983340D01*
X185227838Y-77983340D01*
X185323076Y-77935721D01*
X185370695Y-77888102D01*
X185418314Y-77792864D01*
X185418314Y-77554769D01*
X185370695Y-77459531D01*
X185323076Y-77411912D01*
X185227838Y-77364293D01*
X185037361Y-77364293D01*
X184942123Y-77411912D01*
X184894504Y-77459531D01*
X184846885Y-77554769D01*
%TO.C,R5*%
X147407333Y-68440380D02*
X147074000Y-67964190D01*
X146835904Y-68440380D02*
X146835904Y-67440380D01*
X147216857Y-67440380D01*
X147312095Y-67488000D01*
X147359714Y-67535619D01*
X147407333Y-67630857D01*
X147407333Y-67773714D01*
X147359714Y-67868952D01*
X147312095Y-67916571D01*
X147216857Y-67964190D01*
X146835904Y-67964190D01*
X148312095Y-67440380D02*
X147835904Y-67440380D01*
X147788285Y-67916571D01*
X147835904Y-67868952D01*
X147931142Y-67821333D01*
X148169238Y-67821333D01*
X148264476Y-67868952D01*
X148312095Y-67916571D01*
X148359714Y-68011809D01*
X148359714Y-68249904D01*
X148312095Y-68345142D01*
X148264476Y-68392761D01*
X148169238Y-68440380D01*
X147931142Y-68440380D01*
X147835904Y-68392761D01*
X147788285Y-68345142D01*
%TO.C,R4*%
X133945333Y-98580380D02*
X133612000Y-98104190D01*
X133373904Y-98580380D02*
X133373904Y-97580380D01*
X133754857Y-97580380D01*
X133850095Y-97628000D01*
X133897714Y-97675619D01*
X133945333Y-97770857D01*
X133945333Y-97913714D01*
X133897714Y-98008952D01*
X133850095Y-98056571D01*
X133754857Y-98104190D01*
X133373904Y-98104190D01*
X134802476Y-97913714D02*
X134802476Y-98580380D01*
X134564380Y-97532761D02*
X134326285Y-98247047D01*
X134945333Y-98247047D01*
%TO.C,R3*%
X179411333Y-93500380D02*
X179078000Y-93024190D01*
X178839904Y-93500380D02*
X178839904Y-92500380D01*
X179220857Y-92500380D01*
X179316095Y-92548000D01*
X179363714Y-92595619D01*
X179411333Y-92690857D01*
X179411333Y-92833714D01*
X179363714Y-92928952D01*
X179316095Y-92976571D01*
X179220857Y-93024190D01*
X178839904Y-93024190D01*
X179744666Y-92500380D02*
X180363714Y-92500380D01*
X180030380Y-92881333D01*
X180173238Y-92881333D01*
X180268476Y-92928952D01*
X180316095Y-92976571D01*
X180363714Y-93071809D01*
X180363714Y-93309904D01*
X180316095Y-93405142D01*
X180268476Y-93452761D01*
X180173238Y-93500380D01*
X179887523Y-93500380D01*
X179792285Y-93452761D01*
X179744666Y-93405142D01*
%TO.C,R2*%
X106200380Y-79414666D02*
X105724190Y-79748000D01*
X106200380Y-79986095D02*
X105200380Y-79986095D01*
X105200380Y-79605142D01*
X105248000Y-79509904D01*
X105295619Y-79462285D01*
X105390857Y-79414666D01*
X105533714Y-79414666D01*
X105628952Y-79462285D01*
X105676571Y-79509904D01*
X105724190Y-79605142D01*
X105724190Y-79986095D01*
X105295619Y-79033714D02*
X105248000Y-78986095D01*
X105200380Y-78890857D01*
X105200380Y-78652761D01*
X105248000Y-78557523D01*
X105295619Y-78509904D01*
X105390857Y-78462285D01*
X105486095Y-78462285D01*
X105628952Y-78509904D01*
X106200380Y-79081333D01*
X106200380Y-78462285D01*
%TO.C,R1*%
X139685020Y-91530466D02*
X139208830Y-91863800D01*
X139685020Y-92101895D02*
X138685020Y-92101895D01*
X138685020Y-91720942D01*
X138732640Y-91625704D01*
X138780259Y-91578085D01*
X138875497Y-91530466D01*
X139018354Y-91530466D01*
X139113592Y-91578085D01*
X139161211Y-91625704D01*
X139208830Y-91720942D01*
X139208830Y-92101895D01*
X139685020Y-90578085D02*
X139685020Y-91149514D01*
X139685020Y-90863800D02*
X138685020Y-90863800D01*
X138827878Y-90959038D01*
X138923116Y-91054276D01*
X138970735Y-91149514D01*
%TO.C,Q3*%
D13*
X170337238Y-94790380D02*
X170240476Y-94742000D01*
X170143714Y-94645238D01*
X169998571Y-94500095D01*
X169901809Y-94451714D01*
X169805047Y-94451714D01*
X169853428Y-94693619D02*
X169756666Y-94645238D01*
X169659904Y-94548476D01*
X169611523Y-94354952D01*
X169611523Y-94016285D01*
X169659904Y-93822761D01*
X169756666Y-93726000D01*
X169853428Y-93677619D01*
X170046952Y-93677619D01*
X170143714Y-93726000D01*
X170240476Y-93822761D01*
X170288857Y-94016285D01*
X170288857Y-94354952D01*
X170240476Y-94548476D01*
X170143714Y-94645238D01*
X170046952Y-94693619D01*
X169853428Y-94693619D01*
X170627523Y-93677619D02*
X171256476Y-93677619D01*
X170917809Y-94064666D01*
X171062952Y-94064666D01*
X171159714Y-94113047D01*
X171208095Y-94161428D01*
X171256476Y-94258190D01*
X171256476Y-94500095D01*
X171208095Y-94596857D01*
X171159714Y-94645238D01*
X171062952Y-94693619D01*
X170772666Y-94693619D01*
X170675904Y-94645238D01*
X170627523Y-94596857D01*
%TO.C,Q1*%
X134777238Y-70914380D02*
X134680476Y-70866000D01*
X134583714Y-70769238D01*
X134438571Y-70624095D01*
X134341809Y-70575714D01*
X134245047Y-70575714D01*
X134293428Y-70817619D02*
X134196666Y-70769238D01*
X134099904Y-70672476D01*
X134051523Y-70478952D01*
X134051523Y-70140285D01*
X134099904Y-69946761D01*
X134196666Y-69850000D01*
X134293428Y-69801619D01*
X134486952Y-69801619D01*
X134583714Y-69850000D01*
X134680476Y-69946761D01*
X134728857Y-70140285D01*
X134728857Y-70478952D01*
X134680476Y-70672476D01*
X134583714Y-70769238D01*
X134486952Y-70817619D01*
X134293428Y-70817619D01*
X135696476Y-70817619D02*
X135115904Y-70817619D01*
X135406190Y-70817619D02*
X135406190Y-69801619D01*
X135309428Y-69946761D01*
X135212666Y-70043523D01*
X135115904Y-70091904D01*
%TO.C,J1*%
D10*
X199397026Y-68768980D02*
X199397026Y-69483266D01*
X199349407Y-69626123D01*
X199254169Y-69721361D01*
X199111312Y-69768980D01*
X199016074Y-69768980D01*
X200397026Y-69768980D02*
X199825598Y-69768980D01*
X200111312Y-69768980D02*
X200111312Y-68768980D01*
X200016074Y-68911838D01*
X199920836Y-69007076D01*
X199825598Y-69054695D01*
%TO.C,D5*%
X173759904Y-82090380D02*
X173759904Y-81090380D01*
X173998000Y-81090380D01*
X174140857Y-81138000D01*
X174236095Y-81233238D01*
X174283714Y-81328476D01*
X174331333Y-81518952D01*
X174331333Y-81661809D01*
X174283714Y-81852285D01*
X174236095Y-81947523D01*
X174140857Y-82042761D01*
X173998000Y-82090380D01*
X173759904Y-82090380D01*
X175236095Y-81090380D02*
X174759904Y-81090380D01*
X174712285Y-81566571D01*
X174759904Y-81518952D01*
X174855142Y-81471333D01*
X175093238Y-81471333D01*
X175188476Y-81518952D01*
X175236095Y-81566571D01*
X175283714Y-81661809D01*
X175283714Y-81899904D01*
X175236095Y-81995142D01*
X175188476Y-82042761D01*
X175093238Y-82090380D01*
X174855142Y-82090380D01*
X174759904Y-82042761D01*
X174712285Y-81995142D01*
%TO.C,D4*%
X105696380Y-93956095D02*
X104696380Y-93956095D01*
X104696380Y-93718000D01*
X104744000Y-93575142D01*
X104839238Y-93479904D01*
X104934476Y-93432285D01*
X105124952Y-93384666D01*
X105267809Y-93384666D01*
X105458285Y-93432285D01*
X105553523Y-93479904D01*
X105648761Y-93575142D01*
X105696380Y-93718000D01*
X105696380Y-93956095D01*
X105029714Y-92527523D02*
X105696380Y-92527523D01*
X104648761Y-92765619D02*
X105363047Y-93003714D01*
X105363047Y-92384666D01*
X105376380Y-89669904D02*
X104376380Y-89669904D01*
X105376380Y-89098476D02*
X104804952Y-89527047D01*
X104376380Y-89098476D02*
X104947809Y-89669904D01*
%TO.C,D3*%
X128547904Y-71738380D02*
X128547904Y-70738380D01*
X128786000Y-70738380D01*
X128928857Y-70786000D01*
X129024095Y-70881238D01*
X129071714Y-70976476D01*
X129119333Y-71166952D01*
X129119333Y-71309809D01*
X129071714Y-71500285D01*
X129024095Y-71595523D01*
X128928857Y-71690761D01*
X128786000Y-71738380D01*
X128547904Y-71738380D01*
X129452666Y-70738380D02*
X130071714Y-70738380D01*
X129738380Y-71119333D01*
X129881238Y-71119333D01*
X129976476Y-71166952D01*
X130024095Y-71214571D01*
X130071714Y-71309809D01*
X130071714Y-71547904D01*
X130024095Y-71643142D01*
X129976476Y-71690761D01*
X129881238Y-71738380D01*
X129595523Y-71738380D01*
X129500285Y-71690761D01*
X129452666Y-71643142D01*
X125214095Y-72058380D02*
X125214095Y-71058380D01*
X125785523Y-72058380D02*
X125356952Y-71486952D01*
X125785523Y-71058380D02*
X125214095Y-71629809D01*
%TO.C,D2*%
X125007144Y-79822300D02*
X125007144Y-78822300D01*
X125245240Y-78822300D01*
X125388097Y-78869920D01*
X125483335Y-78965158D01*
X125530954Y-79060396D01*
X125578573Y-79250872D01*
X125578573Y-79393729D01*
X125530954Y-79584205D01*
X125483335Y-79679443D01*
X125388097Y-79774681D01*
X125245240Y-79822300D01*
X125007144Y-79822300D01*
X125959525Y-78917539D02*
X126007144Y-78869920D01*
X126102382Y-78822300D01*
X126340478Y-78822300D01*
X126435716Y-78869920D01*
X126483335Y-78917539D01*
X126530954Y-79012777D01*
X126530954Y-79108015D01*
X126483335Y-79250872D01*
X125911906Y-79822300D01*
X126530954Y-79822300D01*
X126992095Y-75868380D02*
X126992095Y-74868380D01*
X127563523Y-75868380D02*
X127134952Y-75296952D01*
X127563523Y-74868380D02*
X126992095Y-75439809D01*
%TO.C,D1*%
X131607820Y-91954575D02*
X130607820Y-91954575D01*
X130607820Y-91716480D01*
X130655440Y-91573622D01*
X130750678Y-91478384D01*
X130845916Y-91430765D01*
X131036392Y-91383146D01*
X131179249Y-91383146D01*
X131369725Y-91430765D01*
X131464963Y-91478384D01*
X131560201Y-91573622D01*
X131607820Y-91716480D01*
X131607820Y-91954575D01*
X131607820Y-90430765D02*
X131607820Y-91002194D01*
X131607820Y-90716480D02*
X130607820Y-90716480D01*
X130750678Y-90811718D01*
X130845916Y-90906956D01*
X130893535Y-91002194D01*
X133316380Y-81541904D02*
X132316380Y-81541904D01*
X133316380Y-80970476D02*
X132744952Y-81399047D01*
X132316380Y-80970476D02*
X132887809Y-81541904D01*
%TO.C,C4*%
X101579142Y-79354666D02*
X101626761Y-79402285D01*
X101674380Y-79545142D01*
X101674380Y-79640380D01*
X101626761Y-79783238D01*
X101531523Y-79878476D01*
X101436285Y-79926095D01*
X101245809Y-79973714D01*
X101102952Y-79973714D01*
X100912476Y-79926095D01*
X100817238Y-79878476D01*
X100722000Y-79783238D01*
X100674380Y-79640380D01*
X100674380Y-79545142D01*
X100722000Y-79402285D01*
X100769619Y-79354666D01*
X101007714Y-78497523D02*
X101674380Y-78497523D01*
X100626761Y-78735619D02*
X101341047Y-78973714D01*
X101341047Y-78354666D01*
%TO.C,C3*%
X166245333Y-86301142D02*
X166197714Y-86348761D01*
X166054857Y-86396380D01*
X165959619Y-86396380D01*
X165816761Y-86348761D01*
X165721523Y-86253523D01*
X165673904Y-86158285D01*
X165626285Y-85967809D01*
X165626285Y-85824952D01*
X165673904Y-85634476D01*
X165721523Y-85539238D01*
X165816761Y-85444000D01*
X165959619Y-85396380D01*
X166054857Y-85396380D01*
X166197714Y-85444000D01*
X166245333Y-85491619D01*
X166578666Y-85396380D02*
X167197714Y-85396380D01*
X166864380Y-85777333D01*
X167007238Y-85777333D01*
X167102476Y-85824952D01*
X167150095Y-85872571D01*
X167197714Y-85967809D01*
X167197714Y-86205904D01*
X167150095Y-86301142D01*
X167102476Y-86348761D01*
X167007238Y-86396380D01*
X166721523Y-86396380D01*
X166626285Y-86348761D01*
X166578666Y-86301142D01*
%TO.C,C2*%
X147347333Y-73125142D02*
X147299714Y-73172761D01*
X147156857Y-73220380D01*
X147061619Y-73220380D01*
X146918761Y-73172761D01*
X146823523Y-73077523D01*
X146775904Y-72982285D01*
X146728285Y-72791809D01*
X146728285Y-72648952D01*
X146775904Y-72458476D01*
X146823523Y-72363238D01*
X146918761Y-72268000D01*
X147061619Y-72220380D01*
X147156857Y-72220380D01*
X147299714Y-72268000D01*
X147347333Y-72315619D01*
X147728285Y-72315619D02*
X147775904Y-72268000D01*
X147871142Y-72220380D01*
X148109238Y-72220380D01*
X148204476Y-72268000D01*
X148252095Y-72315619D01*
X148299714Y-72410857D01*
X148299714Y-72506095D01*
X148252095Y-72648952D01*
X147680666Y-73220380D01*
X148299714Y-73220380D01*
%TO.C,C1*%
X135276862Y-91479666D02*
X135324481Y-91527285D01*
X135372100Y-91670142D01*
X135372100Y-91765380D01*
X135324481Y-91908238D01*
X135229243Y-92003476D01*
X135134005Y-92051095D01*
X134943529Y-92098714D01*
X134800672Y-92098714D01*
X134610196Y-92051095D01*
X134514958Y-92003476D01*
X134419720Y-91908238D01*
X134372100Y-91765380D01*
X134372100Y-91670142D01*
X134419720Y-91527285D01*
X134467339Y-91479666D01*
X135372100Y-90527285D02*
X135372100Y-91098714D01*
X135372100Y-90813000D02*
X134372100Y-90813000D01*
X134514958Y-90908238D01*
X134610196Y-91003476D01*
X134657815Y-91098714D01*
%TD*%
M02*
