%TF.GenerationSoftware,KiCad,Pcbnew,5.1.5+dfsg1-2build2*%
%TF.CreationDate,2022-12-31T14:33:42+00:00*%
%TF.ProjectId,g850-pic-prog,67383530-2d70-4696-932d-70726f672e6b,rev?*%
%TF.SameCoordinates,Original*%
%TF.FileFunction,Copper,L1,Top*%
%TF.FilePolarity,Positive*%
%FSLAX46Y46*%
G04 Gerber Fmt 4.6, Leading zero omitted, Abs format (unit mm)*
G04 Created by KiCad (PCBNEW 5.1.5+dfsg1-2build2) date 2022-12-31 14:33:42*
%MOMM*%
%LPD*%
G04 APERTURE LIST*
%TA.AperFunction,ComponentPad*%
%ADD10O,2.000000X1.440000*%
%TD*%
%TA.AperFunction,ComponentPad*%
%ADD11R,2.000000X1.440000*%
%TD*%
%TA.AperFunction,ComponentPad*%
%ADD12C,1.397000*%
%TD*%
%TA.AperFunction,ComponentPad*%
%ADD13R,1.397000X1.397000*%
%TD*%
%TA.AperFunction,ComponentPad*%
%ADD14O,1.600000X1.600000*%
%TD*%
%TA.AperFunction,ComponentPad*%
%ADD15R,1.600000X1.600000*%
%TD*%
%TA.AperFunction,ComponentPad*%
%ADD16C,2.000000*%
%TD*%
%TA.AperFunction,ComponentPad*%
%ADD17C,1.600000*%
%TD*%
%TA.AperFunction,ComponentPad*%
%ADD18O,2.190000X1.740000*%
%TD*%
%TA.AperFunction,ComponentPad*%
%ADD19C,0.100000*%
%TD*%
%TA.AperFunction,ComponentPad*%
%ADD20C,1.800000*%
%TD*%
%TA.AperFunction,ComponentPad*%
%ADD21R,1.800000X1.800000*%
%TD*%
%TA.AperFunction,ViaPad*%
%ADD22C,1.000000*%
%TD*%
%TA.AperFunction,Conductor*%
%ADD23C,1.000000*%
%TD*%
%TA.AperFunction,Conductor*%
%ADD24C,0.254000*%
%TD*%
G04 APERTURE END LIST*
D10*
%TO.P,U2,10*%
%TO.N,GND*%
X119634000Y-96520000D03*
%TO.P,U2,9*%
X112014000Y-96520000D03*
%TO.P,U2,11*%
X119634000Y-93980000D03*
%TO.P,U2,8*%
X112014000Y-93980000D03*
%TO.P,U2,12*%
%TO.N,Net-(Q1-Pad1)*%
X119634000Y-91440000D03*
%TO.P,U2,7*%
%TO.N,GND*%
X112014000Y-91440000D03*
%TO.P,U2,13*%
%TO.N,Net-(R8-Pad1)*%
X119634000Y-88900000D03*
%TO.P,U2,6*%
%TO.N,GND*%
X112014000Y-88900000D03*
%TO.P,U2,14*%
%TO.N,+5V*%
X119634000Y-86360000D03*
%TO.P,U2,5*%
%TO.N,GND*%
X112014000Y-86360000D03*
%TO.P,U2,15*%
%TO.N,N/C*%
X119634000Y-83820000D03*
%TO.P,U2,4*%
%TO.N,Net-(D4-Pad1)*%
X112014000Y-83820000D03*
%TO.P,U2,16*%
%TO.N,N/C*%
X119634000Y-81280000D03*
%TO.P,U2,3*%
%TO.N,GND*%
X112014000Y-81280000D03*
%TO.P,U2,17*%
X119634000Y-78740000D03*
%TO.P,U2,2*%
X112014000Y-78740000D03*
%TO.P,U2,18*%
X119634000Y-76200000D03*
D11*
%TO.P,U2,1*%
X112014000Y-76200000D03*
%TD*%
D12*
%TO.P,Q2,1*%
%TO.N,V+*%
X183388000Y-86106000D03*
%TO.P,Q2,2*%
%TO.N,Net-(Q2-Pad2)*%
X181356000Y-84074000D03*
D13*
%TO.P,Q2,3*%
%TO.N,+5V*%
X183388000Y-82042000D03*
%TD*%
D14*
%TO.P,U1,14*%
%TO.N,+5V*%
X151384000Y-81026000D03*
%TO.P,U1,7*%
%TO.N,GND*%
X143764000Y-96266000D03*
%TO.P,U1,13*%
%TO.N,Net-(U1-Pad10)*%
X151384000Y-83566000D03*
%TO.P,U1,6*%
%TO.N,Net-(R1-Pad2)*%
X143764000Y-93726000D03*
%TO.P,U1,12*%
%TO.N,N/C*%
X151384000Y-86106000D03*
%TO.P,U1,5*%
%TO.N,Net-(C3-Pad2)*%
X143764000Y-91186000D03*
%TO.P,U1,11*%
%TO.N,Net-(U1-Pad11)*%
X151384000Y-88646000D03*
%TO.P,U1,4*%
%TO.N,Net-(C3-Pad2)*%
X143764000Y-88646000D03*
%TO.P,U1,10*%
%TO.N,Net-(U1-Pad10)*%
X151384000Y-91186000D03*
%TO.P,U1,3*%
%TO.N,Net-(C1-Pad2)*%
X143764000Y-86106000D03*
%TO.P,U1,9*%
%TO.N,GND*%
X151384000Y-93726000D03*
%TO.P,U1,2*%
%TO.N,Net-(C1-Pad2)*%
X143764000Y-83566000D03*
%TO.P,U1,8*%
%TO.N,Net-(U1-Pad11)*%
X151384000Y-96266000D03*
D15*
%TO.P,U1,1*%
%TO.N,Net-(C2-Pad1)*%
X143764000Y-81026000D03*
%TD*%
D16*
%TO.P,TP2,1*%
%TO.N,Net-(D4-Pad1)*%
X97790000Y-89408000D03*
%TD*%
%TO.P,TP1,1*%
%TO.N,GND*%
X163576000Y-94996000D03*
%TD*%
D14*
%TO.P,R13,2*%
%TO.N,CP*%
X194564000Y-80518000D03*
D17*
%TO.P,R13,1*%
%TO.N,Net-(Q3-Pad2)*%
X186944000Y-80518000D03*
%TD*%
D14*
%TO.P,R12,2*%
%TO.N,LOW_BATT*%
X194564000Y-90678000D03*
D17*
%TO.P,R12,1*%
%TO.N,+5V*%
X186944000Y-90678000D03*
%TD*%
D14*
%TO.P,R11,2*%
%TO.N,Net-(Q2-Pad2)*%
X167962000Y-79614000D03*
D17*
%TO.P,R11,1*%
%TO.N,V+*%
X160342000Y-79614000D03*
%TD*%
D14*
%TO.P,R10,2*%
%TO.N,GND*%
X157480000Y-89916000D03*
D17*
%TO.P,R10,1*%
%TO.N,Net-(Q3-Pad2)*%
X157480000Y-97536000D03*
%TD*%
D14*
%TO.P,R9,2*%
%TO.N,DATA_OUT*%
X194564000Y-88138000D03*
D17*
%TO.P,R9,1*%
%TO.N,Net-(R8-Pad1)*%
X186944000Y-88138000D03*
%TD*%
D14*
%TO.P,R8,2*%
%TO.N,DATA_IN*%
X194564000Y-85598000D03*
D17*
%TO.P,R8,1*%
%TO.N,Net-(R8-Pad1)*%
X186944000Y-85598000D03*
%TD*%
D14*
%TO.P,R7,2*%
%TO.N,Net-(D5-Pad1)*%
X167962000Y-75564000D03*
D17*
%TO.P,R7,1*%
%TO.N,Net-(Q2-Pad2)*%
X160342000Y-75564000D03*
%TD*%
D14*
%TO.P,R6,2*%
%TO.N,CLOCK*%
X194564000Y-83058000D03*
D17*
%TO.P,R6,1*%
%TO.N,Net-(Q1-Pad2)*%
X186944000Y-83058000D03*
%TD*%
D14*
%TO.P,R5,2*%
%TO.N,GND*%
X151384000Y-70358000D03*
D17*
%TO.P,R5,1*%
%TO.N,Net-(Q1-Pad2)*%
X143764000Y-70358000D03*
%TD*%
D14*
%TO.P,R4,2*%
%TO.N,Net-(Q1-Pad1)*%
X130302000Y-95758000D03*
D17*
%TO.P,R4,1*%
%TO.N,+5V*%
X137922000Y-95758000D03*
%TD*%
D14*
%TO.P,R3,2*%
%TO.N,Net-(D5-Pad2)*%
X175768000Y-90678000D03*
D17*
%TO.P,R3,1*%
%TO.N,+5V*%
X183388000Y-90678000D03*
%TD*%
D14*
%TO.P,R2,2*%
%TO.N,Net-(D4-Pad1)*%
X103378000Y-83058000D03*
D17*
%TO.P,R2,1*%
%TO.N,Net-(C4-Pad1)*%
X103378000Y-75438000D03*
%TD*%
D14*
%TO.P,R1,2*%
%TO.N,Net-(R1-Pad2)*%
X139192000Y-88900000D03*
D17*
%TO.P,R1,1*%
%TO.N,Net-(C2-Pad1)*%
X139192000Y-81280000D03*
%TD*%
D12*
%TO.P,Q3,1*%
%TO.N,Net-(D5-Pad1)*%
X173990000Y-99060000D03*
%TO.P,Q3,2*%
%TO.N,Net-(Q3-Pad2)*%
X171958000Y-97028000D03*
D13*
%TO.P,Q3,3*%
%TO.N,GND*%
X173990000Y-94996000D03*
%TD*%
D12*
%TO.P,Q1,1*%
%TO.N,Net-(Q1-Pad1)*%
X138430000Y-75184000D03*
%TO.P,Q1,2*%
%TO.N,Net-(Q1-Pad2)*%
X136398000Y-73152000D03*
D13*
%TO.P,Q1,3*%
%TO.N,GND*%
X138430000Y-71120000D03*
%TD*%
D18*
%TO.P,J1,11*%
%TO.N,N/C*%
X199898000Y-98298000D03*
%TO.P,J1,10*%
X199898000Y-95758000D03*
%TO.P,J1,9*%
X199898000Y-93218000D03*
%TO.P,J1,8*%
%TO.N,LOW_BATT*%
X199898000Y-90678000D03*
%TO.P,J1,7*%
%TO.N,DATA_OUT*%
X199898000Y-88138000D03*
%TO.P,J1,6*%
%TO.N,DATA_IN*%
X199898000Y-85598000D03*
%TO.P,J1,5*%
%TO.N,CLOCK*%
X199898000Y-83058000D03*
%TO.P,J1,4*%
%TO.N,CP*%
X199898000Y-80518000D03*
%TO.P,J1,3*%
%TO.N,GND*%
X199898000Y-77978000D03*
%TO.P,J1,2*%
%TO.N,V+*%
X199898000Y-75438000D03*
%TA.AperFunction,ComponentPad*%
D19*
%TO.P,J1,1*%
%TO.N,N/C*%
G36*
X200767505Y-72029204D02*
G01*
X200791773Y-72032804D01*
X200815572Y-72038765D01*
X200838671Y-72047030D01*
X200860850Y-72057520D01*
X200881893Y-72070132D01*
X200901599Y-72084747D01*
X200919777Y-72101223D01*
X200936253Y-72119401D01*
X200950868Y-72139107D01*
X200963480Y-72160150D01*
X200973970Y-72182329D01*
X200982235Y-72205428D01*
X200988196Y-72229227D01*
X200991796Y-72253495D01*
X200993000Y-72277999D01*
X200993000Y-73518001D01*
X200991796Y-73542505D01*
X200988196Y-73566773D01*
X200982235Y-73590572D01*
X200973970Y-73613671D01*
X200963480Y-73635850D01*
X200950868Y-73656893D01*
X200936253Y-73676599D01*
X200919777Y-73694777D01*
X200901599Y-73711253D01*
X200881893Y-73725868D01*
X200860850Y-73738480D01*
X200838671Y-73748970D01*
X200815572Y-73757235D01*
X200791773Y-73763196D01*
X200767505Y-73766796D01*
X200743001Y-73768000D01*
X199052999Y-73768000D01*
X199028495Y-73766796D01*
X199004227Y-73763196D01*
X198980428Y-73757235D01*
X198957329Y-73748970D01*
X198935150Y-73738480D01*
X198914107Y-73725868D01*
X198894401Y-73711253D01*
X198876223Y-73694777D01*
X198859747Y-73676599D01*
X198845132Y-73656893D01*
X198832520Y-73635850D01*
X198822030Y-73613671D01*
X198813765Y-73590572D01*
X198807804Y-73566773D01*
X198804204Y-73542505D01*
X198803000Y-73518001D01*
X198803000Y-72277999D01*
X198804204Y-72253495D01*
X198807804Y-72229227D01*
X198813765Y-72205428D01*
X198822030Y-72182329D01*
X198832520Y-72160150D01*
X198845132Y-72139107D01*
X198859747Y-72119401D01*
X198876223Y-72101223D01*
X198894401Y-72084747D01*
X198914107Y-72070132D01*
X198935150Y-72057520D01*
X198957329Y-72047030D01*
X198980428Y-72038765D01*
X199004227Y-72032804D01*
X199028495Y-72029204D01*
X199052999Y-72028000D01*
X200743001Y-72028000D01*
X200767505Y-72029204D01*
G37*
%TD.AperFunction*%
%TD*%
D20*
%TO.P,D5,2*%
%TO.N,Net-(D5-Pad2)*%
X175768000Y-85598000D03*
D21*
%TO.P,D5,1*%
%TO.N,Net-(D5-Pad1)*%
X173228000Y-85598000D03*
%TD*%
D14*
%TO.P,D4,2*%
%TO.N,GND*%
X103124000Y-97028000D03*
D15*
%TO.P,D4,1*%
%TO.N,Net-(D4-Pad1)*%
X103124000Y-89408000D03*
%TD*%
D14*
%TO.P,D3,2*%
%TO.N,Net-(C3-Pad1)*%
X133096000Y-73406000D03*
D15*
%TO.P,D3,1*%
%TO.N,Net-(C4-Pad1)*%
X125476000Y-73406000D03*
%TD*%
D14*
%TO.P,D2,2*%
%TO.N,Net-(C1-Pad1)*%
X134874000Y-77216000D03*
D15*
%TO.P,D2,1*%
%TO.N,Net-(C3-Pad1)*%
X127254000Y-77216000D03*
%TD*%
D14*
%TO.P,D1,2*%
%TO.N,+5V*%
X131064000Y-88900000D03*
D15*
%TO.P,D1,1*%
%TO.N,Net-(C1-Pad1)*%
X131064000Y-81280000D03*
%TD*%
D14*
%TO.P,C4,2*%
%TO.N,GND*%
X98552000Y-82938000D03*
D17*
%TO.P,C4,1*%
%TO.N,Net-(C4-Pad1)*%
X98552000Y-75438000D03*
%TD*%
D14*
%TO.P,C3,2*%
%TO.N,Net-(C3-Pad2)*%
X170162000Y-88614000D03*
D17*
%TO.P,C3,1*%
%TO.N,Net-(C3-Pad1)*%
X162662000Y-88614000D03*
%TD*%
D14*
%TO.P,C2,2*%
%TO.N,GND*%
X151264000Y-75438000D03*
D17*
%TO.P,C2,1*%
%TO.N,Net-(C2-Pad1)*%
X143764000Y-75438000D03*
%TD*%
D14*
%TO.P,C1,2*%
%TO.N,Net-(C1-Pad2)*%
X135128000Y-88780000D03*
D17*
%TO.P,C1,1*%
%TO.N,Net-(C1-Pad1)*%
X135128000Y-81280000D03*
%TD*%
D22*
%TO.N,Net-(C3-Pad2)*%
X157226000Y-77978000D03*
X147066000Y-77978000D03*
%TO.N,Net-(R8-Pad1)*%
X186436000Y-93472000D03*
X186436000Y-101092000D03*
X127000000Y-88900000D03*
X127000000Y-101092000D03*
%TO.N,V+*%
X168402000Y-84074000D03*
%TO.N,Net-(U1-Pad11)*%
X153924000Y-96266000D03*
X153924000Y-88646000D03*
%TD*%
D23*
%TO.N,Net-(C1-Pad2)*%
X135128000Y-88780000D02*
X138310000Y-85598000D01*
X143256000Y-85598000D02*
X143764000Y-86106000D01*
X138310000Y-85598000D02*
X143256000Y-85598000D01*
%TO.N,GND*%
X173990000Y-94996000D02*
X177546000Y-94996000D01*
X177546000Y-94996000D02*
X178816000Y-93726000D01*
X178816000Y-93726000D02*
X178816000Y-80772000D01*
X181610000Y-77978000D02*
X199898000Y-77978000D01*
X178816000Y-80772000D02*
X181610000Y-77978000D01*
%TO.N,Net-(C3-Pad2)*%
X157226000Y-77978000D02*
X147066000Y-77978000D01*
%TO.N,Net-(C3-Pad1)*%
X133096000Y-73406000D02*
X133096000Y-71628000D01*
X133096000Y-71628000D02*
X136652000Y-68072000D01*
X136652000Y-68072000D02*
X162306000Y-68072000D01*
X162306000Y-68072000D02*
X164338000Y-70104000D01*
X164338000Y-86938000D02*
X162662000Y-88614000D01*
X164338000Y-70104000D02*
X164338000Y-86938000D01*
%TO.N,+5V*%
X131064000Y-88900000D02*
X137922000Y-95758000D01*
X137922000Y-95758000D02*
X140970000Y-98806000D01*
X140970000Y-98806000D02*
X146558000Y-98806000D01*
X146558000Y-98806000D02*
X148336000Y-97028000D01*
X148336000Y-97028000D02*
X148336000Y-82296000D01*
X149606000Y-81026000D02*
X151384000Y-81026000D01*
X148336000Y-82296000D02*
X149606000Y-81026000D01*
%TO.N,Net-(D5-Pad1)*%
X173228000Y-85598000D02*
X173228000Y-90424000D01*
X173228000Y-90424000D02*
X169418000Y-94234000D01*
X169418000Y-94234000D02*
X169418000Y-98806000D01*
X169672000Y-99060000D02*
X173990000Y-99060000D01*
X169418000Y-98806000D02*
X169672000Y-99060000D01*
%TO.N,Net-(Q1-Pad2)*%
X136398000Y-73152000D02*
X141224000Y-73152000D01*
X143764000Y-70612000D02*
X143764000Y-70358000D01*
X141224000Y-73152000D02*
X143764000Y-70612000D01*
%TO.N,Net-(R8-Pad1)*%
X186436000Y-101092000D02*
X186436000Y-101092000D01*
X186436000Y-93472000D02*
X186436000Y-93472000D01*
X186436000Y-101092000D02*
X186436000Y-93472000D01*
X127000000Y-88900000D02*
X127000000Y-101092000D01*
%TO.N,V+*%
X199898000Y-75438000D02*
X175768000Y-75438000D01*
X175768000Y-75438000D02*
X168402000Y-82804000D01*
X168402000Y-82804000D02*
X168402000Y-84074000D01*
%TO.N,Net-(U1-Pad11)*%
X153924000Y-96266000D02*
X153924000Y-88646000D01*
%TD*%
D24*
%TO.N,GND*%
G36*
X132332860Y-70786009D02*
G01*
X132289552Y-70821551D01*
X132147717Y-70994377D01*
X132124546Y-71037727D01*
X132042324Y-71191554D01*
X131977423Y-71405502D01*
X131955509Y-71628000D01*
X131961000Y-71683751D01*
X131961000Y-72521716D01*
X131824320Y-72726273D01*
X131716147Y-72987426D01*
X131661000Y-73264665D01*
X131661000Y-73547335D01*
X131716147Y-73824574D01*
X131824320Y-74085727D01*
X131981363Y-74320759D01*
X132181241Y-74520637D01*
X132416273Y-74677680D01*
X132677426Y-74785853D01*
X132954665Y-74841000D01*
X133237335Y-74841000D01*
X133514574Y-74785853D01*
X133775727Y-74677680D01*
X134010759Y-74520637D01*
X134210637Y-74320759D01*
X134367680Y-74085727D01*
X134475853Y-73824574D01*
X134531000Y-73547335D01*
X134531000Y-73264665D01*
X134475853Y-72987426D01*
X134367680Y-72726273D01*
X134231000Y-72521716D01*
X134231000Y-72098131D01*
X135907631Y-70421500D01*
X137093428Y-70421500D01*
X137096500Y-70834250D01*
X137255250Y-70993000D01*
X138303000Y-70993000D01*
X138303000Y-69945250D01*
X138557000Y-69945250D01*
X138557000Y-70993000D01*
X139604750Y-70993000D01*
X139763500Y-70834250D01*
X139766572Y-70421500D01*
X139754312Y-70297018D01*
X139718002Y-70177320D01*
X139659037Y-70067006D01*
X139579685Y-69970315D01*
X139482994Y-69890963D01*
X139372680Y-69831998D01*
X139252982Y-69795688D01*
X139128500Y-69783428D01*
X138715750Y-69786500D01*
X138557000Y-69945250D01*
X138303000Y-69945250D01*
X138144250Y-69786500D01*
X137731500Y-69783428D01*
X137607018Y-69795688D01*
X137487320Y-69831998D01*
X137377006Y-69890963D01*
X137280315Y-69970315D01*
X137200963Y-70067006D01*
X137141998Y-70177320D01*
X137105688Y-70297018D01*
X137093428Y-70421500D01*
X135907631Y-70421500D01*
X137122132Y-69207000D01*
X142903662Y-69207000D01*
X142849241Y-69243363D01*
X142649363Y-69443241D01*
X142492320Y-69678273D01*
X142384147Y-69939426D01*
X142329000Y-70216665D01*
X142329000Y-70441868D01*
X140753869Y-72017000D01*
X139731859Y-72017000D01*
X139754312Y-71942982D01*
X139766572Y-71818500D01*
X139763500Y-71405750D01*
X139604750Y-71247000D01*
X138557000Y-71247000D01*
X138557000Y-71267000D01*
X138303000Y-71267000D01*
X138303000Y-71247000D01*
X137255250Y-71247000D01*
X137096500Y-71405750D01*
X137093428Y-71818500D01*
X137105688Y-71942982D01*
X137128141Y-72017000D01*
X137099589Y-72017000D01*
X137029649Y-71970268D01*
X136786968Y-71869746D01*
X136529338Y-71818500D01*
X136266662Y-71818500D01*
X136009032Y-71869746D01*
X135766351Y-71970268D01*
X135547943Y-72116203D01*
X135362203Y-72301943D01*
X135216268Y-72520351D01*
X135115746Y-72763032D01*
X135064500Y-73020662D01*
X135064500Y-73283338D01*
X135115746Y-73540968D01*
X135216268Y-73783649D01*
X135362203Y-74002057D01*
X135547943Y-74187797D01*
X135766351Y-74333732D01*
X136009032Y-74434254D01*
X136266662Y-74485500D01*
X136529338Y-74485500D01*
X136786968Y-74434254D01*
X137029649Y-74333732D01*
X137099589Y-74287000D01*
X137441146Y-74287000D01*
X137394203Y-74333943D01*
X137248268Y-74552351D01*
X137147746Y-74795032D01*
X137096500Y-75052662D01*
X137096500Y-75315338D01*
X137147746Y-75572968D01*
X137248268Y-75815649D01*
X137394203Y-76034057D01*
X137579943Y-76219797D01*
X137798351Y-76365732D01*
X138041032Y-76466254D01*
X138298662Y-76517500D01*
X138561338Y-76517500D01*
X138818968Y-76466254D01*
X139061649Y-76365732D01*
X139280057Y-76219797D01*
X139465797Y-76034057D01*
X139611732Y-75815649D01*
X139712254Y-75572968D01*
X139763500Y-75315338D01*
X139763500Y-75296665D01*
X142329000Y-75296665D01*
X142329000Y-75579335D01*
X142384147Y-75856574D01*
X142492320Y-76117727D01*
X142649363Y-76352759D01*
X142849241Y-76552637D01*
X143084273Y-76709680D01*
X143345426Y-76817853D01*
X143622665Y-76873000D01*
X143905335Y-76873000D01*
X144182574Y-76817853D01*
X144443727Y-76709680D01*
X144678759Y-76552637D01*
X144878637Y-76352759D01*
X145035680Y-76117727D01*
X145143853Y-75856574D01*
X145199000Y-75579335D01*
X145199000Y-75422665D01*
X158907000Y-75422665D01*
X158907000Y-75705335D01*
X158962147Y-75982574D01*
X159070320Y-76243727D01*
X159227363Y-76478759D01*
X159427241Y-76678637D01*
X159662273Y-76835680D01*
X159923426Y-76943853D01*
X160200665Y-76999000D01*
X160483335Y-76999000D01*
X160760574Y-76943853D01*
X161021727Y-76835680D01*
X161256759Y-76678637D01*
X161456637Y-76478759D01*
X161613680Y-76243727D01*
X161721853Y-75982574D01*
X161777000Y-75705335D01*
X161777000Y-75422665D01*
X161721853Y-75145426D01*
X161613680Y-74884273D01*
X161456637Y-74649241D01*
X161256759Y-74449363D01*
X161021727Y-74292320D01*
X160760574Y-74184147D01*
X160483335Y-74129000D01*
X160200665Y-74129000D01*
X159923426Y-74184147D01*
X159662273Y-74292320D01*
X159427241Y-74449363D01*
X159227363Y-74649241D01*
X159070320Y-74884273D01*
X158962147Y-75145426D01*
X158907000Y-75422665D01*
X145199000Y-75422665D01*
X145199000Y-75296665D01*
X145157685Y-75088961D01*
X149872096Y-75088961D01*
X149994085Y-75311000D01*
X151137000Y-75311000D01*
X151137000Y-74167376D01*
X151391000Y-74167376D01*
X151391000Y-75311000D01*
X152533915Y-75311000D01*
X152655904Y-75088961D01*
X152615246Y-74954913D01*
X152495037Y-74700580D01*
X152327519Y-74474586D01*
X152119131Y-74285615D01*
X151877881Y-74140930D01*
X151613040Y-74046091D01*
X151391000Y-74167376D01*
X151137000Y-74167376D01*
X150914960Y-74046091D01*
X150650119Y-74140930D01*
X150408869Y-74285615D01*
X150200481Y-74474586D01*
X150032963Y-74700580D01*
X149912754Y-74954913D01*
X149872096Y-75088961D01*
X145157685Y-75088961D01*
X145143853Y-75019426D01*
X145035680Y-74758273D01*
X144878637Y-74523241D01*
X144678759Y-74323363D01*
X144443727Y-74166320D01*
X144182574Y-74058147D01*
X143905335Y-74003000D01*
X143622665Y-74003000D01*
X143345426Y-74058147D01*
X143084273Y-74166320D01*
X142849241Y-74323363D01*
X142649363Y-74523241D01*
X142492320Y-74758273D01*
X142384147Y-75019426D01*
X142329000Y-75296665D01*
X139763500Y-75296665D01*
X139763500Y-75052662D01*
X139712254Y-74795032D01*
X139611732Y-74552351D01*
X139465797Y-74333943D01*
X139418854Y-74287000D01*
X141168249Y-74287000D01*
X141224000Y-74292491D01*
X141279751Y-74287000D01*
X141279752Y-74287000D01*
X141446499Y-74270577D01*
X141660447Y-74205676D01*
X141857623Y-74100284D01*
X142030449Y-73958449D01*
X142065996Y-73915135D01*
X144286204Y-71694928D01*
X144443727Y-71629680D01*
X144678759Y-71472637D01*
X144878637Y-71272759D01*
X145035680Y-71037727D01*
X145143853Y-70776574D01*
X145157684Y-70707039D01*
X149992096Y-70707039D01*
X150032754Y-70841087D01*
X150152963Y-71095420D01*
X150320481Y-71321414D01*
X150528869Y-71510385D01*
X150770119Y-71655070D01*
X151034960Y-71749909D01*
X151257000Y-71628624D01*
X151257000Y-70485000D01*
X151511000Y-70485000D01*
X151511000Y-71628624D01*
X151733040Y-71749909D01*
X151997881Y-71655070D01*
X152239131Y-71510385D01*
X152447519Y-71321414D01*
X152615037Y-71095420D01*
X152735246Y-70841087D01*
X152775904Y-70707039D01*
X152653915Y-70485000D01*
X151511000Y-70485000D01*
X151257000Y-70485000D01*
X150114085Y-70485000D01*
X149992096Y-70707039D01*
X145157684Y-70707039D01*
X145199000Y-70499335D01*
X145199000Y-70216665D01*
X145143853Y-69939426D01*
X145035680Y-69678273D01*
X144878637Y-69443241D01*
X144678759Y-69243363D01*
X144624338Y-69207000D01*
X150527342Y-69207000D01*
X150320481Y-69394586D01*
X150152963Y-69620580D01*
X150032754Y-69874913D01*
X149992096Y-70008961D01*
X150114085Y-70231000D01*
X151257000Y-70231000D01*
X151257000Y-70211000D01*
X151511000Y-70211000D01*
X151511000Y-70231000D01*
X152653915Y-70231000D01*
X152775904Y-70008961D01*
X152735246Y-69874913D01*
X152615037Y-69620580D01*
X152447519Y-69394586D01*
X152240658Y-69207000D01*
X161835869Y-69207000D01*
X163203000Y-70574132D01*
X163203001Y-86467867D01*
X162484718Y-87186150D01*
X162243426Y-87234147D01*
X161982273Y-87342320D01*
X161747241Y-87499363D01*
X161547363Y-87699241D01*
X161390320Y-87934273D01*
X161282147Y-88195426D01*
X161227000Y-88472665D01*
X161227000Y-88755335D01*
X161282147Y-89032574D01*
X161390320Y-89293727D01*
X161547363Y-89528759D01*
X161747241Y-89728637D01*
X161982273Y-89885680D01*
X162243426Y-89993853D01*
X162520665Y-90049000D01*
X162803335Y-90049000D01*
X163080574Y-89993853D01*
X163341727Y-89885680D01*
X163576759Y-89728637D01*
X163776637Y-89528759D01*
X163933680Y-89293727D01*
X164041853Y-89032574D01*
X164089850Y-88791282D01*
X164408466Y-88472665D01*
X168727000Y-88472665D01*
X168727000Y-88755335D01*
X168782147Y-89032574D01*
X168890320Y-89293727D01*
X169047363Y-89528759D01*
X169247241Y-89728637D01*
X169482273Y-89885680D01*
X169743426Y-89993853D01*
X170020665Y-90049000D01*
X170303335Y-90049000D01*
X170580574Y-89993853D01*
X170841727Y-89885680D01*
X171076759Y-89728637D01*
X171276637Y-89528759D01*
X171433680Y-89293727D01*
X171541853Y-89032574D01*
X171597000Y-88755335D01*
X171597000Y-88472665D01*
X171541853Y-88195426D01*
X171433680Y-87934273D01*
X171276637Y-87699241D01*
X171076759Y-87499363D01*
X170841727Y-87342320D01*
X170580574Y-87234147D01*
X170303335Y-87179000D01*
X170020665Y-87179000D01*
X169743426Y-87234147D01*
X169482273Y-87342320D01*
X169247241Y-87499363D01*
X169047363Y-87699241D01*
X168890320Y-87934273D01*
X168782147Y-88195426D01*
X168727000Y-88472665D01*
X164408466Y-88472665D01*
X165101140Y-87779991D01*
X165144449Y-87744449D01*
X165286284Y-87571623D01*
X165391676Y-87374447D01*
X165456577Y-87160499D01*
X165473000Y-86993752D01*
X165478491Y-86938000D01*
X165473000Y-86882249D01*
X165473000Y-75422665D01*
X166527000Y-75422665D01*
X166527000Y-75705335D01*
X166582147Y-75982574D01*
X166690320Y-76243727D01*
X166847363Y-76478759D01*
X167047241Y-76678637D01*
X167282273Y-76835680D01*
X167543426Y-76943853D01*
X167820665Y-76999000D01*
X168103335Y-76999000D01*
X168380574Y-76943853D01*
X168641727Y-76835680D01*
X168876759Y-76678637D01*
X169076637Y-76478759D01*
X169233680Y-76243727D01*
X169341853Y-75982574D01*
X169397000Y-75705335D01*
X169397000Y-75422665D01*
X169341853Y-75145426D01*
X169233680Y-74884273D01*
X169076637Y-74649241D01*
X168876759Y-74449363D01*
X168641727Y-74292320D01*
X168380574Y-74184147D01*
X168103335Y-74129000D01*
X167820665Y-74129000D01*
X167543426Y-74184147D01*
X167282273Y-74292320D01*
X167047241Y-74449363D01*
X166847363Y-74649241D01*
X166690320Y-74884273D01*
X166582147Y-75145426D01*
X166527000Y-75422665D01*
X165473000Y-75422665D01*
X165473000Y-70159751D01*
X165478491Y-70104000D01*
X165456577Y-69881501D01*
X165391676Y-69667553D01*
X165389626Y-69663717D01*
X165286284Y-69470377D01*
X165144449Y-69297551D01*
X165101141Y-69262009D01*
X163301131Y-67462000D01*
X201270000Y-67462000D01*
X201270001Y-69820124D01*
X201269771Y-69822659D01*
X201270001Y-69852558D01*
X201270001Y-69882419D01*
X201270250Y-69884949D01*
X201283274Y-71578074D01*
X201236387Y-71539595D01*
X201082851Y-71457528D01*
X200916255Y-71406992D01*
X200743001Y-71389928D01*
X199052999Y-71389928D01*
X198879745Y-71406992D01*
X198713149Y-71457528D01*
X198559613Y-71539595D01*
X198425038Y-71650038D01*
X198314595Y-71784613D01*
X198232528Y-71938149D01*
X198181992Y-72104745D01*
X198164928Y-72277999D01*
X198164928Y-73518001D01*
X198181992Y-73691255D01*
X198232528Y-73857851D01*
X198314595Y-74011387D01*
X198425038Y-74145962D01*
X198559613Y-74256405D01*
X198646786Y-74303000D01*
X175823751Y-74303000D01*
X175767999Y-74297509D01*
X175712248Y-74303000D01*
X175545501Y-74319423D01*
X175331553Y-74384324D01*
X175134377Y-74489716D01*
X174961551Y-74631551D01*
X174926009Y-74674859D01*
X169085753Y-80515116D01*
X169233680Y-80293727D01*
X169341853Y-80032574D01*
X169397000Y-79755335D01*
X169397000Y-79472665D01*
X169341853Y-79195426D01*
X169233680Y-78934273D01*
X169076637Y-78699241D01*
X168876759Y-78499363D01*
X168641727Y-78342320D01*
X168380574Y-78234147D01*
X168103335Y-78179000D01*
X167820665Y-78179000D01*
X167543426Y-78234147D01*
X167282273Y-78342320D01*
X167047241Y-78499363D01*
X166847363Y-78699241D01*
X166690320Y-78934273D01*
X166582147Y-79195426D01*
X166527000Y-79472665D01*
X166527000Y-79755335D01*
X166582147Y-80032574D01*
X166690320Y-80293727D01*
X166847363Y-80528759D01*
X167047241Y-80728637D01*
X167282273Y-80885680D01*
X167543426Y-80993853D01*
X167820665Y-81049000D01*
X168103335Y-81049000D01*
X168380574Y-80993853D01*
X168641727Y-80885680D01*
X168863116Y-80737753D01*
X167638865Y-81962004D01*
X167595551Y-81997551D01*
X167453716Y-82170377D01*
X167371508Y-82324180D01*
X167348324Y-82367554D01*
X167283423Y-82581502D01*
X167261509Y-82804000D01*
X167267000Y-82859751D01*
X167267000Y-84185788D01*
X167277932Y-84240747D01*
X167283423Y-84296499D01*
X167299685Y-84350106D01*
X167310617Y-84405067D01*
X167332063Y-84456842D01*
X167348324Y-84510447D01*
X167374730Y-84559849D01*
X167396176Y-84611624D01*
X167427310Y-84658220D01*
X167453717Y-84707623D01*
X167489254Y-84750925D01*
X167520388Y-84797520D01*
X167560014Y-84837146D01*
X167595552Y-84880449D01*
X167638855Y-84915987D01*
X167678480Y-84955612D01*
X167725074Y-84986745D01*
X167768378Y-85022284D01*
X167817782Y-85048691D01*
X167864376Y-85079824D01*
X167916153Y-85101271D01*
X167965554Y-85127676D01*
X168019155Y-85143936D01*
X168070933Y-85165383D01*
X168125897Y-85176316D01*
X168179502Y-85192577D01*
X168235252Y-85198068D01*
X168290212Y-85209000D01*
X168346249Y-85209000D01*
X168402000Y-85214491D01*
X168457752Y-85209000D01*
X168513788Y-85209000D01*
X168568747Y-85198068D01*
X168624499Y-85192577D01*
X168678106Y-85176315D01*
X168733067Y-85165383D01*
X168784842Y-85143937D01*
X168838447Y-85127676D01*
X168887851Y-85101269D01*
X168939624Y-85079824D01*
X168986214Y-85048693D01*
X169035623Y-85022284D01*
X169078932Y-84986741D01*
X169125520Y-84955612D01*
X169165141Y-84915991D01*
X169208449Y-84880449D01*
X169243991Y-84837141D01*
X169283612Y-84797520D01*
X169314741Y-84750932D01*
X169350284Y-84707623D01*
X169376693Y-84658214D01*
X169407824Y-84611624D01*
X169429269Y-84559851D01*
X169455676Y-84510447D01*
X169471937Y-84456842D01*
X169493383Y-84405067D01*
X169504315Y-84350106D01*
X169520577Y-84296499D01*
X169526068Y-84240747D01*
X169537000Y-84185788D01*
X169537000Y-83942662D01*
X180022500Y-83942662D01*
X180022500Y-84205338D01*
X180073746Y-84462968D01*
X180174268Y-84705649D01*
X180320203Y-84924057D01*
X180505943Y-85109797D01*
X180724351Y-85255732D01*
X180967032Y-85356254D01*
X181224662Y-85407500D01*
X181487338Y-85407500D01*
X181744968Y-85356254D01*
X181987649Y-85255732D01*
X182206057Y-85109797D01*
X182391797Y-84924057D01*
X182537732Y-84705649D01*
X182638254Y-84462968D01*
X182689500Y-84205338D01*
X182689500Y-83942662D01*
X182638254Y-83685032D01*
X182537732Y-83442351D01*
X182467072Y-83336600D01*
X182565018Y-83366312D01*
X182689500Y-83378572D01*
X184086500Y-83378572D01*
X184210982Y-83366312D01*
X184330680Y-83330002D01*
X184440994Y-83271037D01*
X184537685Y-83191685D01*
X184617037Y-83094994D01*
X184676002Y-82984680D01*
X184712312Y-82864982D01*
X184724572Y-82740500D01*
X184724572Y-81343500D01*
X184712312Y-81219018D01*
X184676002Y-81099320D01*
X184617037Y-80989006D01*
X184537685Y-80892315D01*
X184440994Y-80812963D01*
X184330680Y-80753998D01*
X184210982Y-80717688D01*
X184086500Y-80705428D01*
X182689500Y-80705428D01*
X182565018Y-80717688D01*
X182445320Y-80753998D01*
X182335006Y-80812963D01*
X182238315Y-80892315D01*
X182158963Y-80989006D01*
X182099998Y-81099320D01*
X182063688Y-81219018D01*
X182051428Y-81343500D01*
X182051428Y-82740500D01*
X182063688Y-82864982D01*
X182093400Y-82962928D01*
X181987649Y-82892268D01*
X181744968Y-82791746D01*
X181487338Y-82740500D01*
X181224662Y-82740500D01*
X180967032Y-82791746D01*
X180724351Y-82892268D01*
X180505943Y-83038203D01*
X180320203Y-83223943D01*
X180174268Y-83442351D01*
X180073746Y-83685032D01*
X180022500Y-83942662D01*
X169537000Y-83942662D01*
X169537000Y-83274131D01*
X172434466Y-80376665D01*
X185509000Y-80376665D01*
X185509000Y-80659335D01*
X185564147Y-80936574D01*
X185672320Y-81197727D01*
X185829363Y-81432759D01*
X186029241Y-81632637D01*
X186261759Y-81788000D01*
X186029241Y-81943363D01*
X185829363Y-82143241D01*
X185672320Y-82378273D01*
X185564147Y-82639426D01*
X185509000Y-82916665D01*
X185509000Y-83199335D01*
X185564147Y-83476574D01*
X185672320Y-83737727D01*
X185829363Y-83972759D01*
X186029241Y-84172637D01*
X186261759Y-84328000D01*
X186029241Y-84483363D01*
X185829363Y-84683241D01*
X185672320Y-84918273D01*
X185564147Y-85179426D01*
X185509000Y-85456665D01*
X185509000Y-85739335D01*
X185564147Y-86016574D01*
X185672320Y-86277727D01*
X185829363Y-86512759D01*
X186029241Y-86712637D01*
X186261759Y-86868000D01*
X186029241Y-87023363D01*
X185829363Y-87223241D01*
X185672320Y-87458273D01*
X185564147Y-87719426D01*
X185509000Y-87996665D01*
X185509000Y-88279335D01*
X185564147Y-88556574D01*
X185672320Y-88817727D01*
X185829363Y-89052759D01*
X186029241Y-89252637D01*
X186261759Y-89408000D01*
X186029241Y-89563363D01*
X185829363Y-89763241D01*
X185672320Y-89998273D01*
X185564147Y-90259426D01*
X185509000Y-90536665D01*
X185509000Y-90819335D01*
X185564147Y-91096574D01*
X185672320Y-91357727D01*
X185829363Y-91592759D01*
X186029241Y-91792637D01*
X186264273Y-91949680D01*
X186525426Y-92057853D01*
X186802665Y-92113000D01*
X187085335Y-92113000D01*
X187362574Y-92057853D01*
X187623727Y-91949680D01*
X187858759Y-91792637D01*
X188058637Y-91592759D01*
X188215680Y-91357727D01*
X188323853Y-91096574D01*
X188379000Y-90819335D01*
X188379000Y-90536665D01*
X188323853Y-90259426D01*
X188215680Y-89998273D01*
X188058637Y-89763241D01*
X187858759Y-89563363D01*
X187626241Y-89408000D01*
X187858759Y-89252637D01*
X188058637Y-89052759D01*
X188215680Y-88817727D01*
X188323853Y-88556574D01*
X188379000Y-88279335D01*
X188379000Y-87996665D01*
X188323853Y-87719426D01*
X188215680Y-87458273D01*
X188058637Y-87223241D01*
X187858759Y-87023363D01*
X187626241Y-86868000D01*
X187858759Y-86712637D01*
X188058637Y-86512759D01*
X188215680Y-86277727D01*
X188323853Y-86016574D01*
X188379000Y-85739335D01*
X188379000Y-85456665D01*
X188323853Y-85179426D01*
X188215680Y-84918273D01*
X188058637Y-84683241D01*
X187858759Y-84483363D01*
X187626241Y-84328000D01*
X187858759Y-84172637D01*
X188058637Y-83972759D01*
X188215680Y-83737727D01*
X188323853Y-83476574D01*
X188379000Y-83199335D01*
X188379000Y-82916665D01*
X188323853Y-82639426D01*
X188215680Y-82378273D01*
X188058637Y-82143241D01*
X187858759Y-81943363D01*
X187626241Y-81788000D01*
X187858759Y-81632637D01*
X188058637Y-81432759D01*
X188215680Y-81197727D01*
X188323853Y-80936574D01*
X188379000Y-80659335D01*
X188379000Y-80376665D01*
X193129000Y-80376665D01*
X193129000Y-80659335D01*
X193184147Y-80936574D01*
X193292320Y-81197727D01*
X193449363Y-81432759D01*
X193649241Y-81632637D01*
X193881759Y-81788000D01*
X193649241Y-81943363D01*
X193449363Y-82143241D01*
X193292320Y-82378273D01*
X193184147Y-82639426D01*
X193129000Y-82916665D01*
X193129000Y-83199335D01*
X193184147Y-83476574D01*
X193292320Y-83737727D01*
X193449363Y-83972759D01*
X193649241Y-84172637D01*
X193881759Y-84328000D01*
X193649241Y-84483363D01*
X193449363Y-84683241D01*
X193292320Y-84918273D01*
X193184147Y-85179426D01*
X193129000Y-85456665D01*
X193129000Y-85739335D01*
X193184147Y-86016574D01*
X193292320Y-86277727D01*
X193449363Y-86512759D01*
X193649241Y-86712637D01*
X193881759Y-86868000D01*
X193649241Y-87023363D01*
X193449363Y-87223241D01*
X193292320Y-87458273D01*
X193184147Y-87719426D01*
X193129000Y-87996665D01*
X193129000Y-88279335D01*
X193184147Y-88556574D01*
X193292320Y-88817727D01*
X193449363Y-89052759D01*
X193649241Y-89252637D01*
X193881759Y-89408000D01*
X193649241Y-89563363D01*
X193449363Y-89763241D01*
X193292320Y-89998273D01*
X193184147Y-90259426D01*
X193129000Y-90536665D01*
X193129000Y-90819335D01*
X193184147Y-91096574D01*
X193292320Y-91357727D01*
X193449363Y-91592759D01*
X193649241Y-91792637D01*
X193884273Y-91949680D01*
X194145426Y-92057853D01*
X194422665Y-92113000D01*
X194705335Y-92113000D01*
X194982574Y-92057853D01*
X195243727Y-91949680D01*
X195478759Y-91792637D01*
X195678637Y-91592759D01*
X195835680Y-91357727D01*
X195943853Y-91096574D01*
X195999000Y-90819335D01*
X195999000Y-90536665D01*
X195943853Y-90259426D01*
X195835680Y-89998273D01*
X195678637Y-89763241D01*
X195478759Y-89563363D01*
X195246241Y-89408000D01*
X195478759Y-89252637D01*
X195678637Y-89052759D01*
X195835680Y-88817727D01*
X195943853Y-88556574D01*
X195999000Y-88279335D01*
X195999000Y-87996665D01*
X195943853Y-87719426D01*
X195835680Y-87458273D01*
X195678637Y-87223241D01*
X195478759Y-87023363D01*
X195246241Y-86868000D01*
X195478759Y-86712637D01*
X195678637Y-86512759D01*
X195835680Y-86277727D01*
X195943853Y-86016574D01*
X195999000Y-85739335D01*
X195999000Y-85456665D01*
X195943853Y-85179426D01*
X195835680Y-84918273D01*
X195678637Y-84683241D01*
X195478759Y-84483363D01*
X195246241Y-84328000D01*
X195478759Y-84172637D01*
X195678637Y-83972759D01*
X195835680Y-83737727D01*
X195943853Y-83476574D01*
X195999000Y-83199335D01*
X195999000Y-82916665D01*
X195943853Y-82639426D01*
X195835680Y-82378273D01*
X195678637Y-82143241D01*
X195478759Y-81943363D01*
X195246241Y-81788000D01*
X195478759Y-81632637D01*
X195678637Y-81432759D01*
X195835680Y-81197727D01*
X195943853Y-80936574D01*
X195999000Y-80659335D01*
X195999000Y-80376665D01*
X195943853Y-80099426D01*
X195835680Y-79838273D01*
X195678637Y-79603241D01*
X195478759Y-79403363D01*
X195243727Y-79246320D01*
X194982574Y-79138147D01*
X194705335Y-79083000D01*
X194422665Y-79083000D01*
X194145426Y-79138147D01*
X193884273Y-79246320D01*
X193649241Y-79403363D01*
X193449363Y-79603241D01*
X193292320Y-79838273D01*
X193184147Y-80099426D01*
X193129000Y-80376665D01*
X188379000Y-80376665D01*
X188323853Y-80099426D01*
X188215680Y-79838273D01*
X188058637Y-79603241D01*
X187858759Y-79403363D01*
X187623727Y-79246320D01*
X187362574Y-79138147D01*
X187085335Y-79083000D01*
X186802665Y-79083000D01*
X186525426Y-79138147D01*
X186264273Y-79246320D01*
X186029241Y-79403363D01*
X185829363Y-79603241D01*
X185672320Y-79838273D01*
X185564147Y-80099426D01*
X185509000Y-80376665D01*
X172434466Y-80376665D01*
X176238132Y-76573000D01*
X198683656Y-76573000D01*
X198832821Y-76695417D01*
X198861152Y-76710560D01*
X198720567Y-76803292D01*
X198509694Y-77011674D01*
X198343526Y-77257191D01*
X198228449Y-77530409D01*
X198211698Y-77617969D01*
X198332754Y-77851000D01*
X199771000Y-77851000D01*
X199771000Y-77831000D01*
X200025000Y-77831000D01*
X200025000Y-77851000D01*
X200045000Y-77851000D01*
X200045000Y-78105000D01*
X200025000Y-78105000D01*
X200025000Y-78125000D01*
X199771000Y-78125000D01*
X199771000Y-78105000D01*
X198332754Y-78105000D01*
X198211698Y-78338031D01*
X198228449Y-78425591D01*
X198343526Y-78698809D01*
X198509694Y-78944326D01*
X198720567Y-79152708D01*
X198861152Y-79245440D01*
X198832821Y-79260583D01*
X198603655Y-79448655D01*
X198415583Y-79677821D01*
X198275834Y-79939275D01*
X198189776Y-80222968D01*
X198160718Y-80518000D01*
X198189776Y-80813032D01*
X198275834Y-81096725D01*
X198415583Y-81358179D01*
X198603655Y-81587345D01*
X198832821Y-81775417D01*
X198856362Y-81788000D01*
X198832821Y-81800583D01*
X198603655Y-81988655D01*
X198415583Y-82217821D01*
X198275834Y-82479275D01*
X198189776Y-82762968D01*
X198160718Y-83058000D01*
X198189776Y-83353032D01*
X198275834Y-83636725D01*
X198415583Y-83898179D01*
X198603655Y-84127345D01*
X198832821Y-84315417D01*
X198856362Y-84328000D01*
X198832821Y-84340583D01*
X198603655Y-84528655D01*
X198415583Y-84757821D01*
X198275834Y-85019275D01*
X198189776Y-85302968D01*
X198160718Y-85598000D01*
X198189776Y-85893032D01*
X198275834Y-86176725D01*
X198415583Y-86438179D01*
X198603655Y-86667345D01*
X198832821Y-86855417D01*
X198856362Y-86868000D01*
X198832821Y-86880583D01*
X198603655Y-87068655D01*
X198415583Y-87297821D01*
X198275834Y-87559275D01*
X198189776Y-87842968D01*
X198160718Y-88138000D01*
X198189776Y-88433032D01*
X198275834Y-88716725D01*
X198415583Y-88978179D01*
X198603655Y-89207345D01*
X198832821Y-89395417D01*
X198856362Y-89408000D01*
X198832821Y-89420583D01*
X198603655Y-89608655D01*
X198415583Y-89837821D01*
X198275834Y-90099275D01*
X198189776Y-90382968D01*
X198160718Y-90678000D01*
X198189776Y-90973032D01*
X198275834Y-91256725D01*
X198415583Y-91518179D01*
X198603655Y-91747345D01*
X198832821Y-91935417D01*
X198856362Y-91948000D01*
X198832821Y-91960583D01*
X198603655Y-92148655D01*
X198415583Y-92377821D01*
X198275834Y-92639275D01*
X198189776Y-92922968D01*
X198160718Y-93218000D01*
X198189776Y-93513032D01*
X198275834Y-93796725D01*
X198415583Y-94058179D01*
X198603655Y-94287345D01*
X198832821Y-94475417D01*
X198856362Y-94488000D01*
X198832821Y-94500583D01*
X198603655Y-94688655D01*
X198415583Y-94917821D01*
X198275834Y-95179275D01*
X198189776Y-95462968D01*
X198160718Y-95758000D01*
X198189776Y-96053032D01*
X198275834Y-96336725D01*
X198415583Y-96598179D01*
X198603655Y-96827345D01*
X198832821Y-97015417D01*
X198856362Y-97028000D01*
X198832821Y-97040583D01*
X198603655Y-97228655D01*
X198415583Y-97457821D01*
X198275834Y-97719275D01*
X198189776Y-98002968D01*
X198160718Y-98298000D01*
X198189776Y-98593032D01*
X198275834Y-98876725D01*
X198415583Y-99138179D01*
X198603655Y-99367345D01*
X198832821Y-99555417D01*
X199094275Y-99695166D01*
X199377968Y-99781224D01*
X199599064Y-99803000D01*
X200196936Y-99803000D01*
X200418032Y-99781224D01*
X200701725Y-99695166D01*
X200963179Y-99555417D01*
X201192345Y-99367345D01*
X201380417Y-99138179D01*
X201493645Y-98926343D01*
X201517142Y-101981000D01*
X187148463Y-101981000D01*
X187159520Y-101973612D01*
X187199141Y-101933991D01*
X187242449Y-101898449D01*
X187277991Y-101855141D01*
X187317612Y-101815520D01*
X187348741Y-101768932D01*
X187384284Y-101725623D01*
X187410693Y-101676214D01*
X187441824Y-101629624D01*
X187463269Y-101577851D01*
X187489676Y-101528447D01*
X187505937Y-101474842D01*
X187527383Y-101423067D01*
X187538315Y-101368106D01*
X187554577Y-101314499D01*
X187560068Y-101258747D01*
X187571000Y-101203788D01*
X187571000Y-101147751D01*
X187576491Y-101092000D01*
X187571000Y-101036248D01*
X187571000Y-93527752D01*
X187576491Y-93472000D01*
X187571000Y-93416248D01*
X187571000Y-93360212D01*
X187560068Y-93305253D01*
X187554577Y-93249501D01*
X187538315Y-93195894D01*
X187527383Y-93140933D01*
X187505937Y-93089158D01*
X187489676Y-93035553D01*
X187463269Y-92986149D01*
X187441824Y-92934376D01*
X187410693Y-92887786D01*
X187384284Y-92838377D01*
X187348741Y-92795068D01*
X187317612Y-92748480D01*
X187277991Y-92708859D01*
X187242449Y-92665551D01*
X187199141Y-92630009D01*
X187159520Y-92590388D01*
X187112932Y-92559259D01*
X187069623Y-92523716D01*
X187020214Y-92497307D01*
X186973624Y-92466176D01*
X186921851Y-92444731D01*
X186872447Y-92418324D01*
X186818842Y-92402063D01*
X186767067Y-92380617D01*
X186712106Y-92369685D01*
X186658499Y-92353423D01*
X186602747Y-92347932D01*
X186547788Y-92337000D01*
X186491752Y-92337000D01*
X186436000Y-92331509D01*
X186380249Y-92337000D01*
X186324212Y-92337000D01*
X186269253Y-92347932D01*
X186213501Y-92353423D01*
X186159894Y-92369685D01*
X186104933Y-92380617D01*
X186053158Y-92402063D01*
X185999553Y-92418324D01*
X185950149Y-92444731D01*
X185898376Y-92466176D01*
X185851786Y-92497307D01*
X185802377Y-92523716D01*
X185759068Y-92559259D01*
X185712480Y-92590388D01*
X185672859Y-92630009D01*
X185629551Y-92665551D01*
X185594009Y-92708859D01*
X185554388Y-92748480D01*
X185523259Y-92795068D01*
X185487716Y-92838377D01*
X185461307Y-92887786D01*
X185430176Y-92934376D01*
X185408731Y-92986149D01*
X185382324Y-93035553D01*
X185366063Y-93089158D01*
X185344617Y-93140933D01*
X185333685Y-93195894D01*
X185317423Y-93249501D01*
X185311932Y-93305253D01*
X185301000Y-93360212D01*
X185301000Y-93416248D01*
X185295509Y-93472000D01*
X185301000Y-93527752D01*
X185301000Y-93583788D01*
X185301001Y-93583793D01*
X185301000Y-100980212D01*
X185301000Y-101036248D01*
X185295509Y-101092000D01*
X185301000Y-101147751D01*
X185301000Y-101203788D01*
X185311932Y-101258747D01*
X185317423Y-101314499D01*
X185333685Y-101368106D01*
X185344617Y-101423067D01*
X185366063Y-101474842D01*
X185382324Y-101528447D01*
X185408731Y-101577851D01*
X185430176Y-101629624D01*
X185461307Y-101676215D01*
X185487716Y-101725623D01*
X185523259Y-101768932D01*
X185554388Y-101815520D01*
X185594009Y-101855141D01*
X185629551Y-101898449D01*
X185672859Y-101933991D01*
X185712480Y-101973612D01*
X185723537Y-101981000D01*
X127712463Y-101981000D01*
X127723520Y-101973612D01*
X127763141Y-101933991D01*
X127806449Y-101898449D01*
X127841991Y-101855141D01*
X127881612Y-101815520D01*
X127912741Y-101768932D01*
X127948284Y-101725623D01*
X127974693Y-101676214D01*
X128005824Y-101629624D01*
X128027269Y-101577851D01*
X128053676Y-101528447D01*
X128069937Y-101474842D01*
X128091383Y-101423067D01*
X128102315Y-101368106D01*
X128118577Y-101314499D01*
X128124068Y-101258747D01*
X128135000Y-101203788D01*
X128135000Y-95616665D01*
X128867000Y-95616665D01*
X128867000Y-95899335D01*
X128922147Y-96176574D01*
X129030320Y-96437727D01*
X129187363Y-96672759D01*
X129387241Y-96872637D01*
X129622273Y-97029680D01*
X129883426Y-97137853D01*
X130160665Y-97193000D01*
X130443335Y-97193000D01*
X130720574Y-97137853D01*
X130981727Y-97029680D01*
X131216759Y-96872637D01*
X131416637Y-96672759D01*
X131573680Y-96437727D01*
X131681853Y-96176574D01*
X131737000Y-95899335D01*
X131737000Y-95616665D01*
X131681853Y-95339426D01*
X131573680Y-95078273D01*
X131416637Y-94843241D01*
X131216759Y-94643363D01*
X130981727Y-94486320D01*
X130720574Y-94378147D01*
X130443335Y-94323000D01*
X130160665Y-94323000D01*
X129883426Y-94378147D01*
X129622273Y-94486320D01*
X129387241Y-94643363D01*
X129187363Y-94843241D01*
X129030320Y-95078273D01*
X128922147Y-95339426D01*
X128867000Y-95616665D01*
X128135000Y-95616665D01*
X128135000Y-88788212D01*
X128129123Y-88758665D01*
X129629000Y-88758665D01*
X129629000Y-89041335D01*
X129684147Y-89318574D01*
X129792320Y-89579727D01*
X129949363Y-89814759D01*
X130149241Y-90014637D01*
X130384273Y-90171680D01*
X130645426Y-90279853D01*
X130886719Y-90327850D01*
X136494151Y-95935284D01*
X136542147Y-96176574D01*
X136650320Y-96437727D01*
X136807363Y-96672759D01*
X137007241Y-96872637D01*
X137242273Y-97029680D01*
X137503426Y-97137853D01*
X137744718Y-97185850D01*
X140128009Y-99569141D01*
X140163551Y-99612449D01*
X140336377Y-99754284D01*
X140533553Y-99859676D01*
X140747501Y-99924577D01*
X140970000Y-99946491D01*
X141025751Y-99941000D01*
X146502249Y-99941000D01*
X146558000Y-99946491D01*
X146613751Y-99941000D01*
X146613752Y-99941000D01*
X146780499Y-99924577D01*
X146994447Y-99859676D01*
X147191623Y-99754284D01*
X147364449Y-99612449D01*
X147399995Y-99569136D01*
X149099146Y-97869987D01*
X149142449Y-97834449D01*
X149209848Y-97752324D01*
X149284284Y-97661623D01*
X149389676Y-97464447D01*
X149454577Y-97250499D01*
X149476491Y-97028000D01*
X149471000Y-96972248D01*
X149471000Y-82766131D01*
X150076132Y-82161000D01*
X150499716Y-82161000D01*
X150701759Y-82296000D01*
X150469241Y-82451363D01*
X150269363Y-82651241D01*
X150112320Y-82886273D01*
X150004147Y-83147426D01*
X149949000Y-83424665D01*
X149949000Y-83707335D01*
X150004147Y-83984574D01*
X150112320Y-84245727D01*
X150269363Y-84480759D01*
X150469241Y-84680637D01*
X150701759Y-84836000D01*
X150469241Y-84991363D01*
X150269363Y-85191241D01*
X150112320Y-85426273D01*
X150004147Y-85687426D01*
X149949000Y-85964665D01*
X149949000Y-86247335D01*
X150004147Y-86524574D01*
X150112320Y-86785727D01*
X150269363Y-87020759D01*
X150469241Y-87220637D01*
X150701759Y-87376000D01*
X150469241Y-87531363D01*
X150269363Y-87731241D01*
X150112320Y-87966273D01*
X150004147Y-88227426D01*
X149949000Y-88504665D01*
X149949000Y-88787335D01*
X150004147Y-89064574D01*
X150112320Y-89325727D01*
X150269363Y-89560759D01*
X150469241Y-89760637D01*
X150701759Y-89916000D01*
X150469241Y-90071363D01*
X150269363Y-90271241D01*
X150112320Y-90506273D01*
X150004147Y-90767426D01*
X149949000Y-91044665D01*
X149949000Y-91327335D01*
X150004147Y-91604574D01*
X150112320Y-91865727D01*
X150269363Y-92100759D01*
X150469241Y-92300637D01*
X150704273Y-92457680D01*
X150714865Y-92462067D01*
X150528869Y-92573615D01*
X150320481Y-92762586D01*
X150152963Y-92988580D01*
X150032754Y-93242913D01*
X149992096Y-93376961D01*
X150114085Y-93599000D01*
X151257000Y-93599000D01*
X151257000Y-93579000D01*
X151511000Y-93579000D01*
X151511000Y-93599000D01*
X151531000Y-93599000D01*
X151531000Y-93853000D01*
X151511000Y-93853000D01*
X151511000Y-93873000D01*
X151257000Y-93873000D01*
X151257000Y-93853000D01*
X150114085Y-93853000D01*
X149992096Y-94075039D01*
X150032754Y-94209087D01*
X150152963Y-94463420D01*
X150320481Y-94689414D01*
X150528869Y-94878385D01*
X150714865Y-94989933D01*
X150704273Y-94994320D01*
X150469241Y-95151363D01*
X150269363Y-95351241D01*
X150112320Y-95586273D01*
X150004147Y-95847426D01*
X149949000Y-96124665D01*
X149949000Y-96407335D01*
X150004147Y-96684574D01*
X150112320Y-96945727D01*
X150269363Y-97180759D01*
X150469241Y-97380637D01*
X150704273Y-97537680D01*
X150965426Y-97645853D01*
X151242665Y-97701000D01*
X151525335Y-97701000D01*
X151802574Y-97645853D01*
X152063727Y-97537680D01*
X152298759Y-97380637D01*
X152498637Y-97180759D01*
X152655680Y-96945727D01*
X152763853Y-96684574D01*
X152804573Y-96479865D01*
X152805423Y-96488498D01*
X152821684Y-96542103D01*
X152832617Y-96597067D01*
X152854064Y-96648845D01*
X152870324Y-96702446D01*
X152896730Y-96751848D01*
X152918176Y-96803624D01*
X152949307Y-96850215D01*
X152975716Y-96899623D01*
X153011259Y-96942932D01*
X153042388Y-96989520D01*
X153082009Y-97029141D01*
X153117551Y-97072449D01*
X153160859Y-97107991D01*
X153200480Y-97147612D01*
X153247068Y-97178741D01*
X153290377Y-97214284D01*
X153339786Y-97240693D01*
X153386376Y-97271824D01*
X153438149Y-97293269D01*
X153487553Y-97319676D01*
X153541158Y-97335937D01*
X153592933Y-97357383D01*
X153647894Y-97368315D01*
X153701501Y-97384577D01*
X153757253Y-97390068D01*
X153812212Y-97401000D01*
X153868248Y-97401000D01*
X153924000Y-97406491D01*
X153979751Y-97401000D01*
X154035788Y-97401000D01*
X154067636Y-97394665D01*
X156045000Y-97394665D01*
X156045000Y-97677335D01*
X156100147Y-97954574D01*
X156208320Y-98215727D01*
X156365363Y-98450759D01*
X156565241Y-98650637D01*
X156800273Y-98807680D01*
X157061426Y-98915853D01*
X157338665Y-98971000D01*
X157621335Y-98971000D01*
X157898574Y-98915853D01*
X158159727Y-98807680D01*
X158394759Y-98650637D01*
X158594637Y-98450759D01*
X158751680Y-98215727D01*
X158859853Y-97954574D01*
X158915000Y-97677335D01*
X158915000Y-97394665D01*
X158859853Y-97117426D01*
X158751680Y-96856273D01*
X158594637Y-96621241D01*
X158394759Y-96421363D01*
X158159727Y-96264320D01*
X157898574Y-96156147D01*
X157774230Y-96131413D01*
X162620192Y-96131413D01*
X162715956Y-96395814D01*
X163005571Y-96536704D01*
X163317108Y-96618384D01*
X163638595Y-96637718D01*
X163957675Y-96593961D01*
X164262088Y-96488795D01*
X164436044Y-96395814D01*
X164531808Y-96131413D01*
X163576000Y-95175605D01*
X162620192Y-96131413D01*
X157774230Y-96131413D01*
X157621335Y-96101000D01*
X157338665Y-96101000D01*
X157061426Y-96156147D01*
X156800273Y-96264320D01*
X156565241Y-96421363D01*
X156365363Y-96621241D01*
X156208320Y-96856273D01*
X156100147Y-97117426D01*
X156045000Y-97394665D01*
X154067636Y-97394665D01*
X154090748Y-97390068D01*
X154146498Y-97384577D01*
X154200103Y-97368316D01*
X154255067Y-97357383D01*
X154306845Y-97335936D01*
X154360446Y-97319676D01*
X154409848Y-97293270D01*
X154461624Y-97271824D01*
X154508215Y-97240693D01*
X154557623Y-97214284D01*
X154600932Y-97178741D01*
X154647520Y-97147612D01*
X154687141Y-97107991D01*
X154730449Y-97072449D01*
X154765991Y-97029141D01*
X154805612Y-96989520D01*
X154836741Y-96942932D01*
X154872284Y-96899623D01*
X154898693Y-96850214D01*
X154929824Y-96803624D01*
X154951269Y-96751851D01*
X154977676Y-96702447D01*
X154993937Y-96648842D01*
X155015383Y-96597067D01*
X155026315Y-96542106D01*
X155042577Y-96488499D01*
X155048068Y-96432747D01*
X155059000Y-96377788D01*
X155059000Y-95058595D01*
X161934282Y-95058595D01*
X161978039Y-95377675D01*
X162083205Y-95682088D01*
X162176186Y-95856044D01*
X162440587Y-95951808D01*
X163396395Y-94996000D01*
X163755605Y-94996000D01*
X164711413Y-95951808D01*
X164975814Y-95856044D01*
X165116704Y-95566429D01*
X165198384Y-95254892D01*
X165217718Y-94933405D01*
X165173961Y-94614325D01*
X165068795Y-94309912D01*
X165028220Y-94234000D01*
X168277509Y-94234000D01*
X168283000Y-94289752D01*
X168283001Y-98750239D01*
X168277509Y-98806000D01*
X168299423Y-99028498D01*
X168364324Y-99242446D01*
X168385733Y-99282499D01*
X168469717Y-99439623D01*
X168611552Y-99612449D01*
X168654860Y-99647991D01*
X168830004Y-99823135D01*
X168865551Y-99866449D01*
X169038377Y-100008284D01*
X169235553Y-100113676D01*
X169449501Y-100178577D01*
X169616248Y-100195000D01*
X169616257Y-100195000D01*
X169671999Y-100200490D01*
X169727741Y-100195000D01*
X173288411Y-100195000D01*
X173358351Y-100241732D01*
X173601032Y-100342254D01*
X173858662Y-100393500D01*
X174121338Y-100393500D01*
X174378968Y-100342254D01*
X174621649Y-100241732D01*
X174840057Y-100095797D01*
X175025797Y-99910057D01*
X175171732Y-99691649D01*
X175272254Y-99448968D01*
X175323500Y-99191338D01*
X175323500Y-98928662D01*
X175272254Y-98671032D01*
X175171732Y-98428351D01*
X175025797Y-98209943D01*
X174840057Y-98024203D01*
X174621649Y-97878268D01*
X174378968Y-97777746D01*
X174121338Y-97726500D01*
X173858662Y-97726500D01*
X173601032Y-97777746D01*
X173358351Y-97878268D01*
X173288411Y-97925000D01*
X172946854Y-97925000D01*
X172993797Y-97878057D01*
X173139732Y-97659649D01*
X173240254Y-97416968D01*
X173291500Y-97159338D01*
X173291500Y-96896662D01*
X173240254Y-96639032D01*
X173139732Y-96396351D01*
X173069072Y-96290600D01*
X173167018Y-96320312D01*
X173291500Y-96332572D01*
X173704250Y-96329500D01*
X173863000Y-96170750D01*
X173863000Y-95123000D01*
X174117000Y-95123000D01*
X174117000Y-96170750D01*
X174275750Y-96329500D01*
X174688500Y-96332572D01*
X174812982Y-96320312D01*
X174932680Y-96284002D01*
X175042994Y-96225037D01*
X175139685Y-96145685D01*
X175219037Y-96048994D01*
X175278002Y-95938680D01*
X175314312Y-95818982D01*
X175326572Y-95694500D01*
X175323500Y-95281750D01*
X175164750Y-95123000D01*
X174117000Y-95123000D01*
X173863000Y-95123000D01*
X172815250Y-95123000D01*
X172656500Y-95281750D01*
X172653428Y-95694500D01*
X172665688Y-95818982D01*
X172695400Y-95916928D01*
X172589649Y-95846268D01*
X172346968Y-95745746D01*
X172089338Y-95694500D01*
X171826662Y-95694500D01*
X171569032Y-95745746D01*
X171326351Y-95846268D01*
X171107943Y-95992203D01*
X170922203Y-96177943D01*
X170776268Y-96396351D01*
X170675746Y-96639032D01*
X170624500Y-96896662D01*
X170624500Y-97159338D01*
X170675746Y-97416968D01*
X170776268Y-97659649D01*
X170922203Y-97878057D01*
X170969146Y-97925000D01*
X170553000Y-97925000D01*
X170553000Y-94704131D01*
X170959631Y-94297500D01*
X172653428Y-94297500D01*
X172656500Y-94710250D01*
X172815250Y-94869000D01*
X173863000Y-94869000D01*
X173863000Y-93821250D01*
X174117000Y-93821250D01*
X174117000Y-94869000D01*
X175164750Y-94869000D01*
X175323500Y-94710250D01*
X175326572Y-94297500D01*
X175314312Y-94173018D01*
X175278002Y-94053320D01*
X175219037Y-93943006D01*
X175139685Y-93846315D01*
X175042994Y-93766963D01*
X174932680Y-93707998D01*
X174812982Y-93671688D01*
X174688500Y-93659428D01*
X174275750Y-93662500D01*
X174117000Y-93821250D01*
X173863000Y-93821250D01*
X173704250Y-93662500D01*
X173291500Y-93659428D01*
X173167018Y-93671688D01*
X173047320Y-93707998D01*
X172937006Y-93766963D01*
X172840315Y-93846315D01*
X172760963Y-93943006D01*
X172701998Y-94053320D01*
X172665688Y-94173018D01*
X172653428Y-94297500D01*
X170959631Y-94297500D01*
X173991146Y-91265987D01*
X174034449Y-91230449D01*
X174070998Y-91185915D01*
X174176284Y-91057623D01*
X174281676Y-90860447D01*
X174333000Y-90691256D01*
X174333000Y-90819335D01*
X174388147Y-91096574D01*
X174496320Y-91357727D01*
X174653363Y-91592759D01*
X174853241Y-91792637D01*
X175088273Y-91949680D01*
X175349426Y-92057853D01*
X175626665Y-92113000D01*
X175909335Y-92113000D01*
X176186574Y-92057853D01*
X176447727Y-91949680D01*
X176682759Y-91792637D01*
X176882637Y-91592759D01*
X177039680Y-91357727D01*
X177147853Y-91096574D01*
X177203000Y-90819335D01*
X177203000Y-90536665D01*
X181953000Y-90536665D01*
X181953000Y-90819335D01*
X182008147Y-91096574D01*
X182116320Y-91357727D01*
X182273363Y-91592759D01*
X182473241Y-91792637D01*
X182708273Y-91949680D01*
X182969426Y-92057853D01*
X183246665Y-92113000D01*
X183529335Y-92113000D01*
X183806574Y-92057853D01*
X184067727Y-91949680D01*
X184302759Y-91792637D01*
X184502637Y-91592759D01*
X184659680Y-91357727D01*
X184767853Y-91096574D01*
X184823000Y-90819335D01*
X184823000Y-90536665D01*
X184767853Y-90259426D01*
X184659680Y-89998273D01*
X184502637Y-89763241D01*
X184302759Y-89563363D01*
X184067727Y-89406320D01*
X183806574Y-89298147D01*
X183529335Y-89243000D01*
X183246665Y-89243000D01*
X182969426Y-89298147D01*
X182708273Y-89406320D01*
X182473241Y-89563363D01*
X182273363Y-89763241D01*
X182116320Y-89998273D01*
X182008147Y-90259426D01*
X181953000Y-90536665D01*
X177203000Y-90536665D01*
X177147853Y-90259426D01*
X177039680Y-89998273D01*
X176882637Y-89763241D01*
X176682759Y-89563363D01*
X176447727Y-89406320D01*
X176186574Y-89298147D01*
X175909335Y-89243000D01*
X175626665Y-89243000D01*
X175349426Y-89298147D01*
X175088273Y-89406320D01*
X174853241Y-89563363D01*
X174653363Y-89763241D01*
X174496320Y-89998273D01*
X174388147Y-90259426D01*
X174364159Y-90380019D01*
X174363000Y-90368248D01*
X174363000Y-87090287D01*
X174372180Y-87087502D01*
X174482494Y-87028537D01*
X174579185Y-86949185D01*
X174658537Y-86852494D01*
X174717502Y-86742180D01*
X174723056Y-86723873D01*
X174789495Y-86790312D01*
X175040905Y-86958299D01*
X175320257Y-87074011D01*
X175616816Y-87133000D01*
X175919184Y-87133000D01*
X176215743Y-87074011D01*
X176495095Y-86958299D01*
X176746505Y-86790312D01*
X176960312Y-86576505D01*
X177128299Y-86325095D01*
X177244011Y-86045743D01*
X177258149Y-85974662D01*
X182054500Y-85974662D01*
X182054500Y-86237338D01*
X182105746Y-86494968D01*
X182206268Y-86737649D01*
X182352203Y-86956057D01*
X182537943Y-87141797D01*
X182756351Y-87287732D01*
X182999032Y-87388254D01*
X183256662Y-87439500D01*
X183519338Y-87439500D01*
X183776968Y-87388254D01*
X184019649Y-87287732D01*
X184238057Y-87141797D01*
X184423797Y-86956057D01*
X184569732Y-86737649D01*
X184670254Y-86494968D01*
X184721500Y-86237338D01*
X184721500Y-85974662D01*
X184670254Y-85717032D01*
X184569732Y-85474351D01*
X184423797Y-85255943D01*
X184238057Y-85070203D01*
X184019649Y-84924268D01*
X183776968Y-84823746D01*
X183519338Y-84772500D01*
X183256662Y-84772500D01*
X182999032Y-84823746D01*
X182756351Y-84924268D01*
X182537943Y-85070203D01*
X182352203Y-85255943D01*
X182206268Y-85474351D01*
X182105746Y-85717032D01*
X182054500Y-85974662D01*
X177258149Y-85974662D01*
X177303000Y-85749184D01*
X177303000Y-85446816D01*
X177244011Y-85150257D01*
X177128299Y-84870905D01*
X176960312Y-84619495D01*
X176746505Y-84405688D01*
X176495095Y-84237701D01*
X176215743Y-84121989D01*
X175919184Y-84063000D01*
X175616816Y-84063000D01*
X175320257Y-84121989D01*
X175040905Y-84237701D01*
X174789495Y-84405688D01*
X174723056Y-84472127D01*
X174717502Y-84453820D01*
X174658537Y-84343506D01*
X174579185Y-84246815D01*
X174482494Y-84167463D01*
X174372180Y-84108498D01*
X174252482Y-84072188D01*
X174128000Y-84059928D01*
X172328000Y-84059928D01*
X172203518Y-84072188D01*
X172083820Y-84108498D01*
X171973506Y-84167463D01*
X171876815Y-84246815D01*
X171797463Y-84343506D01*
X171738498Y-84453820D01*
X171702188Y-84573518D01*
X171689928Y-84698000D01*
X171689928Y-86498000D01*
X171702188Y-86622482D01*
X171738498Y-86742180D01*
X171797463Y-86852494D01*
X171876815Y-86949185D01*
X171973506Y-87028537D01*
X172083820Y-87087502D01*
X172093000Y-87090287D01*
X172093001Y-89953866D01*
X168654865Y-93392004D01*
X168611551Y-93427551D01*
X168469716Y-93600377D01*
X168380675Y-93766963D01*
X168364324Y-93797554D01*
X168299423Y-94011502D01*
X168277509Y-94234000D01*
X165028220Y-94234000D01*
X164975814Y-94135956D01*
X164711413Y-94040192D01*
X163755605Y-94996000D01*
X163396395Y-94996000D01*
X162440587Y-94040192D01*
X162176186Y-94135956D01*
X162035296Y-94425571D01*
X161953616Y-94737108D01*
X161934282Y-95058595D01*
X155059000Y-95058595D01*
X155059000Y-93860587D01*
X162620192Y-93860587D01*
X163576000Y-94816395D01*
X164531808Y-93860587D01*
X164436044Y-93596186D01*
X164146429Y-93455296D01*
X163834892Y-93373616D01*
X163513405Y-93354282D01*
X163194325Y-93398039D01*
X162889912Y-93503205D01*
X162715956Y-93596186D01*
X162620192Y-93860587D01*
X155059000Y-93860587D01*
X155059000Y-90265040D01*
X156088091Y-90265040D01*
X156182930Y-90529881D01*
X156327615Y-90771131D01*
X156516586Y-90979519D01*
X156742580Y-91147037D01*
X156996913Y-91267246D01*
X157130961Y-91307904D01*
X157353000Y-91185915D01*
X157353000Y-90043000D01*
X157607000Y-90043000D01*
X157607000Y-91185915D01*
X157829039Y-91307904D01*
X157963087Y-91267246D01*
X158217420Y-91147037D01*
X158443414Y-90979519D01*
X158632385Y-90771131D01*
X158777070Y-90529881D01*
X158871909Y-90265040D01*
X158750624Y-90043000D01*
X157607000Y-90043000D01*
X157353000Y-90043000D01*
X156209376Y-90043000D01*
X156088091Y-90265040D01*
X155059000Y-90265040D01*
X155059000Y-89566960D01*
X156088091Y-89566960D01*
X156209376Y-89789000D01*
X157353000Y-89789000D01*
X157353000Y-88646085D01*
X157607000Y-88646085D01*
X157607000Y-89789000D01*
X158750624Y-89789000D01*
X158871909Y-89566960D01*
X158777070Y-89302119D01*
X158632385Y-89060869D01*
X158443414Y-88852481D01*
X158217420Y-88684963D01*
X157963087Y-88564754D01*
X157829039Y-88524096D01*
X157607000Y-88646085D01*
X157353000Y-88646085D01*
X157130961Y-88524096D01*
X156996913Y-88564754D01*
X156742580Y-88684963D01*
X156516586Y-88852481D01*
X156327615Y-89060869D01*
X156182930Y-89302119D01*
X156088091Y-89566960D01*
X155059000Y-89566960D01*
X155059000Y-88534212D01*
X155048068Y-88479253D01*
X155042577Y-88423501D01*
X155026315Y-88369894D01*
X155015383Y-88314933D01*
X154993937Y-88263158D01*
X154977676Y-88209553D01*
X154951269Y-88160149D01*
X154929824Y-88108376D01*
X154898693Y-88061786D01*
X154872284Y-88012377D01*
X154836741Y-87969068D01*
X154805612Y-87922480D01*
X154765991Y-87882859D01*
X154730449Y-87839551D01*
X154687141Y-87804009D01*
X154647520Y-87764388D01*
X154600932Y-87733259D01*
X154557623Y-87697716D01*
X154508214Y-87671307D01*
X154461624Y-87640176D01*
X154409851Y-87618731D01*
X154360447Y-87592324D01*
X154306842Y-87576063D01*
X154255067Y-87554617D01*
X154200106Y-87543685D01*
X154146499Y-87527423D01*
X154090747Y-87521932D01*
X154035788Y-87511000D01*
X153979752Y-87511000D01*
X153924000Y-87505509D01*
X153868249Y-87511000D01*
X153812212Y-87511000D01*
X153757252Y-87521932D01*
X153701502Y-87527423D01*
X153647897Y-87543684D01*
X153592933Y-87554617D01*
X153541155Y-87576064D01*
X153487554Y-87592324D01*
X153438153Y-87618729D01*
X153386376Y-87640176D01*
X153339782Y-87671309D01*
X153290378Y-87697716D01*
X153247074Y-87733255D01*
X153200480Y-87764388D01*
X153160855Y-87804013D01*
X153117552Y-87839551D01*
X153082014Y-87882854D01*
X153042388Y-87922480D01*
X153011254Y-87969075D01*
X152975717Y-88012377D01*
X152949312Y-88061778D01*
X152918176Y-88108376D01*
X152896728Y-88160157D01*
X152870325Y-88209553D01*
X152854067Y-88263149D01*
X152832617Y-88314933D01*
X152821683Y-88369904D01*
X152805424Y-88423501D01*
X152804573Y-88432138D01*
X152763853Y-88227426D01*
X152655680Y-87966273D01*
X152498637Y-87731241D01*
X152298759Y-87531363D01*
X152066241Y-87376000D01*
X152298759Y-87220637D01*
X152498637Y-87020759D01*
X152655680Y-86785727D01*
X152763853Y-86524574D01*
X152819000Y-86247335D01*
X152819000Y-85964665D01*
X152763853Y-85687426D01*
X152655680Y-85426273D01*
X152498637Y-85191241D01*
X152298759Y-84991363D01*
X152066241Y-84836000D01*
X152298759Y-84680637D01*
X152498637Y-84480759D01*
X152655680Y-84245727D01*
X152763853Y-83984574D01*
X152819000Y-83707335D01*
X152819000Y-83424665D01*
X152763853Y-83147426D01*
X152655680Y-82886273D01*
X152498637Y-82651241D01*
X152298759Y-82451363D01*
X152066241Y-82296000D01*
X152298759Y-82140637D01*
X152498637Y-81940759D01*
X152655680Y-81705727D01*
X152763853Y-81444574D01*
X152819000Y-81167335D01*
X152819000Y-80884665D01*
X152763853Y-80607426D01*
X152655680Y-80346273D01*
X152498637Y-80111241D01*
X152298759Y-79911363D01*
X152063727Y-79754320D01*
X151802574Y-79646147D01*
X151525335Y-79591000D01*
X151242665Y-79591000D01*
X150965426Y-79646147D01*
X150704273Y-79754320D01*
X150499716Y-79891000D01*
X149661743Y-79891000D01*
X149605999Y-79885510D01*
X149550255Y-79891000D01*
X149550248Y-79891000D01*
X149404493Y-79905356D01*
X149383500Y-79907423D01*
X149333705Y-79922529D01*
X149169553Y-79972324D01*
X148972377Y-80077716D01*
X148799551Y-80219551D01*
X148764008Y-80262860D01*
X147572860Y-81454009D01*
X147529552Y-81489551D01*
X147387717Y-81662377D01*
X147340709Y-81750324D01*
X147282324Y-81859554D01*
X147217423Y-82073502D01*
X147195509Y-82296000D01*
X147201001Y-82351761D01*
X147201000Y-96557867D01*
X146087869Y-97671000D01*
X143891002Y-97671000D01*
X143891002Y-97536625D01*
X144113040Y-97657909D01*
X144377881Y-97563070D01*
X144619131Y-97418385D01*
X144827519Y-97229414D01*
X144995037Y-97003420D01*
X145115246Y-96749087D01*
X145155904Y-96615039D01*
X145033915Y-96393000D01*
X143891000Y-96393000D01*
X143891000Y-96413000D01*
X143637000Y-96413000D01*
X143637000Y-96393000D01*
X142494085Y-96393000D01*
X142372096Y-96615039D01*
X142412754Y-96749087D01*
X142532963Y-97003420D01*
X142700481Y-97229414D01*
X142908869Y-97418385D01*
X143150119Y-97563070D01*
X143414960Y-97657909D01*
X143636998Y-97536625D01*
X143636998Y-97671000D01*
X141440132Y-97671000D01*
X139349850Y-95580718D01*
X139301853Y-95339426D01*
X139193680Y-95078273D01*
X139036637Y-94843241D01*
X138836759Y-94643363D01*
X138601727Y-94486320D01*
X138340574Y-94378147D01*
X138099284Y-94330151D01*
X132491850Y-88722719D01*
X132475131Y-88638665D01*
X133693000Y-88638665D01*
X133693000Y-88921335D01*
X133748147Y-89198574D01*
X133856320Y-89459727D01*
X134013363Y-89694759D01*
X134213241Y-89894637D01*
X134448273Y-90051680D01*
X134709426Y-90159853D01*
X134986665Y-90215000D01*
X135269335Y-90215000D01*
X135546574Y-90159853D01*
X135807727Y-90051680D01*
X136042759Y-89894637D01*
X136242637Y-89694759D01*
X136399680Y-89459727D01*
X136507853Y-89198574D01*
X136555850Y-88957282D01*
X136754467Y-88758665D01*
X137757000Y-88758665D01*
X137757000Y-89041335D01*
X137812147Y-89318574D01*
X137920320Y-89579727D01*
X138077363Y-89814759D01*
X138277241Y-90014637D01*
X138512273Y-90171680D01*
X138773426Y-90279853D01*
X139050665Y-90335000D01*
X139333335Y-90335000D01*
X139610574Y-90279853D01*
X139871727Y-90171680D01*
X140106759Y-90014637D01*
X140306637Y-89814759D01*
X140463680Y-89579727D01*
X140571853Y-89318574D01*
X140627000Y-89041335D01*
X140627000Y-88758665D01*
X140571853Y-88481426D01*
X140463680Y-88220273D01*
X140306637Y-87985241D01*
X140106759Y-87785363D01*
X139871727Y-87628320D01*
X139610574Y-87520147D01*
X139333335Y-87465000D01*
X139050665Y-87465000D01*
X138773426Y-87520147D01*
X138512273Y-87628320D01*
X138277241Y-87785363D01*
X138077363Y-87985241D01*
X137920320Y-88220273D01*
X137812147Y-88481426D01*
X137757000Y-88758665D01*
X136754467Y-88758665D01*
X138780133Y-86733000D01*
X142470480Y-86733000D01*
X142492320Y-86785727D01*
X142649363Y-87020759D01*
X142849241Y-87220637D01*
X143081759Y-87376000D01*
X142849241Y-87531363D01*
X142649363Y-87731241D01*
X142492320Y-87966273D01*
X142384147Y-88227426D01*
X142329000Y-88504665D01*
X142329000Y-88787335D01*
X142384147Y-89064574D01*
X142492320Y-89325727D01*
X142649363Y-89560759D01*
X142849241Y-89760637D01*
X143081759Y-89916000D01*
X142849241Y-90071363D01*
X142649363Y-90271241D01*
X142492320Y-90506273D01*
X142384147Y-90767426D01*
X142329000Y-91044665D01*
X142329000Y-91327335D01*
X142384147Y-91604574D01*
X142492320Y-91865727D01*
X142649363Y-92100759D01*
X142849241Y-92300637D01*
X143081759Y-92456000D01*
X142849241Y-92611363D01*
X142649363Y-92811241D01*
X142492320Y-93046273D01*
X142384147Y-93307426D01*
X142329000Y-93584665D01*
X142329000Y-93867335D01*
X142384147Y-94144574D01*
X142492320Y-94405727D01*
X142649363Y-94640759D01*
X142849241Y-94840637D01*
X143084273Y-94997680D01*
X143094865Y-95002067D01*
X142908869Y-95113615D01*
X142700481Y-95302586D01*
X142532963Y-95528580D01*
X142412754Y-95782913D01*
X142372096Y-95916961D01*
X142494085Y-96139000D01*
X143637000Y-96139000D01*
X143637000Y-96119000D01*
X143891000Y-96119000D01*
X143891000Y-96139000D01*
X145033915Y-96139000D01*
X145155904Y-95916961D01*
X145115246Y-95782913D01*
X144995037Y-95528580D01*
X144827519Y-95302586D01*
X144619131Y-95113615D01*
X144433135Y-95002067D01*
X144443727Y-94997680D01*
X144678759Y-94840637D01*
X144878637Y-94640759D01*
X145035680Y-94405727D01*
X145143853Y-94144574D01*
X145199000Y-93867335D01*
X145199000Y-93584665D01*
X145143853Y-93307426D01*
X145035680Y-93046273D01*
X144878637Y-92811241D01*
X144678759Y-92611363D01*
X144446241Y-92456000D01*
X144678759Y-92300637D01*
X144878637Y-92100759D01*
X145035680Y-91865727D01*
X145143853Y-91604574D01*
X145199000Y-91327335D01*
X145199000Y-91044665D01*
X145143853Y-90767426D01*
X145035680Y-90506273D01*
X144878637Y-90271241D01*
X144678759Y-90071363D01*
X144446241Y-89916000D01*
X144678759Y-89760637D01*
X144878637Y-89560759D01*
X145035680Y-89325727D01*
X145143853Y-89064574D01*
X145199000Y-88787335D01*
X145199000Y-88504665D01*
X145143853Y-88227426D01*
X145035680Y-87966273D01*
X144878637Y-87731241D01*
X144678759Y-87531363D01*
X144446241Y-87376000D01*
X144678759Y-87220637D01*
X144878637Y-87020759D01*
X145035680Y-86785727D01*
X145143853Y-86524574D01*
X145199000Y-86247335D01*
X145199000Y-85964665D01*
X145143853Y-85687426D01*
X145035680Y-85426273D01*
X144878637Y-85191241D01*
X144678759Y-84991363D01*
X144446241Y-84836000D01*
X144678759Y-84680637D01*
X144878637Y-84480759D01*
X145035680Y-84245727D01*
X145143853Y-83984574D01*
X145199000Y-83707335D01*
X145199000Y-83424665D01*
X145143853Y-83147426D01*
X145035680Y-82886273D01*
X144878637Y-82651241D01*
X144680039Y-82452643D01*
X144688482Y-82451812D01*
X144808180Y-82415502D01*
X144918494Y-82356537D01*
X145015185Y-82277185D01*
X145094537Y-82180494D01*
X145153502Y-82070180D01*
X145189812Y-81950482D01*
X145202072Y-81826000D01*
X145202072Y-80226000D01*
X145189812Y-80101518D01*
X145153502Y-79981820D01*
X145094537Y-79871506D01*
X145015185Y-79774815D01*
X144918494Y-79695463D01*
X144808180Y-79636498D01*
X144688482Y-79600188D01*
X144564000Y-79587928D01*
X142964000Y-79587928D01*
X142839518Y-79600188D01*
X142719820Y-79636498D01*
X142609506Y-79695463D01*
X142512815Y-79774815D01*
X142433463Y-79871506D01*
X142374498Y-79981820D01*
X142338188Y-80101518D01*
X142325928Y-80226000D01*
X142325928Y-81826000D01*
X142338188Y-81950482D01*
X142374498Y-82070180D01*
X142433463Y-82180494D01*
X142512815Y-82277185D01*
X142609506Y-82356537D01*
X142719820Y-82415502D01*
X142839518Y-82451812D01*
X142847961Y-82452643D01*
X142649363Y-82651241D01*
X142492320Y-82886273D01*
X142384147Y-83147426D01*
X142329000Y-83424665D01*
X142329000Y-83707335D01*
X142384147Y-83984574D01*
X142492320Y-84245727D01*
X142637497Y-84463000D01*
X138365752Y-84463000D01*
X138310000Y-84457509D01*
X138087501Y-84479423D01*
X137873553Y-84544324D01*
X137676377Y-84649716D01*
X137546856Y-84756011D01*
X137546855Y-84756012D01*
X137503551Y-84791551D01*
X137468013Y-84834854D01*
X134950718Y-87352150D01*
X134709426Y-87400147D01*
X134448273Y-87508320D01*
X134213241Y-87665363D01*
X134013363Y-87865241D01*
X133856320Y-88100273D01*
X133748147Y-88361426D01*
X133693000Y-88638665D01*
X132475131Y-88638665D01*
X132443853Y-88481426D01*
X132335680Y-88220273D01*
X132178637Y-87985241D01*
X131978759Y-87785363D01*
X131743727Y-87628320D01*
X131482574Y-87520147D01*
X131205335Y-87465000D01*
X130922665Y-87465000D01*
X130645426Y-87520147D01*
X130384273Y-87628320D01*
X130149241Y-87785363D01*
X129949363Y-87985241D01*
X129792320Y-88220273D01*
X129684147Y-88481426D01*
X129629000Y-88758665D01*
X128129123Y-88758665D01*
X128124068Y-88733253D01*
X128118577Y-88677501D01*
X128102315Y-88623894D01*
X128091383Y-88568933D01*
X128069937Y-88517158D01*
X128053676Y-88463553D01*
X128027269Y-88414149D01*
X128005824Y-88362376D01*
X127974693Y-88315786D01*
X127948284Y-88266377D01*
X127912741Y-88223068D01*
X127881612Y-88176480D01*
X127841991Y-88136859D01*
X127806449Y-88093551D01*
X127763141Y-88058009D01*
X127723520Y-88018388D01*
X127676932Y-87987259D01*
X127633623Y-87951716D01*
X127584215Y-87925307D01*
X127537624Y-87894176D01*
X127485848Y-87872730D01*
X127436446Y-87846324D01*
X127382845Y-87830064D01*
X127331067Y-87808617D01*
X127276103Y-87797684D01*
X127222498Y-87781423D01*
X127166748Y-87775932D01*
X127111788Y-87765000D01*
X127055751Y-87765000D01*
X127000000Y-87759509D01*
X126944248Y-87765000D01*
X126888212Y-87765000D01*
X126833253Y-87775932D01*
X126777501Y-87781423D01*
X126723894Y-87797685D01*
X126668933Y-87808617D01*
X126617158Y-87830063D01*
X126563553Y-87846324D01*
X126514149Y-87872731D01*
X126462376Y-87894176D01*
X126415786Y-87925307D01*
X126366377Y-87951716D01*
X126323068Y-87987259D01*
X126276480Y-88018388D01*
X126236859Y-88058009D01*
X126193551Y-88093551D01*
X126158009Y-88136859D01*
X126118388Y-88176480D01*
X126087259Y-88223068D01*
X126051716Y-88266377D01*
X126025307Y-88315785D01*
X125994176Y-88362376D01*
X125972730Y-88414152D01*
X125946324Y-88463554D01*
X125930064Y-88517155D01*
X125908617Y-88568933D01*
X125897684Y-88623897D01*
X125881423Y-88677502D01*
X125875932Y-88733252D01*
X125865000Y-88788212D01*
X125865000Y-88844249D01*
X125865001Y-100980207D01*
X125865000Y-100980212D01*
X125865000Y-101203788D01*
X125875934Y-101258757D01*
X125881424Y-101314499D01*
X125897683Y-101368096D01*
X125908617Y-101423067D01*
X125930067Y-101474851D01*
X125946325Y-101528447D01*
X125972728Y-101577843D01*
X125994176Y-101629624D01*
X126025312Y-101676222D01*
X126051717Y-101725623D01*
X126087254Y-101768925D01*
X126118388Y-101815520D01*
X126158014Y-101855146D01*
X126193552Y-101898449D01*
X126236855Y-101933987D01*
X126276480Y-101973612D01*
X126287537Y-101981000D01*
X96164000Y-101981000D01*
X96164000Y-97377040D01*
X101732091Y-97377040D01*
X101826930Y-97641881D01*
X101971615Y-97883131D01*
X102160586Y-98091519D01*
X102386580Y-98259037D01*
X102640913Y-98379246D01*
X102774961Y-98419904D01*
X102997000Y-98297915D01*
X102997000Y-97155000D01*
X103251000Y-97155000D01*
X103251000Y-98297915D01*
X103473039Y-98419904D01*
X103607087Y-98379246D01*
X103861420Y-98259037D01*
X104087414Y-98091519D01*
X104276385Y-97883131D01*
X104421070Y-97641881D01*
X104515909Y-97377040D01*
X104394624Y-97155000D01*
X103251000Y-97155000D01*
X102997000Y-97155000D01*
X101853376Y-97155000D01*
X101732091Y-97377040D01*
X96164000Y-97377040D01*
X96164000Y-96678960D01*
X101732091Y-96678960D01*
X101853376Y-96901000D01*
X102997000Y-96901000D01*
X102997000Y-95758085D01*
X103251000Y-95758085D01*
X103251000Y-96901000D01*
X104394624Y-96901000D01*
X104418946Y-96856472D01*
X110421441Y-96856472D01*
X110433542Y-96921203D01*
X110536801Y-97167201D01*
X110686067Y-97388327D01*
X110875605Y-97576084D01*
X111098131Y-97723256D01*
X111345093Y-97824188D01*
X111607000Y-97875000D01*
X111887000Y-97875000D01*
X111887000Y-96647000D01*
X112141000Y-96647000D01*
X112141000Y-97875000D01*
X112421000Y-97875000D01*
X112682907Y-97824188D01*
X112929869Y-97723256D01*
X113152395Y-97576084D01*
X113341933Y-97388327D01*
X113491199Y-97167201D01*
X113594458Y-96921203D01*
X113606559Y-96856472D01*
X118041441Y-96856472D01*
X118053542Y-96921203D01*
X118156801Y-97167201D01*
X118306067Y-97388327D01*
X118495605Y-97576084D01*
X118718131Y-97723256D01*
X118965093Y-97824188D01*
X119227000Y-97875000D01*
X119507000Y-97875000D01*
X119507000Y-96647000D01*
X119761000Y-96647000D01*
X119761000Y-97875000D01*
X120041000Y-97875000D01*
X120302907Y-97824188D01*
X120549869Y-97723256D01*
X120772395Y-97576084D01*
X120961933Y-97388327D01*
X121111199Y-97167201D01*
X121214458Y-96921203D01*
X121226559Y-96856472D01*
X121103489Y-96647000D01*
X119761000Y-96647000D01*
X119507000Y-96647000D01*
X118164511Y-96647000D01*
X118041441Y-96856472D01*
X113606559Y-96856472D01*
X113483489Y-96647000D01*
X112141000Y-96647000D01*
X111887000Y-96647000D01*
X110544511Y-96647000D01*
X110421441Y-96856472D01*
X104418946Y-96856472D01*
X104515909Y-96678960D01*
X104421070Y-96414119D01*
X104276385Y-96172869D01*
X104087414Y-95964481D01*
X103861420Y-95796963D01*
X103607087Y-95676754D01*
X103473039Y-95636096D01*
X103251000Y-95758085D01*
X102997000Y-95758085D01*
X102774961Y-95636096D01*
X102640913Y-95676754D01*
X102386580Y-95796963D01*
X102160586Y-95964481D01*
X101971615Y-96172869D01*
X101826930Y-96414119D01*
X101732091Y-96678960D01*
X96164000Y-96678960D01*
X96164000Y-94316472D01*
X110421441Y-94316472D01*
X110433542Y-94381203D01*
X110536801Y-94627201D01*
X110686067Y-94848327D01*
X110875605Y-95036084D01*
X111098131Y-95183256D01*
X111261441Y-95250000D01*
X111098131Y-95316744D01*
X110875605Y-95463916D01*
X110686067Y-95651673D01*
X110536801Y-95872799D01*
X110433542Y-96118797D01*
X110421441Y-96183528D01*
X110544511Y-96393000D01*
X111887000Y-96393000D01*
X111887000Y-94107000D01*
X112141000Y-94107000D01*
X112141000Y-96393000D01*
X113483489Y-96393000D01*
X113606559Y-96183528D01*
X113594458Y-96118797D01*
X113491199Y-95872799D01*
X113341933Y-95651673D01*
X113152395Y-95463916D01*
X112929869Y-95316744D01*
X112766559Y-95250000D01*
X112929869Y-95183256D01*
X113152395Y-95036084D01*
X113341933Y-94848327D01*
X113491199Y-94627201D01*
X113594458Y-94381203D01*
X113606559Y-94316472D01*
X118041441Y-94316472D01*
X118053542Y-94381203D01*
X118156801Y-94627201D01*
X118306067Y-94848327D01*
X118495605Y-95036084D01*
X118718131Y-95183256D01*
X118881441Y-95250000D01*
X118718131Y-95316744D01*
X118495605Y-95463916D01*
X118306067Y-95651673D01*
X118156801Y-95872799D01*
X118053542Y-96118797D01*
X118041441Y-96183528D01*
X118164511Y-96393000D01*
X119507000Y-96393000D01*
X119507000Y-94107000D01*
X119761000Y-94107000D01*
X119761000Y-96393000D01*
X121103489Y-96393000D01*
X121226559Y-96183528D01*
X121214458Y-96118797D01*
X121111199Y-95872799D01*
X120961933Y-95651673D01*
X120772395Y-95463916D01*
X120549869Y-95316744D01*
X120386559Y-95250000D01*
X120549869Y-95183256D01*
X120772395Y-95036084D01*
X120961933Y-94848327D01*
X121111199Y-94627201D01*
X121214458Y-94381203D01*
X121226559Y-94316472D01*
X121103489Y-94107000D01*
X119761000Y-94107000D01*
X119507000Y-94107000D01*
X118164511Y-94107000D01*
X118041441Y-94316472D01*
X113606559Y-94316472D01*
X113483489Y-94107000D01*
X112141000Y-94107000D01*
X111887000Y-94107000D01*
X110544511Y-94107000D01*
X110421441Y-94316472D01*
X96164000Y-94316472D01*
X96164000Y-91776472D01*
X110421441Y-91776472D01*
X110433542Y-91841203D01*
X110536801Y-92087201D01*
X110686067Y-92308327D01*
X110875605Y-92496084D01*
X111098131Y-92643256D01*
X111261441Y-92710000D01*
X111098131Y-92776744D01*
X110875605Y-92923916D01*
X110686067Y-93111673D01*
X110536801Y-93332799D01*
X110433542Y-93578797D01*
X110421441Y-93643528D01*
X110544511Y-93853000D01*
X111887000Y-93853000D01*
X111887000Y-91567000D01*
X112141000Y-91567000D01*
X112141000Y-93853000D01*
X113483489Y-93853000D01*
X113606559Y-93643528D01*
X113594458Y-93578797D01*
X113491199Y-93332799D01*
X113341933Y-93111673D01*
X113152395Y-92923916D01*
X112929869Y-92776744D01*
X112766559Y-92710000D01*
X112929869Y-92643256D01*
X113152395Y-92496084D01*
X113341933Y-92308327D01*
X113491199Y-92087201D01*
X113594458Y-91841203D01*
X113606559Y-91776472D01*
X113483489Y-91567000D01*
X112141000Y-91567000D01*
X111887000Y-91567000D01*
X110544511Y-91567000D01*
X110421441Y-91776472D01*
X96164000Y-91776472D01*
X96164000Y-89614279D01*
X96217832Y-89884912D01*
X96341082Y-90182463D01*
X96520013Y-90450252D01*
X96747748Y-90677987D01*
X97015537Y-90856918D01*
X97313088Y-90980168D01*
X97628967Y-91043000D01*
X97951033Y-91043000D01*
X98266912Y-90980168D01*
X98564463Y-90856918D01*
X98832252Y-90677987D01*
X99059987Y-90450252D01*
X99238918Y-90182463D01*
X99362168Y-89884912D01*
X99425000Y-89569033D01*
X99425000Y-89246967D01*
X99362168Y-88931088D01*
X99238918Y-88633537D01*
X99221855Y-88608000D01*
X101685928Y-88608000D01*
X101685928Y-90208000D01*
X101698188Y-90332482D01*
X101734498Y-90452180D01*
X101793463Y-90562494D01*
X101872815Y-90659185D01*
X101969506Y-90738537D01*
X102079820Y-90797502D01*
X102199518Y-90833812D01*
X102324000Y-90846072D01*
X103924000Y-90846072D01*
X104048482Y-90833812D01*
X104168180Y-90797502D01*
X104278494Y-90738537D01*
X104375185Y-90659185D01*
X104454537Y-90562494D01*
X104513502Y-90452180D01*
X104549812Y-90332482D01*
X104562072Y-90208000D01*
X104562072Y-89236472D01*
X110421441Y-89236472D01*
X110433542Y-89301203D01*
X110536801Y-89547201D01*
X110686067Y-89768327D01*
X110875605Y-89956084D01*
X111098131Y-90103256D01*
X111261441Y-90170000D01*
X111098131Y-90236744D01*
X110875605Y-90383916D01*
X110686067Y-90571673D01*
X110536801Y-90792799D01*
X110433542Y-91038797D01*
X110421441Y-91103528D01*
X110544511Y-91313000D01*
X111887000Y-91313000D01*
X111887000Y-89027000D01*
X112141000Y-89027000D01*
X112141000Y-91313000D01*
X113483489Y-91313000D01*
X113606559Y-91103528D01*
X113594458Y-91038797D01*
X113491199Y-90792799D01*
X113341933Y-90571673D01*
X113152395Y-90383916D01*
X112929869Y-90236744D01*
X112766559Y-90170000D01*
X112929869Y-90103256D01*
X113152395Y-89956084D01*
X113341933Y-89768327D01*
X113491199Y-89547201D01*
X113594458Y-89301203D01*
X113606559Y-89236472D01*
X113483489Y-89027000D01*
X112141000Y-89027000D01*
X111887000Y-89027000D01*
X110544511Y-89027000D01*
X110421441Y-89236472D01*
X104562072Y-89236472D01*
X104562072Y-88608000D01*
X104549812Y-88483518D01*
X104513502Y-88363820D01*
X104454537Y-88253506D01*
X104375185Y-88156815D01*
X104278494Y-88077463D01*
X104168180Y-88018498D01*
X104048482Y-87982188D01*
X103924000Y-87969928D01*
X102324000Y-87969928D01*
X102199518Y-87982188D01*
X102079820Y-88018498D01*
X101969506Y-88077463D01*
X101872815Y-88156815D01*
X101793463Y-88253506D01*
X101734498Y-88363820D01*
X101698188Y-88483518D01*
X101685928Y-88608000D01*
X99221855Y-88608000D01*
X99059987Y-88365748D01*
X98832252Y-88138013D01*
X98564463Y-87959082D01*
X98266912Y-87835832D01*
X97951033Y-87773000D01*
X97628967Y-87773000D01*
X97313088Y-87835832D01*
X97015537Y-87959082D01*
X96747748Y-88138013D01*
X96520013Y-88365748D01*
X96341082Y-88633537D01*
X96217832Y-88931088D01*
X96164000Y-89201721D01*
X96164000Y-86696472D01*
X110421441Y-86696472D01*
X110433542Y-86761203D01*
X110536801Y-87007201D01*
X110686067Y-87228327D01*
X110875605Y-87416084D01*
X111098131Y-87563256D01*
X111261441Y-87630000D01*
X111098131Y-87696744D01*
X110875605Y-87843916D01*
X110686067Y-88031673D01*
X110536801Y-88252799D01*
X110433542Y-88498797D01*
X110421441Y-88563528D01*
X110544511Y-88773000D01*
X111887000Y-88773000D01*
X111887000Y-86487000D01*
X112141000Y-86487000D01*
X112141000Y-88773000D01*
X113483489Y-88773000D01*
X113606559Y-88563528D01*
X113594458Y-88498797D01*
X113491199Y-88252799D01*
X113341933Y-88031673D01*
X113152395Y-87843916D01*
X112929869Y-87696744D01*
X112766559Y-87630000D01*
X112929869Y-87563256D01*
X113152395Y-87416084D01*
X113341933Y-87228327D01*
X113491199Y-87007201D01*
X113594458Y-86761203D01*
X113606559Y-86696472D01*
X113483489Y-86487000D01*
X112141000Y-86487000D01*
X111887000Y-86487000D01*
X110544511Y-86487000D01*
X110421441Y-86696472D01*
X96164000Y-86696472D01*
X96164000Y-83287040D01*
X97160091Y-83287040D01*
X97254930Y-83551881D01*
X97399615Y-83793131D01*
X97588586Y-84001519D01*
X97814580Y-84169037D01*
X98068913Y-84289246D01*
X98202961Y-84329904D01*
X98425000Y-84207915D01*
X98425000Y-83065000D01*
X98679000Y-83065000D01*
X98679000Y-84207915D01*
X98901039Y-84329904D01*
X99035087Y-84289246D01*
X99289420Y-84169037D01*
X99515414Y-84001519D01*
X99704385Y-83793131D01*
X99849070Y-83551881D01*
X99943909Y-83287040D01*
X99822624Y-83065000D01*
X98679000Y-83065000D01*
X98425000Y-83065000D01*
X97281376Y-83065000D01*
X97160091Y-83287040D01*
X96164000Y-83287040D01*
X96164000Y-82916665D01*
X101943000Y-82916665D01*
X101943000Y-83199335D01*
X101998147Y-83476574D01*
X102106320Y-83737727D01*
X102263363Y-83972759D01*
X102463241Y-84172637D01*
X102698273Y-84329680D01*
X102959426Y-84437853D01*
X103236665Y-84493000D01*
X103519335Y-84493000D01*
X103796574Y-84437853D01*
X104057727Y-84329680D01*
X104292759Y-84172637D01*
X104492637Y-83972759D01*
X104594707Y-83820000D01*
X110372444Y-83820000D01*
X110398606Y-84085626D01*
X110476086Y-84341045D01*
X110601908Y-84576440D01*
X110771235Y-84782765D01*
X110977560Y-84952092D01*
X111212955Y-85077914D01*
X111257759Y-85091505D01*
X111098131Y-85156744D01*
X110875605Y-85303916D01*
X110686067Y-85491673D01*
X110536801Y-85712799D01*
X110433542Y-85958797D01*
X110421441Y-86023528D01*
X110544511Y-86233000D01*
X111887000Y-86233000D01*
X111887000Y-86213000D01*
X112141000Y-86213000D01*
X112141000Y-86233000D01*
X113483489Y-86233000D01*
X113606559Y-86023528D01*
X113594458Y-85958797D01*
X113491199Y-85712799D01*
X113341933Y-85491673D01*
X113152395Y-85303916D01*
X112929869Y-85156744D01*
X112770241Y-85091505D01*
X112815045Y-85077914D01*
X113050440Y-84952092D01*
X113256765Y-84782765D01*
X113426092Y-84576440D01*
X113551914Y-84341045D01*
X113629394Y-84085626D01*
X113655556Y-83820000D01*
X113629394Y-83554374D01*
X113551914Y-83298955D01*
X113426092Y-83063560D01*
X113256765Y-82857235D01*
X113050440Y-82687908D01*
X112815045Y-82562086D01*
X112770241Y-82548495D01*
X112929869Y-82483256D01*
X113152395Y-82336084D01*
X113341933Y-82148327D01*
X113491199Y-81927201D01*
X113594458Y-81681203D01*
X113606559Y-81616472D01*
X113483489Y-81407000D01*
X112141000Y-81407000D01*
X112141000Y-81427000D01*
X111887000Y-81427000D01*
X111887000Y-81407000D01*
X110544511Y-81407000D01*
X110421441Y-81616472D01*
X110433542Y-81681203D01*
X110536801Y-81927201D01*
X110686067Y-82148327D01*
X110875605Y-82336084D01*
X111098131Y-82483256D01*
X111257759Y-82548495D01*
X111212955Y-82562086D01*
X110977560Y-82687908D01*
X110771235Y-82857235D01*
X110601908Y-83063560D01*
X110476086Y-83298955D01*
X110398606Y-83554374D01*
X110372444Y-83820000D01*
X104594707Y-83820000D01*
X104649680Y-83737727D01*
X104757853Y-83476574D01*
X104813000Y-83199335D01*
X104813000Y-82916665D01*
X104757853Y-82639426D01*
X104649680Y-82378273D01*
X104492637Y-82143241D01*
X104292759Y-81943363D01*
X104057727Y-81786320D01*
X103796574Y-81678147D01*
X103519335Y-81623000D01*
X103236665Y-81623000D01*
X102959426Y-81678147D01*
X102698273Y-81786320D01*
X102463241Y-81943363D01*
X102263363Y-82143241D01*
X102106320Y-82378273D01*
X101998147Y-82639426D01*
X101943000Y-82916665D01*
X96164000Y-82916665D01*
X96164000Y-82588960D01*
X97160091Y-82588960D01*
X97281376Y-82811000D01*
X98425000Y-82811000D01*
X98425000Y-81668085D01*
X98679000Y-81668085D01*
X98679000Y-82811000D01*
X99822624Y-82811000D01*
X99943909Y-82588960D01*
X99849070Y-82324119D01*
X99704385Y-82082869D01*
X99515414Y-81874481D01*
X99289420Y-81706963D01*
X99035087Y-81586754D01*
X98901039Y-81546096D01*
X98679000Y-81668085D01*
X98425000Y-81668085D01*
X98202961Y-81546096D01*
X98068913Y-81586754D01*
X97814580Y-81706963D01*
X97588586Y-81874481D01*
X97399615Y-82082869D01*
X97254930Y-82324119D01*
X97160091Y-82588960D01*
X96164000Y-82588960D01*
X96164000Y-81280000D01*
X117992444Y-81280000D01*
X118018606Y-81545626D01*
X118096086Y-81801045D01*
X118221908Y-82036440D01*
X118391235Y-82242765D01*
X118597560Y-82412092D01*
X118832955Y-82537914D01*
X118872797Y-82550000D01*
X118832955Y-82562086D01*
X118597560Y-82687908D01*
X118391235Y-82857235D01*
X118221908Y-83063560D01*
X118096086Y-83298955D01*
X118018606Y-83554374D01*
X117992444Y-83820000D01*
X118018606Y-84085626D01*
X118096086Y-84341045D01*
X118221908Y-84576440D01*
X118391235Y-84782765D01*
X118597560Y-84952092D01*
X118832955Y-85077914D01*
X118872797Y-85090000D01*
X118832955Y-85102086D01*
X118597560Y-85227908D01*
X118391235Y-85397235D01*
X118221908Y-85603560D01*
X118096086Y-85838955D01*
X118018606Y-86094374D01*
X117992444Y-86360000D01*
X118018606Y-86625626D01*
X118096086Y-86881045D01*
X118221908Y-87116440D01*
X118391235Y-87322765D01*
X118597560Y-87492092D01*
X118832955Y-87617914D01*
X118872797Y-87630000D01*
X118832955Y-87642086D01*
X118597560Y-87767908D01*
X118391235Y-87937235D01*
X118221908Y-88143560D01*
X118096086Y-88378955D01*
X118018606Y-88634374D01*
X117992444Y-88900000D01*
X118018606Y-89165626D01*
X118096086Y-89421045D01*
X118221908Y-89656440D01*
X118391235Y-89862765D01*
X118597560Y-90032092D01*
X118832955Y-90157914D01*
X118872797Y-90170000D01*
X118832955Y-90182086D01*
X118597560Y-90307908D01*
X118391235Y-90477235D01*
X118221908Y-90683560D01*
X118096086Y-90918955D01*
X118018606Y-91174374D01*
X117992444Y-91440000D01*
X118018606Y-91705626D01*
X118096086Y-91961045D01*
X118221908Y-92196440D01*
X118391235Y-92402765D01*
X118597560Y-92572092D01*
X118832955Y-92697914D01*
X118877759Y-92711505D01*
X118718131Y-92776744D01*
X118495605Y-92923916D01*
X118306067Y-93111673D01*
X118156801Y-93332799D01*
X118053542Y-93578797D01*
X118041441Y-93643528D01*
X118164511Y-93853000D01*
X119507000Y-93853000D01*
X119507000Y-93833000D01*
X119761000Y-93833000D01*
X119761000Y-93853000D01*
X121103489Y-93853000D01*
X121226559Y-93643528D01*
X121214458Y-93578797D01*
X121111199Y-93332799D01*
X120961933Y-93111673D01*
X120772395Y-92923916D01*
X120549869Y-92776744D01*
X120390241Y-92711505D01*
X120435045Y-92697914D01*
X120670440Y-92572092D01*
X120876765Y-92402765D01*
X121046092Y-92196440D01*
X121171914Y-91961045D01*
X121249394Y-91705626D01*
X121275556Y-91440000D01*
X121249394Y-91174374D01*
X121171914Y-90918955D01*
X121046092Y-90683560D01*
X120876765Y-90477235D01*
X120670440Y-90307908D01*
X120435045Y-90182086D01*
X120395203Y-90170000D01*
X120435045Y-90157914D01*
X120670440Y-90032092D01*
X120876765Y-89862765D01*
X121046092Y-89656440D01*
X121171914Y-89421045D01*
X121249394Y-89165626D01*
X121275556Y-88900000D01*
X121249394Y-88634374D01*
X121171914Y-88378955D01*
X121046092Y-88143560D01*
X120876765Y-87937235D01*
X120670440Y-87767908D01*
X120435045Y-87642086D01*
X120395203Y-87630000D01*
X120435045Y-87617914D01*
X120670440Y-87492092D01*
X120876765Y-87322765D01*
X121046092Y-87116440D01*
X121171914Y-86881045D01*
X121249394Y-86625626D01*
X121275556Y-86360000D01*
X121249394Y-86094374D01*
X121171914Y-85838955D01*
X121046092Y-85603560D01*
X120876765Y-85397235D01*
X120670440Y-85227908D01*
X120435045Y-85102086D01*
X120395203Y-85090000D01*
X120435045Y-85077914D01*
X120670440Y-84952092D01*
X120876765Y-84782765D01*
X121046092Y-84576440D01*
X121171914Y-84341045D01*
X121249394Y-84085626D01*
X121275556Y-83820000D01*
X121249394Y-83554374D01*
X121171914Y-83298955D01*
X121046092Y-83063560D01*
X120876765Y-82857235D01*
X120670440Y-82687908D01*
X120435045Y-82562086D01*
X120395203Y-82550000D01*
X120435045Y-82537914D01*
X120670440Y-82412092D01*
X120876765Y-82242765D01*
X121046092Y-82036440D01*
X121171914Y-81801045D01*
X121249394Y-81545626D01*
X121275556Y-81280000D01*
X121249394Y-81014374D01*
X121171914Y-80758955D01*
X121046092Y-80523560D01*
X121010344Y-80480000D01*
X129625928Y-80480000D01*
X129625928Y-82080000D01*
X129638188Y-82204482D01*
X129674498Y-82324180D01*
X129733463Y-82434494D01*
X129812815Y-82531185D01*
X129909506Y-82610537D01*
X130019820Y-82669502D01*
X130139518Y-82705812D01*
X130264000Y-82718072D01*
X131864000Y-82718072D01*
X131988482Y-82705812D01*
X132108180Y-82669502D01*
X132218494Y-82610537D01*
X132315185Y-82531185D01*
X132394537Y-82434494D01*
X132453502Y-82324180D01*
X132489812Y-82204482D01*
X132502072Y-82080000D01*
X132502072Y-81138665D01*
X133693000Y-81138665D01*
X133693000Y-81421335D01*
X133748147Y-81698574D01*
X133856320Y-81959727D01*
X134013363Y-82194759D01*
X134213241Y-82394637D01*
X134448273Y-82551680D01*
X134709426Y-82659853D01*
X134986665Y-82715000D01*
X135269335Y-82715000D01*
X135546574Y-82659853D01*
X135807727Y-82551680D01*
X136042759Y-82394637D01*
X136242637Y-82194759D01*
X136399680Y-81959727D01*
X136507853Y-81698574D01*
X136563000Y-81421335D01*
X136563000Y-81138665D01*
X137757000Y-81138665D01*
X137757000Y-81421335D01*
X137812147Y-81698574D01*
X137920320Y-81959727D01*
X138077363Y-82194759D01*
X138277241Y-82394637D01*
X138512273Y-82551680D01*
X138773426Y-82659853D01*
X139050665Y-82715000D01*
X139333335Y-82715000D01*
X139610574Y-82659853D01*
X139871727Y-82551680D01*
X140106759Y-82394637D01*
X140306637Y-82194759D01*
X140463680Y-81959727D01*
X140571853Y-81698574D01*
X140627000Y-81421335D01*
X140627000Y-81138665D01*
X140571853Y-80861426D01*
X140463680Y-80600273D01*
X140306637Y-80365241D01*
X140106759Y-80165363D01*
X139871727Y-80008320D01*
X139610574Y-79900147D01*
X139333335Y-79845000D01*
X139050665Y-79845000D01*
X138773426Y-79900147D01*
X138512273Y-80008320D01*
X138277241Y-80165363D01*
X138077363Y-80365241D01*
X137920320Y-80600273D01*
X137812147Y-80861426D01*
X137757000Y-81138665D01*
X136563000Y-81138665D01*
X136507853Y-80861426D01*
X136399680Y-80600273D01*
X136242637Y-80365241D01*
X136042759Y-80165363D01*
X135807727Y-80008320D01*
X135546574Y-79900147D01*
X135269335Y-79845000D01*
X134986665Y-79845000D01*
X134709426Y-79900147D01*
X134448273Y-80008320D01*
X134213241Y-80165363D01*
X134013363Y-80365241D01*
X133856320Y-80600273D01*
X133748147Y-80861426D01*
X133693000Y-81138665D01*
X132502072Y-81138665D01*
X132502072Y-80480000D01*
X132489812Y-80355518D01*
X132453502Y-80235820D01*
X132394537Y-80125506D01*
X132315185Y-80028815D01*
X132218494Y-79949463D01*
X132108180Y-79890498D01*
X131988482Y-79854188D01*
X131864000Y-79841928D01*
X130264000Y-79841928D01*
X130139518Y-79854188D01*
X130019820Y-79890498D01*
X129909506Y-79949463D01*
X129812815Y-80028815D01*
X129733463Y-80125506D01*
X129674498Y-80235820D01*
X129638188Y-80355518D01*
X129625928Y-80480000D01*
X121010344Y-80480000D01*
X120876765Y-80317235D01*
X120670440Y-80147908D01*
X120435045Y-80022086D01*
X120390241Y-80008495D01*
X120549869Y-79943256D01*
X120772395Y-79796084D01*
X120961933Y-79608327D01*
X121053508Y-79472665D01*
X158907000Y-79472665D01*
X158907000Y-79755335D01*
X158962147Y-80032574D01*
X159070320Y-80293727D01*
X159227363Y-80528759D01*
X159427241Y-80728637D01*
X159662273Y-80885680D01*
X159923426Y-80993853D01*
X160200665Y-81049000D01*
X160483335Y-81049000D01*
X160760574Y-80993853D01*
X161021727Y-80885680D01*
X161256759Y-80728637D01*
X161456637Y-80528759D01*
X161613680Y-80293727D01*
X161721853Y-80032574D01*
X161777000Y-79755335D01*
X161777000Y-79472665D01*
X161721853Y-79195426D01*
X161613680Y-78934273D01*
X161456637Y-78699241D01*
X161256759Y-78499363D01*
X161021727Y-78342320D01*
X160760574Y-78234147D01*
X160483335Y-78179000D01*
X160200665Y-78179000D01*
X159923426Y-78234147D01*
X159662273Y-78342320D01*
X159427241Y-78499363D01*
X159227363Y-78699241D01*
X159070320Y-78934273D01*
X158962147Y-79195426D01*
X158907000Y-79472665D01*
X121053508Y-79472665D01*
X121111199Y-79387201D01*
X121214458Y-79141203D01*
X121226559Y-79076472D01*
X121103489Y-78867000D01*
X119761000Y-78867000D01*
X119761000Y-78887000D01*
X119507000Y-78887000D01*
X119507000Y-78867000D01*
X118164511Y-78867000D01*
X118041441Y-79076472D01*
X118053542Y-79141203D01*
X118156801Y-79387201D01*
X118306067Y-79608327D01*
X118495605Y-79796084D01*
X118718131Y-79943256D01*
X118877759Y-80008495D01*
X118832955Y-80022086D01*
X118597560Y-80147908D01*
X118391235Y-80317235D01*
X118221908Y-80523560D01*
X118096086Y-80758955D01*
X118018606Y-81014374D01*
X117992444Y-81280000D01*
X96164000Y-81280000D01*
X96164000Y-79076472D01*
X110421441Y-79076472D01*
X110433542Y-79141203D01*
X110536801Y-79387201D01*
X110686067Y-79608327D01*
X110875605Y-79796084D01*
X111098131Y-79943256D01*
X111261441Y-80010000D01*
X111098131Y-80076744D01*
X110875605Y-80223916D01*
X110686067Y-80411673D01*
X110536801Y-80632799D01*
X110433542Y-80878797D01*
X110421441Y-80943528D01*
X110544511Y-81153000D01*
X111887000Y-81153000D01*
X111887000Y-78867000D01*
X112141000Y-78867000D01*
X112141000Y-81153000D01*
X113483489Y-81153000D01*
X113606559Y-80943528D01*
X113594458Y-80878797D01*
X113491199Y-80632799D01*
X113341933Y-80411673D01*
X113152395Y-80223916D01*
X112929869Y-80076744D01*
X112766559Y-80010000D01*
X112929869Y-79943256D01*
X113152395Y-79796084D01*
X113341933Y-79608327D01*
X113491199Y-79387201D01*
X113594458Y-79141203D01*
X113606559Y-79076472D01*
X113483489Y-78867000D01*
X112141000Y-78867000D01*
X111887000Y-78867000D01*
X110544511Y-78867000D01*
X110421441Y-79076472D01*
X96164000Y-79076472D01*
X96164000Y-76920000D01*
X110375928Y-76920000D01*
X110388188Y-77044482D01*
X110424498Y-77164180D01*
X110483463Y-77274494D01*
X110562815Y-77371185D01*
X110659506Y-77450537D01*
X110769820Y-77509502D01*
X110889518Y-77545812D01*
X111014000Y-77558072D01*
X111066222Y-77557847D01*
X110875605Y-77683916D01*
X110686067Y-77871673D01*
X110536801Y-78092799D01*
X110433542Y-78338797D01*
X110421441Y-78403528D01*
X110544511Y-78613000D01*
X111887000Y-78613000D01*
X111887000Y-76327000D01*
X112141000Y-76327000D01*
X112141000Y-78613000D01*
X113483489Y-78613000D01*
X113606559Y-78403528D01*
X113594458Y-78338797D01*
X113491199Y-78092799D01*
X113341933Y-77871673D01*
X113152395Y-77683916D01*
X112961778Y-77557847D01*
X113014000Y-77558072D01*
X113138482Y-77545812D01*
X113258180Y-77509502D01*
X113368494Y-77450537D01*
X113465185Y-77371185D01*
X113544537Y-77274494D01*
X113603502Y-77164180D01*
X113639812Y-77044482D01*
X113652072Y-76920000D01*
X113649359Y-76536472D01*
X118041441Y-76536472D01*
X118053542Y-76601203D01*
X118156801Y-76847201D01*
X118306067Y-77068327D01*
X118495605Y-77256084D01*
X118718131Y-77403256D01*
X118881441Y-77470000D01*
X118718131Y-77536744D01*
X118495605Y-77683916D01*
X118306067Y-77871673D01*
X118156801Y-78092799D01*
X118053542Y-78338797D01*
X118041441Y-78403528D01*
X118164511Y-78613000D01*
X119507000Y-78613000D01*
X119507000Y-76327000D01*
X119761000Y-76327000D01*
X119761000Y-78613000D01*
X121103489Y-78613000D01*
X121226559Y-78403528D01*
X121214458Y-78338797D01*
X121111199Y-78092799D01*
X120961933Y-77871673D01*
X120772395Y-77683916D01*
X120549869Y-77536744D01*
X120386559Y-77470000D01*
X120549869Y-77403256D01*
X120772395Y-77256084D01*
X120961933Y-77068327D01*
X121111199Y-76847201D01*
X121214458Y-76601203D01*
X121226559Y-76536472D01*
X121155779Y-76416000D01*
X125815928Y-76416000D01*
X125815928Y-78016000D01*
X125828188Y-78140482D01*
X125864498Y-78260180D01*
X125923463Y-78370494D01*
X126002815Y-78467185D01*
X126099506Y-78546537D01*
X126209820Y-78605502D01*
X126329518Y-78641812D01*
X126454000Y-78654072D01*
X128054000Y-78654072D01*
X128178482Y-78641812D01*
X128298180Y-78605502D01*
X128408494Y-78546537D01*
X128505185Y-78467185D01*
X128584537Y-78370494D01*
X128643502Y-78260180D01*
X128679812Y-78140482D01*
X128692072Y-78016000D01*
X128692072Y-77074665D01*
X133439000Y-77074665D01*
X133439000Y-77357335D01*
X133494147Y-77634574D01*
X133602320Y-77895727D01*
X133759363Y-78130759D01*
X133959241Y-78330637D01*
X134194273Y-78487680D01*
X134455426Y-78595853D01*
X134732665Y-78651000D01*
X135015335Y-78651000D01*
X135292574Y-78595853D01*
X135553727Y-78487680D01*
X135788759Y-78330637D01*
X135988637Y-78130759D01*
X136090707Y-77978000D01*
X145925509Y-77978000D01*
X145931000Y-78033752D01*
X145931000Y-78089788D01*
X145941932Y-78144747D01*
X145947423Y-78200499D01*
X145963685Y-78254106D01*
X145974617Y-78309067D01*
X145996063Y-78360842D01*
X146012324Y-78414447D01*
X146038731Y-78463851D01*
X146060176Y-78515624D01*
X146091307Y-78562214D01*
X146117716Y-78611623D01*
X146153259Y-78654932D01*
X146184388Y-78701520D01*
X146224009Y-78741141D01*
X146259551Y-78784449D01*
X146302859Y-78819991D01*
X146342480Y-78859612D01*
X146389068Y-78890741D01*
X146432377Y-78926284D01*
X146481786Y-78952693D01*
X146528376Y-78983824D01*
X146580149Y-79005269D01*
X146629553Y-79031676D01*
X146683158Y-79047937D01*
X146734933Y-79069383D01*
X146789894Y-79080315D01*
X146843501Y-79096577D01*
X146899253Y-79102068D01*
X146954212Y-79113000D01*
X157337788Y-79113000D01*
X157392747Y-79102068D01*
X157448499Y-79096577D01*
X157502106Y-79080315D01*
X157557067Y-79069383D01*
X157608842Y-79047937D01*
X157662447Y-79031676D01*
X157711851Y-79005269D01*
X157763624Y-78983824D01*
X157810214Y-78952693D01*
X157859623Y-78926284D01*
X157902932Y-78890741D01*
X157949520Y-78859612D01*
X157989141Y-78819991D01*
X158032449Y-78784449D01*
X158067991Y-78741141D01*
X158107612Y-78701520D01*
X158138741Y-78654932D01*
X158174284Y-78611623D01*
X158200693Y-78562214D01*
X158231824Y-78515624D01*
X158253269Y-78463851D01*
X158279676Y-78414447D01*
X158295937Y-78360842D01*
X158317383Y-78309067D01*
X158328315Y-78254106D01*
X158344577Y-78200499D01*
X158350068Y-78144747D01*
X158361000Y-78089788D01*
X158361000Y-78033752D01*
X158366491Y-77978000D01*
X158361000Y-77922248D01*
X158361000Y-77866212D01*
X158350068Y-77811253D01*
X158344577Y-77755501D01*
X158328315Y-77701894D01*
X158317383Y-77646933D01*
X158295937Y-77595158D01*
X158279676Y-77541553D01*
X158253269Y-77492149D01*
X158231824Y-77440376D01*
X158200693Y-77393786D01*
X158174284Y-77344377D01*
X158138741Y-77301068D01*
X158107612Y-77254480D01*
X158067991Y-77214859D01*
X158032449Y-77171551D01*
X157989141Y-77136009D01*
X157949520Y-77096388D01*
X157902932Y-77065259D01*
X157859623Y-77029716D01*
X157810214Y-77003307D01*
X157763624Y-76972176D01*
X157711851Y-76950731D01*
X157662447Y-76924324D01*
X157608842Y-76908063D01*
X157557067Y-76886617D01*
X157502106Y-76875685D01*
X157448499Y-76859423D01*
X157392747Y-76853932D01*
X157337788Y-76843000D01*
X151391002Y-76843000D01*
X151391002Y-76708625D01*
X151613040Y-76829909D01*
X151877881Y-76735070D01*
X152119131Y-76590385D01*
X152327519Y-76401414D01*
X152495037Y-76175420D01*
X152615246Y-75921087D01*
X152655904Y-75787039D01*
X152533915Y-75565000D01*
X151391000Y-75565000D01*
X151391000Y-75585000D01*
X151137000Y-75585000D01*
X151137000Y-75565000D01*
X149994085Y-75565000D01*
X149872096Y-75787039D01*
X149912754Y-75921087D01*
X150032963Y-76175420D01*
X150200481Y-76401414D01*
X150408869Y-76590385D01*
X150650119Y-76735070D01*
X150914960Y-76829909D01*
X151136998Y-76708625D01*
X151136998Y-76843000D01*
X146954212Y-76843000D01*
X146899253Y-76853932D01*
X146843501Y-76859423D01*
X146789894Y-76875685D01*
X146734933Y-76886617D01*
X146683158Y-76908063D01*
X146629553Y-76924324D01*
X146580149Y-76950731D01*
X146528376Y-76972176D01*
X146481786Y-77003307D01*
X146432377Y-77029716D01*
X146389068Y-77065259D01*
X146342480Y-77096388D01*
X146302859Y-77136009D01*
X146259551Y-77171551D01*
X146224009Y-77214859D01*
X146184388Y-77254480D01*
X146153259Y-77301068D01*
X146117716Y-77344377D01*
X146091307Y-77393786D01*
X146060176Y-77440376D01*
X146038731Y-77492149D01*
X146012324Y-77541553D01*
X145996063Y-77595158D01*
X145974617Y-77646933D01*
X145963685Y-77701894D01*
X145947423Y-77755501D01*
X145941932Y-77811253D01*
X145931000Y-77866212D01*
X145931000Y-77922248D01*
X145925509Y-77978000D01*
X136090707Y-77978000D01*
X136145680Y-77895727D01*
X136253853Y-77634574D01*
X136309000Y-77357335D01*
X136309000Y-77074665D01*
X136253853Y-76797426D01*
X136145680Y-76536273D01*
X135988637Y-76301241D01*
X135788759Y-76101363D01*
X135553727Y-75944320D01*
X135292574Y-75836147D01*
X135015335Y-75781000D01*
X134732665Y-75781000D01*
X134455426Y-75836147D01*
X134194273Y-75944320D01*
X133959241Y-76101363D01*
X133759363Y-76301241D01*
X133602320Y-76536273D01*
X133494147Y-76797426D01*
X133439000Y-77074665D01*
X128692072Y-77074665D01*
X128692072Y-76416000D01*
X128679812Y-76291518D01*
X128643502Y-76171820D01*
X128584537Y-76061506D01*
X128505185Y-75964815D01*
X128408494Y-75885463D01*
X128298180Y-75826498D01*
X128178482Y-75790188D01*
X128054000Y-75777928D01*
X126454000Y-75777928D01*
X126329518Y-75790188D01*
X126209820Y-75826498D01*
X126099506Y-75885463D01*
X126002815Y-75964815D01*
X125923463Y-76061506D01*
X125864498Y-76171820D01*
X125828188Y-76291518D01*
X125815928Y-76416000D01*
X121155779Y-76416000D01*
X121103489Y-76327000D01*
X119761000Y-76327000D01*
X119507000Y-76327000D01*
X118164511Y-76327000D01*
X118041441Y-76536472D01*
X113649359Y-76536472D01*
X113649000Y-76485750D01*
X113490250Y-76327000D01*
X112141000Y-76327000D01*
X111887000Y-76327000D01*
X110537750Y-76327000D01*
X110379000Y-76485750D01*
X110375928Y-76920000D01*
X96164000Y-76920000D01*
X96164000Y-75296665D01*
X97117000Y-75296665D01*
X97117000Y-75579335D01*
X97172147Y-75856574D01*
X97280320Y-76117727D01*
X97437363Y-76352759D01*
X97637241Y-76552637D01*
X97872273Y-76709680D01*
X98133426Y-76817853D01*
X98410665Y-76873000D01*
X98693335Y-76873000D01*
X98970574Y-76817853D01*
X99231727Y-76709680D01*
X99466759Y-76552637D01*
X99666637Y-76352759D01*
X99823680Y-76117727D01*
X99931853Y-75856574D01*
X99987000Y-75579335D01*
X99987000Y-75296665D01*
X101943000Y-75296665D01*
X101943000Y-75579335D01*
X101998147Y-75856574D01*
X102106320Y-76117727D01*
X102263363Y-76352759D01*
X102463241Y-76552637D01*
X102698273Y-76709680D01*
X102959426Y-76817853D01*
X103236665Y-76873000D01*
X103519335Y-76873000D01*
X103796574Y-76817853D01*
X104057727Y-76709680D01*
X104292759Y-76552637D01*
X104492637Y-76352759D01*
X104649680Y-76117727D01*
X104757853Y-75856574D01*
X104813000Y-75579335D01*
X104813000Y-75480000D01*
X110375928Y-75480000D01*
X110379000Y-75914250D01*
X110537750Y-76073000D01*
X111887000Y-76073000D01*
X111887000Y-75003750D01*
X112141000Y-75003750D01*
X112141000Y-76073000D01*
X113490250Y-76073000D01*
X113649000Y-75914250D01*
X113649358Y-75863528D01*
X118041441Y-75863528D01*
X118164511Y-76073000D01*
X119507000Y-76073000D01*
X119507000Y-74845000D01*
X119761000Y-74845000D01*
X119761000Y-76073000D01*
X121103489Y-76073000D01*
X121226559Y-75863528D01*
X121214458Y-75798797D01*
X121111199Y-75552799D01*
X120961933Y-75331673D01*
X120772395Y-75143916D01*
X120549869Y-74996744D01*
X120302907Y-74895812D01*
X120041000Y-74845000D01*
X119761000Y-74845000D01*
X119507000Y-74845000D01*
X119227000Y-74845000D01*
X118965093Y-74895812D01*
X118718131Y-74996744D01*
X118495605Y-75143916D01*
X118306067Y-75331673D01*
X118156801Y-75552799D01*
X118053542Y-75798797D01*
X118041441Y-75863528D01*
X113649358Y-75863528D01*
X113652072Y-75480000D01*
X113639812Y-75355518D01*
X113603502Y-75235820D01*
X113544537Y-75125506D01*
X113465185Y-75028815D01*
X113368494Y-74949463D01*
X113258180Y-74890498D01*
X113138482Y-74854188D01*
X113014000Y-74841928D01*
X112299750Y-74845000D01*
X112141000Y-75003750D01*
X111887000Y-75003750D01*
X111728250Y-74845000D01*
X111014000Y-74841928D01*
X110889518Y-74854188D01*
X110769820Y-74890498D01*
X110659506Y-74949463D01*
X110562815Y-75028815D01*
X110483463Y-75125506D01*
X110424498Y-75235820D01*
X110388188Y-75355518D01*
X110375928Y-75480000D01*
X104813000Y-75480000D01*
X104813000Y-75296665D01*
X104757853Y-75019426D01*
X104649680Y-74758273D01*
X104492637Y-74523241D01*
X104292759Y-74323363D01*
X104057727Y-74166320D01*
X103796574Y-74058147D01*
X103519335Y-74003000D01*
X103236665Y-74003000D01*
X102959426Y-74058147D01*
X102698273Y-74166320D01*
X102463241Y-74323363D01*
X102263363Y-74523241D01*
X102106320Y-74758273D01*
X101998147Y-75019426D01*
X101943000Y-75296665D01*
X99987000Y-75296665D01*
X99931853Y-75019426D01*
X99823680Y-74758273D01*
X99666637Y-74523241D01*
X99466759Y-74323363D01*
X99231727Y-74166320D01*
X98970574Y-74058147D01*
X98693335Y-74003000D01*
X98410665Y-74003000D01*
X98133426Y-74058147D01*
X97872273Y-74166320D01*
X97637241Y-74323363D01*
X97437363Y-74523241D01*
X97280320Y-74758273D01*
X97172147Y-75019426D01*
X97117000Y-75296665D01*
X96164000Y-75296665D01*
X96164000Y-72606000D01*
X124037928Y-72606000D01*
X124037928Y-74206000D01*
X124050188Y-74330482D01*
X124086498Y-74450180D01*
X124145463Y-74560494D01*
X124224815Y-74657185D01*
X124321506Y-74736537D01*
X124431820Y-74795502D01*
X124551518Y-74831812D01*
X124676000Y-74844072D01*
X126276000Y-74844072D01*
X126400482Y-74831812D01*
X126520180Y-74795502D01*
X126630494Y-74736537D01*
X126727185Y-74657185D01*
X126806537Y-74560494D01*
X126865502Y-74450180D01*
X126901812Y-74330482D01*
X126914072Y-74206000D01*
X126914072Y-72606000D01*
X126901812Y-72481518D01*
X126865502Y-72361820D01*
X126806537Y-72251506D01*
X126727185Y-72154815D01*
X126630494Y-72075463D01*
X126520180Y-72016498D01*
X126400482Y-71980188D01*
X126276000Y-71967928D01*
X124676000Y-71967928D01*
X124551518Y-71980188D01*
X124431820Y-72016498D01*
X124321506Y-72075463D01*
X124224815Y-72154815D01*
X124145463Y-72251506D01*
X124086498Y-72361820D01*
X124050188Y-72481518D01*
X124037928Y-72606000D01*
X96164000Y-72606000D01*
X96164000Y-67462000D01*
X135656868Y-67462000D01*
X132332860Y-70786009D01*
G37*
X132332860Y-70786009D02*
X132289552Y-70821551D01*
X132147717Y-70994377D01*
X132124546Y-71037727D01*
X132042324Y-71191554D01*
X131977423Y-71405502D01*
X131955509Y-71628000D01*
X131961000Y-71683751D01*
X131961000Y-72521716D01*
X131824320Y-72726273D01*
X131716147Y-72987426D01*
X131661000Y-73264665D01*
X131661000Y-73547335D01*
X131716147Y-73824574D01*
X131824320Y-74085727D01*
X131981363Y-74320759D01*
X132181241Y-74520637D01*
X132416273Y-74677680D01*
X132677426Y-74785853D01*
X132954665Y-74841000D01*
X133237335Y-74841000D01*
X133514574Y-74785853D01*
X133775727Y-74677680D01*
X134010759Y-74520637D01*
X134210637Y-74320759D01*
X134367680Y-74085727D01*
X134475853Y-73824574D01*
X134531000Y-73547335D01*
X134531000Y-73264665D01*
X134475853Y-72987426D01*
X134367680Y-72726273D01*
X134231000Y-72521716D01*
X134231000Y-72098131D01*
X135907631Y-70421500D01*
X137093428Y-70421500D01*
X137096500Y-70834250D01*
X137255250Y-70993000D01*
X138303000Y-70993000D01*
X138303000Y-69945250D01*
X138557000Y-69945250D01*
X138557000Y-70993000D01*
X139604750Y-70993000D01*
X139763500Y-70834250D01*
X139766572Y-70421500D01*
X139754312Y-70297018D01*
X139718002Y-70177320D01*
X139659037Y-70067006D01*
X139579685Y-69970315D01*
X139482994Y-69890963D01*
X139372680Y-69831998D01*
X139252982Y-69795688D01*
X139128500Y-69783428D01*
X138715750Y-69786500D01*
X138557000Y-69945250D01*
X138303000Y-69945250D01*
X138144250Y-69786500D01*
X137731500Y-69783428D01*
X137607018Y-69795688D01*
X137487320Y-69831998D01*
X137377006Y-69890963D01*
X137280315Y-69970315D01*
X137200963Y-70067006D01*
X137141998Y-70177320D01*
X137105688Y-70297018D01*
X137093428Y-70421500D01*
X135907631Y-70421500D01*
X137122132Y-69207000D01*
X142903662Y-69207000D01*
X142849241Y-69243363D01*
X142649363Y-69443241D01*
X142492320Y-69678273D01*
X142384147Y-69939426D01*
X142329000Y-70216665D01*
X142329000Y-70441868D01*
X140753869Y-72017000D01*
X139731859Y-72017000D01*
X139754312Y-71942982D01*
X139766572Y-71818500D01*
X139763500Y-71405750D01*
X139604750Y-71247000D01*
X138557000Y-71247000D01*
X138557000Y-71267000D01*
X138303000Y-71267000D01*
X138303000Y-71247000D01*
X137255250Y-71247000D01*
X137096500Y-71405750D01*
X137093428Y-71818500D01*
X137105688Y-71942982D01*
X137128141Y-72017000D01*
X137099589Y-72017000D01*
X137029649Y-71970268D01*
X136786968Y-71869746D01*
X136529338Y-71818500D01*
X136266662Y-71818500D01*
X136009032Y-71869746D01*
X135766351Y-71970268D01*
X135547943Y-72116203D01*
X135362203Y-72301943D01*
X135216268Y-72520351D01*
X135115746Y-72763032D01*
X135064500Y-73020662D01*
X135064500Y-73283338D01*
X135115746Y-73540968D01*
X135216268Y-73783649D01*
X135362203Y-74002057D01*
X135547943Y-74187797D01*
X135766351Y-74333732D01*
X136009032Y-74434254D01*
X136266662Y-74485500D01*
X136529338Y-74485500D01*
X136786968Y-74434254D01*
X137029649Y-74333732D01*
X137099589Y-74287000D01*
X137441146Y-74287000D01*
X137394203Y-74333943D01*
X137248268Y-74552351D01*
X137147746Y-74795032D01*
X137096500Y-75052662D01*
X137096500Y-75315338D01*
X137147746Y-75572968D01*
X137248268Y-75815649D01*
X137394203Y-76034057D01*
X137579943Y-76219797D01*
X137798351Y-76365732D01*
X138041032Y-76466254D01*
X138298662Y-76517500D01*
X138561338Y-76517500D01*
X138818968Y-76466254D01*
X139061649Y-76365732D01*
X139280057Y-76219797D01*
X139465797Y-76034057D01*
X139611732Y-75815649D01*
X139712254Y-75572968D01*
X139763500Y-75315338D01*
X139763500Y-75296665D01*
X142329000Y-75296665D01*
X142329000Y-75579335D01*
X142384147Y-75856574D01*
X142492320Y-76117727D01*
X142649363Y-76352759D01*
X142849241Y-76552637D01*
X143084273Y-76709680D01*
X143345426Y-76817853D01*
X143622665Y-76873000D01*
X143905335Y-76873000D01*
X144182574Y-76817853D01*
X144443727Y-76709680D01*
X144678759Y-76552637D01*
X144878637Y-76352759D01*
X145035680Y-76117727D01*
X145143853Y-75856574D01*
X145199000Y-75579335D01*
X145199000Y-75422665D01*
X158907000Y-75422665D01*
X158907000Y-75705335D01*
X158962147Y-75982574D01*
X159070320Y-76243727D01*
X159227363Y-76478759D01*
X159427241Y-76678637D01*
X159662273Y-76835680D01*
X159923426Y-76943853D01*
X160200665Y-76999000D01*
X160483335Y-76999000D01*
X160760574Y-76943853D01*
X161021727Y-76835680D01*
X161256759Y-76678637D01*
X161456637Y-76478759D01*
X161613680Y-76243727D01*
X161721853Y-75982574D01*
X161777000Y-75705335D01*
X161777000Y-75422665D01*
X161721853Y-75145426D01*
X161613680Y-74884273D01*
X161456637Y-74649241D01*
X161256759Y-74449363D01*
X161021727Y-74292320D01*
X160760574Y-74184147D01*
X160483335Y-74129000D01*
X160200665Y-74129000D01*
X159923426Y-74184147D01*
X159662273Y-74292320D01*
X159427241Y-74449363D01*
X159227363Y-74649241D01*
X159070320Y-74884273D01*
X158962147Y-75145426D01*
X158907000Y-75422665D01*
X145199000Y-75422665D01*
X145199000Y-75296665D01*
X145157685Y-75088961D01*
X149872096Y-75088961D01*
X149994085Y-75311000D01*
X151137000Y-75311000D01*
X151137000Y-74167376D01*
X151391000Y-74167376D01*
X151391000Y-75311000D01*
X152533915Y-75311000D01*
X152655904Y-75088961D01*
X152615246Y-74954913D01*
X152495037Y-74700580D01*
X152327519Y-74474586D01*
X152119131Y-74285615D01*
X151877881Y-74140930D01*
X151613040Y-74046091D01*
X151391000Y-74167376D01*
X151137000Y-74167376D01*
X150914960Y-74046091D01*
X150650119Y-74140930D01*
X150408869Y-74285615D01*
X150200481Y-74474586D01*
X150032963Y-74700580D01*
X149912754Y-74954913D01*
X149872096Y-75088961D01*
X145157685Y-75088961D01*
X145143853Y-75019426D01*
X145035680Y-74758273D01*
X144878637Y-74523241D01*
X144678759Y-74323363D01*
X144443727Y-74166320D01*
X144182574Y-74058147D01*
X143905335Y-74003000D01*
X143622665Y-74003000D01*
X143345426Y-74058147D01*
X143084273Y-74166320D01*
X142849241Y-74323363D01*
X142649363Y-74523241D01*
X142492320Y-74758273D01*
X142384147Y-75019426D01*
X142329000Y-75296665D01*
X139763500Y-75296665D01*
X139763500Y-75052662D01*
X139712254Y-74795032D01*
X139611732Y-74552351D01*
X139465797Y-74333943D01*
X139418854Y-74287000D01*
X141168249Y-74287000D01*
X141224000Y-74292491D01*
X141279751Y-74287000D01*
X141279752Y-74287000D01*
X141446499Y-74270577D01*
X141660447Y-74205676D01*
X141857623Y-74100284D01*
X142030449Y-73958449D01*
X142065996Y-73915135D01*
X144286204Y-71694928D01*
X144443727Y-71629680D01*
X144678759Y-71472637D01*
X144878637Y-71272759D01*
X145035680Y-71037727D01*
X145143853Y-70776574D01*
X145157684Y-70707039D01*
X149992096Y-70707039D01*
X150032754Y-70841087D01*
X150152963Y-71095420D01*
X150320481Y-71321414D01*
X150528869Y-71510385D01*
X150770119Y-71655070D01*
X151034960Y-71749909D01*
X151257000Y-71628624D01*
X151257000Y-70485000D01*
X151511000Y-70485000D01*
X151511000Y-71628624D01*
X151733040Y-71749909D01*
X151997881Y-71655070D01*
X152239131Y-71510385D01*
X152447519Y-71321414D01*
X152615037Y-71095420D01*
X152735246Y-70841087D01*
X152775904Y-70707039D01*
X152653915Y-70485000D01*
X151511000Y-70485000D01*
X151257000Y-70485000D01*
X150114085Y-70485000D01*
X149992096Y-70707039D01*
X145157684Y-70707039D01*
X145199000Y-70499335D01*
X145199000Y-70216665D01*
X145143853Y-69939426D01*
X145035680Y-69678273D01*
X144878637Y-69443241D01*
X144678759Y-69243363D01*
X144624338Y-69207000D01*
X150527342Y-69207000D01*
X150320481Y-69394586D01*
X150152963Y-69620580D01*
X150032754Y-69874913D01*
X149992096Y-70008961D01*
X150114085Y-70231000D01*
X151257000Y-70231000D01*
X151257000Y-70211000D01*
X151511000Y-70211000D01*
X151511000Y-70231000D01*
X152653915Y-70231000D01*
X152775904Y-70008961D01*
X152735246Y-69874913D01*
X152615037Y-69620580D01*
X152447519Y-69394586D01*
X152240658Y-69207000D01*
X161835869Y-69207000D01*
X163203000Y-70574132D01*
X163203001Y-86467867D01*
X162484718Y-87186150D01*
X162243426Y-87234147D01*
X161982273Y-87342320D01*
X161747241Y-87499363D01*
X161547363Y-87699241D01*
X161390320Y-87934273D01*
X161282147Y-88195426D01*
X161227000Y-88472665D01*
X161227000Y-88755335D01*
X161282147Y-89032574D01*
X161390320Y-89293727D01*
X161547363Y-89528759D01*
X161747241Y-89728637D01*
X161982273Y-89885680D01*
X162243426Y-89993853D01*
X162520665Y-90049000D01*
X162803335Y-90049000D01*
X163080574Y-89993853D01*
X163341727Y-89885680D01*
X163576759Y-89728637D01*
X163776637Y-89528759D01*
X163933680Y-89293727D01*
X164041853Y-89032574D01*
X164089850Y-88791282D01*
X164408466Y-88472665D01*
X168727000Y-88472665D01*
X168727000Y-88755335D01*
X168782147Y-89032574D01*
X168890320Y-89293727D01*
X169047363Y-89528759D01*
X169247241Y-89728637D01*
X169482273Y-89885680D01*
X169743426Y-89993853D01*
X170020665Y-90049000D01*
X170303335Y-90049000D01*
X170580574Y-89993853D01*
X170841727Y-89885680D01*
X171076759Y-89728637D01*
X171276637Y-89528759D01*
X171433680Y-89293727D01*
X171541853Y-89032574D01*
X171597000Y-88755335D01*
X171597000Y-88472665D01*
X171541853Y-88195426D01*
X171433680Y-87934273D01*
X171276637Y-87699241D01*
X171076759Y-87499363D01*
X170841727Y-87342320D01*
X170580574Y-87234147D01*
X170303335Y-87179000D01*
X170020665Y-87179000D01*
X169743426Y-87234147D01*
X169482273Y-87342320D01*
X169247241Y-87499363D01*
X169047363Y-87699241D01*
X168890320Y-87934273D01*
X168782147Y-88195426D01*
X168727000Y-88472665D01*
X164408466Y-88472665D01*
X165101140Y-87779991D01*
X165144449Y-87744449D01*
X165286284Y-87571623D01*
X165391676Y-87374447D01*
X165456577Y-87160499D01*
X165473000Y-86993752D01*
X165478491Y-86938000D01*
X165473000Y-86882249D01*
X165473000Y-75422665D01*
X166527000Y-75422665D01*
X166527000Y-75705335D01*
X166582147Y-75982574D01*
X166690320Y-76243727D01*
X166847363Y-76478759D01*
X167047241Y-76678637D01*
X167282273Y-76835680D01*
X167543426Y-76943853D01*
X167820665Y-76999000D01*
X168103335Y-76999000D01*
X168380574Y-76943853D01*
X168641727Y-76835680D01*
X168876759Y-76678637D01*
X169076637Y-76478759D01*
X169233680Y-76243727D01*
X169341853Y-75982574D01*
X169397000Y-75705335D01*
X169397000Y-75422665D01*
X169341853Y-75145426D01*
X169233680Y-74884273D01*
X169076637Y-74649241D01*
X168876759Y-74449363D01*
X168641727Y-74292320D01*
X168380574Y-74184147D01*
X168103335Y-74129000D01*
X167820665Y-74129000D01*
X167543426Y-74184147D01*
X167282273Y-74292320D01*
X167047241Y-74449363D01*
X166847363Y-74649241D01*
X166690320Y-74884273D01*
X166582147Y-75145426D01*
X166527000Y-75422665D01*
X165473000Y-75422665D01*
X165473000Y-70159751D01*
X165478491Y-70104000D01*
X165456577Y-69881501D01*
X165391676Y-69667553D01*
X165389626Y-69663717D01*
X165286284Y-69470377D01*
X165144449Y-69297551D01*
X165101141Y-69262009D01*
X163301131Y-67462000D01*
X201270000Y-67462000D01*
X201270001Y-69820124D01*
X201269771Y-69822659D01*
X201270001Y-69852558D01*
X201270001Y-69882419D01*
X201270250Y-69884949D01*
X201283274Y-71578074D01*
X201236387Y-71539595D01*
X201082851Y-71457528D01*
X200916255Y-71406992D01*
X200743001Y-71389928D01*
X199052999Y-71389928D01*
X198879745Y-71406992D01*
X198713149Y-71457528D01*
X198559613Y-71539595D01*
X198425038Y-71650038D01*
X198314595Y-71784613D01*
X198232528Y-71938149D01*
X198181992Y-72104745D01*
X198164928Y-72277999D01*
X198164928Y-73518001D01*
X198181992Y-73691255D01*
X198232528Y-73857851D01*
X198314595Y-74011387D01*
X198425038Y-74145962D01*
X198559613Y-74256405D01*
X198646786Y-74303000D01*
X175823751Y-74303000D01*
X175767999Y-74297509D01*
X175712248Y-74303000D01*
X175545501Y-74319423D01*
X175331553Y-74384324D01*
X175134377Y-74489716D01*
X174961551Y-74631551D01*
X174926009Y-74674859D01*
X169085753Y-80515116D01*
X169233680Y-80293727D01*
X169341853Y-80032574D01*
X169397000Y-79755335D01*
X169397000Y-79472665D01*
X169341853Y-79195426D01*
X169233680Y-78934273D01*
X169076637Y-78699241D01*
X168876759Y-78499363D01*
X168641727Y-78342320D01*
X168380574Y-78234147D01*
X168103335Y-78179000D01*
X167820665Y-78179000D01*
X167543426Y-78234147D01*
X167282273Y-78342320D01*
X167047241Y-78499363D01*
X166847363Y-78699241D01*
X166690320Y-78934273D01*
X166582147Y-79195426D01*
X166527000Y-79472665D01*
X166527000Y-79755335D01*
X166582147Y-80032574D01*
X166690320Y-80293727D01*
X166847363Y-80528759D01*
X167047241Y-80728637D01*
X167282273Y-80885680D01*
X167543426Y-80993853D01*
X167820665Y-81049000D01*
X168103335Y-81049000D01*
X168380574Y-80993853D01*
X168641727Y-80885680D01*
X168863116Y-80737753D01*
X167638865Y-81962004D01*
X167595551Y-81997551D01*
X167453716Y-82170377D01*
X167371508Y-82324180D01*
X167348324Y-82367554D01*
X167283423Y-82581502D01*
X167261509Y-82804000D01*
X167267000Y-82859751D01*
X167267000Y-84185788D01*
X167277932Y-84240747D01*
X167283423Y-84296499D01*
X167299685Y-84350106D01*
X167310617Y-84405067D01*
X167332063Y-84456842D01*
X167348324Y-84510447D01*
X167374730Y-84559849D01*
X167396176Y-84611624D01*
X167427310Y-84658220D01*
X167453717Y-84707623D01*
X167489254Y-84750925D01*
X167520388Y-84797520D01*
X167560014Y-84837146D01*
X167595552Y-84880449D01*
X167638855Y-84915987D01*
X167678480Y-84955612D01*
X167725074Y-84986745D01*
X167768378Y-85022284D01*
X167817782Y-85048691D01*
X167864376Y-85079824D01*
X167916153Y-85101271D01*
X167965554Y-85127676D01*
X168019155Y-85143936D01*
X168070933Y-85165383D01*
X168125897Y-85176316D01*
X168179502Y-85192577D01*
X168235252Y-85198068D01*
X168290212Y-85209000D01*
X168346249Y-85209000D01*
X168402000Y-85214491D01*
X168457752Y-85209000D01*
X168513788Y-85209000D01*
X168568747Y-85198068D01*
X168624499Y-85192577D01*
X168678106Y-85176315D01*
X168733067Y-85165383D01*
X168784842Y-85143937D01*
X168838447Y-85127676D01*
X168887851Y-85101269D01*
X168939624Y-85079824D01*
X168986214Y-85048693D01*
X169035623Y-85022284D01*
X169078932Y-84986741D01*
X169125520Y-84955612D01*
X169165141Y-84915991D01*
X169208449Y-84880449D01*
X169243991Y-84837141D01*
X169283612Y-84797520D01*
X169314741Y-84750932D01*
X169350284Y-84707623D01*
X169376693Y-84658214D01*
X169407824Y-84611624D01*
X169429269Y-84559851D01*
X169455676Y-84510447D01*
X169471937Y-84456842D01*
X169493383Y-84405067D01*
X169504315Y-84350106D01*
X169520577Y-84296499D01*
X169526068Y-84240747D01*
X169537000Y-84185788D01*
X169537000Y-83942662D01*
X180022500Y-83942662D01*
X180022500Y-84205338D01*
X180073746Y-84462968D01*
X180174268Y-84705649D01*
X180320203Y-84924057D01*
X180505943Y-85109797D01*
X180724351Y-85255732D01*
X180967032Y-85356254D01*
X181224662Y-85407500D01*
X181487338Y-85407500D01*
X181744968Y-85356254D01*
X181987649Y-85255732D01*
X182206057Y-85109797D01*
X182391797Y-84924057D01*
X182537732Y-84705649D01*
X182638254Y-84462968D01*
X182689500Y-84205338D01*
X182689500Y-83942662D01*
X182638254Y-83685032D01*
X182537732Y-83442351D01*
X182467072Y-83336600D01*
X182565018Y-83366312D01*
X182689500Y-83378572D01*
X184086500Y-83378572D01*
X184210982Y-83366312D01*
X184330680Y-83330002D01*
X184440994Y-83271037D01*
X184537685Y-83191685D01*
X184617037Y-83094994D01*
X184676002Y-82984680D01*
X184712312Y-82864982D01*
X184724572Y-82740500D01*
X184724572Y-81343500D01*
X184712312Y-81219018D01*
X184676002Y-81099320D01*
X184617037Y-80989006D01*
X184537685Y-80892315D01*
X184440994Y-80812963D01*
X184330680Y-80753998D01*
X184210982Y-80717688D01*
X184086500Y-80705428D01*
X182689500Y-80705428D01*
X182565018Y-80717688D01*
X182445320Y-80753998D01*
X182335006Y-80812963D01*
X182238315Y-80892315D01*
X182158963Y-80989006D01*
X182099998Y-81099320D01*
X182063688Y-81219018D01*
X182051428Y-81343500D01*
X182051428Y-82740500D01*
X182063688Y-82864982D01*
X182093400Y-82962928D01*
X181987649Y-82892268D01*
X181744968Y-82791746D01*
X181487338Y-82740500D01*
X181224662Y-82740500D01*
X180967032Y-82791746D01*
X180724351Y-82892268D01*
X180505943Y-83038203D01*
X180320203Y-83223943D01*
X180174268Y-83442351D01*
X180073746Y-83685032D01*
X180022500Y-83942662D01*
X169537000Y-83942662D01*
X169537000Y-83274131D01*
X172434466Y-80376665D01*
X185509000Y-80376665D01*
X185509000Y-80659335D01*
X185564147Y-80936574D01*
X185672320Y-81197727D01*
X185829363Y-81432759D01*
X186029241Y-81632637D01*
X186261759Y-81788000D01*
X186029241Y-81943363D01*
X185829363Y-82143241D01*
X185672320Y-82378273D01*
X185564147Y-82639426D01*
X185509000Y-82916665D01*
X185509000Y-83199335D01*
X185564147Y-83476574D01*
X185672320Y-83737727D01*
X185829363Y-83972759D01*
X186029241Y-84172637D01*
X186261759Y-84328000D01*
X186029241Y-84483363D01*
X185829363Y-84683241D01*
X185672320Y-84918273D01*
X185564147Y-85179426D01*
X185509000Y-85456665D01*
X185509000Y-85739335D01*
X185564147Y-86016574D01*
X185672320Y-86277727D01*
X185829363Y-86512759D01*
X186029241Y-86712637D01*
X186261759Y-86868000D01*
X186029241Y-87023363D01*
X185829363Y-87223241D01*
X185672320Y-87458273D01*
X185564147Y-87719426D01*
X185509000Y-87996665D01*
X185509000Y-88279335D01*
X185564147Y-88556574D01*
X185672320Y-88817727D01*
X185829363Y-89052759D01*
X186029241Y-89252637D01*
X186261759Y-89408000D01*
X186029241Y-89563363D01*
X185829363Y-89763241D01*
X185672320Y-89998273D01*
X185564147Y-90259426D01*
X185509000Y-90536665D01*
X185509000Y-90819335D01*
X185564147Y-91096574D01*
X185672320Y-91357727D01*
X185829363Y-91592759D01*
X186029241Y-91792637D01*
X186264273Y-91949680D01*
X186525426Y-92057853D01*
X186802665Y-92113000D01*
X187085335Y-92113000D01*
X187362574Y-92057853D01*
X187623727Y-91949680D01*
X187858759Y-91792637D01*
X188058637Y-91592759D01*
X188215680Y-91357727D01*
X188323853Y-91096574D01*
X188379000Y-90819335D01*
X188379000Y-90536665D01*
X188323853Y-90259426D01*
X188215680Y-89998273D01*
X188058637Y-89763241D01*
X187858759Y-89563363D01*
X187626241Y-89408000D01*
X187858759Y-89252637D01*
X188058637Y-89052759D01*
X188215680Y-88817727D01*
X188323853Y-88556574D01*
X188379000Y-88279335D01*
X188379000Y-87996665D01*
X188323853Y-87719426D01*
X188215680Y-87458273D01*
X188058637Y-87223241D01*
X187858759Y-87023363D01*
X187626241Y-86868000D01*
X187858759Y-86712637D01*
X188058637Y-86512759D01*
X188215680Y-86277727D01*
X188323853Y-86016574D01*
X188379000Y-85739335D01*
X188379000Y-85456665D01*
X188323853Y-85179426D01*
X188215680Y-84918273D01*
X188058637Y-84683241D01*
X187858759Y-84483363D01*
X187626241Y-84328000D01*
X187858759Y-84172637D01*
X188058637Y-83972759D01*
X188215680Y-83737727D01*
X188323853Y-83476574D01*
X188379000Y-83199335D01*
X188379000Y-82916665D01*
X188323853Y-82639426D01*
X188215680Y-82378273D01*
X188058637Y-82143241D01*
X187858759Y-81943363D01*
X187626241Y-81788000D01*
X187858759Y-81632637D01*
X188058637Y-81432759D01*
X188215680Y-81197727D01*
X188323853Y-80936574D01*
X188379000Y-80659335D01*
X188379000Y-80376665D01*
X193129000Y-80376665D01*
X193129000Y-80659335D01*
X193184147Y-80936574D01*
X193292320Y-81197727D01*
X193449363Y-81432759D01*
X193649241Y-81632637D01*
X193881759Y-81788000D01*
X193649241Y-81943363D01*
X193449363Y-82143241D01*
X193292320Y-82378273D01*
X193184147Y-82639426D01*
X193129000Y-82916665D01*
X193129000Y-83199335D01*
X193184147Y-83476574D01*
X193292320Y-83737727D01*
X193449363Y-83972759D01*
X193649241Y-84172637D01*
X193881759Y-84328000D01*
X193649241Y-84483363D01*
X193449363Y-84683241D01*
X193292320Y-84918273D01*
X193184147Y-85179426D01*
X193129000Y-85456665D01*
X193129000Y-85739335D01*
X193184147Y-86016574D01*
X193292320Y-86277727D01*
X193449363Y-86512759D01*
X193649241Y-86712637D01*
X193881759Y-86868000D01*
X193649241Y-87023363D01*
X193449363Y-87223241D01*
X193292320Y-87458273D01*
X193184147Y-87719426D01*
X193129000Y-87996665D01*
X193129000Y-88279335D01*
X193184147Y-88556574D01*
X193292320Y-88817727D01*
X193449363Y-89052759D01*
X193649241Y-89252637D01*
X193881759Y-89408000D01*
X193649241Y-89563363D01*
X193449363Y-89763241D01*
X193292320Y-89998273D01*
X193184147Y-90259426D01*
X193129000Y-90536665D01*
X193129000Y-90819335D01*
X193184147Y-91096574D01*
X193292320Y-91357727D01*
X193449363Y-91592759D01*
X193649241Y-91792637D01*
X193884273Y-91949680D01*
X194145426Y-92057853D01*
X194422665Y-92113000D01*
X194705335Y-92113000D01*
X194982574Y-92057853D01*
X195243727Y-91949680D01*
X195478759Y-91792637D01*
X195678637Y-91592759D01*
X195835680Y-91357727D01*
X195943853Y-91096574D01*
X195999000Y-90819335D01*
X195999000Y-90536665D01*
X195943853Y-90259426D01*
X195835680Y-89998273D01*
X195678637Y-89763241D01*
X195478759Y-89563363D01*
X195246241Y-89408000D01*
X195478759Y-89252637D01*
X195678637Y-89052759D01*
X195835680Y-88817727D01*
X195943853Y-88556574D01*
X195999000Y-88279335D01*
X195999000Y-87996665D01*
X195943853Y-87719426D01*
X195835680Y-87458273D01*
X195678637Y-87223241D01*
X195478759Y-87023363D01*
X195246241Y-86868000D01*
X195478759Y-86712637D01*
X195678637Y-86512759D01*
X195835680Y-86277727D01*
X195943853Y-86016574D01*
X195999000Y-85739335D01*
X195999000Y-85456665D01*
X195943853Y-85179426D01*
X195835680Y-84918273D01*
X195678637Y-84683241D01*
X195478759Y-84483363D01*
X195246241Y-84328000D01*
X195478759Y-84172637D01*
X195678637Y-83972759D01*
X195835680Y-83737727D01*
X195943853Y-83476574D01*
X195999000Y-83199335D01*
X195999000Y-82916665D01*
X195943853Y-82639426D01*
X195835680Y-82378273D01*
X195678637Y-82143241D01*
X195478759Y-81943363D01*
X195246241Y-81788000D01*
X195478759Y-81632637D01*
X195678637Y-81432759D01*
X195835680Y-81197727D01*
X195943853Y-80936574D01*
X195999000Y-80659335D01*
X195999000Y-80376665D01*
X195943853Y-80099426D01*
X195835680Y-79838273D01*
X195678637Y-79603241D01*
X195478759Y-79403363D01*
X195243727Y-79246320D01*
X194982574Y-79138147D01*
X194705335Y-79083000D01*
X194422665Y-79083000D01*
X194145426Y-79138147D01*
X193884273Y-79246320D01*
X193649241Y-79403363D01*
X193449363Y-79603241D01*
X193292320Y-79838273D01*
X193184147Y-80099426D01*
X193129000Y-80376665D01*
X188379000Y-80376665D01*
X188323853Y-80099426D01*
X188215680Y-79838273D01*
X188058637Y-79603241D01*
X187858759Y-79403363D01*
X187623727Y-79246320D01*
X187362574Y-79138147D01*
X187085335Y-79083000D01*
X186802665Y-79083000D01*
X186525426Y-79138147D01*
X186264273Y-79246320D01*
X186029241Y-79403363D01*
X185829363Y-79603241D01*
X185672320Y-79838273D01*
X185564147Y-80099426D01*
X185509000Y-80376665D01*
X172434466Y-80376665D01*
X176238132Y-76573000D01*
X198683656Y-76573000D01*
X198832821Y-76695417D01*
X198861152Y-76710560D01*
X198720567Y-76803292D01*
X198509694Y-77011674D01*
X198343526Y-77257191D01*
X198228449Y-77530409D01*
X198211698Y-77617969D01*
X198332754Y-77851000D01*
X199771000Y-77851000D01*
X199771000Y-77831000D01*
X200025000Y-77831000D01*
X200025000Y-77851000D01*
X200045000Y-77851000D01*
X200045000Y-78105000D01*
X200025000Y-78105000D01*
X200025000Y-78125000D01*
X199771000Y-78125000D01*
X199771000Y-78105000D01*
X198332754Y-78105000D01*
X198211698Y-78338031D01*
X198228449Y-78425591D01*
X198343526Y-78698809D01*
X198509694Y-78944326D01*
X198720567Y-79152708D01*
X198861152Y-79245440D01*
X198832821Y-79260583D01*
X198603655Y-79448655D01*
X198415583Y-79677821D01*
X198275834Y-79939275D01*
X198189776Y-80222968D01*
X198160718Y-80518000D01*
X198189776Y-80813032D01*
X198275834Y-81096725D01*
X198415583Y-81358179D01*
X198603655Y-81587345D01*
X198832821Y-81775417D01*
X198856362Y-81788000D01*
X198832821Y-81800583D01*
X198603655Y-81988655D01*
X198415583Y-82217821D01*
X198275834Y-82479275D01*
X198189776Y-82762968D01*
X198160718Y-83058000D01*
X198189776Y-83353032D01*
X198275834Y-83636725D01*
X198415583Y-83898179D01*
X198603655Y-84127345D01*
X198832821Y-84315417D01*
X198856362Y-84328000D01*
X198832821Y-84340583D01*
X198603655Y-84528655D01*
X198415583Y-84757821D01*
X198275834Y-85019275D01*
X198189776Y-85302968D01*
X198160718Y-85598000D01*
X198189776Y-85893032D01*
X198275834Y-86176725D01*
X198415583Y-86438179D01*
X198603655Y-86667345D01*
X198832821Y-86855417D01*
X198856362Y-86868000D01*
X198832821Y-86880583D01*
X198603655Y-87068655D01*
X198415583Y-87297821D01*
X198275834Y-87559275D01*
X198189776Y-87842968D01*
X198160718Y-88138000D01*
X198189776Y-88433032D01*
X198275834Y-88716725D01*
X198415583Y-88978179D01*
X198603655Y-89207345D01*
X198832821Y-89395417D01*
X198856362Y-89408000D01*
X198832821Y-89420583D01*
X198603655Y-89608655D01*
X198415583Y-89837821D01*
X198275834Y-90099275D01*
X198189776Y-90382968D01*
X198160718Y-90678000D01*
X198189776Y-90973032D01*
X198275834Y-91256725D01*
X198415583Y-91518179D01*
X198603655Y-91747345D01*
X198832821Y-91935417D01*
X198856362Y-91948000D01*
X198832821Y-91960583D01*
X198603655Y-92148655D01*
X198415583Y-92377821D01*
X198275834Y-92639275D01*
X198189776Y-92922968D01*
X198160718Y-93218000D01*
X198189776Y-93513032D01*
X198275834Y-93796725D01*
X198415583Y-94058179D01*
X198603655Y-94287345D01*
X198832821Y-94475417D01*
X198856362Y-94488000D01*
X198832821Y-94500583D01*
X198603655Y-94688655D01*
X198415583Y-94917821D01*
X198275834Y-95179275D01*
X198189776Y-95462968D01*
X198160718Y-95758000D01*
X198189776Y-96053032D01*
X198275834Y-96336725D01*
X198415583Y-96598179D01*
X198603655Y-96827345D01*
X198832821Y-97015417D01*
X198856362Y-97028000D01*
X198832821Y-97040583D01*
X198603655Y-97228655D01*
X198415583Y-97457821D01*
X198275834Y-97719275D01*
X198189776Y-98002968D01*
X198160718Y-98298000D01*
X198189776Y-98593032D01*
X198275834Y-98876725D01*
X198415583Y-99138179D01*
X198603655Y-99367345D01*
X198832821Y-99555417D01*
X199094275Y-99695166D01*
X199377968Y-99781224D01*
X199599064Y-99803000D01*
X200196936Y-99803000D01*
X200418032Y-99781224D01*
X200701725Y-99695166D01*
X200963179Y-99555417D01*
X201192345Y-99367345D01*
X201380417Y-99138179D01*
X201493645Y-98926343D01*
X201517142Y-101981000D01*
X187148463Y-101981000D01*
X187159520Y-101973612D01*
X187199141Y-101933991D01*
X187242449Y-101898449D01*
X187277991Y-101855141D01*
X187317612Y-101815520D01*
X187348741Y-101768932D01*
X187384284Y-101725623D01*
X187410693Y-101676214D01*
X187441824Y-101629624D01*
X187463269Y-101577851D01*
X187489676Y-101528447D01*
X187505937Y-101474842D01*
X187527383Y-101423067D01*
X187538315Y-101368106D01*
X187554577Y-101314499D01*
X187560068Y-101258747D01*
X187571000Y-101203788D01*
X187571000Y-101147751D01*
X187576491Y-101092000D01*
X187571000Y-101036248D01*
X187571000Y-93527752D01*
X187576491Y-93472000D01*
X187571000Y-93416248D01*
X187571000Y-93360212D01*
X187560068Y-93305253D01*
X187554577Y-93249501D01*
X187538315Y-93195894D01*
X187527383Y-93140933D01*
X187505937Y-93089158D01*
X187489676Y-93035553D01*
X187463269Y-92986149D01*
X187441824Y-92934376D01*
X187410693Y-92887786D01*
X187384284Y-92838377D01*
X187348741Y-92795068D01*
X187317612Y-92748480D01*
X187277991Y-92708859D01*
X187242449Y-92665551D01*
X187199141Y-92630009D01*
X187159520Y-92590388D01*
X187112932Y-92559259D01*
X187069623Y-92523716D01*
X187020214Y-92497307D01*
X186973624Y-92466176D01*
X186921851Y-92444731D01*
X186872447Y-92418324D01*
X186818842Y-92402063D01*
X186767067Y-92380617D01*
X186712106Y-92369685D01*
X186658499Y-92353423D01*
X186602747Y-92347932D01*
X186547788Y-92337000D01*
X186491752Y-92337000D01*
X186436000Y-92331509D01*
X186380249Y-92337000D01*
X186324212Y-92337000D01*
X186269253Y-92347932D01*
X186213501Y-92353423D01*
X186159894Y-92369685D01*
X186104933Y-92380617D01*
X186053158Y-92402063D01*
X185999553Y-92418324D01*
X185950149Y-92444731D01*
X185898376Y-92466176D01*
X185851786Y-92497307D01*
X185802377Y-92523716D01*
X185759068Y-92559259D01*
X185712480Y-92590388D01*
X185672859Y-92630009D01*
X185629551Y-92665551D01*
X185594009Y-92708859D01*
X185554388Y-92748480D01*
X185523259Y-92795068D01*
X185487716Y-92838377D01*
X185461307Y-92887786D01*
X185430176Y-92934376D01*
X185408731Y-92986149D01*
X185382324Y-93035553D01*
X185366063Y-93089158D01*
X185344617Y-93140933D01*
X185333685Y-93195894D01*
X185317423Y-93249501D01*
X185311932Y-93305253D01*
X185301000Y-93360212D01*
X185301000Y-93416248D01*
X185295509Y-93472000D01*
X185301000Y-93527752D01*
X185301000Y-93583788D01*
X185301001Y-93583793D01*
X185301000Y-100980212D01*
X185301000Y-101036248D01*
X185295509Y-101092000D01*
X185301000Y-101147751D01*
X185301000Y-101203788D01*
X185311932Y-101258747D01*
X185317423Y-101314499D01*
X185333685Y-101368106D01*
X185344617Y-101423067D01*
X185366063Y-101474842D01*
X185382324Y-101528447D01*
X185408731Y-101577851D01*
X185430176Y-101629624D01*
X185461307Y-101676215D01*
X185487716Y-101725623D01*
X185523259Y-101768932D01*
X185554388Y-101815520D01*
X185594009Y-101855141D01*
X185629551Y-101898449D01*
X185672859Y-101933991D01*
X185712480Y-101973612D01*
X185723537Y-101981000D01*
X127712463Y-101981000D01*
X127723520Y-101973612D01*
X127763141Y-101933991D01*
X127806449Y-101898449D01*
X127841991Y-101855141D01*
X127881612Y-101815520D01*
X127912741Y-101768932D01*
X127948284Y-101725623D01*
X127974693Y-101676214D01*
X128005824Y-101629624D01*
X128027269Y-101577851D01*
X128053676Y-101528447D01*
X128069937Y-101474842D01*
X128091383Y-101423067D01*
X128102315Y-101368106D01*
X128118577Y-101314499D01*
X128124068Y-101258747D01*
X128135000Y-101203788D01*
X128135000Y-95616665D01*
X128867000Y-95616665D01*
X128867000Y-95899335D01*
X128922147Y-96176574D01*
X129030320Y-96437727D01*
X129187363Y-96672759D01*
X129387241Y-96872637D01*
X129622273Y-97029680D01*
X129883426Y-97137853D01*
X130160665Y-97193000D01*
X130443335Y-97193000D01*
X130720574Y-97137853D01*
X130981727Y-97029680D01*
X131216759Y-96872637D01*
X131416637Y-96672759D01*
X131573680Y-96437727D01*
X131681853Y-96176574D01*
X131737000Y-95899335D01*
X131737000Y-95616665D01*
X131681853Y-95339426D01*
X131573680Y-95078273D01*
X131416637Y-94843241D01*
X131216759Y-94643363D01*
X130981727Y-94486320D01*
X130720574Y-94378147D01*
X130443335Y-94323000D01*
X130160665Y-94323000D01*
X129883426Y-94378147D01*
X129622273Y-94486320D01*
X129387241Y-94643363D01*
X129187363Y-94843241D01*
X129030320Y-95078273D01*
X128922147Y-95339426D01*
X128867000Y-95616665D01*
X128135000Y-95616665D01*
X128135000Y-88788212D01*
X128129123Y-88758665D01*
X129629000Y-88758665D01*
X129629000Y-89041335D01*
X129684147Y-89318574D01*
X129792320Y-89579727D01*
X129949363Y-89814759D01*
X130149241Y-90014637D01*
X130384273Y-90171680D01*
X130645426Y-90279853D01*
X130886719Y-90327850D01*
X136494151Y-95935284D01*
X136542147Y-96176574D01*
X136650320Y-96437727D01*
X136807363Y-96672759D01*
X137007241Y-96872637D01*
X137242273Y-97029680D01*
X137503426Y-97137853D01*
X137744718Y-97185850D01*
X140128009Y-99569141D01*
X140163551Y-99612449D01*
X140336377Y-99754284D01*
X140533553Y-99859676D01*
X140747501Y-99924577D01*
X140970000Y-99946491D01*
X141025751Y-99941000D01*
X146502249Y-99941000D01*
X146558000Y-99946491D01*
X146613751Y-99941000D01*
X146613752Y-99941000D01*
X146780499Y-99924577D01*
X146994447Y-99859676D01*
X147191623Y-99754284D01*
X147364449Y-99612449D01*
X147399995Y-99569136D01*
X149099146Y-97869987D01*
X149142449Y-97834449D01*
X149209848Y-97752324D01*
X149284284Y-97661623D01*
X149389676Y-97464447D01*
X149454577Y-97250499D01*
X149476491Y-97028000D01*
X149471000Y-96972248D01*
X149471000Y-82766131D01*
X150076132Y-82161000D01*
X150499716Y-82161000D01*
X150701759Y-82296000D01*
X150469241Y-82451363D01*
X150269363Y-82651241D01*
X150112320Y-82886273D01*
X150004147Y-83147426D01*
X149949000Y-83424665D01*
X149949000Y-83707335D01*
X150004147Y-83984574D01*
X150112320Y-84245727D01*
X150269363Y-84480759D01*
X150469241Y-84680637D01*
X150701759Y-84836000D01*
X150469241Y-84991363D01*
X150269363Y-85191241D01*
X150112320Y-85426273D01*
X150004147Y-85687426D01*
X149949000Y-85964665D01*
X149949000Y-86247335D01*
X150004147Y-86524574D01*
X150112320Y-86785727D01*
X150269363Y-87020759D01*
X150469241Y-87220637D01*
X150701759Y-87376000D01*
X150469241Y-87531363D01*
X150269363Y-87731241D01*
X150112320Y-87966273D01*
X150004147Y-88227426D01*
X149949000Y-88504665D01*
X149949000Y-88787335D01*
X150004147Y-89064574D01*
X150112320Y-89325727D01*
X150269363Y-89560759D01*
X150469241Y-89760637D01*
X150701759Y-89916000D01*
X150469241Y-90071363D01*
X150269363Y-90271241D01*
X150112320Y-90506273D01*
X150004147Y-90767426D01*
X149949000Y-91044665D01*
X149949000Y-91327335D01*
X150004147Y-91604574D01*
X150112320Y-91865727D01*
X150269363Y-92100759D01*
X150469241Y-92300637D01*
X150704273Y-92457680D01*
X150714865Y-92462067D01*
X150528869Y-92573615D01*
X150320481Y-92762586D01*
X150152963Y-92988580D01*
X150032754Y-93242913D01*
X149992096Y-93376961D01*
X150114085Y-93599000D01*
X151257000Y-93599000D01*
X151257000Y-93579000D01*
X151511000Y-93579000D01*
X151511000Y-93599000D01*
X151531000Y-93599000D01*
X151531000Y-93853000D01*
X151511000Y-93853000D01*
X151511000Y-93873000D01*
X151257000Y-93873000D01*
X151257000Y-93853000D01*
X150114085Y-93853000D01*
X149992096Y-94075039D01*
X150032754Y-94209087D01*
X150152963Y-94463420D01*
X150320481Y-94689414D01*
X150528869Y-94878385D01*
X150714865Y-94989933D01*
X150704273Y-94994320D01*
X150469241Y-95151363D01*
X150269363Y-95351241D01*
X150112320Y-95586273D01*
X150004147Y-95847426D01*
X149949000Y-96124665D01*
X149949000Y-96407335D01*
X150004147Y-96684574D01*
X150112320Y-96945727D01*
X150269363Y-97180759D01*
X150469241Y-97380637D01*
X150704273Y-97537680D01*
X150965426Y-97645853D01*
X151242665Y-97701000D01*
X151525335Y-97701000D01*
X151802574Y-97645853D01*
X152063727Y-97537680D01*
X152298759Y-97380637D01*
X152498637Y-97180759D01*
X152655680Y-96945727D01*
X152763853Y-96684574D01*
X152804573Y-96479865D01*
X152805423Y-96488498D01*
X152821684Y-96542103D01*
X152832617Y-96597067D01*
X152854064Y-96648845D01*
X152870324Y-96702446D01*
X152896730Y-96751848D01*
X152918176Y-96803624D01*
X152949307Y-96850215D01*
X152975716Y-96899623D01*
X153011259Y-96942932D01*
X153042388Y-96989520D01*
X153082009Y-97029141D01*
X153117551Y-97072449D01*
X153160859Y-97107991D01*
X153200480Y-97147612D01*
X153247068Y-97178741D01*
X153290377Y-97214284D01*
X153339786Y-97240693D01*
X153386376Y-97271824D01*
X153438149Y-97293269D01*
X153487553Y-97319676D01*
X153541158Y-97335937D01*
X153592933Y-97357383D01*
X153647894Y-97368315D01*
X153701501Y-97384577D01*
X153757253Y-97390068D01*
X153812212Y-97401000D01*
X153868248Y-97401000D01*
X153924000Y-97406491D01*
X153979751Y-97401000D01*
X154035788Y-97401000D01*
X154067636Y-97394665D01*
X156045000Y-97394665D01*
X156045000Y-97677335D01*
X156100147Y-97954574D01*
X156208320Y-98215727D01*
X156365363Y-98450759D01*
X156565241Y-98650637D01*
X156800273Y-98807680D01*
X157061426Y-98915853D01*
X157338665Y-98971000D01*
X157621335Y-98971000D01*
X157898574Y-98915853D01*
X158159727Y-98807680D01*
X158394759Y-98650637D01*
X158594637Y-98450759D01*
X158751680Y-98215727D01*
X158859853Y-97954574D01*
X158915000Y-97677335D01*
X158915000Y-97394665D01*
X158859853Y-97117426D01*
X158751680Y-96856273D01*
X158594637Y-96621241D01*
X158394759Y-96421363D01*
X158159727Y-96264320D01*
X157898574Y-96156147D01*
X157774230Y-96131413D01*
X162620192Y-96131413D01*
X162715956Y-96395814D01*
X163005571Y-96536704D01*
X163317108Y-96618384D01*
X163638595Y-96637718D01*
X163957675Y-96593961D01*
X164262088Y-96488795D01*
X164436044Y-96395814D01*
X164531808Y-96131413D01*
X163576000Y-95175605D01*
X162620192Y-96131413D01*
X157774230Y-96131413D01*
X157621335Y-96101000D01*
X157338665Y-96101000D01*
X157061426Y-96156147D01*
X156800273Y-96264320D01*
X156565241Y-96421363D01*
X156365363Y-96621241D01*
X156208320Y-96856273D01*
X156100147Y-97117426D01*
X156045000Y-97394665D01*
X154067636Y-97394665D01*
X154090748Y-97390068D01*
X154146498Y-97384577D01*
X154200103Y-97368316D01*
X154255067Y-97357383D01*
X154306845Y-97335936D01*
X154360446Y-97319676D01*
X154409848Y-97293270D01*
X154461624Y-97271824D01*
X154508215Y-97240693D01*
X154557623Y-97214284D01*
X154600932Y-97178741D01*
X154647520Y-97147612D01*
X154687141Y-97107991D01*
X154730449Y-97072449D01*
X154765991Y-97029141D01*
X154805612Y-96989520D01*
X154836741Y-96942932D01*
X154872284Y-96899623D01*
X154898693Y-96850214D01*
X154929824Y-96803624D01*
X154951269Y-96751851D01*
X154977676Y-96702447D01*
X154993937Y-96648842D01*
X155015383Y-96597067D01*
X155026315Y-96542106D01*
X155042577Y-96488499D01*
X155048068Y-96432747D01*
X155059000Y-96377788D01*
X155059000Y-95058595D01*
X161934282Y-95058595D01*
X161978039Y-95377675D01*
X162083205Y-95682088D01*
X162176186Y-95856044D01*
X162440587Y-95951808D01*
X163396395Y-94996000D01*
X163755605Y-94996000D01*
X164711413Y-95951808D01*
X164975814Y-95856044D01*
X165116704Y-95566429D01*
X165198384Y-95254892D01*
X165217718Y-94933405D01*
X165173961Y-94614325D01*
X165068795Y-94309912D01*
X165028220Y-94234000D01*
X168277509Y-94234000D01*
X168283000Y-94289752D01*
X168283001Y-98750239D01*
X168277509Y-98806000D01*
X168299423Y-99028498D01*
X168364324Y-99242446D01*
X168385733Y-99282499D01*
X168469717Y-99439623D01*
X168611552Y-99612449D01*
X168654860Y-99647991D01*
X168830004Y-99823135D01*
X168865551Y-99866449D01*
X169038377Y-100008284D01*
X169235553Y-100113676D01*
X169449501Y-100178577D01*
X169616248Y-100195000D01*
X169616257Y-100195000D01*
X169671999Y-100200490D01*
X169727741Y-100195000D01*
X173288411Y-100195000D01*
X173358351Y-100241732D01*
X173601032Y-100342254D01*
X173858662Y-100393500D01*
X174121338Y-100393500D01*
X174378968Y-100342254D01*
X174621649Y-100241732D01*
X174840057Y-100095797D01*
X175025797Y-99910057D01*
X175171732Y-99691649D01*
X175272254Y-99448968D01*
X175323500Y-99191338D01*
X175323500Y-98928662D01*
X175272254Y-98671032D01*
X175171732Y-98428351D01*
X175025797Y-98209943D01*
X174840057Y-98024203D01*
X174621649Y-97878268D01*
X174378968Y-97777746D01*
X174121338Y-97726500D01*
X173858662Y-97726500D01*
X173601032Y-97777746D01*
X173358351Y-97878268D01*
X173288411Y-97925000D01*
X172946854Y-97925000D01*
X172993797Y-97878057D01*
X173139732Y-97659649D01*
X173240254Y-97416968D01*
X173291500Y-97159338D01*
X173291500Y-96896662D01*
X173240254Y-96639032D01*
X173139732Y-96396351D01*
X173069072Y-96290600D01*
X173167018Y-96320312D01*
X173291500Y-96332572D01*
X173704250Y-96329500D01*
X173863000Y-96170750D01*
X173863000Y-95123000D01*
X174117000Y-95123000D01*
X174117000Y-96170750D01*
X174275750Y-96329500D01*
X174688500Y-96332572D01*
X174812982Y-96320312D01*
X174932680Y-96284002D01*
X175042994Y-96225037D01*
X175139685Y-96145685D01*
X175219037Y-96048994D01*
X175278002Y-95938680D01*
X175314312Y-95818982D01*
X175326572Y-95694500D01*
X175323500Y-95281750D01*
X175164750Y-95123000D01*
X174117000Y-95123000D01*
X173863000Y-95123000D01*
X172815250Y-95123000D01*
X172656500Y-95281750D01*
X172653428Y-95694500D01*
X172665688Y-95818982D01*
X172695400Y-95916928D01*
X172589649Y-95846268D01*
X172346968Y-95745746D01*
X172089338Y-95694500D01*
X171826662Y-95694500D01*
X171569032Y-95745746D01*
X171326351Y-95846268D01*
X171107943Y-95992203D01*
X170922203Y-96177943D01*
X170776268Y-96396351D01*
X170675746Y-96639032D01*
X170624500Y-96896662D01*
X170624500Y-97159338D01*
X170675746Y-97416968D01*
X170776268Y-97659649D01*
X170922203Y-97878057D01*
X170969146Y-97925000D01*
X170553000Y-97925000D01*
X170553000Y-94704131D01*
X170959631Y-94297500D01*
X172653428Y-94297500D01*
X172656500Y-94710250D01*
X172815250Y-94869000D01*
X173863000Y-94869000D01*
X173863000Y-93821250D01*
X174117000Y-93821250D01*
X174117000Y-94869000D01*
X175164750Y-94869000D01*
X175323500Y-94710250D01*
X175326572Y-94297500D01*
X175314312Y-94173018D01*
X175278002Y-94053320D01*
X175219037Y-93943006D01*
X175139685Y-93846315D01*
X175042994Y-93766963D01*
X174932680Y-93707998D01*
X174812982Y-93671688D01*
X174688500Y-93659428D01*
X174275750Y-93662500D01*
X174117000Y-93821250D01*
X173863000Y-93821250D01*
X173704250Y-93662500D01*
X173291500Y-93659428D01*
X173167018Y-93671688D01*
X173047320Y-93707998D01*
X172937006Y-93766963D01*
X172840315Y-93846315D01*
X172760963Y-93943006D01*
X172701998Y-94053320D01*
X172665688Y-94173018D01*
X172653428Y-94297500D01*
X170959631Y-94297500D01*
X173991146Y-91265987D01*
X174034449Y-91230449D01*
X174070998Y-91185915D01*
X174176284Y-91057623D01*
X174281676Y-90860447D01*
X174333000Y-90691256D01*
X174333000Y-90819335D01*
X174388147Y-91096574D01*
X174496320Y-91357727D01*
X174653363Y-91592759D01*
X174853241Y-91792637D01*
X175088273Y-91949680D01*
X175349426Y-92057853D01*
X175626665Y-92113000D01*
X175909335Y-92113000D01*
X176186574Y-92057853D01*
X176447727Y-91949680D01*
X176682759Y-91792637D01*
X176882637Y-91592759D01*
X177039680Y-91357727D01*
X177147853Y-91096574D01*
X177203000Y-90819335D01*
X177203000Y-90536665D01*
X181953000Y-90536665D01*
X181953000Y-90819335D01*
X182008147Y-91096574D01*
X182116320Y-91357727D01*
X182273363Y-91592759D01*
X182473241Y-91792637D01*
X182708273Y-91949680D01*
X182969426Y-92057853D01*
X183246665Y-92113000D01*
X183529335Y-92113000D01*
X183806574Y-92057853D01*
X184067727Y-91949680D01*
X184302759Y-91792637D01*
X184502637Y-91592759D01*
X184659680Y-91357727D01*
X184767853Y-91096574D01*
X184823000Y-90819335D01*
X184823000Y-90536665D01*
X184767853Y-90259426D01*
X184659680Y-89998273D01*
X184502637Y-89763241D01*
X184302759Y-89563363D01*
X184067727Y-89406320D01*
X183806574Y-89298147D01*
X183529335Y-89243000D01*
X183246665Y-89243000D01*
X182969426Y-89298147D01*
X182708273Y-89406320D01*
X182473241Y-89563363D01*
X182273363Y-89763241D01*
X182116320Y-89998273D01*
X182008147Y-90259426D01*
X181953000Y-90536665D01*
X177203000Y-90536665D01*
X177147853Y-90259426D01*
X177039680Y-89998273D01*
X176882637Y-89763241D01*
X176682759Y-89563363D01*
X176447727Y-89406320D01*
X176186574Y-89298147D01*
X175909335Y-89243000D01*
X175626665Y-89243000D01*
X175349426Y-89298147D01*
X175088273Y-89406320D01*
X174853241Y-89563363D01*
X174653363Y-89763241D01*
X174496320Y-89998273D01*
X174388147Y-90259426D01*
X174364159Y-90380019D01*
X174363000Y-90368248D01*
X174363000Y-87090287D01*
X174372180Y-87087502D01*
X174482494Y-87028537D01*
X174579185Y-86949185D01*
X174658537Y-86852494D01*
X174717502Y-86742180D01*
X174723056Y-86723873D01*
X174789495Y-86790312D01*
X175040905Y-86958299D01*
X175320257Y-87074011D01*
X175616816Y-87133000D01*
X175919184Y-87133000D01*
X176215743Y-87074011D01*
X176495095Y-86958299D01*
X176746505Y-86790312D01*
X176960312Y-86576505D01*
X177128299Y-86325095D01*
X177244011Y-86045743D01*
X177258149Y-85974662D01*
X182054500Y-85974662D01*
X182054500Y-86237338D01*
X182105746Y-86494968D01*
X182206268Y-86737649D01*
X182352203Y-86956057D01*
X182537943Y-87141797D01*
X182756351Y-87287732D01*
X182999032Y-87388254D01*
X183256662Y-87439500D01*
X183519338Y-87439500D01*
X183776968Y-87388254D01*
X184019649Y-87287732D01*
X184238057Y-87141797D01*
X184423797Y-86956057D01*
X184569732Y-86737649D01*
X184670254Y-86494968D01*
X184721500Y-86237338D01*
X184721500Y-85974662D01*
X184670254Y-85717032D01*
X184569732Y-85474351D01*
X184423797Y-85255943D01*
X184238057Y-85070203D01*
X184019649Y-84924268D01*
X183776968Y-84823746D01*
X183519338Y-84772500D01*
X183256662Y-84772500D01*
X182999032Y-84823746D01*
X182756351Y-84924268D01*
X182537943Y-85070203D01*
X182352203Y-85255943D01*
X182206268Y-85474351D01*
X182105746Y-85717032D01*
X182054500Y-85974662D01*
X177258149Y-85974662D01*
X177303000Y-85749184D01*
X177303000Y-85446816D01*
X177244011Y-85150257D01*
X177128299Y-84870905D01*
X176960312Y-84619495D01*
X176746505Y-84405688D01*
X176495095Y-84237701D01*
X176215743Y-84121989D01*
X175919184Y-84063000D01*
X175616816Y-84063000D01*
X175320257Y-84121989D01*
X175040905Y-84237701D01*
X174789495Y-84405688D01*
X174723056Y-84472127D01*
X174717502Y-84453820D01*
X174658537Y-84343506D01*
X174579185Y-84246815D01*
X174482494Y-84167463D01*
X174372180Y-84108498D01*
X174252482Y-84072188D01*
X174128000Y-84059928D01*
X172328000Y-84059928D01*
X172203518Y-84072188D01*
X172083820Y-84108498D01*
X171973506Y-84167463D01*
X171876815Y-84246815D01*
X171797463Y-84343506D01*
X171738498Y-84453820D01*
X171702188Y-84573518D01*
X171689928Y-84698000D01*
X171689928Y-86498000D01*
X171702188Y-86622482D01*
X171738498Y-86742180D01*
X171797463Y-86852494D01*
X171876815Y-86949185D01*
X171973506Y-87028537D01*
X172083820Y-87087502D01*
X172093000Y-87090287D01*
X172093001Y-89953866D01*
X168654865Y-93392004D01*
X168611551Y-93427551D01*
X168469716Y-93600377D01*
X168380675Y-93766963D01*
X168364324Y-93797554D01*
X168299423Y-94011502D01*
X168277509Y-94234000D01*
X165028220Y-94234000D01*
X164975814Y-94135956D01*
X164711413Y-94040192D01*
X163755605Y-94996000D01*
X163396395Y-94996000D01*
X162440587Y-94040192D01*
X162176186Y-94135956D01*
X162035296Y-94425571D01*
X161953616Y-94737108D01*
X161934282Y-95058595D01*
X155059000Y-95058595D01*
X155059000Y-93860587D01*
X162620192Y-93860587D01*
X163576000Y-94816395D01*
X164531808Y-93860587D01*
X164436044Y-93596186D01*
X164146429Y-93455296D01*
X163834892Y-93373616D01*
X163513405Y-93354282D01*
X163194325Y-93398039D01*
X162889912Y-93503205D01*
X162715956Y-93596186D01*
X162620192Y-93860587D01*
X155059000Y-93860587D01*
X155059000Y-90265040D01*
X156088091Y-90265040D01*
X156182930Y-90529881D01*
X156327615Y-90771131D01*
X156516586Y-90979519D01*
X156742580Y-91147037D01*
X156996913Y-91267246D01*
X157130961Y-91307904D01*
X157353000Y-91185915D01*
X157353000Y-90043000D01*
X157607000Y-90043000D01*
X157607000Y-91185915D01*
X157829039Y-91307904D01*
X157963087Y-91267246D01*
X158217420Y-91147037D01*
X158443414Y-90979519D01*
X158632385Y-90771131D01*
X158777070Y-90529881D01*
X158871909Y-90265040D01*
X158750624Y-90043000D01*
X157607000Y-90043000D01*
X157353000Y-90043000D01*
X156209376Y-90043000D01*
X156088091Y-90265040D01*
X155059000Y-90265040D01*
X155059000Y-89566960D01*
X156088091Y-89566960D01*
X156209376Y-89789000D01*
X157353000Y-89789000D01*
X157353000Y-88646085D01*
X157607000Y-88646085D01*
X157607000Y-89789000D01*
X158750624Y-89789000D01*
X158871909Y-89566960D01*
X158777070Y-89302119D01*
X158632385Y-89060869D01*
X158443414Y-88852481D01*
X158217420Y-88684963D01*
X157963087Y-88564754D01*
X157829039Y-88524096D01*
X157607000Y-88646085D01*
X157353000Y-88646085D01*
X157130961Y-88524096D01*
X156996913Y-88564754D01*
X156742580Y-88684963D01*
X156516586Y-88852481D01*
X156327615Y-89060869D01*
X156182930Y-89302119D01*
X156088091Y-89566960D01*
X155059000Y-89566960D01*
X155059000Y-88534212D01*
X155048068Y-88479253D01*
X155042577Y-88423501D01*
X155026315Y-88369894D01*
X155015383Y-88314933D01*
X154993937Y-88263158D01*
X154977676Y-88209553D01*
X154951269Y-88160149D01*
X154929824Y-88108376D01*
X154898693Y-88061786D01*
X154872284Y-88012377D01*
X154836741Y-87969068D01*
X154805612Y-87922480D01*
X154765991Y-87882859D01*
X154730449Y-87839551D01*
X154687141Y-87804009D01*
X154647520Y-87764388D01*
X154600932Y-87733259D01*
X154557623Y-87697716D01*
X154508214Y-87671307D01*
X154461624Y-87640176D01*
X154409851Y-87618731D01*
X154360447Y-87592324D01*
X154306842Y-87576063D01*
X154255067Y-87554617D01*
X154200106Y-87543685D01*
X154146499Y-87527423D01*
X154090747Y-87521932D01*
X154035788Y-87511000D01*
X153979752Y-87511000D01*
X153924000Y-87505509D01*
X153868249Y-87511000D01*
X153812212Y-87511000D01*
X153757252Y-87521932D01*
X153701502Y-87527423D01*
X153647897Y-87543684D01*
X153592933Y-87554617D01*
X153541155Y-87576064D01*
X153487554Y-87592324D01*
X153438153Y-87618729D01*
X153386376Y-87640176D01*
X153339782Y-87671309D01*
X153290378Y-87697716D01*
X153247074Y-87733255D01*
X153200480Y-87764388D01*
X153160855Y-87804013D01*
X153117552Y-87839551D01*
X153082014Y-87882854D01*
X153042388Y-87922480D01*
X153011254Y-87969075D01*
X152975717Y-88012377D01*
X152949312Y-88061778D01*
X152918176Y-88108376D01*
X152896728Y-88160157D01*
X152870325Y-88209553D01*
X152854067Y-88263149D01*
X152832617Y-88314933D01*
X152821683Y-88369904D01*
X152805424Y-88423501D01*
X152804573Y-88432138D01*
X152763853Y-88227426D01*
X152655680Y-87966273D01*
X152498637Y-87731241D01*
X152298759Y-87531363D01*
X152066241Y-87376000D01*
X152298759Y-87220637D01*
X152498637Y-87020759D01*
X152655680Y-86785727D01*
X152763853Y-86524574D01*
X152819000Y-86247335D01*
X152819000Y-85964665D01*
X152763853Y-85687426D01*
X152655680Y-85426273D01*
X152498637Y-85191241D01*
X152298759Y-84991363D01*
X152066241Y-84836000D01*
X152298759Y-84680637D01*
X152498637Y-84480759D01*
X152655680Y-84245727D01*
X152763853Y-83984574D01*
X152819000Y-83707335D01*
X152819000Y-83424665D01*
X152763853Y-83147426D01*
X152655680Y-82886273D01*
X152498637Y-82651241D01*
X152298759Y-82451363D01*
X152066241Y-82296000D01*
X152298759Y-82140637D01*
X152498637Y-81940759D01*
X152655680Y-81705727D01*
X152763853Y-81444574D01*
X152819000Y-81167335D01*
X152819000Y-80884665D01*
X152763853Y-80607426D01*
X152655680Y-80346273D01*
X152498637Y-80111241D01*
X152298759Y-79911363D01*
X152063727Y-79754320D01*
X151802574Y-79646147D01*
X151525335Y-79591000D01*
X151242665Y-79591000D01*
X150965426Y-79646147D01*
X150704273Y-79754320D01*
X150499716Y-79891000D01*
X149661743Y-79891000D01*
X149605999Y-79885510D01*
X149550255Y-79891000D01*
X149550248Y-79891000D01*
X149404493Y-79905356D01*
X149383500Y-79907423D01*
X149333705Y-79922529D01*
X149169553Y-79972324D01*
X148972377Y-80077716D01*
X148799551Y-80219551D01*
X148764008Y-80262860D01*
X147572860Y-81454009D01*
X147529552Y-81489551D01*
X147387717Y-81662377D01*
X147340709Y-81750324D01*
X147282324Y-81859554D01*
X147217423Y-82073502D01*
X147195509Y-82296000D01*
X147201001Y-82351761D01*
X147201000Y-96557867D01*
X146087869Y-97671000D01*
X143891002Y-97671000D01*
X143891002Y-97536625D01*
X144113040Y-97657909D01*
X144377881Y-97563070D01*
X144619131Y-97418385D01*
X144827519Y-97229414D01*
X144995037Y-97003420D01*
X145115246Y-96749087D01*
X145155904Y-96615039D01*
X145033915Y-96393000D01*
X143891000Y-96393000D01*
X143891000Y-96413000D01*
X143637000Y-96413000D01*
X143637000Y-96393000D01*
X142494085Y-96393000D01*
X142372096Y-96615039D01*
X142412754Y-96749087D01*
X142532963Y-97003420D01*
X142700481Y-97229414D01*
X142908869Y-97418385D01*
X143150119Y-97563070D01*
X143414960Y-97657909D01*
X143636998Y-97536625D01*
X143636998Y-97671000D01*
X141440132Y-97671000D01*
X139349850Y-95580718D01*
X139301853Y-95339426D01*
X139193680Y-95078273D01*
X139036637Y-94843241D01*
X138836759Y-94643363D01*
X138601727Y-94486320D01*
X138340574Y-94378147D01*
X138099284Y-94330151D01*
X132491850Y-88722719D01*
X132475131Y-88638665D01*
X133693000Y-88638665D01*
X133693000Y-88921335D01*
X133748147Y-89198574D01*
X133856320Y-89459727D01*
X134013363Y-89694759D01*
X134213241Y-89894637D01*
X134448273Y-90051680D01*
X134709426Y-90159853D01*
X134986665Y-90215000D01*
X135269335Y-90215000D01*
X135546574Y-90159853D01*
X135807727Y-90051680D01*
X136042759Y-89894637D01*
X136242637Y-89694759D01*
X136399680Y-89459727D01*
X136507853Y-89198574D01*
X136555850Y-88957282D01*
X136754467Y-88758665D01*
X137757000Y-88758665D01*
X137757000Y-89041335D01*
X137812147Y-89318574D01*
X137920320Y-89579727D01*
X138077363Y-89814759D01*
X138277241Y-90014637D01*
X138512273Y-90171680D01*
X138773426Y-90279853D01*
X139050665Y-90335000D01*
X139333335Y-90335000D01*
X139610574Y-90279853D01*
X139871727Y-90171680D01*
X140106759Y-90014637D01*
X140306637Y-89814759D01*
X140463680Y-89579727D01*
X140571853Y-89318574D01*
X140627000Y-89041335D01*
X140627000Y-88758665D01*
X140571853Y-88481426D01*
X140463680Y-88220273D01*
X140306637Y-87985241D01*
X140106759Y-87785363D01*
X139871727Y-87628320D01*
X139610574Y-87520147D01*
X139333335Y-87465000D01*
X139050665Y-87465000D01*
X138773426Y-87520147D01*
X138512273Y-87628320D01*
X138277241Y-87785363D01*
X138077363Y-87985241D01*
X137920320Y-88220273D01*
X137812147Y-88481426D01*
X137757000Y-88758665D01*
X136754467Y-88758665D01*
X138780133Y-86733000D01*
X142470480Y-86733000D01*
X142492320Y-86785727D01*
X142649363Y-87020759D01*
X142849241Y-87220637D01*
X143081759Y-87376000D01*
X142849241Y-87531363D01*
X142649363Y-87731241D01*
X142492320Y-87966273D01*
X142384147Y-88227426D01*
X142329000Y-88504665D01*
X142329000Y-88787335D01*
X142384147Y-89064574D01*
X142492320Y-89325727D01*
X142649363Y-89560759D01*
X142849241Y-89760637D01*
X143081759Y-89916000D01*
X142849241Y-90071363D01*
X142649363Y-90271241D01*
X142492320Y-90506273D01*
X142384147Y-90767426D01*
X142329000Y-91044665D01*
X142329000Y-91327335D01*
X142384147Y-91604574D01*
X142492320Y-91865727D01*
X142649363Y-92100759D01*
X142849241Y-92300637D01*
X143081759Y-92456000D01*
X142849241Y-92611363D01*
X142649363Y-92811241D01*
X142492320Y-93046273D01*
X142384147Y-93307426D01*
X142329000Y-93584665D01*
X142329000Y-93867335D01*
X142384147Y-94144574D01*
X142492320Y-94405727D01*
X142649363Y-94640759D01*
X142849241Y-94840637D01*
X143084273Y-94997680D01*
X143094865Y-95002067D01*
X142908869Y-95113615D01*
X142700481Y-95302586D01*
X142532963Y-95528580D01*
X142412754Y-95782913D01*
X142372096Y-95916961D01*
X142494085Y-96139000D01*
X143637000Y-96139000D01*
X143637000Y-96119000D01*
X143891000Y-96119000D01*
X143891000Y-96139000D01*
X145033915Y-96139000D01*
X145155904Y-95916961D01*
X145115246Y-95782913D01*
X144995037Y-95528580D01*
X144827519Y-95302586D01*
X144619131Y-95113615D01*
X144433135Y-95002067D01*
X144443727Y-94997680D01*
X144678759Y-94840637D01*
X144878637Y-94640759D01*
X145035680Y-94405727D01*
X145143853Y-94144574D01*
X145199000Y-93867335D01*
X145199000Y-93584665D01*
X145143853Y-93307426D01*
X145035680Y-93046273D01*
X144878637Y-92811241D01*
X144678759Y-92611363D01*
X144446241Y-92456000D01*
X144678759Y-92300637D01*
X144878637Y-92100759D01*
X145035680Y-91865727D01*
X145143853Y-91604574D01*
X145199000Y-91327335D01*
X145199000Y-91044665D01*
X145143853Y-90767426D01*
X145035680Y-90506273D01*
X144878637Y-90271241D01*
X144678759Y-90071363D01*
X144446241Y-89916000D01*
X144678759Y-89760637D01*
X144878637Y-89560759D01*
X145035680Y-89325727D01*
X145143853Y-89064574D01*
X145199000Y-88787335D01*
X145199000Y-88504665D01*
X145143853Y-88227426D01*
X145035680Y-87966273D01*
X144878637Y-87731241D01*
X144678759Y-87531363D01*
X144446241Y-87376000D01*
X144678759Y-87220637D01*
X144878637Y-87020759D01*
X145035680Y-86785727D01*
X145143853Y-86524574D01*
X145199000Y-86247335D01*
X145199000Y-85964665D01*
X145143853Y-85687426D01*
X145035680Y-85426273D01*
X144878637Y-85191241D01*
X144678759Y-84991363D01*
X144446241Y-84836000D01*
X144678759Y-84680637D01*
X144878637Y-84480759D01*
X145035680Y-84245727D01*
X145143853Y-83984574D01*
X145199000Y-83707335D01*
X145199000Y-83424665D01*
X145143853Y-83147426D01*
X145035680Y-82886273D01*
X144878637Y-82651241D01*
X144680039Y-82452643D01*
X144688482Y-82451812D01*
X144808180Y-82415502D01*
X144918494Y-82356537D01*
X145015185Y-82277185D01*
X145094537Y-82180494D01*
X145153502Y-82070180D01*
X145189812Y-81950482D01*
X145202072Y-81826000D01*
X145202072Y-80226000D01*
X145189812Y-80101518D01*
X145153502Y-79981820D01*
X145094537Y-79871506D01*
X145015185Y-79774815D01*
X144918494Y-79695463D01*
X144808180Y-79636498D01*
X144688482Y-79600188D01*
X144564000Y-79587928D01*
X142964000Y-79587928D01*
X142839518Y-79600188D01*
X142719820Y-79636498D01*
X142609506Y-79695463D01*
X142512815Y-79774815D01*
X142433463Y-79871506D01*
X142374498Y-79981820D01*
X142338188Y-80101518D01*
X142325928Y-80226000D01*
X142325928Y-81826000D01*
X142338188Y-81950482D01*
X142374498Y-82070180D01*
X142433463Y-82180494D01*
X142512815Y-82277185D01*
X142609506Y-82356537D01*
X142719820Y-82415502D01*
X142839518Y-82451812D01*
X142847961Y-82452643D01*
X142649363Y-82651241D01*
X142492320Y-82886273D01*
X142384147Y-83147426D01*
X142329000Y-83424665D01*
X142329000Y-83707335D01*
X142384147Y-83984574D01*
X142492320Y-84245727D01*
X142637497Y-84463000D01*
X138365752Y-84463000D01*
X138310000Y-84457509D01*
X138087501Y-84479423D01*
X137873553Y-84544324D01*
X137676377Y-84649716D01*
X137546856Y-84756011D01*
X137546855Y-84756012D01*
X137503551Y-84791551D01*
X137468013Y-84834854D01*
X134950718Y-87352150D01*
X134709426Y-87400147D01*
X134448273Y-87508320D01*
X134213241Y-87665363D01*
X134013363Y-87865241D01*
X133856320Y-88100273D01*
X133748147Y-88361426D01*
X133693000Y-88638665D01*
X132475131Y-88638665D01*
X132443853Y-88481426D01*
X132335680Y-88220273D01*
X132178637Y-87985241D01*
X131978759Y-87785363D01*
X131743727Y-87628320D01*
X131482574Y-87520147D01*
X131205335Y-87465000D01*
X130922665Y-87465000D01*
X130645426Y-87520147D01*
X130384273Y-87628320D01*
X130149241Y-87785363D01*
X129949363Y-87985241D01*
X129792320Y-88220273D01*
X129684147Y-88481426D01*
X129629000Y-88758665D01*
X128129123Y-88758665D01*
X128124068Y-88733253D01*
X128118577Y-88677501D01*
X128102315Y-88623894D01*
X128091383Y-88568933D01*
X128069937Y-88517158D01*
X128053676Y-88463553D01*
X128027269Y-88414149D01*
X128005824Y-88362376D01*
X127974693Y-88315786D01*
X127948284Y-88266377D01*
X127912741Y-88223068D01*
X127881612Y-88176480D01*
X127841991Y-88136859D01*
X127806449Y-88093551D01*
X127763141Y-88058009D01*
X127723520Y-88018388D01*
X127676932Y-87987259D01*
X127633623Y-87951716D01*
X127584215Y-87925307D01*
X127537624Y-87894176D01*
X127485848Y-87872730D01*
X127436446Y-87846324D01*
X127382845Y-87830064D01*
X127331067Y-87808617D01*
X127276103Y-87797684D01*
X127222498Y-87781423D01*
X127166748Y-87775932D01*
X127111788Y-87765000D01*
X127055751Y-87765000D01*
X127000000Y-87759509D01*
X126944248Y-87765000D01*
X126888212Y-87765000D01*
X126833253Y-87775932D01*
X126777501Y-87781423D01*
X126723894Y-87797685D01*
X126668933Y-87808617D01*
X126617158Y-87830063D01*
X126563553Y-87846324D01*
X126514149Y-87872731D01*
X126462376Y-87894176D01*
X126415786Y-87925307D01*
X126366377Y-87951716D01*
X126323068Y-87987259D01*
X126276480Y-88018388D01*
X126236859Y-88058009D01*
X126193551Y-88093551D01*
X126158009Y-88136859D01*
X126118388Y-88176480D01*
X126087259Y-88223068D01*
X126051716Y-88266377D01*
X126025307Y-88315785D01*
X125994176Y-88362376D01*
X125972730Y-88414152D01*
X125946324Y-88463554D01*
X125930064Y-88517155D01*
X125908617Y-88568933D01*
X125897684Y-88623897D01*
X125881423Y-88677502D01*
X125875932Y-88733252D01*
X125865000Y-88788212D01*
X125865000Y-88844249D01*
X125865001Y-100980207D01*
X125865000Y-100980212D01*
X125865000Y-101203788D01*
X125875934Y-101258757D01*
X125881424Y-101314499D01*
X125897683Y-101368096D01*
X125908617Y-101423067D01*
X125930067Y-101474851D01*
X125946325Y-101528447D01*
X125972728Y-101577843D01*
X125994176Y-101629624D01*
X126025312Y-101676222D01*
X126051717Y-101725623D01*
X126087254Y-101768925D01*
X126118388Y-101815520D01*
X126158014Y-101855146D01*
X126193552Y-101898449D01*
X126236855Y-101933987D01*
X126276480Y-101973612D01*
X126287537Y-101981000D01*
X96164000Y-101981000D01*
X96164000Y-97377040D01*
X101732091Y-97377040D01*
X101826930Y-97641881D01*
X101971615Y-97883131D01*
X102160586Y-98091519D01*
X102386580Y-98259037D01*
X102640913Y-98379246D01*
X102774961Y-98419904D01*
X102997000Y-98297915D01*
X102997000Y-97155000D01*
X103251000Y-97155000D01*
X103251000Y-98297915D01*
X103473039Y-98419904D01*
X103607087Y-98379246D01*
X103861420Y-98259037D01*
X104087414Y-98091519D01*
X104276385Y-97883131D01*
X104421070Y-97641881D01*
X104515909Y-97377040D01*
X104394624Y-97155000D01*
X103251000Y-97155000D01*
X102997000Y-97155000D01*
X101853376Y-97155000D01*
X101732091Y-97377040D01*
X96164000Y-97377040D01*
X96164000Y-96678960D01*
X101732091Y-96678960D01*
X101853376Y-96901000D01*
X102997000Y-96901000D01*
X102997000Y-95758085D01*
X103251000Y-95758085D01*
X103251000Y-96901000D01*
X104394624Y-96901000D01*
X104418946Y-96856472D01*
X110421441Y-96856472D01*
X110433542Y-96921203D01*
X110536801Y-97167201D01*
X110686067Y-97388327D01*
X110875605Y-97576084D01*
X111098131Y-97723256D01*
X111345093Y-97824188D01*
X111607000Y-97875000D01*
X111887000Y-97875000D01*
X111887000Y-96647000D01*
X112141000Y-96647000D01*
X112141000Y-97875000D01*
X112421000Y-97875000D01*
X112682907Y-97824188D01*
X112929869Y-97723256D01*
X113152395Y-97576084D01*
X113341933Y-97388327D01*
X113491199Y-97167201D01*
X113594458Y-96921203D01*
X113606559Y-96856472D01*
X118041441Y-96856472D01*
X118053542Y-96921203D01*
X118156801Y-97167201D01*
X118306067Y-97388327D01*
X118495605Y-97576084D01*
X118718131Y-97723256D01*
X118965093Y-97824188D01*
X119227000Y-97875000D01*
X119507000Y-97875000D01*
X119507000Y-96647000D01*
X119761000Y-96647000D01*
X119761000Y-97875000D01*
X120041000Y-97875000D01*
X120302907Y-97824188D01*
X120549869Y-97723256D01*
X120772395Y-97576084D01*
X120961933Y-97388327D01*
X121111199Y-97167201D01*
X121214458Y-96921203D01*
X121226559Y-96856472D01*
X121103489Y-96647000D01*
X119761000Y-96647000D01*
X119507000Y-96647000D01*
X118164511Y-96647000D01*
X118041441Y-96856472D01*
X113606559Y-96856472D01*
X113483489Y-96647000D01*
X112141000Y-96647000D01*
X111887000Y-96647000D01*
X110544511Y-96647000D01*
X110421441Y-96856472D01*
X104418946Y-96856472D01*
X104515909Y-96678960D01*
X104421070Y-96414119D01*
X104276385Y-96172869D01*
X104087414Y-95964481D01*
X103861420Y-95796963D01*
X103607087Y-95676754D01*
X103473039Y-95636096D01*
X103251000Y-95758085D01*
X102997000Y-95758085D01*
X102774961Y-95636096D01*
X102640913Y-95676754D01*
X102386580Y-95796963D01*
X102160586Y-95964481D01*
X101971615Y-96172869D01*
X101826930Y-96414119D01*
X101732091Y-96678960D01*
X96164000Y-96678960D01*
X96164000Y-94316472D01*
X110421441Y-94316472D01*
X110433542Y-94381203D01*
X110536801Y-94627201D01*
X110686067Y-94848327D01*
X110875605Y-95036084D01*
X111098131Y-95183256D01*
X111261441Y-95250000D01*
X111098131Y-95316744D01*
X110875605Y-95463916D01*
X110686067Y-95651673D01*
X110536801Y-95872799D01*
X110433542Y-96118797D01*
X110421441Y-96183528D01*
X110544511Y-96393000D01*
X111887000Y-96393000D01*
X111887000Y-94107000D01*
X112141000Y-94107000D01*
X112141000Y-96393000D01*
X113483489Y-96393000D01*
X113606559Y-96183528D01*
X113594458Y-96118797D01*
X113491199Y-95872799D01*
X113341933Y-95651673D01*
X113152395Y-95463916D01*
X112929869Y-95316744D01*
X112766559Y-95250000D01*
X112929869Y-95183256D01*
X113152395Y-95036084D01*
X113341933Y-94848327D01*
X113491199Y-94627201D01*
X113594458Y-94381203D01*
X113606559Y-94316472D01*
X118041441Y-94316472D01*
X118053542Y-94381203D01*
X118156801Y-94627201D01*
X118306067Y-94848327D01*
X118495605Y-95036084D01*
X118718131Y-95183256D01*
X118881441Y-95250000D01*
X118718131Y-95316744D01*
X118495605Y-95463916D01*
X118306067Y-95651673D01*
X118156801Y-95872799D01*
X118053542Y-96118797D01*
X118041441Y-96183528D01*
X118164511Y-96393000D01*
X119507000Y-96393000D01*
X119507000Y-94107000D01*
X119761000Y-94107000D01*
X119761000Y-96393000D01*
X121103489Y-96393000D01*
X121226559Y-96183528D01*
X121214458Y-96118797D01*
X121111199Y-95872799D01*
X120961933Y-95651673D01*
X120772395Y-95463916D01*
X120549869Y-95316744D01*
X120386559Y-95250000D01*
X120549869Y-95183256D01*
X120772395Y-95036084D01*
X120961933Y-94848327D01*
X121111199Y-94627201D01*
X121214458Y-94381203D01*
X121226559Y-94316472D01*
X121103489Y-94107000D01*
X119761000Y-94107000D01*
X119507000Y-94107000D01*
X118164511Y-94107000D01*
X118041441Y-94316472D01*
X113606559Y-94316472D01*
X113483489Y-94107000D01*
X112141000Y-94107000D01*
X111887000Y-94107000D01*
X110544511Y-94107000D01*
X110421441Y-94316472D01*
X96164000Y-94316472D01*
X96164000Y-91776472D01*
X110421441Y-91776472D01*
X110433542Y-91841203D01*
X110536801Y-92087201D01*
X110686067Y-92308327D01*
X110875605Y-92496084D01*
X111098131Y-92643256D01*
X111261441Y-92710000D01*
X111098131Y-92776744D01*
X110875605Y-92923916D01*
X110686067Y-93111673D01*
X110536801Y-93332799D01*
X110433542Y-93578797D01*
X110421441Y-93643528D01*
X110544511Y-93853000D01*
X111887000Y-93853000D01*
X111887000Y-91567000D01*
X112141000Y-91567000D01*
X112141000Y-93853000D01*
X113483489Y-93853000D01*
X113606559Y-93643528D01*
X113594458Y-93578797D01*
X113491199Y-93332799D01*
X113341933Y-93111673D01*
X113152395Y-92923916D01*
X112929869Y-92776744D01*
X112766559Y-92710000D01*
X112929869Y-92643256D01*
X113152395Y-92496084D01*
X113341933Y-92308327D01*
X113491199Y-92087201D01*
X113594458Y-91841203D01*
X113606559Y-91776472D01*
X113483489Y-91567000D01*
X112141000Y-91567000D01*
X111887000Y-91567000D01*
X110544511Y-91567000D01*
X110421441Y-91776472D01*
X96164000Y-91776472D01*
X96164000Y-89614279D01*
X96217832Y-89884912D01*
X96341082Y-90182463D01*
X96520013Y-90450252D01*
X96747748Y-90677987D01*
X97015537Y-90856918D01*
X97313088Y-90980168D01*
X97628967Y-91043000D01*
X97951033Y-91043000D01*
X98266912Y-90980168D01*
X98564463Y-90856918D01*
X98832252Y-90677987D01*
X99059987Y-90450252D01*
X99238918Y-90182463D01*
X99362168Y-89884912D01*
X99425000Y-89569033D01*
X99425000Y-89246967D01*
X99362168Y-88931088D01*
X99238918Y-88633537D01*
X99221855Y-88608000D01*
X101685928Y-88608000D01*
X101685928Y-90208000D01*
X101698188Y-90332482D01*
X101734498Y-90452180D01*
X101793463Y-90562494D01*
X101872815Y-90659185D01*
X101969506Y-90738537D01*
X102079820Y-90797502D01*
X102199518Y-90833812D01*
X102324000Y-90846072D01*
X103924000Y-90846072D01*
X104048482Y-90833812D01*
X104168180Y-90797502D01*
X104278494Y-90738537D01*
X104375185Y-90659185D01*
X104454537Y-90562494D01*
X104513502Y-90452180D01*
X104549812Y-90332482D01*
X104562072Y-90208000D01*
X104562072Y-89236472D01*
X110421441Y-89236472D01*
X110433542Y-89301203D01*
X110536801Y-89547201D01*
X110686067Y-89768327D01*
X110875605Y-89956084D01*
X111098131Y-90103256D01*
X111261441Y-90170000D01*
X111098131Y-90236744D01*
X110875605Y-90383916D01*
X110686067Y-90571673D01*
X110536801Y-90792799D01*
X110433542Y-91038797D01*
X110421441Y-91103528D01*
X110544511Y-91313000D01*
X111887000Y-91313000D01*
X111887000Y-89027000D01*
X112141000Y-89027000D01*
X112141000Y-91313000D01*
X113483489Y-91313000D01*
X113606559Y-91103528D01*
X113594458Y-91038797D01*
X113491199Y-90792799D01*
X113341933Y-90571673D01*
X113152395Y-90383916D01*
X112929869Y-90236744D01*
X112766559Y-90170000D01*
X112929869Y-90103256D01*
X113152395Y-89956084D01*
X113341933Y-89768327D01*
X113491199Y-89547201D01*
X113594458Y-89301203D01*
X113606559Y-89236472D01*
X113483489Y-89027000D01*
X112141000Y-89027000D01*
X111887000Y-89027000D01*
X110544511Y-89027000D01*
X110421441Y-89236472D01*
X104562072Y-89236472D01*
X104562072Y-88608000D01*
X104549812Y-88483518D01*
X104513502Y-88363820D01*
X104454537Y-88253506D01*
X104375185Y-88156815D01*
X104278494Y-88077463D01*
X104168180Y-88018498D01*
X104048482Y-87982188D01*
X103924000Y-87969928D01*
X102324000Y-87969928D01*
X102199518Y-87982188D01*
X102079820Y-88018498D01*
X101969506Y-88077463D01*
X101872815Y-88156815D01*
X101793463Y-88253506D01*
X101734498Y-88363820D01*
X101698188Y-88483518D01*
X101685928Y-88608000D01*
X99221855Y-88608000D01*
X99059987Y-88365748D01*
X98832252Y-88138013D01*
X98564463Y-87959082D01*
X98266912Y-87835832D01*
X97951033Y-87773000D01*
X97628967Y-87773000D01*
X97313088Y-87835832D01*
X97015537Y-87959082D01*
X96747748Y-88138013D01*
X96520013Y-88365748D01*
X96341082Y-88633537D01*
X96217832Y-88931088D01*
X96164000Y-89201721D01*
X96164000Y-86696472D01*
X110421441Y-86696472D01*
X110433542Y-86761203D01*
X110536801Y-87007201D01*
X110686067Y-87228327D01*
X110875605Y-87416084D01*
X111098131Y-87563256D01*
X111261441Y-87630000D01*
X111098131Y-87696744D01*
X110875605Y-87843916D01*
X110686067Y-88031673D01*
X110536801Y-88252799D01*
X110433542Y-88498797D01*
X110421441Y-88563528D01*
X110544511Y-88773000D01*
X111887000Y-88773000D01*
X111887000Y-86487000D01*
X112141000Y-86487000D01*
X112141000Y-88773000D01*
X113483489Y-88773000D01*
X113606559Y-88563528D01*
X113594458Y-88498797D01*
X113491199Y-88252799D01*
X113341933Y-88031673D01*
X113152395Y-87843916D01*
X112929869Y-87696744D01*
X112766559Y-87630000D01*
X112929869Y-87563256D01*
X113152395Y-87416084D01*
X113341933Y-87228327D01*
X113491199Y-87007201D01*
X113594458Y-86761203D01*
X113606559Y-86696472D01*
X113483489Y-86487000D01*
X112141000Y-86487000D01*
X111887000Y-86487000D01*
X110544511Y-86487000D01*
X110421441Y-86696472D01*
X96164000Y-86696472D01*
X96164000Y-83287040D01*
X97160091Y-83287040D01*
X97254930Y-83551881D01*
X97399615Y-83793131D01*
X97588586Y-84001519D01*
X97814580Y-84169037D01*
X98068913Y-84289246D01*
X98202961Y-84329904D01*
X98425000Y-84207915D01*
X98425000Y-83065000D01*
X98679000Y-83065000D01*
X98679000Y-84207915D01*
X98901039Y-84329904D01*
X99035087Y-84289246D01*
X99289420Y-84169037D01*
X99515414Y-84001519D01*
X99704385Y-83793131D01*
X99849070Y-83551881D01*
X99943909Y-83287040D01*
X99822624Y-83065000D01*
X98679000Y-83065000D01*
X98425000Y-83065000D01*
X97281376Y-83065000D01*
X97160091Y-83287040D01*
X96164000Y-83287040D01*
X96164000Y-82916665D01*
X101943000Y-82916665D01*
X101943000Y-83199335D01*
X101998147Y-83476574D01*
X102106320Y-83737727D01*
X102263363Y-83972759D01*
X102463241Y-84172637D01*
X102698273Y-84329680D01*
X102959426Y-84437853D01*
X103236665Y-84493000D01*
X103519335Y-84493000D01*
X103796574Y-84437853D01*
X104057727Y-84329680D01*
X104292759Y-84172637D01*
X104492637Y-83972759D01*
X104594707Y-83820000D01*
X110372444Y-83820000D01*
X110398606Y-84085626D01*
X110476086Y-84341045D01*
X110601908Y-84576440D01*
X110771235Y-84782765D01*
X110977560Y-84952092D01*
X111212955Y-85077914D01*
X111257759Y-85091505D01*
X111098131Y-85156744D01*
X110875605Y-85303916D01*
X110686067Y-85491673D01*
X110536801Y-85712799D01*
X110433542Y-85958797D01*
X110421441Y-86023528D01*
X110544511Y-86233000D01*
X111887000Y-86233000D01*
X111887000Y-86213000D01*
X112141000Y-86213000D01*
X112141000Y-86233000D01*
X113483489Y-86233000D01*
X113606559Y-86023528D01*
X113594458Y-85958797D01*
X113491199Y-85712799D01*
X113341933Y-85491673D01*
X113152395Y-85303916D01*
X112929869Y-85156744D01*
X112770241Y-85091505D01*
X112815045Y-85077914D01*
X113050440Y-84952092D01*
X113256765Y-84782765D01*
X113426092Y-84576440D01*
X113551914Y-84341045D01*
X113629394Y-84085626D01*
X113655556Y-83820000D01*
X113629394Y-83554374D01*
X113551914Y-83298955D01*
X113426092Y-83063560D01*
X113256765Y-82857235D01*
X113050440Y-82687908D01*
X112815045Y-82562086D01*
X112770241Y-82548495D01*
X112929869Y-82483256D01*
X113152395Y-82336084D01*
X113341933Y-82148327D01*
X113491199Y-81927201D01*
X113594458Y-81681203D01*
X113606559Y-81616472D01*
X113483489Y-81407000D01*
X112141000Y-81407000D01*
X112141000Y-81427000D01*
X111887000Y-81427000D01*
X111887000Y-81407000D01*
X110544511Y-81407000D01*
X110421441Y-81616472D01*
X110433542Y-81681203D01*
X110536801Y-81927201D01*
X110686067Y-82148327D01*
X110875605Y-82336084D01*
X111098131Y-82483256D01*
X111257759Y-82548495D01*
X111212955Y-82562086D01*
X110977560Y-82687908D01*
X110771235Y-82857235D01*
X110601908Y-83063560D01*
X110476086Y-83298955D01*
X110398606Y-83554374D01*
X110372444Y-83820000D01*
X104594707Y-83820000D01*
X104649680Y-83737727D01*
X104757853Y-83476574D01*
X104813000Y-83199335D01*
X104813000Y-82916665D01*
X104757853Y-82639426D01*
X104649680Y-82378273D01*
X104492637Y-82143241D01*
X104292759Y-81943363D01*
X104057727Y-81786320D01*
X103796574Y-81678147D01*
X103519335Y-81623000D01*
X103236665Y-81623000D01*
X102959426Y-81678147D01*
X102698273Y-81786320D01*
X102463241Y-81943363D01*
X102263363Y-82143241D01*
X102106320Y-82378273D01*
X101998147Y-82639426D01*
X101943000Y-82916665D01*
X96164000Y-82916665D01*
X96164000Y-82588960D01*
X97160091Y-82588960D01*
X97281376Y-82811000D01*
X98425000Y-82811000D01*
X98425000Y-81668085D01*
X98679000Y-81668085D01*
X98679000Y-82811000D01*
X99822624Y-82811000D01*
X99943909Y-82588960D01*
X99849070Y-82324119D01*
X99704385Y-82082869D01*
X99515414Y-81874481D01*
X99289420Y-81706963D01*
X99035087Y-81586754D01*
X98901039Y-81546096D01*
X98679000Y-81668085D01*
X98425000Y-81668085D01*
X98202961Y-81546096D01*
X98068913Y-81586754D01*
X97814580Y-81706963D01*
X97588586Y-81874481D01*
X97399615Y-82082869D01*
X97254930Y-82324119D01*
X97160091Y-82588960D01*
X96164000Y-82588960D01*
X96164000Y-81280000D01*
X117992444Y-81280000D01*
X118018606Y-81545626D01*
X118096086Y-81801045D01*
X118221908Y-82036440D01*
X118391235Y-82242765D01*
X118597560Y-82412092D01*
X118832955Y-82537914D01*
X118872797Y-82550000D01*
X118832955Y-82562086D01*
X118597560Y-82687908D01*
X118391235Y-82857235D01*
X118221908Y-83063560D01*
X118096086Y-83298955D01*
X118018606Y-83554374D01*
X117992444Y-83820000D01*
X118018606Y-84085626D01*
X118096086Y-84341045D01*
X118221908Y-84576440D01*
X118391235Y-84782765D01*
X118597560Y-84952092D01*
X118832955Y-85077914D01*
X118872797Y-85090000D01*
X118832955Y-85102086D01*
X118597560Y-85227908D01*
X118391235Y-85397235D01*
X118221908Y-85603560D01*
X118096086Y-85838955D01*
X118018606Y-86094374D01*
X117992444Y-86360000D01*
X118018606Y-86625626D01*
X118096086Y-86881045D01*
X118221908Y-87116440D01*
X118391235Y-87322765D01*
X118597560Y-87492092D01*
X118832955Y-87617914D01*
X118872797Y-87630000D01*
X118832955Y-87642086D01*
X118597560Y-87767908D01*
X118391235Y-87937235D01*
X118221908Y-88143560D01*
X118096086Y-88378955D01*
X118018606Y-88634374D01*
X117992444Y-88900000D01*
X118018606Y-89165626D01*
X118096086Y-89421045D01*
X118221908Y-89656440D01*
X118391235Y-89862765D01*
X118597560Y-90032092D01*
X118832955Y-90157914D01*
X118872797Y-90170000D01*
X118832955Y-90182086D01*
X118597560Y-90307908D01*
X118391235Y-90477235D01*
X118221908Y-90683560D01*
X118096086Y-90918955D01*
X118018606Y-91174374D01*
X117992444Y-91440000D01*
X118018606Y-91705626D01*
X118096086Y-91961045D01*
X118221908Y-92196440D01*
X118391235Y-92402765D01*
X118597560Y-92572092D01*
X118832955Y-92697914D01*
X118877759Y-92711505D01*
X118718131Y-92776744D01*
X118495605Y-92923916D01*
X118306067Y-93111673D01*
X118156801Y-93332799D01*
X118053542Y-93578797D01*
X118041441Y-93643528D01*
X118164511Y-93853000D01*
X119507000Y-93853000D01*
X119507000Y-93833000D01*
X119761000Y-93833000D01*
X119761000Y-93853000D01*
X121103489Y-93853000D01*
X121226559Y-93643528D01*
X121214458Y-93578797D01*
X121111199Y-93332799D01*
X120961933Y-93111673D01*
X120772395Y-92923916D01*
X120549869Y-92776744D01*
X120390241Y-92711505D01*
X120435045Y-92697914D01*
X120670440Y-92572092D01*
X120876765Y-92402765D01*
X121046092Y-92196440D01*
X121171914Y-91961045D01*
X121249394Y-91705626D01*
X121275556Y-91440000D01*
X121249394Y-91174374D01*
X121171914Y-90918955D01*
X121046092Y-90683560D01*
X120876765Y-90477235D01*
X120670440Y-90307908D01*
X120435045Y-90182086D01*
X120395203Y-90170000D01*
X120435045Y-90157914D01*
X120670440Y-90032092D01*
X120876765Y-89862765D01*
X121046092Y-89656440D01*
X121171914Y-89421045D01*
X121249394Y-89165626D01*
X121275556Y-88900000D01*
X121249394Y-88634374D01*
X121171914Y-88378955D01*
X121046092Y-88143560D01*
X120876765Y-87937235D01*
X120670440Y-87767908D01*
X120435045Y-87642086D01*
X120395203Y-87630000D01*
X120435045Y-87617914D01*
X120670440Y-87492092D01*
X120876765Y-87322765D01*
X121046092Y-87116440D01*
X121171914Y-86881045D01*
X121249394Y-86625626D01*
X121275556Y-86360000D01*
X121249394Y-86094374D01*
X121171914Y-85838955D01*
X121046092Y-85603560D01*
X120876765Y-85397235D01*
X120670440Y-85227908D01*
X120435045Y-85102086D01*
X120395203Y-85090000D01*
X120435045Y-85077914D01*
X120670440Y-84952092D01*
X120876765Y-84782765D01*
X121046092Y-84576440D01*
X121171914Y-84341045D01*
X121249394Y-84085626D01*
X121275556Y-83820000D01*
X121249394Y-83554374D01*
X121171914Y-83298955D01*
X121046092Y-83063560D01*
X120876765Y-82857235D01*
X120670440Y-82687908D01*
X120435045Y-82562086D01*
X120395203Y-82550000D01*
X120435045Y-82537914D01*
X120670440Y-82412092D01*
X120876765Y-82242765D01*
X121046092Y-82036440D01*
X121171914Y-81801045D01*
X121249394Y-81545626D01*
X121275556Y-81280000D01*
X121249394Y-81014374D01*
X121171914Y-80758955D01*
X121046092Y-80523560D01*
X121010344Y-80480000D01*
X129625928Y-80480000D01*
X129625928Y-82080000D01*
X129638188Y-82204482D01*
X129674498Y-82324180D01*
X129733463Y-82434494D01*
X129812815Y-82531185D01*
X129909506Y-82610537D01*
X130019820Y-82669502D01*
X130139518Y-82705812D01*
X130264000Y-82718072D01*
X131864000Y-82718072D01*
X131988482Y-82705812D01*
X132108180Y-82669502D01*
X132218494Y-82610537D01*
X132315185Y-82531185D01*
X132394537Y-82434494D01*
X132453502Y-82324180D01*
X132489812Y-82204482D01*
X132502072Y-82080000D01*
X132502072Y-81138665D01*
X133693000Y-81138665D01*
X133693000Y-81421335D01*
X133748147Y-81698574D01*
X133856320Y-81959727D01*
X134013363Y-82194759D01*
X134213241Y-82394637D01*
X134448273Y-82551680D01*
X134709426Y-82659853D01*
X134986665Y-82715000D01*
X135269335Y-82715000D01*
X135546574Y-82659853D01*
X135807727Y-82551680D01*
X136042759Y-82394637D01*
X136242637Y-82194759D01*
X136399680Y-81959727D01*
X136507853Y-81698574D01*
X136563000Y-81421335D01*
X136563000Y-81138665D01*
X137757000Y-81138665D01*
X137757000Y-81421335D01*
X137812147Y-81698574D01*
X137920320Y-81959727D01*
X138077363Y-82194759D01*
X138277241Y-82394637D01*
X138512273Y-82551680D01*
X138773426Y-82659853D01*
X139050665Y-82715000D01*
X139333335Y-82715000D01*
X139610574Y-82659853D01*
X139871727Y-82551680D01*
X140106759Y-82394637D01*
X140306637Y-82194759D01*
X140463680Y-81959727D01*
X140571853Y-81698574D01*
X140627000Y-81421335D01*
X140627000Y-81138665D01*
X140571853Y-80861426D01*
X140463680Y-80600273D01*
X140306637Y-80365241D01*
X140106759Y-80165363D01*
X139871727Y-80008320D01*
X139610574Y-79900147D01*
X139333335Y-79845000D01*
X139050665Y-79845000D01*
X138773426Y-79900147D01*
X138512273Y-80008320D01*
X138277241Y-80165363D01*
X138077363Y-80365241D01*
X137920320Y-80600273D01*
X137812147Y-80861426D01*
X137757000Y-81138665D01*
X136563000Y-81138665D01*
X136507853Y-80861426D01*
X136399680Y-80600273D01*
X136242637Y-80365241D01*
X136042759Y-80165363D01*
X135807727Y-80008320D01*
X135546574Y-79900147D01*
X135269335Y-79845000D01*
X134986665Y-79845000D01*
X134709426Y-79900147D01*
X134448273Y-80008320D01*
X134213241Y-80165363D01*
X134013363Y-80365241D01*
X133856320Y-80600273D01*
X133748147Y-80861426D01*
X133693000Y-81138665D01*
X132502072Y-81138665D01*
X132502072Y-80480000D01*
X132489812Y-80355518D01*
X132453502Y-80235820D01*
X132394537Y-80125506D01*
X132315185Y-80028815D01*
X132218494Y-79949463D01*
X132108180Y-79890498D01*
X131988482Y-79854188D01*
X131864000Y-79841928D01*
X130264000Y-79841928D01*
X130139518Y-79854188D01*
X130019820Y-79890498D01*
X129909506Y-79949463D01*
X129812815Y-80028815D01*
X129733463Y-80125506D01*
X129674498Y-80235820D01*
X129638188Y-80355518D01*
X129625928Y-80480000D01*
X121010344Y-80480000D01*
X120876765Y-80317235D01*
X120670440Y-80147908D01*
X120435045Y-80022086D01*
X120390241Y-80008495D01*
X120549869Y-79943256D01*
X120772395Y-79796084D01*
X120961933Y-79608327D01*
X121053508Y-79472665D01*
X158907000Y-79472665D01*
X158907000Y-79755335D01*
X158962147Y-80032574D01*
X159070320Y-80293727D01*
X159227363Y-80528759D01*
X159427241Y-80728637D01*
X159662273Y-80885680D01*
X159923426Y-80993853D01*
X160200665Y-81049000D01*
X160483335Y-81049000D01*
X160760574Y-80993853D01*
X161021727Y-80885680D01*
X161256759Y-80728637D01*
X161456637Y-80528759D01*
X161613680Y-80293727D01*
X161721853Y-80032574D01*
X161777000Y-79755335D01*
X161777000Y-79472665D01*
X161721853Y-79195426D01*
X161613680Y-78934273D01*
X161456637Y-78699241D01*
X161256759Y-78499363D01*
X161021727Y-78342320D01*
X160760574Y-78234147D01*
X160483335Y-78179000D01*
X160200665Y-78179000D01*
X159923426Y-78234147D01*
X159662273Y-78342320D01*
X159427241Y-78499363D01*
X159227363Y-78699241D01*
X159070320Y-78934273D01*
X158962147Y-79195426D01*
X158907000Y-79472665D01*
X121053508Y-79472665D01*
X121111199Y-79387201D01*
X121214458Y-79141203D01*
X121226559Y-79076472D01*
X121103489Y-78867000D01*
X119761000Y-78867000D01*
X119761000Y-78887000D01*
X119507000Y-78887000D01*
X119507000Y-78867000D01*
X118164511Y-78867000D01*
X118041441Y-79076472D01*
X118053542Y-79141203D01*
X118156801Y-79387201D01*
X118306067Y-79608327D01*
X118495605Y-79796084D01*
X118718131Y-79943256D01*
X118877759Y-80008495D01*
X118832955Y-80022086D01*
X118597560Y-80147908D01*
X118391235Y-80317235D01*
X118221908Y-80523560D01*
X118096086Y-80758955D01*
X118018606Y-81014374D01*
X117992444Y-81280000D01*
X96164000Y-81280000D01*
X96164000Y-79076472D01*
X110421441Y-79076472D01*
X110433542Y-79141203D01*
X110536801Y-79387201D01*
X110686067Y-79608327D01*
X110875605Y-79796084D01*
X111098131Y-79943256D01*
X111261441Y-80010000D01*
X111098131Y-80076744D01*
X110875605Y-80223916D01*
X110686067Y-80411673D01*
X110536801Y-80632799D01*
X110433542Y-80878797D01*
X110421441Y-80943528D01*
X110544511Y-81153000D01*
X111887000Y-81153000D01*
X111887000Y-78867000D01*
X112141000Y-78867000D01*
X112141000Y-81153000D01*
X113483489Y-81153000D01*
X113606559Y-80943528D01*
X113594458Y-80878797D01*
X113491199Y-80632799D01*
X113341933Y-80411673D01*
X113152395Y-80223916D01*
X112929869Y-80076744D01*
X112766559Y-80010000D01*
X112929869Y-79943256D01*
X113152395Y-79796084D01*
X113341933Y-79608327D01*
X113491199Y-79387201D01*
X113594458Y-79141203D01*
X113606559Y-79076472D01*
X113483489Y-78867000D01*
X112141000Y-78867000D01*
X111887000Y-78867000D01*
X110544511Y-78867000D01*
X110421441Y-79076472D01*
X96164000Y-79076472D01*
X96164000Y-76920000D01*
X110375928Y-76920000D01*
X110388188Y-77044482D01*
X110424498Y-77164180D01*
X110483463Y-77274494D01*
X110562815Y-77371185D01*
X110659506Y-77450537D01*
X110769820Y-77509502D01*
X110889518Y-77545812D01*
X111014000Y-77558072D01*
X111066222Y-77557847D01*
X110875605Y-77683916D01*
X110686067Y-77871673D01*
X110536801Y-78092799D01*
X110433542Y-78338797D01*
X110421441Y-78403528D01*
X110544511Y-78613000D01*
X111887000Y-78613000D01*
X111887000Y-76327000D01*
X112141000Y-76327000D01*
X112141000Y-78613000D01*
X113483489Y-78613000D01*
X113606559Y-78403528D01*
X113594458Y-78338797D01*
X113491199Y-78092799D01*
X113341933Y-77871673D01*
X113152395Y-77683916D01*
X112961778Y-77557847D01*
X113014000Y-77558072D01*
X113138482Y-77545812D01*
X113258180Y-77509502D01*
X113368494Y-77450537D01*
X113465185Y-77371185D01*
X113544537Y-77274494D01*
X113603502Y-77164180D01*
X113639812Y-77044482D01*
X113652072Y-76920000D01*
X113649359Y-76536472D01*
X118041441Y-76536472D01*
X118053542Y-76601203D01*
X118156801Y-76847201D01*
X118306067Y-77068327D01*
X118495605Y-77256084D01*
X118718131Y-77403256D01*
X118881441Y-77470000D01*
X118718131Y-77536744D01*
X118495605Y-77683916D01*
X118306067Y-77871673D01*
X118156801Y-78092799D01*
X118053542Y-78338797D01*
X118041441Y-78403528D01*
X118164511Y-78613000D01*
X119507000Y-78613000D01*
X119507000Y-76327000D01*
X119761000Y-76327000D01*
X119761000Y-78613000D01*
X121103489Y-78613000D01*
X121226559Y-78403528D01*
X121214458Y-78338797D01*
X121111199Y-78092799D01*
X120961933Y-77871673D01*
X120772395Y-77683916D01*
X120549869Y-77536744D01*
X120386559Y-77470000D01*
X120549869Y-77403256D01*
X120772395Y-77256084D01*
X120961933Y-77068327D01*
X121111199Y-76847201D01*
X121214458Y-76601203D01*
X121226559Y-76536472D01*
X121155779Y-76416000D01*
X125815928Y-76416000D01*
X125815928Y-78016000D01*
X125828188Y-78140482D01*
X125864498Y-78260180D01*
X125923463Y-78370494D01*
X126002815Y-78467185D01*
X126099506Y-78546537D01*
X126209820Y-78605502D01*
X126329518Y-78641812D01*
X126454000Y-78654072D01*
X128054000Y-78654072D01*
X128178482Y-78641812D01*
X128298180Y-78605502D01*
X128408494Y-78546537D01*
X128505185Y-78467185D01*
X128584537Y-78370494D01*
X128643502Y-78260180D01*
X128679812Y-78140482D01*
X128692072Y-78016000D01*
X128692072Y-77074665D01*
X133439000Y-77074665D01*
X133439000Y-77357335D01*
X133494147Y-77634574D01*
X133602320Y-77895727D01*
X133759363Y-78130759D01*
X133959241Y-78330637D01*
X134194273Y-78487680D01*
X134455426Y-78595853D01*
X134732665Y-78651000D01*
X135015335Y-78651000D01*
X135292574Y-78595853D01*
X135553727Y-78487680D01*
X135788759Y-78330637D01*
X135988637Y-78130759D01*
X136090707Y-77978000D01*
X145925509Y-77978000D01*
X145931000Y-78033752D01*
X145931000Y-78089788D01*
X145941932Y-78144747D01*
X145947423Y-78200499D01*
X145963685Y-78254106D01*
X145974617Y-78309067D01*
X145996063Y-78360842D01*
X146012324Y-78414447D01*
X146038731Y-78463851D01*
X146060176Y-78515624D01*
X146091307Y-78562214D01*
X146117716Y-78611623D01*
X146153259Y-78654932D01*
X146184388Y-78701520D01*
X146224009Y-78741141D01*
X146259551Y-78784449D01*
X146302859Y-78819991D01*
X146342480Y-78859612D01*
X146389068Y-78890741D01*
X146432377Y-78926284D01*
X146481786Y-78952693D01*
X146528376Y-78983824D01*
X146580149Y-79005269D01*
X146629553Y-79031676D01*
X146683158Y-79047937D01*
X146734933Y-79069383D01*
X146789894Y-79080315D01*
X146843501Y-79096577D01*
X146899253Y-79102068D01*
X146954212Y-79113000D01*
X157337788Y-79113000D01*
X157392747Y-79102068D01*
X157448499Y-79096577D01*
X157502106Y-79080315D01*
X157557067Y-79069383D01*
X157608842Y-79047937D01*
X157662447Y-79031676D01*
X157711851Y-79005269D01*
X157763624Y-78983824D01*
X157810214Y-78952693D01*
X157859623Y-78926284D01*
X157902932Y-78890741D01*
X157949520Y-78859612D01*
X157989141Y-78819991D01*
X158032449Y-78784449D01*
X158067991Y-78741141D01*
X158107612Y-78701520D01*
X158138741Y-78654932D01*
X158174284Y-78611623D01*
X158200693Y-78562214D01*
X158231824Y-78515624D01*
X158253269Y-78463851D01*
X158279676Y-78414447D01*
X158295937Y-78360842D01*
X158317383Y-78309067D01*
X158328315Y-78254106D01*
X158344577Y-78200499D01*
X158350068Y-78144747D01*
X158361000Y-78089788D01*
X158361000Y-78033752D01*
X158366491Y-77978000D01*
X158361000Y-77922248D01*
X158361000Y-77866212D01*
X158350068Y-77811253D01*
X158344577Y-77755501D01*
X158328315Y-77701894D01*
X158317383Y-77646933D01*
X158295937Y-77595158D01*
X158279676Y-77541553D01*
X158253269Y-77492149D01*
X158231824Y-77440376D01*
X158200693Y-77393786D01*
X158174284Y-77344377D01*
X158138741Y-77301068D01*
X158107612Y-77254480D01*
X158067991Y-77214859D01*
X158032449Y-77171551D01*
X157989141Y-77136009D01*
X157949520Y-77096388D01*
X157902932Y-77065259D01*
X157859623Y-77029716D01*
X157810214Y-77003307D01*
X157763624Y-76972176D01*
X157711851Y-76950731D01*
X157662447Y-76924324D01*
X157608842Y-76908063D01*
X157557067Y-76886617D01*
X157502106Y-76875685D01*
X157448499Y-76859423D01*
X157392747Y-76853932D01*
X157337788Y-76843000D01*
X151391002Y-76843000D01*
X151391002Y-76708625D01*
X151613040Y-76829909D01*
X151877881Y-76735070D01*
X152119131Y-76590385D01*
X152327519Y-76401414D01*
X152495037Y-76175420D01*
X152615246Y-75921087D01*
X152655904Y-75787039D01*
X152533915Y-75565000D01*
X151391000Y-75565000D01*
X151391000Y-75585000D01*
X151137000Y-75585000D01*
X151137000Y-75565000D01*
X149994085Y-75565000D01*
X149872096Y-75787039D01*
X149912754Y-75921087D01*
X150032963Y-76175420D01*
X150200481Y-76401414D01*
X150408869Y-76590385D01*
X150650119Y-76735070D01*
X150914960Y-76829909D01*
X151136998Y-76708625D01*
X151136998Y-76843000D01*
X146954212Y-76843000D01*
X146899253Y-76853932D01*
X146843501Y-76859423D01*
X146789894Y-76875685D01*
X146734933Y-76886617D01*
X146683158Y-76908063D01*
X146629553Y-76924324D01*
X146580149Y-76950731D01*
X146528376Y-76972176D01*
X146481786Y-77003307D01*
X146432377Y-77029716D01*
X146389068Y-77065259D01*
X146342480Y-77096388D01*
X146302859Y-77136009D01*
X146259551Y-77171551D01*
X146224009Y-77214859D01*
X146184388Y-77254480D01*
X146153259Y-77301068D01*
X146117716Y-77344377D01*
X146091307Y-77393786D01*
X146060176Y-77440376D01*
X146038731Y-77492149D01*
X146012324Y-77541553D01*
X145996063Y-77595158D01*
X145974617Y-77646933D01*
X145963685Y-77701894D01*
X145947423Y-77755501D01*
X145941932Y-77811253D01*
X145931000Y-77866212D01*
X145931000Y-77922248D01*
X145925509Y-77978000D01*
X136090707Y-77978000D01*
X136145680Y-77895727D01*
X136253853Y-77634574D01*
X136309000Y-77357335D01*
X136309000Y-77074665D01*
X136253853Y-76797426D01*
X136145680Y-76536273D01*
X135988637Y-76301241D01*
X135788759Y-76101363D01*
X135553727Y-75944320D01*
X135292574Y-75836147D01*
X135015335Y-75781000D01*
X134732665Y-75781000D01*
X134455426Y-75836147D01*
X134194273Y-75944320D01*
X133959241Y-76101363D01*
X133759363Y-76301241D01*
X133602320Y-76536273D01*
X133494147Y-76797426D01*
X133439000Y-77074665D01*
X128692072Y-77074665D01*
X128692072Y-76416000D01*
X128679812Y-76291518D01*
X128643502Y-76171820D01*
X128584537Y-76061506D01*
X128505185Y-75964815D01*
X128408494Y-75885463D01*
X128298180Y-75826498D01*
X128178482Y-75790188D01*
X128054000Y-75777928D01*
X126454000Y-75777928D01*
X126329518Y-75790188D01*
X126209820Y-75826498D01*
X126099506Y-75885463D01*
X126002815Y-75964815D01*
X125923463Y-76061506D01*
X125864498Y-76171820D01*
X125828188Y-76291518D01*
X125815928Y-76416000D01*
X121155779Y-76416000D01*
X121103489Y-76327000D01*
X119761000Y-76327000D01*
X119507000Y-76327000D01*
X118164511Y-76327000D01*
X118041441Y-76536472D01*
X113649359Y-76536472D01*
X113649000Y-76485750D01*
X113490250Y-76327000D01*
X112141000Y-76327000D01*
X111887000Y-76327000D01*
X110537750Y-76327000D01*
X110379000Y-76485750D01*
X110375928Y-76920000D01*
X96164000Y-76920000D01*
X96164000Y-75296665D01*
X97117000Y-75296665D01*
X97117000Y-75579335D01*
X97172147Y-75856574D01*
X97280320Y-76117727D01*
X97437363Y-76352759D01*
X97637241Y-76552637D01*
X97872273Y-76709680D01*
X98133426Y-76817853D01*
X98410665Y-76873000D01*
X98693335Y-76873000D01*
X98970574Y-76817853D01*
X99231727Y-76709680D01*
X99466759Y-76552637D01*
X99666637Y-76352759D01*
X99823680Y-76117727D01*
X99931853Y-75856574D01*
X99987000Y-75579335D01*
X99987000Y-75296665D01*
X101943000Y-75296665D01*
X101943000Y-75579335D01*
X101998147Y-75856574D01*
X102106320Y-76117727D01*
X102263363Y-76352759D01*
X102463241Y-76552637D01*
X102698273Y-76709680D01*
X102959426Y-76817853D01*
X103236665Y-76873000D01*
X103519335Y-76873000D01*
X103796574Y-76817853D01*
X104057727Y-76709680D01*
X104292759Y-76552637D01*
X104492637Y-76352759D01*
X104649680Y-76117727D01*
X104757853Y-75856574D01*
X104813000Y-75579335D01*
X104813000Y-75480000D01*
X110375928Y-75480000D01*
X110379000Y-75914250D01*
X110537750Y-76073000D01*
X111887000Y-76073000D01*
X111887000Y-75003750D01*
X112141000Y-75003750D01*
X112141000Y-76073000D01*
X113490250Y-76073000D01*
X113649000Y-75914250D01*
X113649358Y-75863528D01*
X118041441Y-75863528D01*
X118164511Y-76073000D01*
X119507000Y-76073000D01*
X119507000Y-74845000D01*
X119761000Y-74845000D01*
X119761000Y-76073000D01*
X121103489Y-76073000D01*
X121226559Y-75863528D01*
X121214458Y-75798797D01*
X121111199Y-75552799D01*
X120961933Y-75331673D01*
X120772395Y-75143916D01*
X120549869Y-74996744D01*
X120302907Y-74895812D01*
X120041000Y-74845000D01*
X119761000Y-74845000D01*
X119507000Y-74845000D01*
X119227000Y-74845000D01*
X118965093Y-74895812D01*
X118718131Y-74996744D01*
X118495605Y-75143916D01*
X118306067Y-75331673D01*
X118156801Y-75552799D01*
X118053542Y-75798797D01*
X118041441Y-75863528D01*
X113649358Y-75863528D01*
X113652072Y-75480000D01*
X113639812Y-75355518D01*
X113603502Y-75235820D01*
X113544537Y-75125506D01*
X113465185Y-75028815D01*
X113368494Y-74949463D01*
X113258180Y-74890498D01*
X113138482Y-74854188D01*
X113014000Y-74841928D01*
X112299750Y-74845000D01*
X112141000Y-75003750D01*
X111887000Y-75003750D01*
X111728250Y-74845000D01*
X111014000Y-74841928D01*
X110889518Y-74854188D01*
X110769820Y-74890498D01*
X110659506Y-74949463D01*
X110562815Y-75028815D01*
X110483463Y-75125506D01*
X110424498Y-75235820D01*
X110388188Y-75355518D01*
X110375928Y-75480000D01*
X104813000Y-75480000D01*
X104813000Y-75296665D01*
X104757853Y-75019426D01*
X104649680Y-74758273D01*
X104492637Y-74523241D01*
X104292759Y-74323363D01*
X104057727Y-74166320D01*
X103796574Y-74058147D01*
X103519335Y-74003000D01*
X103236665Y-74003000D01*
X102959426Y-74058147D01*
X102698273Y-74166320D01*
X102463241Y-74323363D01*
X102263363Y-74523241D01*
X102106320Y-74758273D01*
X101998147Y-75019426D01*
X101943000Y-75296665D01*
X99987000Y-75296665D01*
X99931853Y-75019426D01*
X99823680Y-74758273D01*
X99666637Y-74523241D01*
X99466759Y-74323363D01*
X99231727Y-74166320D01*
X98970574Y-74058147D01*
X98693335Y-74003000D01*
X98410665Y-74003000D01*
X98133426Y-74058147D01*
X97872273Y-74166320D01*
X97637241Y-74323363D01*
X97437363Y-74523241D01*
X97280320Y-74758273D01*
X97172147Y-75019426D01*
X97117000Y-75296665D01*
X96164000Y-75296665D01*
X96164000Y-72606000D01*
X124037928Y-72606000D01*
X124037928Y-74206000D01*
X124050188Y-74330482D01*
X124086498Y-74450180D01*
X124145463Y-74560494D01*
X124224815Y-74657185D01*
X124321506Y-74736537D01*
X124431820Y-74795502D01*
X124551518Y-74831812D01*
X124676000Y-74844072D01*
X126276000Y-74844072D01*
X126400482Y-74831812D01*
X126520180Y-74795502D01*
X126630494Y-74736537D01*
X126727185Y-74657185D01*
X126806537Y-74560494D01*
X126865502Y-74450180D01*
X126901812Y-74330482D01*
X126914072Y-74206000D01*
X126914072Y-72606000D01*
X126901812Y-72481518D01*
X126865502Y-72361820D01*
X126806537Y-72251506D01*
X126727185Y-72154815D01*
X126630494Y-72075463D01*
X126520180Y-72016498D01*
X126400482Y-71980188D01*
X126276000Y-71967928D01*
X124676000Y-71967928D01*
X124551518Y-71980188D01*
X124431820Y-72016498D01*
X124321506Y-72075463D01*
X124224815Y-72154815D01*
X124145463Y-72251506D01*
X124086498Y-72361820D01*
X124050188Y-72481518D01*
X124037928Y-72606000D01*
X96164000Y-72606000D01*
X96164000Y-67462000D01*
X135656868Y-67462000D01*
X132332860Y-70786009D01*
%TD*%
M02*
