%TF.GenerationSoftware,KiCad,Pcbnew,5.1.5+dfsg1-2build2*%
%TF.CreationDate,2022-12-31T14:33:42+00:00*%
%TF.ProjectId,g850-pic-prog,67383530-2d70-4696-932d-70726f672e6b,rev?*%
%TF.SameCoordinates,Original*%
%TF.FileFunction,Copper,L2,Bot*%
%TF.FilePolarity,Positive*%
%FSLAX46Y46*%
G04 Gerber Fmt 4.6, Leading zero omitted, Abs format (unit mm)*
G04 Created by KiCad (PCBNEW 5.1.5+dfsg1-2build2) date 2022-12-31 14:33:42*
%MOMM*%
%LPD*%
G04 APERTURE LIST*
%TA.AperFunction,ComponentPad*%
%ADD10O,2.000000X1.440000*%
%TD*%
%TA.AperFunction,ComponentPad*%
%ADD11R,2.000000X1.440000*%
%TD*%
%TA.AperFunction,ComponentPad*%
%ADD12C,1.397000*%
%TD*%
%TA.AperFunction,ComponentPad*%
%ADD13R,1.397000X1.397000*%
%TD*%
%TA.AperFunction,ComponentPad*%
%ADD14O,1.600000X1.600000*%
%TD*%
%TA.AperFunction,ComponentPad*%
%ADD15R,1.600000X1.600000*%
%TD*%
%TA.AperFunction,ComponentPad*%
%ADD16C,2.000000*%
%TD*%
%TA.AperFunction,ComponentPad*%
%ADD17C,1.600000*%
%TD*%
%TA.AperFunction,ComponentPad*%
%ADD18O,2.190000X1.740000*%
%TD*%
%TA.AperFunction,ComponentPad*%
%ADD19C,0.100000*%
%TD*%
%TA.AperFunction,ComponentPad*%
%ADD20C,1.800000*%
%TD*%
%TA.AperFunction,ComponentPad*%
%ADD21R,1.800000X1.800000*%
%TD*%
%TA.AperFunction,ViaPad*%
%ADD22C,1.000000*%
%TD*%
%TA.AperFunction,Conductor*%
%ADD23C,1.000000*%
%TD*%
G04 APERTURE END LIST*
D10*
%TO.P,U2,10*%
%TO.N,GND*%
X119634000Y-96520000D03*
%TO.P,U2,9*%
X112014000Y-96520000D03*
%TO.P,U2,11*%
X119634000Y-93980000D03*
%TO.P,U2,8*%
X112014000Y-93980000D03*
%TO.P,U2,12*%
%TO.N,Net-(Q1-Pad1)*%
X119634000Y-91440000D03*
%TO.P,U2,7*%
%TO.N,GND*%
X112014000Y-91440000D03*
%TO.P,U2,13*%
%TO.N,Net-(R8-Pad1)*%
X119634000Y-88900000D03*
%TO.P,U2,6*%
%TO.N,GND*%
X112014000Y-88900000D03*
%TO.P,U2,14*%
%TO.N,+5V*%
X119634000Y-86360000D03*
%TO.P,U2,5*%
%TO.N,GND*%
X112014000Y-86360000D03*
%TO.P,U2,15*%
%TO.N,N/C*%
X119634000Y-83820000D03*
%TO.P,U2,4*%
%TO.N,Net-(D4-Pad1)*%
X112014000Y-83820000D03*
%TO.P,U2,16*%
%TO.N,N/C*%
X119634000Y-81280000D03*
%TO.P,U2,3*%
%TO.N,GND*%
X112014000Y-81280000D03*
%TO.P,U2,17*%
X119634000Y-78740000D03*
%TO.P,U2,2*%
X112014000Y-78740000D03*
%TO.P,U2,18*%
X119634000Y-76200000D03*
D11*
%TO.P,U2,1*%
X112014000Y-76200000D03*
%TD*%
D12*
%TO.P,Q2,1*%
%TO.N,V+*%
X183388000Y-86106000D03*
%TO.P,Q2,2*%
%TO.N,Net-(Q2-Pad2)*%
X181356000Y-84074000D03*
D13*
%TO.P,Q2,3*%
%TO.N,+5V*%
X183388000Y-82042000D03*
%TD*%
D14*
%TO.P,U1,14*%
%TO.N,+5V*%
X151384000Y-81026000D03*
%TO.P,U1,7*%
%TO.N,GND*%
X143764000Y-96266000D03*
%TO.P,U1,13*%
%TO.N,Net-(U1-Pad10)*%
X151384000Y-83566000D03*
%TO.P,U1,6*%
%TO.N,Net-(R1-Pad2)*%
X143764000Y-93726000D03*
%TO.P,U1,12*%
%TO.N,N/C*%
X151384000Y-86106000D03*
%TO.P,U1,5*%
%TO.N,Net-(C3-Pad2)*%
X143764000Y-91186000D03*
%TO.P,U1,11*%
%TO.N,Net-(U1-Pad11)*%
X151384000Y-88646000D03*
%TO.P,U1,4*%
%TO.N,Net-(C3-Pad2)*%
X143764000Y-88646000D03*
%TO.P,U1,10*%
%TO.N,Net-(U1-Pad10)*%
X151384000Y-91186000D03*
%TO.P,U1,3*%
%TO.N,Net-(C1-Pad2)*%
X143764000Y-86106000D03*
%TO.P,U1,9*%
%TO.N,GND*%
X151384000Y-93726000D03*
%TO.P,U1,2*%
%TO.N,Net-(C1-Pad2)*%
X143764000Y-83566000D03*
%TO.P,U1,8*%
%TO.N,Net-(U1-Pad11)*%
X151384000Y-96266000D03*
D15*
%TO.P,U1,1*%
%TO.N,Net-(C2-Pad1)*%
X143764000Y-81026000D03*
%TD*%
D16*
%TO.P,TP2,1*%
%TO.N,Net-(D4-Pad1)*%
X97790000Y-89408000D03*
%TD*%
%TO.P,TP1,1*%
%TO.N,GND*%
X163576000Y-94996000D03*
%TD*%
D14*
%TO.P,R13,2*%
%TO.N,CP*%
X194564000Y-80518000D03*
D17*
%TO.P,R13,1*%
%TO.N,Net-(Q3-Pad2)*%
X186944000Y-80518000D03*
%TD*%
D14*
%TO.P,R12,2*%
%TO.N,LOW_BATT*%
X194564000Y-90678000D03*
D17*
%TO.P,R12,1*%
%TO.N,+5V*%
X186944000Y-90678000D03*
%TD*%
D14*
%TO.P,R11,2*%
%TO.N,Net-(Q2-Pad2)*%
X167962000Y-79614000D03*
D17*
%TO.P,R11,1*%
%TO.N,V+*%
X160342000Y-79614000D03*
%TD*%
D14*
%TO.P,R10,2*%
%TO.N,GND*%
X157480000Y-89916000D03*
D17*
%TO.P,R10,1*%
%TO.N,Net-(Q3-Pad2)*%
X157480000Y-97536000D03*
%TD*%
D14*
%TO.P,R9,2*%
%TO.N,DATA_OUT*%
X194564000Y-88138000D03*
D17*
%TO.P,R9,1*%
%TO.N,Net-(R8-Pad1)*%
X186944000Y-88138000D03*
%TD*%
D14*
%TO.P,R8,2*%
%TO.N,DATA_IN*%
X194564000Y-85598000D03*
D17*
%TO.P,R8,1*%
%TO.N,Net-(R8-Pad1)*%
X186944000Y-85598000D03*
%TD*%
D14*
%TO.P,R7,2*%
%TO.N,Net-(D5-Pad1)*%
X167962000Y-75564000D03*
D17*
%TO.P,R7,1*%
%TO.N,Net-(Q2-Pad2)*%
X160342000Y-75564000D03*
%TD*%
D14*
%TO.P,R6,2*%
%TO.N,CLOCK*%
X194564000Y-83058000D03*
D17*
%TO.P,R6,1*%
%TO.N,Net-(Q1-Pad2)*%
X186944000Y-83058000D03*
%TD*%
D14*
%TO.P,R5,2*%
%TO.N,GND*%
X151384000Y-70358000D03*
D17*
%TO.P,R5,1*%
%TO.N,Net-(Q1-Pad2)*%
X143764000Y-70358000D03*
%TD*%
D14*
%TO.P,R4,2*%
%TO.N,Net-(Q1-Pad1)*%
X130302000Y-95758000D03*
D17*
%TO.P,R4,1*%
%TO.N,+5V*%
X137922000Y-95758000D03*
%TD*%
D14*
%TO.P,R3,2*%
%TO.N,Net-(D5-Pad2)*%
X175768000Y-90678000D03*
D17*
%TO.P,R3,1*%
%TO.N,+5V*%
X183388000Y-90678000D03*
%TD*%
D14*
%TO.P,R2,2*%
%TO.N,Net-(D4-Pad1)*%
X103378000Y-83058000D03*
D17*
%TO.P,R2,1*%
%TO.N,Net-(C4-Pad1)*%
X103378000Y-75438000D03*
%TD*%
D14*
%TO.P,R1,2*%
%TO.N,Net-(R1-Pad2)*%
X139192000Y-88900000D03*
D17*
%TO.P,R1,1*%
%TO.N,Net-(C2-Pad1)*%
X139192000Y-81280000D03*
%TD*%
D12*
%TO.P,Q3,1*%
%TO.N,Net-(D5-Pad1)*%
X173990000Y-99060000D03*
%TO.P,Q3,2*%
%TO.N,Net-(Q3-Pad2)*%
X171958000Y-97028000D03*
D13*
%TO.P,Q3,3*%
%TO.N,GND*%
X173990000Y-94996000D03*
%TD*%
D12*
%TO.P,Q1,1*%
%TO.N,Net-(Q1-Pad1)*%
X138430000Y-75184000D03*
%TO.P,Q1,2*%
%TO.N,Net-(Q1-Pad2)*%
X136398000Y-73152000D03*
D13*
%TO.P,Q1,3*%
%TO.N,GND*%
X138430000Y-71120000D03*
%TD*%
D18*
%TO.P,J1,11*%
%TO.N,N/C*%
X199898000Y-98298000D03*
%TO.P,J1,10*%
X199898000Y-95758000D03*
%TO.P,J1,9*%
X199898000Y-93218000D03*
%TO.P,J1,8*%
%TO.N,LOW_BATT*%
X199898000Y-90678000D03*
%TO.P,J1,7*%
%TO.N,DATA_OUT*%
X199898000Y-88138000D03*
%TO.P,J1,6*%
%TO.N,DATA_IN*%
X199898000Y-85598000D03*
%TO.P,J1,5*%
%TO.N,CLOCK*%
X199898000Y-83058000D03*
%TO.P,J1,4*%
%TO.N,CP*%
X199898000Y-80518000D03*
%TO.P,J1,3*%
%TO.N,GND*%
X199898000Y-77978000D03*
%TO.P,J1,2*%
%TO.N,V+*%
X199898000Y-75438000D03*
%TA.AperFunction,ComponentPad*%
D19*
%TO.P,J1,1*%
%TO.N,N/C*%
G36*
X200767505Y-72029204D02*
G01*
X200791773Y-72032804D01*
X200815572Y-72038765D01*
X200838671Y-72047030D01*
X200860850Y-72057520D01*
X200881893Y-72070132D01*
X200901599Y-72084747D01*
X200919777Y-72101223D01*
X200936253Y-72119401D01*
X200950868Y-72139107D01*
X200963480Y-72160150D01*
X200973970Y-72182329D01*
X200982235Y-72205428D01*
X200988196Y-72229227D01*
X200991796Y-72253495D01*
X200993000Y-72277999D01*
X200993000Y-73518001D01*
X200991796Y-73542505D01*
X200988196Y-73566773D01*
X200982235Y-73590572D01*
X200973970Y-73613671D01*
X200963480Y-73635850D01*
X200950868Y-73656893D01*
X200936253Y-73676599D01*
X200919777Y-73694777D01*
X200901599Y-73711253D01*
X200881893Y-73725868D01*
X200860850Y-73738480D01*
X200838671Y-73748970D01*
X200815572Y-73757235D01*
X200791773Y-73763196D01*
X200767505Y-73766796D01*
X200743001Y-73768000D01*
X199052999Y-73768000D01*
X199028495Y-73766796D01*
X199004227Y-73763196D01*
X198980428Y-73757235D01*
X198957329Y-73748970D01*
X198935150Y-73738480D01*
X198914107Y-73725868D01*
X198894401Y-73711253D01*
X198876223Y-73694777D01*
X198859747Y-73676599D01*
X198845132Y-73656893D01*
X198832520Y-73635850D01*
X198822030Y-73613671D01*
X198813765Y-73590572D01*
X198807804Y-73566773D01*
X198804204Y-73542505D01*
X198803000Y-73518001D01*
X198803000Y-72277999D01*
X198804204Y-72253495D01*
X198807804Y-72229227D01*
X198813765Y-72205428D01*
X198822030Y-72182329D01*
X198832520Y-72160150D01*
X198845132Y-72139107D01*
X198859747Y-72119401D01*
X198876223Y-72101223D01*
X198894401Y-72084747D01*
X198914107Y-72070132D01*
X198935150Y-72057520D01*
X198957329Y-72047030D01*
X198980428Y-72038765D01*
X199004227Y-72032804D01*
X199028495Y-72029204D01*
X199052999Y-72028000D01*
X200743001Y-72028000D01*
X200767505Y-72029204D01*
G37*
%TD.AperFunction*%
%TD*%
D20*
%TO.P,D5,2*%
%TO.N,Net-(D5-Pad2)*%
X175768000Y-85598000D03*
D21*
%TO.P,D5,1*%
%TO.N,Net-(D5-Pad1)*%
X173228000Y-85598000D03*
%TD*%
D14*
%TO.P,D4,2*%
%TO.N,GND*%
X103124000Y-97028000D03*
D15*
%TO.P,D4,1*%
%TO.N,Net-(D4-Pad1)*%
X103124000Y-89408000D03*
%TD*%
D14*
%TO.P,D3,2*%
%TO.N,Net-(C3-Pad1)*%
X133096000Y-73406000D03*
D15*
%TO.P,D3,1*%
%TO.N,Net-(C4-Pad1)*%
X125476000Y-73406000D03*
%TD*%
D14*
%TO.P,D2,2*%
%TO.N,Net-(C1-Pad1)*%
X134874000Y-77216000D03*
D15*
%TO.P,D2,1*%
%TO.N,Net-(C3-Pad1)*%
X127254000Y-77216000D03*
%TD*%
D14*
%TO.P,D1,2*%
%TO.N,+5V*%
X131064000Y-88900000D03*
D15*
%TO.P,D1,1*%
%TO.N,Net-(C1-Pad1)*%
X131064000Y-81280000D03*
%TD*%
D14*
%TO.P,C4,2*%
%TO.N,GND*%
X98552000Y-82938000D03*
D17*
%TO.P,C4,1*%
%TO.N,Net-(C4-Pad1)*%
X98552000Y-75438000D03*
%TD*%
D14*
%TO.P,C3,2*%
%TO.N,Net-(C3-Pad2)*%
X170162000Y-88614000D03*
D17*
%TO.P,C3,1*%
%TO.N,Net-(C3-Pad1)*%
X162662000Y-88614000D03*
%TD*%
D14*
%TO.P,C2,2*%
%TO.N,GND*%
X151264000Y-75438000D03*
D17*
%TO.P,C2,1*%
%TO.N,Net-(C2-Pad1)*%
X143764000Y-75438000D03*
%TD*%
D14*
%TO.P,C1,2*%
%TO.N,Net-(C1-Pad2)*%
X135128000Y-88780000D03*
D17*
%TO.P,C1,1*%
%TO.N,Net-(C1-Pad1)*%
X135128000Y-81280000D03*
%TD*%
D22*
%TO.N,Net-(C3-Pad2)*%
X157226000Y-77978000D03*
X147066000Y-77978000D03*
%TO.N,Net-(R8-Pad1)*%
X186436000Y-93472000D03*
X186436000Y-101092000D03*
X127000000Y-88900000D03*
X127000000Y-101092000D03*
%TO.N,V+*%
X168402000Y-84074000D03*
%TO.N,Net-(U1-Pad11)*%
X153924000Y-96266000D03*
X153924000Y-88646000D03*
%TD*%
D23*
%TO.N,Net-(C1-Pad2)*%
X143764000Y-86106000D02*
X143764000Y-83566000D01*
%TO.N,Net-(C1-Pad1)*%
X134874000Y-81026000D02*
X135128000Y-81280000D01*
X134874000Y-77216000D02*
X134874000Y-81026000D01*
X131064000Y-81280000D02*
X135128000Y-81280000D01*
%TO.N,GND*%
X151384000Y-75318000D02*
X151264000Y-75438000D01*
X151384000Y-70358000D02*
X151384000Y-75318000D01*
X112014000Y-93980000D02*
X119634000Y-93980000D01*
X119634000Y-96520000D02*
X119634000Y-93980000D01*
X112014000Y-93980000D02*
X112014000Y-96520000D01*
X112014000Y-93980000D02*
X112014000Y-91440000D01*
X112014000Y-91440000D02*
X112014000Y-88900000D01*
X112014000Y-88900000D02*
X112014000Y-86360000D01*
X112014000Y-86360000D02*
X113284000Y-86360000D01*
X113284000Y-86360000D02*
X113792000Y-85852000D01*
X113792000Y-85852000D02*
X113792000Y-82042000D01*
X113030000Y-81280000D02*
X112014000Y-81280000D01*
X113792000Y-82042000D02*
X113030000Y-81280000D01*
X100210000Y-81280000D02*
X98552000Y-82938000D01*
X112014000Y-81280000D02*
X100210000Y-81280000D01*
X111506000Y-97028000D02*
X112014000Y-96520000D01*
X103124000Y-97028000D02*
X111506000Y-97028000D01*
X119634000Y-78740000D02*
X117094000Y-78740000D01*
X114554000Y-81280000D02*
X112014000Y-81280000D01*
X117094000Y-78740000D02*
X114554000Y-81280000D01*
X119634000Y-76200000D02*
X119634000Y-78740000D01*
X112014000Y-78740000D02*
X112014000Y-81280000D01*
X112014000Y-78740000D02*
X112014000Y-76200000D01*
X120433999Y-75400001D02*
X127799999Y-75400001D01*
X119634000Y-76200000D02*
X120433999Y-75400001D01*
X132080000Y-71120000D02*
X138430000Y-71120000D01*
X127799999Y-75400001D02*
X132080000Y-71120000D01*
X138430000Y-71120000D02*
X139700000Y-72390000D01*
X149352000Y-72390000D02*
X151384000Y-70358000D01*
X139700000Y-72390000D02*
X149352000Y-72390000D01*
X143764000Y-96266000D02*
X146050000Y-96266000D01*
X148590000Y-93726000D02*
X151384000Y-93726000D01*
X146050000Y-96266000D02*
X148590000Y-93726000D01*
X151384000Y-93726000D02*
X155956000Y-93726000D01*
X157480000Y-92202000D02*
X157480000Y-89916000D01*
X159512000Y-94996000D02*
X157099000Y-92583000D01*
X163576000Y-94996000D02*
X159512000Y-94996000D01*
X157099000Y-92583000D02*
X157480000Y-92202000D01*
X155956000Y-93726000D02*
X157099000Y-92583000D01*
X163576000Y-94996000D02*
X173990000Y-94996000D01*
X119634000Y-96520000D02*
X121666000Y-96520000D01*
X121666000Y-97455070D02*
X123016930Y-98806000D01*
X121666000Y-96520000D02*
X121666000Y-97455070D01*
X123016930Y-98806000D02*
X142748000Y-98806000D01*
X143764000Y-97790000D02*
X143764000Y-96266000D01*
X142748000Y-98806000D02*
X143764000Y-97790000D01*
%TO.N,Net-(C2-Pad1)*%
X143764000Y-75438000D02*
X143764000Y-81026000D01*
X143510000Y-81280000D02*
X143764000Y-81026000D01*
X139192000Y-81280000D02*
X143510000Y-81280000D01*
%TO.N,Net-(C3-Pad2)*%
X143764000Y-88646000D02*
X143764000Y-91186000D01*
X170162000Y-88614000D02*
X168370000Y-88614000D01*
X168370000Y-88614000D02*
X164846000Y-85090000D01*
X164846000Y-85090000D02*
X161036000Y-85090000D01*
X157226000Y-81280000D02*
X157226000Y-77978000D01*
X161036000Y-85090000D02*
X157226000Y-81280000D01*
X147066000Y-77978000D02*
X147066000Y-88900000D01*
X144780000Y-91186000D02*
X143764000Y-91186000D01*
X147066000Y-88900000D02*
X144780000Y-91186000D01*
%TO.N,Net-(C3-Pad1)*%
X127254000Y-77216000D02*
X130302000Y-77216000D01*
X133096000Y-74422000D02*
X133096000Y-73406000D01*
X130302000Y-77216000D02*
X133096000Y-74422000D01*
%TO.N,Net-(C4-Pad1)*%
X98552000Y-75438000D02*
X103378000Y-75438000D01*
X103378000Y-75438000D02*
X105156000Y-75438000D01*
X107188000Y-73406000D02*
X125476000Y-73406000D01*
X105156000Y-75438000D02*
X107188000Y-73406000D01*
%TO.N,+5V*%
X186944000Y-90678000D02*
X183388000Y-90678000D01*
X184786501Y-83440501D02*
X183388000Y-82042000D01*
X184786501Y-89279499D02*
X184786501Y-83440501D01*
X183388000Y-90678000D02*
X184786501Y-89279499D01*
X128524000Y-86360000D02*
X131064000Y-88900000D01*
X119634000Y-86360000D02*
X128524000Y-86360000D01*
X183388000Y-82042000D02*
X183388000Y-81534000D01*
X183388000Y-81534000D02*
X172720000Y-70866000D01*
X172720000Y-70866000D02*
X158750000Y-70866000D01*
X158750000Y-70866000D02*
X155194000Y-74422000D01*
X155194000Y-74422000D02*
X155194000Y-79756000D01*
X153924000Y-81026000D02*
X151384000Y-81026000D01*
X155194000Y-79756000D02*
X153924000Y-81026000D01*
%TO.N,Net-(D4-Pad1)*%
X111252000Y-83058000D02*
X112014000Y-83820000D01*
X103378000Y-83058000D02*
X111252000Y-83058000D01*
X103124000Y-83312000D02*
X103378000Y-83058000D01*
X103124000Y-89408000D02*
X103124000Y-83312000D01*
X103124000Y-89408000D02*
X97790000Y-89408000D01*
%TO.N,Net-(D5-Pad2)*%
X175768000Y-85598000D02*
X175768000Y-90678000D01*
%TO.N,Net-(D5-Pad1)*%
X167962000Y-75564000D02*
X169290000Y-75564000D01*
X173228000Y-79502000D02*
X173228000Y-85598000D01*
X169290000Y-75564000D02*
X173228000Y-79502000D01*
%TO.N,LOW_BATT*%
X194564000Y-90678000D02*
X199898000Y-90678000D01*
%TO.N,DATA_OUT*%
X199898000Y-88138000D02*
X194564000Y-88138000D01*
%TO.N,DATA_IN*%
X199898000Y-85598000D02*
X194564000Y-85598000D01*
%TO.N,CLOCK*%
X194564000Y-83058000D02*
X199898000Y-83058000D01*
%TO.N,CP*%
X199898000Y-80518000D02*
X194564000Y-80518000D01*
%TO.N,Net-(Q1-Pad1)*%
X138430000Y-75184000D02*
X138430000Y-78232000D01*
X138430000Y-78232000D02*
X137160000Y-79502000D01*
X137160000Y-79502000D02*
X137160000Y-90678000D01*
X132080000Y-95758000D02*
X130302000Y-95758000D01*
X137160000Y-90678000D02*
X132080000Y-95758000D01*
X119634000Y-91440000D02*
X122428000Y-91440000D01*
X126746000Y-95758000D02*
X130302000Y-95758000D01*
X122428000Y-91440000D02*
X126746000Y-95758000D01*
%TO.N,Net-(Q1-Pad2)*%
X186944000Y-82940998D02*
X183896000Y-79892998D01*
X186944000Y-83058000D02*
X186944000Y-82940998D01*
X183896000Y-79892998D02*
X183896000Y-72644000D01*
X183896000Y-72644000D02*
X179578000Y-68326000D01*
X145796000Y-68326000D02*
X143764000Y-70358000D01*
X179578000Y-68326000D02*
X145796000Y-68326000D01*
%TO.N,Net-(Q3-Pad2)*%
X171958000Y-97028000D02*
X187706000Y-97028000D01*
X187706000Y-97028000D02*
X189992000Y-94742000D01*
X189992000Y-94742000D02*
X189992000Y-81788000D01*
X188722000Y-80518000D02*
X186944000Y-80518000D01*
X189992000Y-81788000D02*
X188722000Y-80518000D01*
X161290000Y-98806000D02*
X170180000Y-98806000D01*
X160020000Y-97536000D02*
X161290000Y-98806000D01*
X170180000Y-98806000D02*
X171958000Y-97028000D01*
X157480000Y-97536000D02*
X160020000Y-97536000D01*
%TO.N,Net-(R1-Pad2)*%
X143764000Y-93726000D02*
X141224000Y-93726000D01*
X139192000Y-91694000D02*
X139192000Y-88900000D01*
X141224000Y-93726000D02*
X139192000Y-91694000D01*
%TO.N,Net-(R8-Pad1)*%
X186944000Y-85598000D02*
X186944000Y-88138000D01*
X188444001Y-91398001D02*
X186624002Y-93218000D01*
X188444001Y-89638001D02*
X188444001Y-91398001D01*
X186944000Y-88138000D02*
X188444001Y-89638001D01*
X122682000Y-88900000D02*
X119634000Y-88900000D01*
X127762000Y-101092000D02*
X127762000Y-101092000D01*
X122682000Y-88900000D02*
X127000000Y-88900000D01*
X162814000Y-101092000D02*
X186436000Y-101092000D01*
X127000000Y-101092000D02*
X162814000Y-101092000D01*
%TO.N,V+*%
X183388000Y-86106000D02*
X181864000Y-86106000D01*
X181864000Y-86106000D02*
X179070000Y-88900000D01*
X179070000Y-88900000D02*
X179070000Y-91948000D01*
X179070000Y-91948000D02*
X178054000Y-92964000D01*
X178054000Y-92964000D02*
X174752000Y-92964000D01*
X174752000Y-92964000D02*
X172720000Y-90932000D01*
X172720000Y-90932000D02*
X172720000Y-88392000D01*
X167132000Y-82804000D02*
X162306000Y-82804000D01*
X160342000Y-80840000D02*
X160342000Y-79614000D01*
X162306000Y-82804000D02*
X160342000Y-80840000D01*
X172720000Y-88392000D02*
X168402000Y-84074000D01*
X168402000Y-84074000D02*
X167132000Y-82804000D01*
%TO.N,Net-(U1-Pad10)*%
X151384000Y-83566000D02*
X149860000Y-83566000D01*
X149860000Y-83566000D02*
X149352000Y-84074000D01*
X149352000Y-84074000D02*
X149352000Y-90678000D01*
X149860000Y-91186000D02*
X151384000Y-91186000D01*
X149352000Y-90678000D02*
X149860000Y-91186000D01*
%TO.N,Net-(U1-Pad11)*%
X151384000Y-96266000D02*
X153924000Y-96266000D01*
X153924000Y-88646000D02*
X151384000Y-88646000D01*
%TO.N,Net-(Q2-Pad2)*%
X164392000Y-79614000D02*
X160342000Y-75564000D01*
X167962000Y-79614000D02*
X164392000Y-79614000D01*
X162500000Y-73406000D02*
X160342000Y-75564000D01*
X170688000Y-73406000D02*
X162500000Y-73406000D01*
X181356000Y-84074000D02*
X170688000Y-73406000D01*
%TD*%
M02*
