%TF.GenerationSoftware,KiCad,Pcbnew,5.1.5+dfsg1-2build2*%
%TF.CreationDate,2022-12-31T14:04:58+00:00*%
%TF.ProjectId,pic_proto1,7069635f-7072-46f7-946f-312e6b696361,rev?*%
%TF.SameCoordinates,Original*%
%TF.FileFunction,Copper,L1,Top*%
%TF.FilePolarity,Positive*%
%FSLAX46Y46*%
G04 Gerber Fmt 4.6, Leading zero omitted, Abs format (unit mm)*
G04 Created by KiCad (PCBNEW 5.1.5+dfsg1-2build2) date 2022-12-31 14:04:58*
%MOMM*%
%LPD*%
G04 APERTURE LIST*
%TA.AperFunction,ComponentPad*%
%ADD10R,1.700000X1.700000*%
%TD*%
%TA.AperFunction,ComponentPad*%
%ADD11O,1.700000X1.700000*%
%TD*%
%TA.AperFunction,ComponentPad*%
%ADD12C,1.500000*%
%TD*%
%TA.AperFunction,ComponentPad*%
%ADD13O,1.600000X1.600000*%
%TD*%
%TA.AperFunction,ComponentPad*%
%ADD14R,1.600000X1.600000*%
%TD*%
%TA.AperFunction,ComponentPad*%
%ADD15O,3.048000X1.850000*%
%TD*%
%TA.AperFunction,ComponentPad*%
%ADD16O,1.400000X1.400000*%
%TD*%
%TA.AperFunction,ComponentPad*%
%ADD17C,1.400000*%
%TD*%
%TA.AperFunction,ComponentPad*%
%ADD18O,2.190000X1.740000*%
%TD*%
%TA.AperFunction,ComponentPad*%
%ADD19C,0.100000*%
%TD*%
%TA.AperFunction,ComponentPad*%
%ADD20O,1.740000X2.190000*%
%TD*%
%TA.AperFunction,ComponentPad*%
%ADD21C,1.800000*%
%TD*%
%TA.AperFunction,ComponentPad*%
%ADD22R,1.800000X1.800000*%
%TD*%
%TA.AperFunction,ComponentPad*%
%ADD23C,2.000000*%
%TD*%
%TA.AperFunction,ViaPad*%
%ADD24C,0.800000*%
%TD*%
%TA.AperFunction,Conductor*%
%ADD25C,0.400000*%
%TD*%
G04 APERTURE END LIST*
D10*
%TO.P,REF\002A\002A,1*%
%TO.N,N/C*%
X137160000Y-50800000D03*
D11*
%TO.P,REF\002A\002A,2*%
X137160000Y-53340000D03*
%TO.P,REF\002A\002A,3*%
X137160000Y-55880000D03*
%TO.P,REF\002A\002A,4*%
X137160000Y-58420000D03*
%TO.P,REF\002A\002A,5*%
X137160000Y-60960000D03*
%TO.P,REF\002A\002A,6*%
X137160000Y-63500000D03*
%TO.P,REF\002A\002A,7*%
X137160000Y-66040000D03*
%TO.P,REF\002A\002A,8*%
X137160000Y-68580000D03*
%TO.P,REF\002A\002A,9*%
X137160000Y-71120000D03*
%TO.P,REF\002A\002A,10*%
X137160000Y-73660000D03*
%TD*%
D10*
%TO.P,REF\002A\002A,1*%
%TO.N,N/C*%
X134620000Y-50800000D03*
D11*
%TO.P,REF\002A\002A,2*%
X134620000Y-53340000D03*
%TO.P,REF\002A\002A,3*%
X134620000Y-55880000D03*
%TO.P,REF\002A\002A,4*%
X134620000Y-58420000D03*
%TO.P,REF\002A\002A,5*%
X134620000Y-60960000D03*
%TO.P,REF\002A\002A,6*%
X134620000Y-63500000D03*
%TO.P,REF\002A\002A,7*%
X134620000Y-66040000D03*
%TO.P,REF\002A\002A,8*%
X134620000Y-68580000D03*
%TO.P,REF\002A\002A,9*%
X134620000Y-71120000D03*
%TO.P,REF\002A\002A,10*%
X134620000Y-73660000D03*
%TD*%
D10*
%TO.P,REF\002A\002A,1*%
%TO.N,N/C*%
X132080000Y-50800000D03*
D11*
%TO.P,REF\002A\002A,2*%
X132080000Y-53340000D03*
%TO.P,REF\002A\002A,3*%
X132080000Y-55880000D03*
%TO.P,REF\002A\002A,4*%
X132080000Y-58420000D03*
%TO.P,REF\002A\002A,5*%
X132080000Y-60960000D03*
%TO.P,REF\002A\002A,6*%
X132080000Y-63500000D03*
%TO.P,REF\002A\002A,7*%
X132080000Y-66040000D03*
%TO.P,REF\002A\002A,8*%
X132080000Y-68580000D03*
%TO.P,REF\002A\002A,9*%
X132080000Y-71120000D03*
%TO.P,REF\002A\002A,10*%
X132080000Y-73660000D03*
%TD*%
D10*
%TO.P,REF\002A\002A,1*%
%TO.N,N/C*%
X129540000Y-50800000D03*
D11*
%TO.P,REF\002A\002A,2*%
X129540000Y-53340000D03*
%TO.P,REF\002A\002A,3*%
X129540000Y-55880000D03*
%TO.P,REF\002A\002A,4*%
X129540000Y-58420000D03*
%TO.P,REF\002A\002A,5*%
X129540000Y-60960000D03*
%TO.P,REF\002A\002A,6*%
X129540000Y-63500000D03*
%TO.P,REF\002A\002A,7*%
X129540000Y-66040000D03*
%TO.P,REF\002A\002A,8*%
X129540000Y-68580000D03*
%TO.P,REF\002A\002A,9*%
X129540000Y-71120000D03*
%TO.P,REF\002A\002A,10*%
X129540000Y-73660000D03*
%TD*%
%TO.P,REF\002A\002A,10*%
%TO.N,N/C*%
X127000000Y-73660000D03*
%TO.P,REF\002A\002A,9*%
X127000000Y-71120000D03*
%TO.P,REF\002A\002A,8*%
X127000000Y-68580000D03*
%TO.P,REF\002A\002A,7*%
X127000000Y-66040000D03*
%TO.P,REF\002A\002A,6*%
X127000000Y-63500000D03*
%TO.P,REF\002A\002A,5*%
X127000000Y-60960000D03*
%TO.P,REF\002A\002A,4*%
X127000000Y-58420000D03*
%TO.P,REF\002A\002A,3*%
X127000000Y-55880000D03*
%TO.P,REF\002A\002A,2*%
X127000000Y-53340000D03*
D10*
%TO.P,REF\002A\002A,1*%
X127000000Y-50800000D03*
%TD*%
D11*
%TO.P,REF\002A\002A,10*%
%TO.N,N/C*%
X124460000Y-73660000D03*
%TO.P,REF\002A\002A,9*%
X124460000Y-71120000D03*
%TO.P,REF\002A\002A,8*%
X124460000Y-68580000D03*
%TO.P,REF\002A\002A,7*%
X124460000Y-66040000D03*
%TO.P,REF\002A\002A,6*%
X124460000Y-63500000D03*
%TO.P,REF\002A\002A,5*%
X124460000Y-60960000D03*
%TO.P,REF\002A\002A,4*%
X124460000Y-58420000D03*
%TO.P,REF\002A\002A,3*%
X124460000Y-55880000D03*
%TO.P,REF\002A\002A,2*%
X124460000Y-53340000D03*
D10*
%TO.P,REF\002A\002A,1*%
X124460000Y-50800000D03*
%TD*%
D12*
%TO.P,X1,2*%
%TO.N,Net-(C2-Pad1)*%
X177800000Y-53540000D03*
%TO.P,X1,1*%
%TO.N,Net-(C1-Pad1)*%
X177800000Y-58420000D03*
%TD*%
D13*
%TO.P,U1,18*%
%TO.N,IO1*%
X171450000Y-49530000D03*
%TO.P,U1,9*%
%TO.N,Net-(J2-Pad7)*%
X163830000Y-69850000D03*
%TO.P,U1,17*%
%TO.N,Net-(D1-Pad2)*%
X171450000Y-52070000D03*
%TO.P,U1,8*%
%TO.N,Net-(J2-Pad6)*%
X163830000Y-67310000D03*
%TO.P,U1,16*%
%TO.N,Net-(C2-Pad1)*%
X171450000Y-54610000D03*
%TO.P,U1,7*%
%TO.N,Net-(J2-Pad5)*%
X163830000Y-64770000D03*
%TO.P,U1,15*%
%TO.N,Net-(C1-Pad1)*%
X171450000Y-57150000D03*
%TO.P,U1,6*%
%TO.N,Net-(J2-Pad4)*%
X163830000Y-62230000D03*
%TO.P,U1,14*%
%TO.N,+5V*%
X171450000Y-59690000D03*
%TO.P,U1,5*%
%TO.N,GND*%
X163830000Y-59690000D03*
%TO.P,U1,13*%
%TO.N,Net-(J2-Pad11)*%
X171450000Y-62230000D03*
%TO.P,U1,4*%
%TO.N,Net-(R1-Pad2)*%
X163830000Y-57150000D03*
%TO.P,U1,12*%
%TO.N,Net-(J2-Pad10)*%
X171450000Y-64770000D03*
%TO.P,U1,3*%
%TO.N,IO4*%
X163830000Y-54610000D03*
%TO.P,U1,11*%
%TO.N,Net-(J2-Pad9)*%
X171450000Y-67310000D03*
%TO.P,U1,2*%
%TO.N,IO3*%
X163830000Y-52070000D03*
%TO.P,U1,10*%
%TO.N,Net-(J2-Pad8)*%
X171450000Y-69850000D03*
D14*
%TO.P,U1,1*%
%TO.N,IO2*%
X163830000Y-49530000D03*
%TD*%
D15*
%TO.P,SW1,2*%
%TO.N,GND*%
X143510000Y-69770000D03*
%TO.P,SW1,1*%
%TO.N,Net-(R1-Pad2)*%
X143510000Y-64770000D03*
%TO.P,SW1,2*%
%TO.N,GND*%
X156010000Y-69770000D03*
%TO.P,SW1,1*%
%TO.N,Net-(R1-Pad2)*%
X156010000Y-64770000D03*
%TD*%
D16*
%TO.P,R2,2*%
%TO.N,GND*%
X207010000Y-59690000D03*
D17*
%TO.P,R2,1*%
%TO.N,Net-(D1-Pad1)*%
X199390000Y-59690000D03*
%TD*%
D16*
%TO.P,R1,2*%
%TO.N,Net-(R1-Pad2)*%
X160020000Y-57150000D03*
D17*
%TO.P,R1,1*%
%TO.N,+5V*%
X160020000Y-64770000D03*
%TD*%
D18*
%TO.P,J2,11*%
%TO.N,Net-(J2-Pad11)*%
X213360000Y-74930000D03*
%TO.P,J2,10*%
%TO.N,Net-(J2-Pad10)*%
X213360000Y-72390000D03*
%TO.P,J2,9*%
%TO.N,Net-(J2-Pad9)*%
X213360000Y-69850000D03*
%TO.P,J2,8*%
%TO.N,Net-(J2-Pad8)*%
X213360000Y-67310000D03*
%TO.P,J2,7*%
%TO.N,Net-(J2-Pad7)*%
X213360000Y-64770000D03*
%TO.P,J2,6*%
%TO.N,Net-(J2-Pad6)*%
X213360000Y-62230000D03*
%TO.P,J2,5*%
%TO.N,Net-(J2-Pad5)*%
X213360000Y-59690000D03*
%TO.P,J2,4*%
%TO.N,Net-(J2-Pad4)*%
X213360000Y-57150000D03*
%TO.P,J2,3*%
%TO.N,GND*%
X213360000Y-54610000D03*
%TO.P,J2,2*%
%TO.N,+5V*%
X213360000Y-52070000D03*
%TA.AperFunction,ComponentPad*%
D19*
%TO.P,J2,1*%
%TO.N,N/C*%
G36*
X214229505Y-48661204D02*
G01*
X214253773Y-48664804D01*
X214277572Y-48670765D01*
X214300671Y-48679030D01*
X214322850Y-48689520D01*
X214343893Y-48702132D01*
X214363599Y-48716747D01*
X214381777Y-48733223D01*
X214398253Y-48751401D01*
X214412868Y-48771107D01*
X214425480Y-48792150D01*
X214435970Y-48814329D01*
X214444235Y-48837428D01*
X214450196Y-48861227D01*
X214453796Y-48885495D01*
X214455000Y-48909999D01*
X214455000Y-50150001D01*
X214453796Y-50174505D01*
X214450196Y-50198773D01*
X214444235Y-50222572D01*
X214435970Y-50245671D01*
X214425480Y-50267850D01*
X214412868Y-50288893D01*
X214398253Y-50308599D01*
X214381777Y-50326777D01*
X214363599Y-50343253D01*
X214343893Y-50357868D01*
X214322850Y-50370480D01*
X214300671Y-50380970D01*
X214277572Y-50389235D01*
X214253773Y-50395196D01*
X214229505Y-50398796D01*
X214205001Y-50400000D01*
X212514999Y-50400000D01*
X212490495Y-50398796D01*
X212466227Y-50395196D01*
X212442428Y-50389235D01*
X212419329Y-50380970D01*
X212397150Y-50370480D01*
X212376107Y-50357868D01*
X212356401Y-50343253D01*
X212338223Y-50326777D01*
X212321747Y-50308599D01*
X212307132Y-50288893D01*
X212294520Y-50267850D01*
X212284030Y-50245671D01*
X212275765Y-50222572D01*
X212269804Y-50198773D01*
X212266204Y-50174505D01*
X212265000Y-50150001D01*
X212265000Y-48909999D01*
X212266204Y-48885495D01*
X212269804Y-48861227D01*
X212275765Y-48837428D01*
X212284030Y-48814329D01*
X212294520Y-48792150D01*
X212307132Y-48771107D01*
X212321747Y-48751401D01*
X212338223Y-48733223D01*
X212356401Y-48716747D01*
X212376107Y-48702132D01*
X212397150Y-48689520D01*
X212419329Y-48679030D01*
X212442428Y-48670765D01*
X212466227Y-48664804D01*
X212490495Y-48661204D01*
X212514999Y-48660000D01*
X214205001Y-48660000D01*
X214229505Y-48661204D01*
G37*
%TD.AperFunction*%
%TD*%
D20*
%TO.P,J1,4*%
%TO.N,IO1*%
X156210000Y-52070000D03*
%TO.P,J1,3*%
%TO.N,IO2*%
X153670000Y-52070000D03*
%TO.P,J1,2*%
%TO.N,IO3*%
X151130000Y-52070000D03*
%TA.AperFunction,ComponentPad*%
D19*
%TO.P,J1,1*%
%TO.N,IO4*%
G36*
X149234505Y-50976204D02*
G01*
X149258773Y-50979804D01*
X149282572Y-50985765D01*
X149305671Y-50994030D01*
X149327850Y-51004520D01*
X149348893Y-51017132D01*
X149368599Y-51031747D01*
X149386777Y-51048223D01*
X149403253Y-51066401D01*
X149417868Y-51086107D01*
X149430480Y-51107150D01*
X149440970Y-51129329D01*
X149449235Y-51152428D01*
X149455196Y-51176227D01*
X149458796Y-51200495D01*
X149460000Y-51224999D01*
X149460000Y-52915001D01*
X149458796Y-52939505D01*
X149455196Y-52963773D01*
X149449235Y-52987572D01*
X149440970Y-53010671D01*
X149430480Y-53032850D01*
X149417868Y-53053893D01*
X149403253Y-53073599D01*
X149386777Y-53091777D01*
X149368599Y-53108253D01*
X149348893Y-53122868D01*
X149327850Y-53135480D01*
X149305671Y-53145970D01*
X149282572Y-53154235D01*
X149258773Y-53160196D01*
X149234505Y-53163796D01*
X149210001Y-53165000D01*
X147969999Y-53165000D01*
X147945495Y-53163796D01*
X147921227Y-53160196D01*
X147897428Y-53154235D01*
X147874329Y-53145970D01*
X147852150Y-53135480D01*
X147831107Y-53122868D01*
X147811401Y-53108253D01*
X147793223Y-53091777D01*
X147776747Y-53073599D01*
X147762132Y-53053893D01*
X147749520Y-53032850D01*
X147739030Y-53010671D01*
X147730765Y-52987572D01*
X147724804Y-52963773D01*
X147721204Y-52939505D01*
X147720000Y-52915001D01*
X147720000Y-51224999D01*
X147721204Y-51200495D01*
X147724804Y-51176227D01*
X147730765Y-51152428D01*
X147739030Y-51129329D01*
X147749520Y-51107150D01*
X147762132Y-51086107D01*
X147776747Y-51066401D01*
X147793223Y-51048223D01*
X147811401Y-51031747D01*
X147831107Y-51017132D01*
X147852150Y-51004520D01*
X147874329Y-50994030D01*
X147897428Y-50985765D01*
X147921227Y-50979804D01*
X147945495Y-50976204D01*
X147969999Y-50975000D01*
X149210001Y-50975000D01*
X149234505Y-50976204D01*
G37*
%TD.AperFunction*%
%TD*%
D21*
%TO.P,D1,2*%
%TO.N,Net-(D1-Pad2)*%
X193040000Y-59690000D03*
D22*
%TO.P,D1,1*%
%TO.N,Net-(D1-Pad1)*%
X195580000Y-59690000D03*
%TD*%
D23*
%TO.P,C2,2*%
%TO.N,GND*%
X187880000Y-53340000D03*
%TO.P,C2,1*%
%TO.N,Net-(C2-Pad1)*%
X182880000Y-53340000D03*
%TD*%
%TO.P,C1,2*%
%TO.N,GND*%
X187880000Y-59690000D03*
%TO.P,C1,1*%
%TO.N,Net-(C1-Pad1)*%
X182880000Y-59690000D03*
%TD*%
D24*
%TO.N,GND*%
X207010000Y-54610000D03*
X187960000Y-67310000D03*
X167640000Y-68580000D03*
%TO.N,Net-(D1-Pad2)*%
X193040000Y-49530000D03*
%TO.N,Net-(J2-Pad9)*%
X176530000Y-72390000D03*
X176530000Y-67310000D03*
%TO.N,Net-(J2-Pad7)*%
X163830000Y-74930000D03*
X210820000Y-73660000D03*
%TO.N,Net-(J2-Pad6)*%
X166370000Y-76200000D03*
X215900000Y-76200000D03*
%TO.N,Net-(J2-Pad5)*%
X161290000Y-73660000D03*
X208280000Y-73660000D03*
X209550000Y-59690000D03*
%TO.N,Net-(J2-Pad4)*%
X196850000Y-57150000D03*
X195580000Y-67310000D03*
X166370000Y-66040000D03*
%TO.N,+5V*%
X204470000Y-64770000D03*
X204470000Y-52070000D03*
%TD*%
D25*
%TO.N,GND*%
X187960000Y-53420000D02*
X187880000Y-53340000D01*
X187960000Y-54610000D02*
X187960000Y-53420000D01*
X187880000Y-59690000D02*
X187880000Y-53340000D01*
X213360000Y-54610000D02*
X207010000Y-54610000D01*
X207010000Y-54610000D02*
X187960000Y-54610000D01*
X187960000Y-67310000D02*
X186690000Y-68580000D01*
X186690000Y-68580000D02*
X167640000Y-68580000D01*
X157200000Y-68580000D02*
X167640000Y-68580000D01*
X156010000Y-69770000D02*
X157200000Y-68580000D01*
X156010000Y-69770000D02*
X143510000Y-69770000D01*
%TO.N,Net-(C1-Pad1)*%
X171450000Y-57150000D02*
X173990000Y-57150000D01*
X175260000Y-58420000D02*
X177800000Y-58420000D01*
X173990000Y-57150000D02*
X175260000Y-58420000D01*
X177800000Y-58420000D02*
X179070000Y-58420000D01*
X180340000Y-59690000D02*
X182880000Y-59690000D01*
X179070000Y-58420000D02*
X180340000Y-59690000D01*
%TO.N,Net-(C2-Pad1)*%
X178000000Y-53340000D02*
X177800000Y-53540000D01*
X182880000Y-53340000D02*
X178000000Y-53340000D01*
X177800000Y-53540000D02*
X176330000Y-53540000D01*
X175260000Y-54610000D02*
X171450000Y-54610000D01*
X176330000Y-53540000D02*
X175260000Y-54610000D01*
%TO.N,Net-(D1-Pad2)*%
X171450000Y-52070000D02*
X173990000Y-52070000D01*
X173990000Y-52070000D02*
X176530000Y-49530000D01*
X176530000Y-49530000D02*
X193040000Y-49530000D01*
%TO.N,Net-(D1-Pad1)*%
X195580000Y-59690000D02*
X199390000Y-59690000D01*
%TO.N,IO1*%
X171450000Y-49530000D02*
X170180000Y-49530000D01*
X170180000Y-49530000D02*
X167640000Y-46990000D01*
X167640000Y-46990000D02*
X157480000Y-46990000D01*
X156210000Y-48260000D02*
X156210000Y-52070000D01*
X157480000Y-46990000D02*
X156210000Y-48260000D01*
%TO.N,Net-(J2-Pad9)*%
X213360000Y-69850000D02*
X205740000Y-69850000D01*
X203200000Y-72390000D02*
X176530000Y-72390000D01*
X205740000Y-69850000D02*
X203200000Y-72390000D01*
X176530000Y-67310000D02*
X171450000Y-67310000D01*
%TO.N,Net-(J2-Pad8)*%
X171450000Y-69850000D02*
X196850000Y-69850000D01*
X199390000Y-67310000D02*
X213360000Y-67310000D01*
X196850000Y-69850000D02*
X199390000Y-67310000D01*
%TO.N,Net-(J2-Pad7)*%
X209550000Y-74930000D02*
X210820000Y-73660000D01*
X163830000Y-74930000D02*
X209550000Y-74930000D01*
%TO.N,Net-(J2-Pad6)*%
X215900000Y-76200000D02*
X215500001Y-76599999D01*
X215500001Y-76599999D02*
X166769999Y-76599999D01*
X166769999Y-76599999D02*
X166370000Y-76200000D01*
%TO.N,Net-(J2-Pad5)*%
X161290000Y-73660000D02*
X208280000Y-73660000D01*
X209550000Y-59690000D02*
X213360000Y-59690000D01*
%TO.N,Net-(J2-Pad4)*%
X213360000Y-57150000D02*
X196850000Y-57150000D01*
X194310000Y-66040000D02*
X166370000Y-66040000D01*
X195580000Y-67310000D02*
X194310000Y-66040000D01*
%TO.N,+5V*%
X171450000Y-59690000D02*
X173990000Y-59690000D01*
X173990000Y-59690000D02*
X179070000Y-64770000D01*
X179070000Y-64770000D02*
X204470000Y-64770000D01*
X204470000Y-52070000D02*
X213360000Y-52070000D01*
X170199999Y-58439999D02*
X162540001Y-58439999D01*
X171450000Y-59690000D02*
X170199999Y-58439999D01*
X160020000Y-60960000D02*
X160020000Y-64770000D01*
X162540001Y-58439999D02*
X160020000Y-60960000D01*
%TO.N,Net-(R1-Pad2)*%
X143510000Y-64770000D02*
X156010000Y-64770000D01*
X163830000Y-57150000D02*
X160020000Y-57150000D01*
%TO.N,IO4*%
X163830000Y-54610000D02*
X149860000Y-54610000D01*
X148590000Y-53340000D02*
X148590000Y-52070000D01*
X149860000Y-54610000D02*
X148590000Y-53340000D01*
%TD*%
M02*
