M48
; DRILL file {KiCad 5.1.5+dfsg1-2build2} date Sat 31 Dec 2022 14:04:57 GMT
; FORMAT={-:-/ absolute / inch / decimal}
; #@! TF.CreationDate,2022-12-31T14:04:57+00:00
; #@! TF.GenerationSoftware,Kicad,Pcbnew,5.1.5+dfsg1-2build2
; #@! TF.FileFunction,Plated,1,2,PTH
FMAT,2
INCH
T1C0.0157
T2C0.0276
T3C0.0315
T4C0.0354
T5C0.0394
T6C0.0469
T7C0.0512
%
G90
G05
T1
X6.35Y-2.9
X6.45Y-2.95
X6.55Y-2.6
X6.55Y-3.0
X6.6Y-2.7
X6.95Y-2.65
X6.95Y-2.85
X7.4Y-2.65
X7.6Y-1.95
X7.7Y-2.65
X7.75Y-2.25
X8.05Y-2.05
X8.05Y-2.55
X8.15Y-2.15
X8.2Y-2.9
X8.25Y-2.35
X8.3Y-2.9
X8.5Y-3.0
T2
X7.85Y-2.35
X8.15Y-2.35
X6.3Y-2.25
X6.3Y-2.55
T3
X7.0Y-2.1079
X7.0Y-2.3
X6.45Y-1.95
X6.45Y-2.05
X6.45Y-2.15
X6.45Y-2.25
X6.45Y-2.35
X6.45Y-2.45
X6.45Y-2.55
X6.45Y-2.65
X6.45Y-2.75
X6.75Y-1.95
X6.75Y-2.05
X6.75Y-2.15
X6.75Y-2.25
X6.75Y-2.35
X6.75Y-2.45
X6.75Y-2.55
X6.75Y-2.65
X6.75Y-2.75
T4
X7.6Y-2.35
X7.7Y-2.35
T5
X4.9Y-2.0
X4.9Y-2.1
X4.9Y-2.2
X4.9Y-2.3
X4.9Y-2.4
X4.9Y-2.5
X4.9Y-2.6
X4.9Y-2.7
X4.9Y-2.8
X4.9Y-2.9
X5.1Y-2.0
X5.1Y-2.1
X5.1Y-2.2
X5.1Y-2.3
X5.1Y-2.4
X5.1Y-2.5
X5.1Y-2.6
X5.1Y-2.7
X5.1Y-2.8
X5.1Y-2.9
X5.2Y-2.0
X5.2Y-2.1
X5.2Y-2.2
X5.2Y-2.3
X5.2Y-2.4
X5.2Y-2.5
X5.2Y-2.6
X5.2Y-2.7
X5.2Y-2.8
X5.2Y-2.9
X7.2Y-2.35
X7.3969Y-2.35
X5.0Y-2.0
X5.0Y-2.1
X5.0Y-2.2
X5.0Y-2.3
X5.0Y-2.4
X5.0Y-2.5
X5.0Y-2.6
X5.0Y-2.7
X5.0Y-2.8
X5.0Y-2.9
X7.2Y-2.1
X7.3969Y-2.1
X5.4Y-2.0
X5.4Y-2.1
X5.4Y-2.2
X5.4Y-2.3
X5.4Y-2.4
X5.4Y-2.5
X5.4Y-2.6
X5.4Y-2.7
X5.4Y-2.8
X5.4Y-2.9
X5.3Y-2.0
X5.3Y-2.1
X5.3Y-2.2
X5.3Y-2.3
X5.3Y-2.4
X5.3Y-2.5
X5.3Y-2.6
X5.3Y-2.7
X5.3Y-2.8
X5.3Y-2.9
T6
X5.85Y-2.05
X5.95Y-2.05
X6.05Y-2.05
X6.15Y-2.05
X8.4Y-1.95
X8.4Y-2.05
X8.4Y-2.15
X8.4Y-2.25
X8.4Y-2.35
X8.4Y-2.45
X8.4Y-2.55
X8.4Y-2.65
X8.4Y-2.75
X8.4Y-2.85
X8.4Y-2.95
T7
X5.65Y-2.55
X5.65Y-2.7469
X6.1421Y-2.55
X6.1421Y-2.7469
T0
M30
