%TF.GenerationSoftware,KiCad,Pcbnew,5.1.6-c6e7f7d~86~ubuntu16.04.1*%
%TF.CreationDate,2020-07-22T20:39:57+01:00*%
%TF.ProjectId,pic_proto1,7069635f-7072-46f7-946f-312e6b696361,rev?*%
%TF.SameCoordinates,Original*%
%TF.FileFunction,Legend,Top*%
%TF.FilePolarity,Positive*%
%FSLAX46Y46*%
G04 Gerber Fmt 4.6, Leading zero omitted, Abs format (unit mm)*
G04 Created by KiCad (PCBNEW 5.1.6-c6e7f7d~86~ubuntu16.04.1) date 2020-07-22 20:39:57*
%MOMM*%
%LPD*%
G01*
G04 APERTURE LIST*
%ADD10C,0.120000*%
%ADD11C,0.150000*%
G04 APERTURE END LIST*
D10*
%TO.C,REF\u002A\u002A*%
X124350000Y-45230000D02*
X124350000Y-51250000D01*
X124350000Y-51250000D02*
X144890000Y-51250000D01*
X144890000Y-51250000D02*
X144890000Y-45230000D01*
X144890000Y-45230000D02*
X124350000Y-45230000D01*
X124060000Y-46260000D02*
X124060000Y-50260000D01*
X125730000Y-51250000D02*
X125730000Y-50250000D01*
X125730000Y-50250000D02*
X130810000Y-50250000D01*
X130810000Y-50250000D02*
X130810000Y-51250000D01*
X125730000Y-50250000D02*
X125980000Y-49720000D01*
X125980000Y-49720000D02*
X130810000Y-49720000D01*
X130810000Y-49720000D02*
X130810000Y-50250000D01*
X125980000Y-51250000D02*
X125980000Y-50250000D01*
X143510000Y-51250000D02*
X143510000Y-50250000D01*
X143510000Y-50250000D02*
X138430000Y-50250000D01*
X138430000Y-50250000D02*
X138430000Y-51250000D01*
X143510000Y-50250000D02*
X143260000Y-49720000D01*
X143260000Y-49720000D02*
X138430000Y-49720000D01*
X138430000Y-49720000D02*
X138430000Y-50250000D01*
X143260000Y-51250000D02*
X143260000Y-50250000D01*
X124930000Y-45230000D02*
X124930000Y-45830000D01*
X124930000Y-45830000D02*
X126530000Y-45830000D01*
X126530000Y-45830000D02*
X126530000Y-45230000D01*
X127470000Y-45230000D02*
X127470000Y-45830000D01*
X127470000Y-45830000D02*
X129070000Y-45830000D01*
X129070000Y-45830000D02*
X129070000Y-45230000D01*
X130010000Y-45230000D02*
X130010000Y-45830000D01*
X130010000Y-45830000D02*
X131610000Y-45830000D01*
X131610000Y-45830000D02*
X131610000Y-45230000D01*
X132550000Y-45230000D02*
X132550000Y-45830000D01*
X132550000Y-45830000D02*
X134150000Y-45830000D01*
X134150000Y-45830000D02*
X134150000Y-45230000D01*
X135090000Y-45230000D02*
X135090000Y-45830000D01*
X135090000Y-45830000D02*
X136690000Y-45830000D01*
X136690000Y-45830000D02*
X136690000Y-45230000D01*
X137630000Y-45230000D02*
X137630000Y-45830000D01*
X137630000Y-45830000D02*
X139230000Y-45830000D01*
X139230000Y-45830000D02*
X139230000Y-45230000D01*
X140170000Y-45230000D02*
X140170000Y-45830000D01*
X140170000Y-45830000D02*
X141770000Y-45830000D01*
X141770000Y-45830000D02*
X141770000Y-45230000D01*
X142710000Y-45230000D02*
X142710000Y-45830000D01*
X142710000Y-45830000D02*
X144310000Y-45830000D01*
X144310000Y-45830000D02*
X144310000Y-45230000D01*
%TO.C,X1*%
X180325000Y-52780000D02*
G75*
G03*
X175275000Y-52780000I-2525000J0D01*
G01*
X180325000Y-59180000D02*
G75*
G02*
X175275000Y-59180000I-2525000J0D01*
G01*
X175275000Y-59180000D02*
X175275000Y-52780000D01*
X180325000Y-59180000D02*
X180325000Y-52780000D01*
%TO.C,U1*%
X168640000Y-48200000D02*
G75*
G02*
X166640000Y-48200000I-1000000J0D01*
G01*
X166640000Y-48200000D02*
X164990000Y-48200000D01*
X164990000Y-48200000D02*
X164990000Y-71180000D01*
X164990000Y-71180000D02*
X170290000Y-71180000D01*
X170290000Y-71180000D02*
X170290000Y-48200000D01*
X170290000Y-48200000D02*
X168640000Y-48200000D01*
%TO.C,SW1*%
X143610000Y-61120000D02*
X155910000Y-61120000D01*
X155910000Y-65700000D02*
X155910000Y-68840000D01*
X155910000Y-73420000D02*
X143610000Y-73420000D01*
X143610000Y-63840000D02*
X143610000Y-61120000D01*
X154439050Y-67310000D02*
G75*
G03*
X154439050Y-67310000I-4579050J0D01*
G01*
X143610000Y-73420000D02*
X143610000Y-70700000D01*
X143610000Y-68840000D02*
X143610000Y-65700000D01*
X155910000Y-70700000D02*
X155910000Y-73420000D01*
X155910000Y-61120000D02*
X155910000Y-63840000D01*
%TO.C,R2*%
X201280000Y-58770000D02*
X201280000Y-60610000D01*
X201280000Y-60610000D02*
X205120000Y-60610000D01*
X205120000Y-60610000D02*
X205120000Y-58770000D01*
X205120000Y-58770000D02*
X201280000Y-58770000D01*
X200330000Y-59690000D02*
X201280000Y-59690000D01*
X206070000Y-59690000D02*
X205120000Y-59690000D01*
%TO.C,R1*%
X159100000Y-62880000D02*
X160940000Y-62880000D01*
X160940000Y-62880000D02*
X160940000Y-59040000D01*
X160940000Y-59040000D02*
X159100000Y-59040000D01*
X159100000Y-59040000D02*
X159100000Y-62880000D01*
X160020000Y-63830000D02*
X160020000Y-62880000D01*
X160020000Y-58090000D02*
X160020000Y-59040000D01*
%TO.C,J2*%
X216390000Y-48150000D02*
X210370000Y-48150000D01*
X210370000Y-48150000D02*
X210370000Y-76310000D01*
X210370000Y-76310000D02*
X216390000Y-76310000D01*
X216390000Y-76310000D02*
X216390000Y-48150000D01*
X215360000Y-47860000D02*
X211360000Y-47860000D01*
X210370000Y-49530000D02*
X211370000Y-49530000D01*
X211370000Y-49530000D02*
X211370000Y-54610000D01*
X211370000Y-54610000D02*
X210370000Y-54610000D01*
X211370000Y-49530000D02*
X211900000Y-49780000D01*
X211900000Y-49780000D02*
X211900000Y-54610000D01*
X211900000Y-54610000D02*
X211370000Y-54610000D01*
X210370000Y-49780000D02*
X211370000Y-49780000D01*
X210370000Y-74930000D02*
X211370000Y-74930000D01*
X211370000Y-74930000D02*
X211370000Y-69850000D01*
X211370000Y-69850000D02*
X210370000Y-69850000D01*
X211370000Y-74930000D02*
X211900000Y-74680000D01*
X211900000Y-74680000D02*
X211900000Y-69850000D01*
X211900000Y-69850000D02*
X211370000Y-69850000D01*
X210370000Y-74680000D02*
X211370000Y-74680000D01*
X216390000Y-48730000D02*
X215790000Y-48730000D01*
X215790000Y-48730000D02*
X215790000Y-50330000D01*
X215790000Y-50330000D02*
X216390000Y-50330000D01*
X216390000Y-51270000D02*
X215790000Y-51270000D01*
X215790000Y-51270000D02*
X215790000Y-52870000D01*
X215790000Y-52870000D02*
X216390000Y-52870000D01*
X216390000Y-53810000D02*
X215790000Y-53810000D01*
X215790000Y-53810000D02*
X215790000Y-55410000D01*
X215790000Y-55410000D02*
X216390000Y-55410000D01*
X216390000Y-56350000D02*
X215790000Y-56350000D01*
X215790000Y-56350000D02*
X215790000Y-57950000D01*
X215790000Y-57950000D02*
X216390000Y-57950000D01*
X216390000Y-58890000D02*
X215790000Y-58890000D01*
X215790000Y-58890000D02*
X215790000Y-60490000D01*
X215790000Y-60490000D02*
X216390000Y-60490000D01*
X216390000Y-61430000D02*
X215790000Y-61430000D01*
X215790000Y-61430000D02*
X215790000Y-63030000D01*
X215790000Y-63030000D02*
X216390000Y-63030000D01*
X216390000Y-63970000D02*
X215790000Y-63970000D01*
X215790000Y-63970000D02*
X215790000Y-65570000D01*
X215790000Y-65570000D02*
X216390000Y-65570000D01*
X216390000Y-66510000D02*
X215790000Y-66510000D01*
X215790000Y-66510000D02*
X215790000Y-68110000D01*
X215790000Y-68110000D02*
X216390000Y-68110000D01*
X216390000Y-69050000D02*
X215790000Y-69050000D01*
X215790000Y-69050000D02*
X215790000Y-70650000D01*
X215790000Y-70650000D02*
X216390000Y-70650000D01*
X216390000Y-71590000D02*
X215790000Y-71590000D01*
X215790000Y-71590000D02*
X215790000Y-73190000D01*
X215790000Y-73190000D02*
X216390000Y-73190000D01*
X216390000Y-74130000D02*
X215790000Y-74130000D01*
X215790000Y-74130000D02*
X215790000Y-75730000D01*
X215790000Y-75730000D02*
X216390000Y-75730000D01*
%TO.C,J1*%
X147210000Y-49040000D02*
X147210000Y-55060000D01*
X147210000Y-55060000D02*
X157590000Y-55060000D01*
X157590000Y-55060000D02*
X157590000Y-49040000D01*
X157590000Y-49040000D02*
X147210000Y-49040000D01*
X146920000Y-50070000D02*
X146920000Y-54070000D01*
X148590000Y-55060000D02*
X148590000Y-54060000D01*
X148590000Y-54060000D02*
X156210000Y-54060000D01*
X156210000Y-54060000D02*
X156210000Y-55060000D01*
X148590000Y-54060000D02*
X148840000Y-53530000D01*
X148840000Y-53530000D02*
X155960000Y-53530000D01*
X155960000Y-53530000D02*
X156210000Y-54060000D01*
X148840000Y-55060000D02*
X148840000Y-54060000D01*
X155960000Y-55060000D02*
X155960000Y-54060000D01*
X147790000Y-49040000D02*
X147790000Y-49640000D01*
X147790000Y-49640000D02*
X149390000Y-49640000D01*
X149390000Y-49640000D02*
X149390000Y-49040000D01*
X150330000Y-49040000D02*
X150330000Y-49640000D01*
X150330000Y-49640000D02*
X151930000Y-49640000D01*
X151930000Y-49640000D02*
X151930000Y-49040000D01*
X152870000Y-49040000D02*
X152870000Y-49640000D01*
X152870000Y-49640000D02*
X154470000Y-49640000D01*
X154470000Y-49640000D02*
X154470000Y-49040000D01*
X155410000Y-49040000D02*
X155410000Y-49640000D01*
X155410000Y-49640000D02*
X157010000Y-49640000D01*
X157010000Y-49640000D02*
X157010000Y-49040000D01*
%TO.C,D1*%
X191320000Y-59690462D02*
G75*
G02*
X196870000Y-58145170I2990000J462D01*
G01*
X191320000Y-59689538D02*
G75*
G03*
X196870000Y-61234830I2990000J-462D01*
G01*
X196810000Y-59690000D02*
G75*
G03*
X196810000Y-59690000I-2500000J0D01*
G01*
X196870000Y-61235000D02*
X196870000Y-58145000D01*
%TO.C,C2*%
X181510000Y-50720000D02*
X189250000Y-50720000D01*
X181510000Y-55960000D02*
X189250000Y-55960000D01*
X181510000Y-50720000D02*
X181510000Y-55960000D01*
X189250000Y-50720000D02*
X189250000Y-55960000D01*
%TO.C,C1*%
X181510000Y-57070000D02*
X189250000Y-57070000D01*
X181510000Y-62310000D02*
X189250000Y-62310000D01*
X181510000Y-57070000D02*
X181510000Y-62310000D01*
X189250000Y-57070000D02*
X189250000Y-62310000D01*
%TO.C,REF\u002A\u002A*%
D11*
X133286666Y-44592380D02*
X132953333Y-44116190D01*
X132715238Y-44592380D02*
X132715238Y-43592380D01*
X133096190Y-43592380D01*
X133191428Y-43640000D01*
X133239047Y-43687619D01*
X133286666Y-43782857D01*
X133286666Y-43925714D01*
X133239047Y-44020952D01*
X133191428Y-44068571D01*
X133096190Y-44116190D01*
X132715238Y-44116190D01*
X133715238Y-44068571D02*
X134048571Y-44068571D01*
X134191428Y-44592380D02*
X133715238Y-44592380D01*
X133715238Y-43592380D01*
X134191428Y-43592380D01*
X134953333Y-44068571D02*
X134620000Y-44068571D01*
X134620000Y-44592380D02*
X134620000Y-43592380D01*
X135096190Y-43592380D01*
X135620000Y-43592380D02*
X135620000Y-43830476D01*
X135381904Y-43735238D02*
X135620000Y-43830476D01*
X135858095Y-43735238D01*
X135477142Y-44020952D02*
X135620000Y-43830476D01*
X135762857Y-44020952D01*
X136381904Y-43592380D02*
X136381904Y-43830476D01*
X136143809Y-43735238D02*
X136381904Y-43830476D01*
X136620000Y-43735238D01*
X136239047Y-44020952D02*
X136381904Y-43830476D01*
X136524761Y-44020952D01*
%TO.C,X1*%
X173727380Y-56789523D02*
X174727380Y-56122857D01*
X173727380Y-56122857D02*
X174727380Y-56789523D01*
X174727380Y-55218095D02*
X174727380Y-55789523D01*
X174727380Y-55503809D02*
X173727380Y-55503809D01*
X173870238Y-55599047D01*
X173965476Y-55694285D01*
X174013095Y-55789523D01*
%TO.C,U1*%
X166878095Y-46652380D02*
X166878095Y-47461904D01*
X166925714Y-47557142D01*
X166973333Y-47604761D01*
X167068571Y-47652380D01*
X167259047Y-47652380D01*
X167354285Y-47604761D01*
X167401904Y-47557142D01*
X167449523Y-47461904D01*
X167449523Y-46652380D01*
X168449523Y-47652380D02*
X167878095Y-47652380D01*
X168163809Y-47652380D02*
X168163809Y-46652380D01*
X168068571Y-46795238D01*
X167973333Y-46890476D01*
X167878095Y-46938095D01*
%TO.C,SW1*%
X148256666Y-60514761D02*
X148399523Y-60562380D01*
X148637619Y-60562380D01*
X148732857Y-60514761D01*
X148780476Y-60467142D01*
X148828095Y-60371904D01*
X148828095Y-60276666D01*
X148780476Y-60181428D01*
X148732857Y-60133809D01*
X148637619Y-60086190D01*
X148447142Y-60038571D01*
X148351904Y-59990952D01*
X148304285Y-59943333D01*
X148256666Y-59848095D01*
X148256666Y-59752857D01*
X148304285Y-59657619D01*
X148351904Y-59610000D01*
X148447142Y-59562380D01*
X148685238Y-59562380D01*
X148828095Y-59610000D01*
X149161428Y-59562380D02*
X149399523Y-60562380D01*
X149590000Y-59848095D01*
X149780476Y-60562380D01*
X150018571Y-59562380D01*
X150923333Y-60562380D02*
X150351904Y-60562380D01*
X150637619Y-60562380D02*
X150637619Y-59562380D01*
X150542380Y-59705238D01*
X150447142Y-59800476D01*
X150351904Y-59848095D01*
%TO.C,R2*%
X203033333Y-58222380D02*
X202700000Y-57746190D01*
X202461904Y-58222380D02*
X202461904Y-57222380D01*
X202842857Y-57222380D01*
X202938095Y-57270000D01*
X202985714Y-57317619D01*
X203033333Y-57412857D01*
X203033333Y-57555714D01*
X202985714Y-57650952D01*
X202938095Y-57698571D01*
X202842857Y-57746190D01*
X202461904Y-57746190D01*
X203414285Y-57317619D02*
X203461904Y-57270000D01*
X203557142Y-57222380D01*
X203795238Y-57222380D01*
X203890476Y-57270000D01*
X203938095Y-57317619D01*
X203985714Y-57412857D01*
X203985714Y-57508095D01*
X203938095Y-57650952D01*
X203366666Y-58222380D01*
X203985714Y-58222380D01*
%TO.C,R1*%
X158552380Y-61126666D02*
X158076190Y-61460000D01*
X158552380Y-61698095D02*
X157552380Y-61698095D01*
X157552380Y-61317142D01*
X157600000Y-61221904D01*
X157647619Y-61174285D01*
X157742857Y-61126666D01*
X157885714Y-61126666D01*
X157980952Y-61174285D01*
X158028571Y-61221904D01*
X158076190Y-61317142D01*
X158076190Y-61698095D01*
X158552380Y-60174285D02*
X158552380Y-60745714D01*
X158552380Y-60460000D02*
X157552380Y-60460000D01*
X157695238Y-60555238D01*
X157790476Y-60650476D01*
X157838095Y-60745714D01*
%TO.C,J2*%
X216932380Y-62563333D02*
X217646666Y-62563333D01*
X217789523Y-62610952D01*
X217884761Y-62706190D01*
X217932380Y-62849047D01*
X217932380Y-62944285D01*
X217027619Y-62134761D02*
X216980000Y-62087142D01*
X216932380Y-61991904D01*
X216932380Y-61753809D01*
X216980000Y-61658571D01*
X217027619Y-61610952D01*
X217122857Y-61563333D01*
X217218095Y-61563333D01*
X217360952Y-61610952D01*
X217932380Y-62182380D01*
X217932380Y-61563333D01*
%TO.C,J1*%
X152066666Y-47402380D02*
X152066666Y-48116666D01*
X152019047Y-48259523D01*
X151923809Y-48354761D01*
X151780952Y-48402380D01*
X151685714Y-48402380D01*
X153066666Y-48402380D02*
X152495238Y-48402380D01*
X152780952Y-48402380D02*
X152780952Y-47402380D01*
X152685714Y-47545238D01*
X152590476Y-47640476D01*
X152495238Y-47688095D01*
%TO.C,D1*%
X193571904Y-64102380D02*
X193571904Y-63102380D01*
X193810000Y-63102380D01*
X193952857Y-63150000D01*
X194048095Y-63245238D01*
X194095714Y-63340476D01*
X194143333Y-63530952D01*
X194143333Y-63673809D01*
X194095714Y-63864285D01*
X194048095Y-63959523D01*
X193952857Y-64054761D01*
X193810000Y-64102380D01*
X193571904Y-64102380D01*
X195095714Y-64102380D02*
X194524285Y-64102380D01*
X194810000Y-64102380D02*
X194810000Y-63102380D01*
X194714761Y-63245238D01*
X194619523Y-63340476D01*
X194524285Y-63388095D01*
%TO.C,C2*%
X185213333Y-49947142D02*
X185165714Y-49994761D01*
X185022857Y-50042380D01*
X184927619Y-50042380D01*
X184784761Y-49994761D01*
X184689523Y-49899523D01*
X184641904Y-49804285D01*
X184594285Y-49613809D01*
X184594285Y-49470952D01*
X184641904Y-49280476D01*
X184689523Y-49185238D01*
X184784761Y-49090000D01*
X184927619Y-49042380D01*
X185022857Y-49042380D01*
X185165714Y-49090000D01*
X185213333Y-49137619D01*
X185594285Y-49137619D02*
X185641904Y-49090000D01*
X185737142Y-49042380D01*
X185975238Y-49042380D01*
X186070476Y-49090000D01*
X186118095Y-49137619D01*
X186165714Y-49232857D01*
X186165714Y-49328095D01*
X186118095Y-49470952D01*
X185546666Y-50042380D01*
X186165714Y-50042380D01*
%TO.C,C1*%
X185213333Y-56297142D02*
X185165714Y-56344761D01*
X185022857Y-56392380D01*
X184927619Y-56392380D01*
X184784761Y-56344761D01*
X184689523Y-56249523D01*
X184641904Y-56154285D01*
X184594285Y-55963809D01*
X184594285Y-55820952D01*
X184641904Y-55630476D01*
X184689523Y-55535238D01*
X184784761Y-55440000D01*
X184927619Y-55392380D01*
X185022857Y-55392380D01*
X185165714Y-55440000D01*
X185213333Y-55487619D01*
X186165714Y-56392380D02*
X185594285Y-56392380D01*
X185880000Y-56392380D02*
X185880000Y-55392380D01*
X185784761Y-55535238D01*
X185689523Y-55630476D01*
X185594285Y-55678095D01*
%TD*%
M02*
