%TF.GenerationSoftware,KiCad,Pcbnew,5.1.6-c6e7f7d~86~ubuntu16.04.1*%
%TF.CreationDate,2020-07-22T20:39:57+01:00*%
%TF.ProjectId,pic_proto1,7069635f-7072-46f7-946f-312e6b696361,rev?*%
%TF.SameCoordinates,Original*%
%TF.FileFunction,Soldermask,Bot*%
%TF.FilePolarity,Negative*%
%FSLAX46Y46*%
G04 Gerber Fmt 4.6, Leading zero omitted, Abs format (unit mm)*
G04 Created by KiCad (PCBNEW 5.1.6-c6e7f7d~86~ubuntu16.04.1) date 2020-07-22 20:39:57*
%MOMM*%
%LPD*%
G01*
G04 APERTURE LIST*
%ADD10O,1.840000X2.290000*%
%ADD11C,1.600000*%
%ADD12O,1.700000X1.700000*%
%ADD13R,1.700000X1.700000*%
%ADD14O,3.148000X1.950000*%
%ADD15O,1.500000X1.500000*%
%ADD16C,1.500000*%
%ADD17O,2.290000X1.840000*%
%ADD18C,1.900000*%
%ADD19R,1.900000X1.900000*%
%ADD20C,2.100000*%
G04 APERTURE END LIST*
D10*
%TO.C,REF\u002A\u002A*%
X143510000Y-48260000D03*
X140970000Y-48260000D03*
X138430000Y-48260000D03*
X135890000Y-48260000D03*
X133350000Y-48260000D03*
X130810000Y-48260000D03*
X128270000Y-48260000D03*
G36*
G01*
X124810000Y-49140633D02*
X124810000Y-47379367D01*
G75*
G02*
X125074367Y-47115000I264367J0D01*
G01*
X126385633Y-47115000D01*
G75*
G02*
X126650000Y-47379367I0J-264367D01*
G01*
X126650000Y-49140633D01*
G75*
G02*
X126385633Y-49405000I-264367J0D01*
G01*
X125074367Y-49405000D01*
G75*
G02*
X124810000Y-49140633I0J264367D01*
G01*
G37*
%TD*%
D11*
%TO.C,X1*%
X177800000Y-53540000D03*
X177800000Y-58420000D03*
%TD*%
D12*
%TO.C,U1*%
X171450000Y-49530000D03*
X163830000Y-69850000D03*
X171450000Y-52070000D03*
X163830000Y-67310000D03*
X171450000Y-54610000D03*
X163830000Y-64770000D03*
X171450000Y-57150000D03*
X163830000Y-62230000D03*
X171450000Y-59690000D03*
X163830000Y-59690000D03*
X171450000Y-62230000D03*
X163830000Y-57150000D03*
X171450000Y-64770000D03*
X163830000Y-54610000D03*
X171450000Y-67310000D03*
X163830000Y-52070000D03*
X171450000Y-69850000D03*
D13*
X163830000Y-49530000D03*
%TD*%
D14*
%TO.C,SW1*%
X143510000Y-69770000D03*
X143510000Y-64770000D03*
X156010000Y-69770000D03*
X156010000Y-64770000D03*
%TD*%
D15*
%TO.C,R2*%
X207010000Y-59690000D03*
D16*
X199390000Y-59690000D03*
%TD*%
D15*
%TO.C,R1*%
X160020000Y-57150000D03*
D16*
X160020000Y-64770000D03*
%TD*%
D17*
%TO.C,J2*%
X213360000Y-74930000D03*
X213360000Y-72390000D03*
X213360000Y-69850000D03*
X213360000Y-67310000D03*
X213360000Y-64770000D03*
X213360000Y-62230000D03*
X213360000Y-59690000D03*
X213360000Y-57150000D03*
X213360000Y-54610000D03*
X213360000Y-52070000D03*
G36*
G01*
X212479367Y-48610000D02*
X214240633Y-48610000D01*
G75*
G02*
X214505000Y-48874367I0J-264367D01*
G01*
X214505000Y-50185633D01*
G75*
G02*
X214240633Y-50450000I-264367J0D01*
G01*
X212479367Y-50450000D01*
G75*
G02*
X212215000Y-50185633I0J264367D01*
G01*
X212215000Y-48874367D01*
G75*
G02*
X212479367Y-48610000I264367J0D01*
G01*
G37*
%TD*%
D10*
%TO.C,J1*%
X156210000Y-52070000D03*
X153670000Y-52070000D03*
X151130000Y-52070000D03*
G36*
G01*
X147670000Y-52950633D02*
X147670000Y-51189367D01*
G75*
G02*
X147934367Y-50925000I264367J0D01*
G01*
X149245633Y-50925000D01*
G75*
G02*
X149510000Y-51189367I0J-264367D01*
G01*
X149510000Y-52950633D01*
G75*
G02*
X149245633Y-53215000I-264367J0D01*
G01*
X147934367Y-53215000D01*
G75*
G02*
X147670000Y-52950633I0J264367D01*
G01*
G37*
%TD*%
D18*
%TO.C,D1*%
X193040000Y-59690000D03*
D19*
X195580000Y-59690000D03*
%TD*%
D20*
%TO.C,C2*%
X187880000Y-53340000D03*
X182880000Y-53340000D03*
%TD*%
%TO.C,C1*%
X187880000Y-59690000D03*
X182880000Y-59690000D03*
%TD*%
M02*
