%TF.GenerationSoftware,KiCad,Pcbnew,5.1.6-c6e7f7d~86~ubuntu16.04.1*%
%TF.CreationDate,2020-07-22T20:39:57+01:00*%
%TF.ProjectId,pic_proto1,7069635f-7072-46f7-946f-312e6b696361,rev?*%
%TF.SameCoordinates,Original*%
%TF.FileFunction,Copper,L1,Top*%
%TF.FilePolarity,Positive*%
%FSLAX46Y46*%
G04 Gerber Fmt 4.6, Leading zero omitted, Abs format (unit mm)*
G04 Created by KiCad (PCBNEW 5.1.6-c6e7f7d~86~ubuntu16.04.1) date 2020-07-22 20:39:57*
%MOMM*%
%LPD*%
G01*
G04 APERTURE LIST*
%TA.AperFunction,ComponentPad*%
%ADD10O,1.740000X2.190000*%
%TD*%
%TA.AperFunction,ComponentPad*%
%ADD11C,1.500000*%
%TD*%
%TA.AperFunction,ComponentPad*%
%ADD12O,1.600000X1.600000*%
%TD*%
%TA.AperFunction,ComponentPad*%
%ADD13R,1.600000X1.600000*%
%TD*%
%TA.AperFunction,ComponentPad*%
%ADD14O,3.048000X1.850000*%
%TD*%
%TA.AperFunction,ComponentPad*%
%ADD15O,1.400000X1.400000*%
%TD*%
%TA.AperFunction,ComponentPad*%
%ADD16C,1.400000*%
%TD*%
%TA.AperFunction,ComponentPad*%
%ADD17O,2.190000X1.740000*%
%TD*%
%TA.AperFunction,ComponentPad*%
%ADD18C,1.800000*%
%TD*%
%TA.AperFunction,ComponentPad*%
%ADD19R,1.800000X1.800000*%
%TD*%
%TA.AperFunction,ComponentPad*%
%ADD20C,2.000000*%
%TD*%
%TA.AperFunction,ViaPad*%
%ADD21C,1.100000*%
%TD*%
%TA.AperFunction,ViaPad*%
%ADD22C,0.800000*%
%TD*%
%TA.AperFunction,Conductor*%
%ADD23C,0.400000*%
%TD*%
G04 APERTURE END LIST*
D10*
%TO.P,REF\u002A\u002A,8*%
%TO.N,N/C*%
X143510000Y-48260000D03*
%TO.P,REF\u002A\u002A,7*%
X140970000Y-48260000D03*
%TO.P,REF\u002A\u002A,6*%
X138430000Y-48260000D03*
%TO.P,REF\u002A\u002A,5*%
X135890000Y-48260000D03*
%TO.P,REF\u002A\u002A,4*%
X133350000Y-48260000D03*
%TO.P,REF\u002A\u002A,3*%
X130810000Y-48260000D03*
%TO.P,REF\u002A\u002A,2*%
X128270000Y-48260000D03*
%TO.P,REF\u002A\u002A,1*%
%TA.AperFunction,ComponentPad*%
G36*
G01*
X124860000Y-49105001D02*
X124860000Y-47414999D01*
G75*
G02*
X125109999Y-47165000I249999J0D01*
G01*
X126350001Y-47165000D01*
G75*
G02*
X126600000Y-47414999I0J-249999D01*
G01*
X126600000Y-49105001D01*
G75*
G02*
X126350001Y-49355000I-249999J0D01*
G01*
X125109999Y-49355000D01*
G75*
G02*
X124860000Y-49105001I0J249999D01*
G01*
G37*
%TD.AperFunction*%
%TD*%
D11*
%TO.P,X1,2*%
%TO.N,Net-(C2-Pad1)*%
X177800000Y-53540000D03*
%TO.P,X1,1*%
%TO.N,Net-(C1-Pad1)*%
X177800000Y-58420000D03*
%TD*%
D12*
%TO.P,U1,18*%
%TO.N,IO1*%
X171450000Y-49530000D03*
%TO.P,U1,9*%
%TO.N,Net-(J2-Pad7)*%
X163830000Y-69850000D03*
%TO.P,U1,17*%
%TO.N,Net-(D1-Pad2)*%
X171450000Y-52070000D03*
%TO.P,U1,8*%
%TO.N,Net-(J2-Pad6)*%
X163830000Y-67310000D03*
%TO.P,U1,16*%
%TO.N,Net-(C2-Pad1)*%
X171450000Y-54610000D03*
%TO.P,U1,7*%
%TO.N,Net-(J2-Pad5)*%
X163830000Y-64770000D03*
%TO.P,U1,15*%
%TO.N,Net-(C1-Pad1)*%
X171450000Y-57150000D03*
%TO.P,U1,6*%
%TO.N,Net-(J2-Pad4)*%
X163830000Y-62230000D03*
%TO.P,U1,14*%
%TO.N,+5V*%
X171450000Y-59690000D03*
%TO.P,U1,5*%
%TO.N,GND*%
X163830000Y-59690000D03*
%TO.P,U1,13*%
%TO.N,Net-(J2-Pad11)*%
X171450000Y-62230000D03*
%TO.P,U1,4*%
%TO.N,Net-(R1-Pad2)*%
X163830000Y-57150000D03*
%TO.P,U1,12*%
%TO.N,Net-(J2-Pad10)*%
X171450000Y-64770000D03*
%TO.P,U1,3*%
%TO.N,IO4*%
X163830000Y-54610000D03*
%TO.P,U1,11*%
%TO.N,Net-(J2-Pad9)*%
X171450000Y-67310000D03*
%TO.P,U1,2*%
%TO.N,IO3*%
X163830000Y-52070000D03*
%TO.P,U1,10*%
%TO.N,Net-(J2-Pad8)*%
X171450000Y-69850000D03*
D13*
%TO.P,U1,1*%
%TO.N,IO2*%
X163830000Y-49530000D03*
%TD*%
D14*
%TO.P,SW1,2*%
%TO.N,GND*%
X143510000Y-69770000D03*
%TO.P,SW1,1*%
%TO.N,Net-(R1-Pad2)*%
X143510000Y-64770000D03*
%TO.P,SW1,2*%
%TO.N,GND*%
X156010000Y-69770000D03*
%TO.P,SW1,1*%
%TO.N,Net-(R1-Pad2)*%
X156010000Y-64770000D03*
%TD*%
D15*
%TO.P,R2,2*%
%TO.N,GND*%
X207010000Y-59690000D03*
D16*
%TO.P,R2,1*%
%TO.N,Net-(D1-Pad1)*%
X199390000Y-59690000D03*
%TD*%
D15*
%TO.P,R1,2*%
%TO.N,Net-(R1-Pad2)*%
X160020000Y-57150000D03*
D16*
%TO.P,R1,1*%
%TO.N,+5V*%
X160020000Y-64770000D03*
%TD*%
D17*
%TO.P,J2,11*%
%TO.N,Net-(J2-Pad11)*%
X213360000Y-74930000D03*
%TO.P,J2,10*%
%TO.N,Net-(J2-Pad10)*%
X213360000Y-72390000D03*
%TO.P,J2,9*%
%TO.N,Net-(J2-Pad9)*%
X213360000Y-69850000D03*
%TO.P,J2,8*%
%TO.N,Net-(J2-Pad8)*%
X213360000Y-67310000D03*
%TO.P,J2,7*%
%TO.N,Net-(J2-Pad7)*%
X213360000Y-64770000D03*
%TO.P,J2,6*%
%TO.N,Net-(J2-Pad6)*%
X213360000Y-62230000D03*
%TO.P,J2,5*%
%TO.N,Net-(J2-Pad5)*%
X213360000Y-59690000D03*
%TO.P,J2,4*%
%TO.N,Net-(J2-Pad4)*%
X213360000Y-57150000D03*
%TO.P,J2,3*%
%TO.N,GND*%
X213360000Y-54610000D03*
%TO.P,J2,2*%
%TO.N,+5V*%
X213360000Y-52070000D03*
%TO.P,J2,1*%
%TO.N,N/C*%
%TA.AperFunction,ComponentPad*%
G36*
G01*
X212514999Y-48660000D02*
X214205001Y-48660000D01*
G75*
G02*
X214455000Y-48909999I0J-249999D01*
G01*
X214455000Y-50150001D01*
G75*
G02*
X214205001Y-50400000I-249999J0D01*
G01*
X212514999Y-50400000D01*
G75*
G02*
X212265000Y-50150001I0J249999D01*
G01*
X212265000Y-48909999D01*
G75*
G02*
X212514999Y-48660000I249999J0D01*
G01*
G37*
%TD.AperFunction*%
%TD*%
D10*
%TO.P,J1,4*%
%TO.N,IO1*%
X156210000Y-52070000D03*
%TO.P,J1,3*%
%TO.N,IO2*%
X153670000Y-52070000D03*
%TO.P,J1,2*%
%TO.N,IO3*%
X151130000Y-52070000D03*
%TO.P,J1,1*%
%TO.N,IO4*%
%TA.AperFunction,ComponentPad*%
G36*
G01*
X147720000Y-52915001D02*
X147720000Y-51224999D01*
G75*
G02*
X147969999Y-50975000I249999J0D01*
G01*
X149210001Y-50975000D01*
G75*
G02*
X149460000Y-51224999I0J-249999D01*
G01*
X149460000Y-52915001D01*
G75*
G02*
X149210001Y-53165000I-249999J0D01*
G01*
X147969999Y-53165000D01*
G75*
G02*
X147720000Y-52915001I0J249999D01*
G01*
G37*
%TD.AperFunction*%
%TD*%
D18*
%TO.P,D1,2*%
%TO.N,Net-(D1-Pad2)*%
X193040000Y-59690000D03*
D19*
%TO.P,D1,1*%
%TO.N,Net-(D1-Pad1)*%
X195580000Y-59690000D03*
%TD*%
D20*
%TO.P,C2,2*%
%TO.N,GND*%
X187880000Y-53340000D03*
%TO.P,C2,1*%
%TO.N,Net-(C2-Pad1)*%
X182880000Y-53340000D03*
%TD*%
%TO.P,C1,2*%
%TO.N,GND*%
X187880000Y-59690000D03*
%TO.P,C1,1*%
%TO.N,Net-(C1-Pad1)*%
X182880000Y-59690000D03*
%TD*%
D21*
%TO.N,*%
X143510000Y-50800000D03*
X143510000Y-52070000D03*
X143510000Y-53340000D03*
X143510000Y-54610000D03*
X143510000Y-55880000D03*
X142240000Y-55880000D03*
X140970000Y-55880000D03*
X140970000Y-54610000D03*
X142240000Y-54610000D03*
X142240000Y-53340000D03*
X140970000Y-53340000D03*
X140970000Y-52070000D03*
X142240000Y-52070000D03*
X142240000Y-50800000D03*
X140970000Y-50800000D03*
X139700000Y-50800000D03*
X139700000Y-52070000D03*
X139700000Y-53340000D03*
X139700000Y-54610000D03*
X139700000Y-55880000D03*
X139700000Y-57150000D03*
X139700000Y-58420000D03*
X139700000Y-59690000D03*
X140970000Y-59690000D03*
X140970000Y-58420000D03*
X140970000Y-57150000D03*
X142240000Y-57150000D03*
X142240000Y-58420000D03*
X142240000Y-59690000D03*
X143510000Y-59690000D03*
X143510000Y-58420000D03*
X143510000Y-57150000D03*
X139700000Y-60960000D03*
X139700000Y-62230000D03*
X139700000Y-63500000D03*
X139700000Y-64770000D03*
X139700000Y-66040000D03*
X139700000Y-67310000D03*
X139700000Y-68580000D03*
X139700000Y-69850000D03*
X139700000Y-71120000D03*
X139700000Y-72390000D03*
X139700000Y-73660000D03*
X139700000Y-74930000D03*
X139700000Y-76200000D03*
X138430000Y-69850000D03*
X138430000Y-58420000D03*
X138430000Y-50800000D03*
X138430000Y-67310000D03*
X138430000Y-63500000D03*
X138430000Y-74930000D03*
X138430000Y-54610000D03*
X138430000Y-59690000D03*
X138430000Y-62230000D03*
X138430000Y-64770000D03*
X138430000Y-68580000D03*
X138430000Y-53340000D03*
X138430000Y-52070000D03*
X138430000Y-72390000D03*
X138430000Y-60960000D03*
X138430000Y-71120000D03*
X138430000Y-76200000D03*
X138430000Y-73660000D03*
X138430000Y-66040000D03*
X138430000Y-55880000D03*
X138430000Y-57150000D03*
X138430000Y-69850000D03*
X138430000Y-58420000D03*
X138430000Y-50800000D03*
X138430000Y-67310000D03*
X138430000Y-63500000D03*
X138430000Y-74930000D03*
X138430000Y-54610000D03*
X138430000Y-59690000D03*
X138430000Y-62230000D03*
X138430000Y-64770000D03*
X138430000Y-68580000D03*
X138430000Y-53340000D03*
X138430000Y-52070000D03*
X138430000Y-72390000D03*
X138430000Y-60960000D03*
X138430000Y-71120000D03*
X138430000Y-76200000D03*
X138430000Y-73660000D03*
X138430000Y-66040000D03*
X138430000Y-55880000D03*
X138430000Y-57150000D03*
X138430000Y-69850000D03*
X138430000Y-58420000D03*
X138430000Y-50800000D03*
X138430000Y-67310000D03*
X138430000Y-63500000D03*
X138430000Y-74930000D03*
X138430000Y-54610000D03*
X138430000Y-59690000D03*
X138430000Y-62230000D03*
X138430000Y-64770000D03*
X138430000Y-68580000D03*
X138430000Y-53340000D03*
X138430000Y-52070000D03*
X138430000Y-72390000D03*
X138430000Y-60960000D03*
X138430000Y-71120000D03*
X138430000Y-76200000D03*
X138430000Y-73660000D03*
X138430000Y-66040000D03*
X138430000Y-55880000D03*
X138430000Y-57150000D03*
X137160000Y-69850000D03*
X137160000Y-58420000D03*
X137160000Y-50800000D03*
X137160000Y-67310000D03*
X137160000Y-63500000D03*
X137160000Y-74930000D03*
X137160000Y-54610000D03*
X137160000Y-59690000D03*
X137160000Y-62230000D03*
X137160000Y-64770000D03*
X137160000Y-68580000D03*
X137160000Y-53340000D03*
X137160000Y-52070000D03*
X137160000Y-72390000D03*
X137160000Y-60960000D03*
X137160000Y-71120000D03*
X137160000Y-76200000D03*
X137160000Y-73660000D03*
X137160000Y-66040000D03*
X137160000Y-55880000D03*
X137160000Y-57150000D03*
X135890000Y-69850000D03*
X135890000Y-58420000D03*
X135890000Y-50800000D03*
X135890000Y-67310000D03*
X135890000Y-63500000D03*
X135890000Y-74930000D03*
X135890000Y-54610000D03*
X135890000Y-59690000D03*
X135890000Y-62230000D03*
X135890000Y-64770000D03*
X135890000Y-68580000D03*
X135890000Y-53340000D03*
X135890000Y-52070000D03*
X135890000Y-72390000D03*
X135890000Y-60960000D03*
X135890000Y-71120000D03*
X135890000Y-76200000D03*
X135890000Y-73660000D03*
X135890000Y-66040000D03*
X135890000Y-55880000D03*
X135890000Y-57150000D03*
X134620000Y-69850000D03*
X134620000Y-58420000D03*
X134620000Y-50800000D03*
X134620000Y-67310000D03*
X134620000Y-63500000D03*
X134620000Y-74930000D03*
X134620000Y-54610000D03*
X134620000Y-59690000D03*
X134620000Y-62230000D03*
X134620000Y-64770000D03*
X134620000Y-68580000D03*
X134620000Y-53340000D03*
X134620000Y-52070000D03*
X134620000Y-72390000D03*
X134620000Y-60960000D03*
X134620000Y-71120000D03*
X134620000Y-76200000D03*
X134620000Y-73660000D03*
X134620000Y-66040000D03*
X134620000Y-55880000D03*
X134620000Y-57150000D03*
X133350000Y-64770000D03*
X133350000Y-69850000D03*
X133350000Y-53340000D03*
X133350000Y-73660000D03*
X133350000Y-71120000D03*
X132080000Y-59690000D03*
X133350000Y-59690000D03*
X133350000Y-76200000D03*
X133350000Y-73660000D03*
X133350000Y-64770000D03*
X133350000Y-72390000D03*
X130810000Y-53340000D03*
X129540000Y-52070000D03*
X129540000Y-72390000D03*
X132080000Y-62230000D03*
X130810000Y-66040000D03*
X133350000Y-50800000D03*
X133350000Y-54610000D03*
X132080000Y-74930000D03*
X130810000Y-57150000D03*
X129540000Y-60960000D03*
X129540000Y-71120000D03*
X129540000Y-73660000D03*
X129540000Y-57150000D03*
X133350000Y-74930000D03*
X132080000Y-53340000D03*
X133350000Y-58420000D03*
X132080000Y-72390000D03*
X130810000Y-63500000D03*
X129540000Y-69850000D03*
X129540000Y-58420000D03*
X129540000Y-50800000D03*
X132080000Y-69850000D03*
X130810000Y-62230000D03*
X132080000Y-66040000D03*
X130810000Y-54610000D03*
X130810000Y-76200000D03*
X132080000Y-64770000D03*
X129540000Y-74930000D03*
X129540000Y-54610000D03*
X133350000Y-72390000D03*
X133350000Y-69850000D03*
X133350000Y-67310000D03*
X130810000Y-64770000D03*
X133350000Y-66040000D03*
X133350000Y-55880000D03*
X132080000Y-76200000D03*
X133350000Y-68580000D03*
X133350000Y-67310000D03*
X133350000Y-54610000D03*
X133350000Y-50800000D03*
X130810000Y-73660000D03*
X132080000Y-57150000D03*
X133350000Y-63500000D03*
X133350000Y-73660000D03*
X129540000Y-76200000D03*
X133350000Y-60960000D03*
X130810000Y-55880000D03*
X132080000Y-50800000D03*
X129540000Y-59690000D03*
X129540000Y-67310000D03*
X129540000Y-63500000D03*
X133350000Y-53340000D03*
X130810000Y-74930000D03*
X130810000Y-59690000D03*
X132080000Y-54610000D03*
X132080000Y-68580000D03*
X133350000Y-68580000D03*
X133350000Y-52070000D03*
X133350000Y-62230000D03*
X133350000Y-54610000D03*
X133350000Y-62230000D03*
X133350000Y-57150000D03*
X133350000Y-64770000D03*
X132080000Y-60960000D03*
X133350000Y-60960000D03*
X133350000Y-63500000D03*
X130810000Y-68580000D03*
X130810000Y-52070000D03*
X133350000Y-71120000D03*
X133350000Y-76200000D03*
X133350000Y-68580000D03*
X133350000Y-74930000D03*
X130810000Y-67310000D03*
X132080000Y-71120000D03*
X132080000Y-73660000D03*
X133350000Y-76200000D03*
X133350000Y-59690000D03*
X132080000Y-63500000D03*
X133350000Y-74930000D03*
X130810000Y-60960000D03*
X132080000Y-55880000D03*
X129540000Y-68580000D03*
X129540000Y-53340000D03*
X132080000Y-58420000D03*
X133350000Y-57150000D03*
X130810000Y-72390000D03*
X133350000Y-66040000D03*
X133350000Y-67310000D03*
X133350000Y-55880000D03*
X133350000Y-58420000D03*
X130810000Y-71120000D03*
X133350000Y-69850000D03*
X133350000Y-52070000D03*
X133350000Y-66040000D03*
X133350000Y-63500000D03*
X129540000Y-62230000D03*
X129540000Y-64770000D03*
X130810000Y-69850000D03*
X133350000Y-53340000D03*
X133350000Y-57150000D03*
X132080000Y-52070000D03*
X133350000Y-71120000D03*
X133350000Y-60960000D03*
X133350000Y-59690000D03*
X133350000Y-50800000D03*
X130810000Y-58420000D03*
X130810000Y-50800000D03*
X133350000Y-62230000D03*
X133350000Y-55880000D03*
X129540000Y-66040000D03*
X129540000Y-55880000D03*
X133350000Y-72390000D03*
X133350000Y-58420000D03*
X132080000Y-67310000D03*
X133350000Y-52070000D03*
X128270000Y-64770000D03*
X128270000Y-69850000D03*
X128270000Y-53340000D03*
X128270000Y-73660000D03*
X128270000Y-71120000D03*
X127000000Y-59690000D03*
X128270000Y-59690000D03*
X128270000Y-76200000D03*
X128270000Y-73660000D03*
X128270000Y-64770000D03*
X128270000Y-72390000D03*
X125730000Y-53340000D03*
X124460000Y-52070000D03*
X124460000Y-72390000D03*
X127000000Y-62230000D03*
X125730000Y-66040000D03*
X128270000Y-50800000D03*
X128270000Y-54610000D03*
X127000000Y-74930000D03*
X125730000Y-57150000D03*
X124460000Y-60960000D03*
X124460000Y-71120000D03*
X124460000Y-73660000D03*
X124460000Y-57150000D03*
X128270000Y-74930000D03*
X127000000Y-53340000D03*
X128270000Y-58420000D03*
X127000000Y-72390000D03*
X125730000Y-63500000D03*
X124460000Y-69850000D03*
X124460000Y-58420000D03*
X124460000Y-50800000D03*
X127000000Y-69850000D03*
X125730000Y-62230000D03*
X127000000Y-66040000D03*
X125730000Y-54610000D03*
X125730000Y-76200000D03*
X127000000Y-64770000D03*
X124460000Y-74930000D03*
X124460000Y-54610000D03*
X128270000Y-72390000D03*
X128270000Y-69850000D03*
X128270000Y-67310000D03*
X125730000Y-64770000D03*
X128270000Y-66040000D03*
X128270000Y-55880000D03*
X127000000Y-76200000D03*
X128270000Y-68580000D03*
X128270000Y-67310000D03*
X128270000Y-54610000D03*
X128270000Y-50800000D03*
X125730000Y-73660000D03*
X127000000Y-57150000D03*
X128270000Y-63500000D03*
X128270000Y-73660000D03*
X124460000Y-76200000D03*
X128270000Y-60960000D03*
X125730000Y-55880000D03*
X127000000Y-50800000D03*
X124460000Y-59690000D03*
X124460000Y-67310000D03*
X124460000Y-63500000D03*
X128270000Y-53340000D03*
X125730000Y-74930000D03*
X125730000Y-59690000D03*
X127000000Y-54610000D03*
X127000000Y-68580000D03*
X128270000Y-68580000D03*
X128270000Y-52070000D03*
X128270000Y-62230000D03*
X128270000Y-54610000D03*
X128270000Y-62230000D03*
X128270000Y-57150000D03*
X128270000Y-64770000D03*
X127000000Y-60960000D03*
X128270000Y-60960000D03*
X128270000Y-63500000D03*
X125730000Y-68580000D03*
X125730000Y-52070000D03*
X128270000Y-71120000D03*
X128270000Y-76200000D03*
X128270000Y-68580000D03*
X128270000Y-74930000D03*
X125730000Y-67310000D03*
X127000000Y-71120000D03*
X127000000Y-73660000D03*
X128270000Y-76200000D03*
X128270000Y-59690000D03*
X127000000Y-63500000D03*
X128270000Y-74930000D03*
X125730000Y-60960000D03*
X127000000Y-55880000D03*
X124460000Y-68580000D03*
X124460000Y-53340000D03*
X127000000Y-58420000D03*
X128270000Y-57150000D03*
X125730000Y-72390000D03*
X128270000Y-66040000D03*
X128270000Y-67310000D03*
X128270000Y-55880000D03*
X128270000Y-58420000D03*
X125730000Y-71120000D03*
X128270000Y-69850000D03*
X128270000Y-52070000D03*
X128270000Y-66040000D03*
X128270000Y-63500000D03*
X124460000Y-62230000D03*
X124460000Y-64770000D03*
X125730000Y-69850000D03*
X128270000Y-53340000D03*
X128270000Y-57150000D03*
X127000000Y-52070000D03*
X128270000Y-71120000D03*
X128270000Y-60960000D03*
X128270000Y-59690000D03*
X128270000Y-50800000D03*
X125730000Y-58420000D03*
X125730000Y-50800000D03*
X128270000Y-62230000D03*
X128270000Y-55880000D03*
X124460000Y-66040000D03*
X124460000Y-55880000D03*
X128270000Y-72390000D03*
X128270000Y-58420000D03*
X127000000Y-67310000D03*
X128270000Y-52070000D03*
D22*
%TO.N,GND*%
X207010000Y-54610000D03*
X187960000Y-67310000D03*
X167640000Y-68580000D03*
%TO.N,Net-(D1-Pad2)*%
X193040000Y-49530000D03*
%TO.N,Net-(J2-Pad9)*%
X176530000Y-72390000D03*
X176530000Y-67310000D03*
%TO.N,Net-(J2-Pad7)*%
X163830000Y-74930000D03*
X210820000Y-73660000D03*
%TO.N,Net-(J2-Pad6)*%
X166370000Y-76200000D03*
X215900000Y-76200000D03*
%TO.N,Net-(J2-Pad5)*%
X161290000Y-73660000D03*
X208280000Y-73660000D03*
X209550000Y-59690000D03*
%TO.N,Net-(J2-Pad4)*%
X196850000Y-57150000D03*
X195580000Y-67310000D03*
X166370000Y-66040000D03*
%TO.N,+5V*%
X204470000Y-64770000D03*
X204470000Y-52070000D03*
%TD*%
D23*
%TO.N,GND*%
X187960000Y-53420000D02*
X187880000Y-53340000D01*
X187960000Y-54610000D02*
X187960000Y-53420000D01*
X187880000Y-59690000D02*
X187880000Y-53340000D01*
X213360000Y-54610000D02*
X207010000Y-54610000D01*
X207010000Y-54610000D02*
X187960000Y-54610000D01*
X187960000Y-67310000D02*
X186690000Y-68580000D01*
X186690000Y-68580000D02*
X167640000Y-68580000D01*
X157200000Y-68580000D02*
X167640000Y-68580000D01*
X156010000Y-69770000D02*
X157200000Y-68580000D01*
X156010000Y-69770000D02*
X143510000Y-69770000D01*
%TO.N,Net-(C1-Pad1)*%
X171450000Y-57150000D02*
X173990000Y-57150000D01*
X175260000Y-58420000D02*
X177800000Y-58420000D01*
X173990000Y-57150000D02*
X175260000Y-58420000D01*
X177800000Y-58420000D02*
X179070000Y-58420000D01*
X180340000Y-59690000D02*
X182880000Y-59690000D01*
X179070000Y-58420000D02*
X180340000Y-59690000D01*
%TO.N,Net-(C2-Pad1)*%
X178000000Y-53340000D02*
X177800000Y-53540000D01*
X182880000Y-53340000D02*
X178000000Y-53340000D01*
X177800000Y-53540000D02*
X176330000Y-53540000D01*
X175260000Y-54610000D02*
X171450000Y-54610000D01*
X176330000Y-53540000D02*
X175260000Y-54610000D01*
%TO.N,Net-(D1-Pad1)*%
X195580000Y-59690000D02*
X199390000Y-59690000D01*
%TO.N,Net-(D1-Pad2)*%
X171450000Y-52070000D02*
X173990000Y-52070000D01*
X173990000Y-52070000D02*
X176530000Y-49530000D01*
X176530000Y-49530000D02*
X193040000Y-49530000D01*
%TO.N,IO1*%
X171450000Y-49530000D02*
X170180000Y-49530000D01*
X170180000Y-49530000D02*
X167640000Y-46990000D01*
X167640000Y-46990000D02*
X157480000Y-46990000D01*
X156210000Y-48260000D02*
X156210000Y-52070000D01*
X157480000Y-46990000D02*
X156210000Y-48260000D01*
%TO.N,Net-(J2-Pad9)*%
X213360000Y-69850000D02*
X205740000Y-69850000D01*
X203200000Y-72390000D02*
X176530000Y-72390000D01*
X205740000Y-69850000D02*
X203200000Y-72390000D01*
X176530000Y-67310000D02*
X171450000Y-67310000D01*
%TO.N,Net-(J2-Pad8)*%
X171450000Y-69850000D02*
X196850000Y-69850000D01*
X199390000Y-67310000D02*
X213360000Y-67310000D01*
X196850000Y-69850000D02*
X199390000Y-67310000D01*
%TO.N,Net-(J2-Pad7)*%
X209550000Y-74930000D02*
X210820000Y-73660000D01*
X163830000Y-74930000D02*
X209550000Y-74930000D01*
%TO.N,Net-(J2-Pad6)*%
X215900000Y-76200000D02*
X215500001Y-76599999D01*
X215500001Y-76599999D02*
X166769999Y-76599999D01*
X166769999Y-76599999D02*
X166370000Y-76200000D01*
%TO.N,Net-(J2-Pad5)*%
X161290000Y-73660000D02*
X208280000Y-73660000D01*
X209550000Y-59690000D02*
X213360000Y-59690000D01*
%TO.N,Net-(J2-Pad4)*%
X213360000Y-57150000D02*
X196850000Y-57150000D01*
X194310000Y-66040000D02*
X166370000Y-66040000D01*
X195580000Y-67310000D02*
X194310000Y-66040000D01*
%TO.N,+5V*%
X171450000Y-59690000D02*
X173990000Y-59690000D01*
X173990000Y-59690000D02*
X179070000Y-64770000D01*
X179070000Y-64770000D02*
X204470000Y-64770000D01*
X204470000Y-52070000D02*
X213360000Y-52070000D01*
X170199999Y-58439999D02*
X162540001Y-58439999D01*
X171450000Y-59690000D02*
X170199999Y-58439999D01*
X160020000Y-60960000D02*
X160020000Y-64770000D01*
X162540001Y-58439999D02*
X160020000Y-60960000D01*
%TO.N,Net-(R1-Pad2)*%
X143510000Y-64770000D02*
X156010000Y-64770000D01*
X163830000Y-57150000D02*
X160020000Y-57150000D01*
%TO.N,IO4*%
X163830000Y-54610000D02*
X149860000Y-54610000D01*
X148590000Y-53340000D02*
X148590000Y-52070000D01*
X149860000Y-54610000D02*
X148590000Y-53340000D01*
%TD*%
M02*
